<svg viewBox="0 0 125 125" xmlns="http://www.w3.org/2000/svg" fill-rule="evenodd" clip-rule="evenodd" stroke-linejoin="round" stroke-miterlimit="2"><path d="M125 62.5c0 34.517-27.983 62.5-62.5 62.5C27.984 125 0 97.018 0 62.5 0 27.98 27.984 0 62.5 0 97.017 0 125 27.98 125 62.5" fill="#203b81" fill-rule="nonzero"/><path d="M81.352 94.717l-.483.562c-4.071-.283-9.046-.42-14.921-.42-5.733 0-11.767.137-18.108.42l-.484-.516v-2.854l.525-.467c1.484-.188 2.925-.346 4.321-.467 2.5-.22 4.1-.487 4.8-.796.492-.25.913-.829 1.263-1.733.554-1.467.833-7.392.833-17.78V59.014c0-3.492-.058-7.925-.175-13.288l-.088-3.512c0-1.559-.308-2.338-.92-2.338-.259 0-1.117.358-2.571 1.075-3.988 1.967-7.404 3.696-10.254 5.196l-.525-.33c-.175-1.778-.48-3.758-.917-5.94l.046-.376c8.029-2.433 17-5.692 26.92-9.779l.917.7c-.116 1.842-.275 4.57-.479 8.192-.087 1.37-.175 5.054-.262 11.041l-.13 18.392c0 13.163.2 20.23.609 21.196.291.717.725 1.154 1.312 1.308 1.046.313 3.78.596 8.2.846l.571.467v2.854z" fill="#fff" fill-rule="nonzero"/></svg>