<svg viewBox="0 0 125 125" xmlns="http://www.w3.org/2000/svg" fill-rule="evenodd" clip-rule="evenodd" stroke-linejoin="round" stroke-miterlimit="2"><path d="M125 62.505c0 34.517-27.983 62.5-62.5 62.5-34.516 0-62.5-27.983-62.5-62.5C0 27.988 27.984.005 62.5.005c34.517 0 62.5 27.983 62.5 62.5" fill="#203b81" fill-rule="nonzero"/><path d="M58.464 93.905l-.48.563c-4.074-.288-9.05-.425-14.924-.425-5.73 0-11.767.137-18.108.425l-.48-.517v-2.854l.525-.471c1.484-.187 2.921-.342 4.317-.462 2.5-.221 4.104-.488 4.8-.8.496-.246.917-.825 1.267-1.734.55-1.462.829-7.387.829-17.779v-11.65c0-3.496-.058-7.925-.175-13.292l-.088-3.512c0-1.559-.304-2.334-.916-2.334-.263 0-1.121.359-2.575 1.075-3.984 1.963-7.404 3.692-10.254 5.192l-.521-.325c-.175-1.779-.48-3.762-.917-5.942l.042-.375c8.029-2.433 17.004-5.695 26.925-9.783l.916.7c-.116 1.846-.279 4.575-.483 8.192-.087 1.37-.175 5.054-.262 11.046l-.13 18.387c0 13.167.205 20.23.613 21.2.287.713.725 1.154 1.308 1.309 1.046.312 3.78.595 8.204.841l.567.467v2.858zm34.991-26.062c0-12.2-.812-20.946-2.441-26.255-1.309-4.237-3.563-6.362-6.763-6.362-2.966 0-5.075 1.625-6.329 4.867-1.337 3.433-2.004 9.295-2.004 17.591 0 10.421.579 18.38 1.742 23.871.554 2.621 1.137 4.504 1.745 5.659 1.43 2.683 3.375 4.025 5.85 4.025 4.188 0 6.705-3.463 7.55-10.388.438-3.617.65-7.954.65-13.008m10.784-7.675c0 12.229-1.434 20.979-4.28 26.254-3.491 6.454-8.766 9.683-15.837 9.683-6.837 0-11.83-2.837-14.97-8.516-2.588-4.68-3.88-12.446-3.88-23.305 0-8.546.783-15.254 2.354-20.12 1.425-4.492 3.725-7.988 6.896-10.48 3.025-2.375 6.63-3.558 10.82-3.558 6.543 0 11.255 2.12 14.134 6.367 3.175 4.645 4.763 12.537 4.763 23.675" fill="#fff" fill-rule="nonzero"/></svg>