<svg viewBox="0 0 125 125" xmlns="http://www.w3.org/2000/svg" fill-rule="evenodd" clip-rule="evenodd" stroke-linejoin="round" stroke-miterlimit="2"><path d="M125 62.5c0 34.521-27.983 62.5-62.5 62.5C27.984 125 0 97.021 0 62.5 0 27.984 27.984 0 62.5 0 97.017 0 125 27.984 125 62.5" fill="#203b81" fill-rule="nonzero"/><path d="M82.396 83.651c-.35 3.65-.392 7.113-.13 10.388l-.52.654c-8.004-.342-14.546-.513-19.638-.513-5.325 0-11.637.155-18.937.467l-.567-.562v-4.259l8.9-9.733c6.663-7.267 11.013-12.788 13.046-16.563 1.192-2.216 2.038-4.233 2.533-6.062.492-1.82.742-3.763.742-5.825 0-7.454-3.187-11.183-9.558-11.183-3.55 0-6.371 1.45-8.463 4.354-.32 1.337-.887 3.679-1.704 7.016l-.48.471h-2.487l-.433-.47 1.613-15.63c3.666-3.929 8.77-5.896 15.316-5.896 5.846 0 10.354 1.638 13.525 4.913 2.938 2.996 4.409 6.975 4.409 11.933 0 2.03-.217 3.9-.655 5.617-.904 3.492-2.75 7.017-5.541 10.575-2.33 2.962-5.85 6.862-10.563 11.7-1.716 1.808-4.316 4.475-7.808 8l.087.608h7.721c2.242 0 4.367-.029 6.371-.091l7.55-.238a93.49 93.49 0 005.02-.28l.65.61z" fill="#fff" fill-rule="nonzero"/></svg>