<svg viewBox="0 0 125 125" xmlns="http://www.w3.org/2000/svg" fill-rule="evenodd" clip-rule="evenodd" stroke-linejoin="round" stroke-miterlimit="2"><path d="M125 62.502c0 34.517-27.983 62.5-62.5 62.5-34.516 0-62.5-27.983-62.5-62.5C0 27.986 27.984.002 62.5.002c34.517 0 62.5 27.984 62.5 62.5" fill="#203b81" fill-rule="nonzero"/><path d="M81.832 71.765c0 6.646-2.583 12.267-7.746 16.87-5.166 4.6-11.225 6.9-18.175 6.9-3.696 0-7.241-.858-10.646-2.574-.525-5.425-1.22-10.013-2.096-13.754l.263-.659 2.183-.7.521.234c2.884 7.891 7.492 11.837 13.834 11.837 3.287 0 5.925-1.146 7.92-3.437 1.992-2.296 2.988-5.434 2.988-9.43 0-3.962-1.092-7.02-3.275-9.17-2.063-2.059-4.842-3.088-8.333-3.088-1.6 0-3.33.28-5.192.842l-.525-.609a72.711 72.711 0 001.658-7.112h3.58c2.587 0 4.829-.992 6.72-2.971 1.892-1.983 2.838-4.346 2.838-7.092 0-2.587-.838-4.696-2.509-6.316-1.675-1.621-3.762-2.434-6.262-2.434-3.958 0-6.65 1.092-8.075 3.275-.667 1.03-1.308 2.513-1.917 4.446l-.479 1.546-.612.42-2.225-.187-.438-.608 1.53-7.63c.433-2.15.753-4.258.958-6.316 3.779-3.058 8.537-4.583 14.266-4.583 4.859 0 8.73 1.279 11.609 3.837 2.733 2.496 4.1 5.754 4.1 9.78 0 5.8-3.23 10.512-9.688 14.129 3.258 0 6.213 1.187 8.858 3.558 2.909 2.588 4.367 6.254 4.367 10.996" fill="#fff" fill-rule="nonzero"/></svg>