<svg viewBox="0 0 125 125" xmlns="http://www.w3.org/2000/svg" fill-rule="evenodd" clip-rule="evenodd" stroke-linejoin="round" stroke-miterlimit="2"><path d="M125 62.5c0 34.517-27.983 62.5-62.5 62.5C27.984 125 0 97.018 0 62.5 0 27.98 27.984 0 62.5 0 97.017 0 125 27.98 125 62.5" fill="#203b81" fill-rule="nonzero"/><path d="M64.508 38.426c-3.87 6.646-6.733 11.837-8.596 15.583-1.283 2.558-3.795 8.217-7.55 16.983H64.03l.48-32.566zm18.546 56.246l-.483.562c-4.217-.25-8.917-.375-14.092-.375-2.937 0-7.783.125-14.53.375l-.437-.517v-2.9l.48-.516 4.67-.371c2.325-.188 3.709-.533 4.142-1.03.583-.687.92-2.37 1.008-5.053l.171-6.134h-5.758l-8.73.096c-1.566 0-3.883.046-6.937.142l-.608-3.888c1.192-3.958 4.362-11.058 9.512-21.287 5.292-10.513 9.409-17.738 12.35-21.667l10.95-2.342.784.796c-.525 6.021-.784 15.834-.784 29.434v10.995h1.396c1.367 0 3.404-.075 6.109-.233l.525.517c-.088 3.058-.088 5.362 0 6.925l-.525.562c-.467-.033-1.209-.05-2.225-.05h-5.28c0 6.863.321 10.625.959 11.28.525.529 1.641.87 3.362 1.029 1.309.125 2.488.266 3.53.42l.441.421v2.809z" fill="#fff" fill-rule="nonzero"/></svg>