<svg viewBox="0 0 125 125" xmlns="http://www.w3.org/2000/svg" fill-rule="evenodd" clip-rule="evenodd" stroke-linejoin="round" stroke-miterlimit="2"><path d="M125 62.5c0 34.522-27.983 62.5-62.5 62.5C27.984 125 0 97.023 0 62.5 0 27.985 27.984 0 62.5 0 97.017 0 125 27.985 125 62.5" fill="#203b81" fill-rule="nonzero"/><path d="M81.722 70.668c0 6.737-2.429 12.495-7.287 17.266-4.975 4.93-11.083 7.392-18.325 7.392-3.117 0-6.458-.73-10.038-2.196-.175-1.78-1.104-6.146-2.791-13.104l.262-.654 2.092-.796.612.28c2.909 7.207 7.58 10.812 14.009 10.812 4.562 0 7.779-2.138 9.641-6.413.842-1.933 1.267-4.18 1.267-6.737 0-4.184-1.05-7.48-3.146-9.896-2.091-2.421-4.987-3.63-8.679-3.63-3.317 0-6.65 1.313-9.996 3.934l-1.7-1.033c.38-6.017.571-10.934.571-14.738v-6.458c0-4.617-.22-9.467-.658-14.554l.57-.467c7.038.346 12.955.517 17.759.517 3.108 0 7.533-.171 13.262-.517l.392.75c-.346 3.087-.52 5.317-.52 6.692 0 .779.04 1.854.128 3.229l-.437.608c-3.58-.187-7.867-.283-12.87-.283-6.022 0-10.33.125-12.918.375l-.35 15.3c4.25-2.15 8.192-3.225 11.825-3.225 5.325 0 9.542 1.587 12.655 4.77 3.112 3.184 4.67 7.442 4.67 12.776" fill="#fff" fill-rule="nonzero"/></svg>