<svg viewBox="0 0 125 125" xmlns="http://www.w3.org/2000/svg" fill-rule="evenodd" clip-rule="evenodd" stroke-linejoin="round" stroke-miterlimit="2"><path d="M125 62.504c0 34.516-27.983 62.5-62.5 62.5-34.516 0-62.5-27.984-62.5-62.5C0 27.987 27.984.004 62.5.004c34.517 0 62.5 27.983 62.5 62.5" fill="#203b81" fill-rule="nonzero"/><path d="M71.206 77.383c0-4.834-.841-8.55-2.529-11.138-1.546-2.433-3.65-3.65-6.325-3.65-3.467 0-5.762 1.609-6.896 4.817-.525 1.5-.787 3.575-.787 6.23 0 6.862 1.208 11.712 3.62 14.55 1.371 1.62 3.084 2.432 5.15 2.432 5.18 0 7.767-4.412 7.767-13.241m10.517-5.146c0 8.983-2.967 15.704-8.9 20.167-2.796 2.087-6.283 3.133-10.471 3.133-5.937 0-10.58-2.304-13.92-6.925-3.434-4.68-5.15-11.28-5.15-19.792 0-8.233 1.378-15.07 4.145-20.5 2.938-5.737 6.775-10.291 11.52-13.662 4.884-3.459 10.343-5.192 16.36-5.192l3.45 3.042-1.355 1.587a16.797 16.797 0 00-2.967-.275c-4.479 0-8.408 1.763-11.779 5.284-1.516 1.591-2.837 3.604-3.97 6.037-1.863 4.054-3.113 9.625-3.755 16.704 3.896-3.896 6.242-6.02 7.025-6.362 1.863-.842 4.03-1.263 6.5-1.263 3.754 0 6.85 1.5 9.296 4.496 2.646 3.242 3.97 7.75 3.97 13.52" fill="#fff" fill-rule="nonzero"/></svg>