<svg viewBox="0 0 125 125" xmlns="http://www.w3.org/2000/svg" fill-rule="evenodd" clip-rule="evenodd" stroke-linejoin="round" stroke-miterlimit="2"><path d="M125 62.502c0 34.517-27.983 62.5-62.5 62.5-34.516 0-62.5-27.983-62.5-62.5C0 27.985 27.984.002 62.5.002c34.517 0 62.5 27.983 62.5 62.5" fill="#203b81" fill-rule="nonzero"/><path d="M82.333 35.056c-6.75 13.2-12.246 24.925-16.492 35.188-3.841 9.3-6.854 17.208-9.033 23.729l-.7.517a36.148 36.148 0 00-4.321-.238c-1.542 0-3.225.08-5.058.238l-.438-1.034L65.1 58.69c1.537-2.809 2.733-5.105 3.575-6.88l4.145-8.658-.304-.842H61.475l-7.809.142c-2.529.03-4.133.17-4.8.42-.496.188-.896.655-1.2 1.405-.308.75-.75 3.696-1.333 8.846l-.48.512-2.704-.091-.479-.521c.175-3.458.259-6.78.259-9.963 0-3.683-.084-7.691-.259-12.025l.567-.516c6.954.341 13.746.516 20.375.516 8.642 0 14.72-.079 18.242-.233l.479.42v3.834z" fill="#fff" fill-rule="nonzero"/></svg>