<svg viewBox="0 0 125 125" xmlns="http://www.w3.org/2000/svg" fill-rule="evenodd" clip-rule="evenodd" stroke-linejoin="round" stroke-miterlimit="2"><path d="M125 62.501c0 34.517-27.983 62.5-62.5 62.5-34.516 0-62.5-27.983-62.5-62.5C0 27.985 27.984.001 62.5.001c34.517 0 62.5 27.984 62.5 62.5" fill="#203b81" fill-rule="nonzero"/><path d="M71.729 44.793c0-3.054-.854-5.512-2.554-7.37-1.7-1.855-4.009-2.784-6.913-2.784-2.62 0-4.7.87-6.242 2.62-1.425 1.622-2.137 3.634-2.137 6.038 0 2.371.929 4.525 2.792 6.454.987 1.03 2.441 2.046 4.362 3.046.67.375 1.688.904 3.054 1.588l2.359 1.079c3.516-2.433 5.279-5.992 5.279-10.67m.304 34.295c0-4.492-1.875-7.87-5.63-10.15a64.454 64.454 0 00-7.853-4.075l-1.175-.513c-4.134 3.405-6.2 7.659-6.2 12.78 0 2.962.508 5.362 1.529 7.2 2.27 4.12 5.47 6.179 9.6 6.179 2.879 0 5.22-1.067 7.025-3.204 1.8-2.138 2.704-4.875 2.704-8.217m9.733-5.38c0 3.65-.612 6.88-1.833 9.688-2.33 5.338-6.113 8.984-11.346 10.954-2.154.809-4.77 1.213-7.854 1.213-6.575 0-11.621-2.65-15.142-7.954-1.57-2.371-2.354-5.492-2.354-9.359 0-4.712 1.408-8.545 4.23-11.512.933-.967 2.983-2.37 6.153-4.208-5.85-3.53-8.77-8.505-8.77-14.93 0-7.266 3.083-12.587 9.25-15.954 2.675-1.47 5.716-2.204 9.12-2.204 5.005 0 8.942 1.346 11.825 4.025 2.734 2.558 4.1 5.896 4.1 10.017 0 5.579-2.779 10.137-8.333 13.662 4.07 1.838 6.95 4.117 8.642 6.83 1.537 2.466 2.312 5.712 2.312 9.733" fill="#fff" fill-rule="nonzero"/></svg>