<svg viewBox="0 0 125 125" xmlns="http://www.w3.org/2000/svg" fill-rule="evenodd" clip-rule="evenodd" stroke-linejoin="round" stroke-miterlimit="2"><path d="M125 62.5c0 34.517-27.983 62.5-62.5 62.5C27.984 125 0 97.017 0 62.5 0 27.983 27.984 0 62.5 0 97.017 0 125 27.983 125 62.5" fill="#203b81" fill-rule="nonzero"/><path d="M70.333 51.362c0-5.77-.783-10.045-2.354-12.82-1.57-2.775-3.712-4.163-6.417-4.163-3.345 0-5.616 1.95-6.808 5.846-.637 2.092-.958 4.554-.958 7.396 0 4.833.829 8.546 2.487 11.133 1.571 2.433 3.692 3.65 6.371 3.65 3.43 0 5.73-1.633 6.896-4.912.52-1.5.783-3.542.783-6.13m11.388 4.817c0 8.271-1.384 15.117-4.146 20.546-2.908 5.708-6.763 10.25-11.563 13.617-4.945 3.462-10.37 5.195-16.275 5.195l-3.45-3.045 1.05-1.821c.871.341 1.95.512 3.23.512 4.537 0 8.508-1.808 11.912-5.429 1.367-1.433 2.633-3.37 3.796-5.804 1.862-3.833 3.142-9.433 3.842-16.796-4.338 4.271-6.75 6.442-7.246 6.504-1.917.746-3.988 1.121-6.196 1.121-3.87 0-7.025-1.525-9.467-4.579-2.62-3.283-3.929-7.758-3.929-13.433 0-9.113 2.983-15.85 8.946-20.217 2.82-2.058 6.3-3.088 10.43-3.088 7.795 0 13.337 3.884 16.62 11.655 1.633 3.833 2.446 8.858 2.446 15.062" fill="#fff" fill-rule="nonzero"/></svg>