<?xml version="1.0" encoding="UTF-8" standalone="no"?>
<!DOCTYPE svg PUBLIC "-//W3C//DTD SVG 1.1//EN" "http://www.w3.org/Graphics/SVG/1.1/DTD/svg11.dtd">
<svg width="100%" height="100%" viewBox="0 0 125 125" version="1.1" xmlns="http://www.w3.org/2000/svg" xmlns:xlink="http://www.w3.org/1999/xlink" xml:space="preserve" xmlns:serif="http://www.serif.com/" style="fill-rule:evenodd;clip-rule:evenodd;stroke-linejoin:round;stroke-miterlimit:2;">
    <g transform="matrix(1,0,0,1,-164.334,-130.93)">
        <g transform="matrix(4.16667,0,0,4.16667,0,0)">
            <g transform="matrix(0,-1,-1,0,54.4402,31.4233)">
                <path d="M-15,-15C-23.284,-15 -30,-8.284 -30,0C-30,8.284 -23.284,15 -15,15C-6.715,15 0,8.284 0,0C0,-8.284 -6.715,-15 -15,-15" style="fill:rgb(32,59,129);fill-rule:nonzero;"/>
            </g>
        </g>
        <g transform="matrix(4.16667,0,0,4.16667,0,0)">
            <g transform="matrix(1,0,0,1,58.9646,38.6912)">
                <path d="M0,15.464L-0.116,15.599C-1.093,15.531 -2.287,15.498 -3.697,15.498C-5.073,15.498 -6.521,15.531 -8.043,15.599L-8.159,15.475L-8.159,14.79L-8.033,14.678C-7.677,14.633 -7.331,14.595 -6.996,14.566C-6.396,14.513 -6.012,14.449 -5.844,14.375C-5.726,14.315 -5.625,14.176 -5.541,13.959C-5.408,13.607 -5.341,12.185 -5.341,9.692L-5.341,6.895C-5.341,6.057 -5.355,4.993 -5.383,3.706L-5.404,2.863C-5.404,2.489 -5.478,2.302 -5.625,2.302C-5.687,2.302 -5.893,2.388 -6.242,2.56C-7.199,3.032 -8.019,3.447 -8.703,3.807L-8.829,3.728C-8.871,3.301 -8.944,2.826 -9.049,2.302L-9.038,2.212C-7.111,1.628 -4.958,0.846 -2.577,-0.135L-2.357,0.033C-2.385,0.475 -2.423,1.13 -2.472,1.999C-2.493,2.328 -2.514,3.212 -2.535,4.649L-2.566,9.063C-2.566,12.222 -2.518,13.918 -2.42,14.15C-2.35,14.322 -2.246,14.427 -2.105,14.464C-1.854,14.539 -1.198,14.607 -0.137,14.667L0,14.779L0,15.464Z" style="fill:white;fill-rule:nonzero;"/>
            </g>
        </g>
    </g>
</svg>
