<?xml version="1.0" encoding="UTF-8" standalone="no"?>
<!DOCTYPE svg PUBLIC "-//W3C//DTD SVG 1.1//EN" "http://www.w3.org/Graphics/SVG/1.1/DTD/svg11.dtd">
<svg width="100%" height="100%" viewBox="0 0 125 125" version="1.1" xmlns="http://www.w3.org/2000/svg" xmlns:xlink="http://www.w3.org/1999/xlink" xml:space="preserve" xmlns:serif="http://www.serif.com/" style="fill-rule:evenodd;clip-rule:evenodd;stroke-linejoin:round;stroke-miterlimit:2;">
    <g transform="matrix(1,0,0,1,-164.334,-2211.13)">
        <g transform="matrix(4.16667,0,0,4.16667,0,0)">
            <g transform="matrix(0,-1,-1,0,54.4402,530.672)">
                <path d="M-15,-15C-23.284,-15 -30,-8.284 -30,0C-30,8.284 -23.284,15 -15,15C-6.716,15 0,8.284 0,0C0,-8.284 -6.716,-15 -15,-15" style="fill:rgb(32,59,129);fill-rule:nonzero;"/>
            </g>
        </g>
        <g transform="matrix(4.16667,0,0,4.16667,0,0)">
            <g transform="matrix(1,0,0,1,53.4715,537.743)">
                <path d="M0,15.465L-0.115,15.6C-1.093,15.531 -2.287,15.498 -3.697,15.498C-5.072,15.498 -6.521,15.531 -8.043,15.6L-8.158,15.476L-8.158,14.791L-8.032,14.678C-7.676,14.633 -7.331,14.596 -6.996,14.567C-6.396,14.514 -6.011,14.45 -5.844,14.375C-5.725,14.316 -5.624,14.177 -5.54,13.959C-5.408,13.608 -5.341,12.186 -5.341,9.692L-5.341,6.896C-5.341,6.057 -5.355,4.994 -5.383,3.706L-5.404,2.863C-5.404,2.489 -5.477,2.303 -5.624,2.303C-5.687,2.303 -5.893,2.389 -6.242,2.561C-7.198,3.032 -8.019,3.447 -8.703,3.807L-8.828,3.729C-8.87,3.302 -8.943,2.826 -9.048,2.303L-9.038,2.213C-7.111,1.629 -4.957,0.846 -2.576,-0.135L-2.356,0.033C-2.384,0.476 -2.423,1.131 -2.472,1.999C-2.493,2.328 -2.514,3.212 -2.535,4.65L-2.566,9.063C-2.566,12.223 -2.517,13.918 -2.419,14.151C-2.35,14.322 -2.245,14.428 -2.105,14.465C-1.854,14.54 -1.198,14.608 -0.136,14.667L0,14.779L0,15.465Z" style="fill:white;fill-rule:nonzero;"/>
            </g>
        </g>
        <g transform="matrix(4.16667,0,0,4.16667,0,0)">
            <g transform="matrix(1,0,0,1,61.8694,544.684)">
                <path d="M0,2.269C0,-0.659 -0.195,-2.758 -0.586,-4.032C-0.9,-5.049 -1.441,-5.559 -2.209,-5.559C-2.921,-5.559 -3.427,-5.169 -3.728,-4.391C-4.049,-3.567 -4.209,-2.16 -4.209,-0.169C-4.209,2.332 -4.07,4.242 -3.791,5.56C-3.658,6.189 -3.518,6.641 -3.372,6.918C-3.029,7.562 -2.562,7.884 -1.968,7.884C-0.963,7.884 -0.359,7.053 -0.156,5.391C-0.051,4.523 0,3.482 0,2.269M2.588,0.427C2.588,3.362 2.244,5.462 1.561,6.728C0.723,8.277 -0.543,9.052 -2.24,9.052C-3.881,9.052 -5.079,8.371 -5.833,7.008C-6.454,5.885 -6.764,4.021 -6.764,1.415C-6.764,-0.636 -6.576,-2.246 -6.199,-3.414C-5.857,-4.492 -5.305,-5.331 -4.544,-5.929C-3.818,-6.499 -2.953,-6.783 -1.947,-6.783C-0.377,-6.783 0.754,-6.274 1.445,-5.255C2.207,-4.14 2.588,-2.246 2.588,0.427" style="fill:white;fill-rule:nonzero;"/>
            </g>
        </g>
    </g>
</svg>
