<?xml version="1.0" encoding="UTF-8" standalone="no"?>
<!DOCTYPE svg PUBLIC "-//W3C//DTD SVG 1.1//EN" "http://www.w3.org/Graphics/SVG/1.1/DTD/svg11.dtd">
<svg width="100%" height="100%" viewBox="0 0 125 125" version="1.1" xmlns="http://www.w3.org/2000/svg" xmlns:xlink="http://www.w3.org/1999/xlink" xml:space="preserve" xmlns:serif="http://www.serif.com/" style="fill-rule:evenodd;clip-rule:evenodd;stroke-linejoin:round;stroke-miterlimit:2;">
    <g transform="matrix(1,0,0,1,-163.406,-352.687)">
        <g transform="matrix(4.16667,0,0,4.16667,0,0)">
            <g transform="matrix(0,-1,-1,0,54.2175,84.6449)">
                <path d="M-15,-15C-23.285,-15 -30,-8.284 -30,0C-30,8.284 -23.285,15 -15,15C-6.716,15 0,8.284 0,0C0,-8.284 -6.716,-15 -15,-15" style="fill:rgb(32,59,129);fill-rule:nonzero;"/>
            </g>
        </g>
        <g transform="matrix(4.16667,0,0,4.16667,0,0)">
            <g transform="matrix(1,0,0,1,58.9924,94.5681)">
                <path d="M0,10.153C-0.084,11.029 -0.094,11.86 -0.031,12.646L-0.156,12.803C-2.077,12.721 -3.647,12.68 -4.869,12.68C-6.147,12.68 -7.662,12.717 -9.414,12.792L-9.55,12.657L-9.55,11.635L-7.414,9.299C-5.815,7.555 -4.771,6.23 -4.283,5.324C-3.997,4.792 -3.794,4.308 -3.675,3.869C-3.557,3.432 -3.497,2.966 -3.497,2.471C-3.497,0.682 -4.262,-0.213 -5.791,-0.213C-6.643,-0.213 -7.32,0.135 -7.822,0.832C-7.899,1.153 -8.035,1.715 -8.231,2.516L-8.346,2.629L-8.943,2.629L-9.047,2.516L-8.66,-1.235C-7.78,-2.178 -6.555,-2.65 -4.984,-2.65C-3.581,-2.65 -2.499,-2.257 -1.738,-1.471C-1.033,-0.752 -0.68,0.203 -0.68,1.393C-0.68,1.88 -0.732,2.329 -0.837,2.741C-1.054,3.579 -1.497,4.425 -2.167,5.279C-2.726,5.99 -3.571,6.926 -4.702,8.087C-5.114,8.521 -5.738,9.161 -6.576,10.007L-6.555,10.153L-4.702,10.153C-4.164,10.153 -3.654,10.146 -3.173,10.131L-1.361,10.074C-0.9,10.059 -0.499,10.037 -0.156,10.007L0,10.153Z" style="fill:white;fill-rule:nonzero;"/>
            </g>
        </g>
    </g>
</svg>
