<?xml version="1.0" encoding="UTF-8" standalone="no"?>
<!DOCTYPE svg PUBLIC "-//W3C//DTD SVG 1.1//EN" "http://www.w3.org/Graphics/SVG/1.1/DTD/svg11.dtd">
<svg width="100%" height="100%" viewBox="0 0 125 125" version="1.1" xmlns="http://www.w3.org/2000/svg" xmlns:xlink="http://www.w3.org/1999/xlink" xml:space="preserve" xmlns:serif="http://www.serif.com/" style="fill-rule:evenodd;clip-rule:evenodd;stroke-linejoin:round;stroke-miterlimit:2;">
    <g transform="matrix(1,0,0,1,-164.334,-572.819)">
        <g transform="matrix(4.16667,0,0,4.16667,0,0)">
            <g transform="matrix(0,-1,-1,0,54.4402,137.477)">
                <path d="M-15,-15C-23.284,-15 -30,-8.284 -30,0C-30,8.284 -23.284,15 -15,15C-6.716,15 0,8.284 0,0C0,-8.284 -6.716,-15 -15,-15" style="fill:rgb(32,59,129);fill-rule:nonzero;"/>
            </g>
        </g>
        <g transform="matrix(4.16667,0,0,4.16667,0,0)">
            <g transform="matrix(1,0,0,1,59.0798,150.253)">
                <path d="M0,4.447C0,6.042 -0.62,7.391 -1.859,8.496C-3.099,9.6 -4.553,10.152 -6.221,10.152C-7.108,10.152 -7.959,9.946 -8.776,9.534C-8.902,8.232 -9.069,7.131 -9.279,6.233L-9.216,6.075L-8.692,5.907L-8.567,5.963C-7.875,7.857 -6.769,8.804 -5.247,8.804C-4.458,8.804 -3.825,8.529 -3.346,7.979C-2.868,7.428 -2.629,6.675 -2.629,5.716C-2.629,4.765 -2.891,4.031 -3.415,3.515C-3.91,3.021 -4.577,2.774 -5.415,2.774C-5.799,2.774 -6.214,2.841 -6.661,2.976L-6.787,2.83C-6.633,2.298 -6.5,1.729 -6.389,1.123L-5.53,1.123C-4.909,1.123 -4.371,0.885 -3.917,0.41C-3.463,-0.066 -3.236,-0.633 -3.236,-1.292C-3.236,-1.913 -3.437,-2.419 -3.838,-2.808C-4.24,-3.197 -4.741,-3.392 -5.341,-3.392C-6.291,-3.392 -6.937,-3.13 -7.279,-2.606C-7.439,-2.359 -7.593,-2.003 -7.739,-1.539L-7.854,-1.168L-8.001,-1.067L-8.535,-1.112L-8.64,-1.258L-8.273,-3.089C-8.169,-3.605 -8.092,-4.111 -8.043,-4.605C-7.136,-5.339 -5.994,-5.705 -4.619,-5.705C-3.453,-5.705 -2.524,-5.398 -1.833,-4.784C-1.177,-4.185 -0.849,-3.403 -0.849,-2.437C-0.849,-1.045 -1.624,0.086 -3.174,0.954C-2.392,0.954 -1.683,1.239 -1.048,1.808C-0.35,2.429 0,3.309 0,4.447" style="fill:white;fill-rule:nonzero;"/>
            </g>
        </g>
    </g>
</svg>
