<?xml version="1.0" encoding="UTF-8" standalone="no"?>
<!DOCTYPE svg PUBLIC "-//W3C//DTD SVG 1.1//EN" "http://www.w3.org/Graphics/SVG/1.1/DTD/svg11.dtd">
<svg width="100%" height="100%" viewBox="0 0 125 125" version="1.1" xmlns="http://www.w3.org/2000/svg" xmlns:xlink="http://www.w3.org/1999/xlink" xml:space="preserve" xmlns:serif="http://www.serif.com/" style="fill-rule:evenodd;clip-rule:evenodd;stroke-linejoin:round;stroke-miterlimit:2;">
    <g transform="matrix(1,0,0,1,-164.334,-818.275)">
        <g transform="matrix(4.16667,0,0,4.16667,0,0)">
            <g transform="matrix(0,-1,-1,0,54.4402,196.386)">
                <path d="M-15,-15C-23.284,-15 -30,-8.284 -30,0C-30,8.284 -23.284,15 -15,15C-6.715,15 0,8.284 0,0C0,-8.284 -6.715,-15 -15,-15" style="fill:rgb(32,59,129);fill-rule:nonzero;"/>
            </g>
        </g>
        <g transform="matrix(4.16667,0,0,4.16667,0,0)">
            <g transform="matrix(1,0,0,1,54.9221,217.164)">
                <path d="M0,-11.556C-0.929,-9.961 -1.616,-8.715 -2.063,-7.816C-2.371,-7.202 -2.974,-5.844 -3.875,-3.74L-0.115,-3.74L0,-11.556ZM4.451,1.943L4.335,2.078C3.323,2.018 2.195,1.988 0.953,1.988C0.248,1.988 -0.915,2.018 -2.534,2.078L-2.639,1.954L-2.639,1.258L-2.524,1.134L-1.403,1.045C-0.845,1 -0.513,0.917 -0.409,0.798C-0.269,0.633 -0.188,0.229 -0.167,-0.415L-0.126,-1.887L-1.508,-1.887L-3.603,-1.864C-3.979,-1.864 -4.535,-1.853 -5.268,-1.83L-5.414,-2.763C-5.128,-3.713 -4.367,-5.417 -3.131,-7.872C-1.861,-10.395 -0.873,-12.129 -0.167,-13.072L2.461,-13.634L2.649,-13.443C2.523,-11.998 2.461,-9.643 2.461,-6.379L2.461,-3.74L2.796,-3.74C3.124,-3.74 3.613,-3.758 4.262,-3.796L4.388,-3.672C4.367,-2.938 4.367,-2.385 4.388,-2.01L4.262,-1.875C4.15,-1.883 3.972,-1.887 3.728,-1.887L2.461,-1.887C2.461,-0.24 2.538,0.663 2.691,0.82C2.817,0.947 3.085,1.029 3.498,1.067C3.812,1.097 4.095,1.131 4.345,1.168L4.451,1.269L4.451,1.943Z" style="fill:white;fill-rule:nonzero;"/>
            </g>
        </g>
    </g>
</svg>
