<?xml version="1.0" encoding="UTF-8" standalone="no"?>
<!DOCTYPE svg PUBLIC "-//W3C//DTD SVG 1.1//EN" "http://www.w3.org/Graphics/SVG/1.1/DTD/svg11.dtd">
<svg width="100%" height="100%" viewBox="0 0 125 125" version="1.1" xmlns="http://www.w3.org/2000/svg" xmlns:xlink="http://www.w3.org/1999/xlink" xml:space="preserve" xmlns:serif="http://www.serif.com/" style="fill-rule:evenodd;clip-rule:evenodd;stroke-linejoin:round;stroke-miterlimit:2;">
    <g transform="matrix(1,0,0,1,-164.334,-1046.5)">
        <g transform="matrix(4.16667,0,0,4.16667,0,0)">
            <g transform="matrix(0,-1,-1,0,54.4402,251.16)">
                <path d="M-15,-15C-23.285,-15 -30,-8.284 -30,0C-30,8.284 -23.285,15 -15,15C-6.716,15 0,8.284 0,0C0,-8.284 -6.716,-15 -15,-15" style="fill:rgb(32,59,129);fill-rule:nonzero;"/>
            </g>
        </g>
        <g transform="matrix(4.16667,0,0,4.16667,0,0)">
            <g transform="matrix(1,0,0,1,59.0535,264.2)">
                <path d="M0,3.92C0,5.537 -0.583,6.919 -1.749,8.064C-2.943,9.247 -4.409,9.838 -6.147,9.838C-6.895,9.838 -7.697,9.663 -8.556,9.311C-8.598,8.884 -8.821,7.836 -9.226,6.166L-9.163,6.009L-8.661,5.818L-8.514,5.885C-7.816,7.615 -6.695,8.48 -5.152,8.48C-4.057,8.48 -3.285,7.967 -2.838,6.941C-2.636,6.477 -2.534,5.938 -2.534,5.324C-2.534,4.32 -2.786,3.529 -3.289,2.949C-3.791,2.368 -4.486,2.078 -5.372,2.078C-6.168,2.078 -6.968,2.393 -7.771,3.022L-8.179,2.774C-8.088,1.33 -8.042,0.15 -8.042,-0.763L-8.042,-2.313C-8.042,-3.421 -8.095,-4.585 -8.2,-5.806L-8.063,-5.918C-6.374,-5.835 -4.954,-5.794 -3.801,-5.794C-3.055,-5.794 -1.993,-5.835 -0.618,-5.918L-0.524,-5.738C-0.607,-4.997 -0.649,-4.462 -0.649,-4.132C-0.649,-3.945 -0.639,-3.687 -0.618,-3.357L-0.723,-3.211C-1.582,-3.256 -2.611,-3.279 -3.812,-3.279C-5.257,-3.279 -6.291,-3.249 -6.912,-3.189L-6.996,0.483C-5.976,-0.033 -5.03,-0.291 -4.158,-0.291C-2.88,-0.291 -1.868,0.09 -1.121,0.854C-0.374,1.618 0,2.64 0,3.92" style="fill:white;fill-rule:nonzero;"/>
            </g>
        </g>
    </g>
</svg>
