<?xml version="1.0" encoding="UTF-8" standalone="no"?>
<!DOCTYPE svg PUBLIC "-//W3C//DTD SVG 1.1//EN" "http://www.w3.org/Graphics/SVG/1.1/DTD/svg11.dtd">
<svg width="100%" height="100%" viewBox="0 0 125 125" version="1.1" xmlns="http://www.w3.org/2000/svg" xmlns:xlink="http://www.w3.org/1999/xlink" xml:space="preserve" xmlns:serif="http://www.serif.com/" style="fill-rule:evenodd;clip-rule:evenodd;stroke-linejoin:round;stroke-miterlimit:2;">
    <g transform="matrix(1,0,0,1,-164.334,-1295.56)">
        <g transform="matrix(4.16667,0,0,4.16667,0,0)">
            <g transform="matrix(0,-1,-1,0,54.4402,310.935)">
                <path d="M-15,-15C-23.284,-15 -30,-8.284 -30,0C-30,8.284 -23.284,15 -15,15C-6.716,15 0,8.284 0,0C0,-8.284 -6.716,-15 -15,-15" style="fill:rgb(32,59,129);fill-rule:nonzero;"/>
            </g>
        </g>
        <g transform="matrix(4.16667,0,0,4.16667,0,0)">
            <g transform="matrix(1,0,0,1,56.5296,322.363)">
                <path d="M0,7.143C0,5.983 -0.202,5.091 -0.607,4.47C-0.978,3.886 -1.483,3.594 -2.125,3.594C-2.957,3.594 -3.508,3.98 -3.78,4.75C-3.906,5.11 -3.969,5.608 -3.969,6.245C-3.969,7.892 -3.679,9.056 -3.1,9.737C-2.771,10.126 -2.36,10.321 -1.864,10.321C-0.621,10.321 0,9.262 0,7.143M2.524,5.908C2.524,8.064 1.812,9.677 0.388,10.748C-0.283,11.249 -1.12,11.5 -2.125,11.5C-3.55,11.5 -4.664,10.947 -5.466,9.838C-6.29,8.715 -6.702,7.131 -6.702,5.088C-6.702,3.112 -6.371,1.471 -5.707,0.168C-5.002,-1.209 -4.081,-2.302 -2.942,-3.111C-1.77,-3.941 -0.46,-4.357 0.984,-4.357L1.812,-3.627L1.487,-3.246C1.236,-3.291 0.999,-3.312 0.775,-3.312C-0.3,-3.312 -1.243,-2.889 -2.052,-2.044C-2.416,-1.662 -2.733,-1.179 -3.005,-0.595C-3.452,0.378 -3.752,1.715 -3.906,3.414C-2.971,2.479 -2.408,1.969 -2.22,1.887C-1.773,1.685 -1.253,1.584 -0.66,1.584C0.241,1.584 0.984,1.944 1.571,2.663C2.206,3.441 2.524,4.523 2.524,5.908" style="fill:white;fill-rule:nonzero;"/>
            </g>
        </g>
    </g>
</svg>
