<?xml version="1.0" encoding="UTF-8" standalone="no"?>
<!DOCTYPE svg PUBLIC "-//W3C//DTD SVG 1.1//EN" "http://www.w3.org/Graphics/SVG/1.1/DTD/svg11.dtd">
<svg width="100%" height="100%" viewBox="0 0 125 125" version="1.1" xmlns="http://www.w3.org/2000/svg" xmlns:xlink="http://www.w3.org/1999/xlink" xml:space="preserve" xmlns:serif="http://www.serif.com/" style="fill-rule:evenodd;clip-rule:evenodd;stroke-linejoin:round;stroke-miterlimit:2;">
    <g transform="matrix(1,0,0,1,-164.334,-1517.32)">
        <g transform="matrix(4.16667,0,0,4.16667,0,0)">
            <g transform="matrix(0,-1,-1,0,54.4402,364.157)">
                <path d="M-15,-15C-23.284,-15 -30,-8.284 -30,0C-30,8.284 -23.284,15 -15,15C-6.716,15 0,8.284 0,0C0,-8.284 -6.716,-15 -15,-15" style="fill:rgb(32,59,129);fill-rule:nonzero;"/>
            </g>
        </g>
        <g transform="matrix(4.16667,0,0,4.16667,0,0)">
            <g transform="matrix(1,0,0,1,59.2,385.745)">
                <path d="M0,-13.175C-1.62,-10.007 -2.939,-7.193 -3.958,-4.73C-4.88,-2.498 -5.603,-0.6 -6.126,0.965L-6.294,1.089C-6.608,1.051 -6.954,1.032 -7.331,1.032C-7.701,1.032 -8.105,1.051 -8.545,1.089L-8.65,0.841L-4.136,-7.503C-3.767,-8.177 -3.48,-8.728 -3.278,-9.154L-2.283,-11.232L-2.356,-11.434L-5.006,-11.434L-6.88,-11.4C-7.487,-11.393 -7.872,-11.359 -8.032,-11.299C-8.151,-11.254 -8.247,-11.142 -8.32,-10.962C-8.394,-10.782 -8.5,-10.075 -8.64,-8.839L-8.755,-8.716L-9.404,-8.738L-9.519,-8.863C-9.477,-9.693 -9.457,-10.49 -9.457,-11.254C-9.457,-12.138 -9.477,-13.1 -9.519,-14.14L-9.383,-14.264C-7.714,-14.182 -6.084,-14.14 -4.493,-14.14C-2.419,-14.14 -0.96,-14.159 -0.115,-14.196L0,-14.095L0,-13.175Z" style="fill:white;fill-rule:nonzero;"/>
            </g>
        </g>
    </g>
</svg>
