<?xml version="1.0" encoding="UTF-8" standalone="no"?>
<!DOCTYPE svg PUBLIC "-//W3C//DTD SVG 1.1//EN" "http://www.w3.org/Graphics/SVG/1.1/DTD/svg11.dtd">
<svg width="100%" height="100%" viewBox="0 0 125 125" version="1.1" xmlns="http://www.w3.org/2000/svg" xmlns:xlink="http://www.w3.org/1999/xlink" xml:space="preserve" xmlns:serif="http://www.serif.com/" style="fill-rule:evenodd;clip-rule:evenodd;stroke-linejoin:round;stroke-miterlimit:2;">
    <g transform="matrix(1,0,0,1,-164.334,-1737.45)">
        <g transform="matrix(4.16667,0,0,4.16667,0,0)">
            <g transform="matrix(0,-1,-1,0,54.4402,416.988)">
                <path d="M-15,-15C-23.284,-15 -30,-8.284 -30,0C-30,8.284 -23.284,15 -15,15C-6.716,15 0,8.284 0,0C0,-8.284 -6.716,-15 -15,-15" style="fill:rgb(32,59,129);fill-rule:nonzero;"/>
            </g>
        </g>
        <g transform="matrix(4.16667,0,0,4.16667,0,0)">
            <g transform="matrix(1,0,0,1,56.655,436.239)">
                <path d="M0,-8.501C0,-9.234 -0.205,-9.824 -0.613,-10.27C-1.021,-10.715 -1.575,-10.938 -2.272,-10.938C-2.901,-10.938 -3.4,-10.729 -3.77,-10.309C-4.112,-9.92 -4.283,-9.437 -4.283,-8.86C-4.283,-8.291 -4.06,-7.774 -3.613,-7.311C-3.376,-7.064 -3.027,-6.82 -2.566,-6.58C-2.405,-6.49 -2.161,-6.363 -1.833,-6.199L-1.267,-5.94C-0.423,-6.524 0,-7.378 0,-8.501M0.073,-0.27C0.073,-1.348 -0.377,-2.159 -1.278,-2.706C-1.864,-3.065 -2.493,-3.391 -3.163,-3.684L-3.445,-3.807C-4.437,-2.99 -4.933,-1.969 -4.933,-0.74C-4.933,-0.029 -4.811,0.547 -4.566,0.988C-4.021,1.977 -3.253,2.471 -2.262,2.471C-1.571,2.471 -1.009,2.215 -0.576,1.702C-0.144,1.189 0.073,0.532 0.073,-0.27M2.409,-1.561C2.409,-0.685 2.262,0.09 1.969,0.764C1.41,2.045 0.502,2.92 -0.754,3.393C-1.271,3.587 -1.899,3.684 -2.639,3.684C-4.217,3.684 -5.428,3.048 -6.273,1.775C-6.65,1.206 -6.838,0.457 -6.838,-0.471C-6.838,-1.602 -6.5,-2.522 -5.823,-3.234C-5.599,-3.466 -5.107,-3.803 -4.346,-4.244C-5.75,-5.091 -6.451,-6.285 -6.451,-7.827C-6.451,-9.571 -5.711,-10.848 -4.231,-11.656C-3.589,-12.009 -2.859,-12.185 -2.042,-12.185C-0.841,-12.185 0.104,-11.862 0.796,-11.219C1.452,-10.605 1.78,-9.804 1.78,-8.815C1.78,-7.476 1.113,-6.382 -0.22,-5.536C0.757,-5.095 1.448,-4.548 1.854,-3.897C2.223,-3.305 2.409,-2.526 2.409,-1.561" style="fill:white;fill-rule:nonzero;"/>
            </g>
        </g>
    </g>
</svg>
