<?xml version="1.0" encoding="UTF-8" standalone="no"?>
<!DOCTYPE svg PUBLIC "-//W3C//DTD SVG 1.1//EN" "http://www.w3.org/Graphics/SVG/1.1/DTD/svg11.dtd">
<svg width="100%" height="100%" viewBox="0 0 125 125" version="1.1" xmlns="http://www.w3.org/2000/svg" xmlns:xlink="http://www.w3.org/1999/xlink" xml:space="preserve" xmlns:serif="http://www.serif.com/" style="fill-rule:evenodd;clip-rule:evenodd;stroke-linejoin:round;stroke-miterlimit:2;">
    <g transform="matrix(1,0,0,1,-164.334,-1982.91)">
        <g transform="matrix(4.16667,0,0,4.16667,0,0)">
            <g transform="matrix(0,-1,-1,0,54.4402,475.898)">
                <path d="M-15,-15C-23.284,-15 -30,-8.284 -30,0C-30,8.284 -23.284,15 -15,15C-6.716,15 0,8.284 0,0C0,-8.284 -6.716,-15 -15,-15" style="fill:rgb(32,59,129);fill-rule:nonzero;"/>
            </g>
        </g>
        <g transform="matrix(4.16667,0,0,4.16667,0,0)">
            <g transform="matrix(1,0,0,1,56.3201,493.571)">
                <path d="M0,-5.346C0,-6.731 -0.188,-7.757 -0.565,-8.423C-0.942,-9.089 -1.456,-9.422 -2.105,-9.422C-2.908,-9.422 -3.453,-8.954 -3.739,-8.019C-3.892,-7.517 -3.969,-6.926 -3.969,-6.244C-3.969,-5.084 -3.77,-4.193 -3.372,-3.572C-2.995,-2.988 -2.486,-2.696 -1.843,-2.696C-1.02,-2.696 -0.468,-3.088 -0.188,-3.875C-0.063,-4.235 0,-4.725 0,-5.346M2.733,-4.19C2.733,-2.205 2.401,-0.562 1.738,0.741C1.04,2.111 0.115,3.201 -1.037,4.009C-2.224,4.84 -3.526,5.256 -4.943,5.256L-5.771,4.525L-5.519,4.088C-5.31,4.17 -5.051,4.211 -4.744,4.211C-3.655,4.211 -2.702,3.777 -1.885,2.908C-1.557,2.564 -1.253,2.099 -0.974,1.515C-0.527,0.595 -0.22,-0.749 -0.052,-2.516C-1.093,-1.491 -1.672,-0.97 -1.791,-0.955C-2.251,-0.776 -2.748,-0.686 -3.278,-0.686C-4.207,-0.686 -4.964,-1.052 -5.55,-1.785C-6.179,-2.573 -6.493,-3.647 -6.493,-5.009C-6.493,-7.196 -5.777,-8.813 -4.346,-9.861C-3.669,-10.355 -2.834,-10.602 -1.843,-10.602C0.028,-10.602 1.358,-9.67 2.146,-7.805C2.538,-6.885 2.733,-5.679 2.733,-4.19" style="fill:white;fill-rule:nonzero;"/>
            </g>
        </g>
    </g>
</svg>
