<svg xmlns="http://www.w3.org/2000/svg" xmlns:xlink="http://www.w3.org/1999/xlink" viewBox="0 0 504 294.87"><defs><linearGradient id="linear-gradient" x1="2.69" y1="140.14" x2="93.1" y2="290.08" gradientUnits="userSpaceOnUse"><stop offset="0" stop-color="#e1f0f7"/><stop offset="1" stop-color="#93a19d"/></linearGradient><linearGradient id="Áåçûìÿííûé_ãðàäèåíò_20" x1="72.83" y1="145.77" x2="108.39" y2="145.77" gradientUnits="userSpaceOnUse"><stop offset="0" stop-color="gray"/><stop offset="1" stop-color="#d6d6d6"/></linearGradient><linearGradient id="Áåçûìÿííûé_ãðàäèåíò_20-2" x1="72.83" y1="145.41" x2="108.39" y2="145.41" xlink:href="#Áåçûìÿííûé_ãðàäèåíò_20"/><clipPath id="clip-path"><rect width="504" height="287.15" rx="8.26" fill="none"/></clipPath><clipPath id="clip-path-2"><path fill="none" d="M0 0h504v287.15H0z"/></clipPath></defs><g style="isolation:isolate"><g id="Слой_2" data-name="Слой 2"><g clip-path="url(#clip-path)" id="Layer_1" data-name="Layer 1"><path fill="#fff" d="M0 0h504v287.15H0z"/><path d="M504 174.52c0-6.19-13.42-5.05-17.45 13.15-8.66 39.15-14.75 54.63-41.36 69.13-12.19 6.65-34.13 17-41.15 30.35H504z" fill="#27cc82" opacity=".3"/><path d="M328 0c-16.91 10.37-24.59 18.45-36.24 37.88-7.16 11.95-11 27.92-10.69 43.9a88.29 88.29 0 001.74 15.84c4.17 23 15.74 53.54-7.4 70.89a48.35 48.35 0 01-20.23 9.15 88.25 88.25 0 01-10.88 1.58c-32.52 0-65.57 6.62-86.22 35.55-15.7 22.3-20 48-14.15 72.36H0V0z" fill="#61d983" opacity=".28"/><path d="M321.77 0c-19.74 9.88-27 18.45-38.62 37.88-9.55 15.93-13.2 39-8.95 59.73 3.37 16.54 7.57 34.48 4.69 50.83-4.68 26.07-30.34 24.72-49.2 26-18 1.2-38.44 5.83-53.95 16.6-14.44 10.08-23.84 22.57-29.74 39.4s-8.7 33.24-4.17 56.71H0l1.92-286z" fill="#61d983" opacity=".28"/><path d="M321.44 0c-22.1 6.27-41.62 34.54-47.76 53-5.54 16.66-5.52 33.91-3.58 51.11 1.55 13.76 3.88 28.51-.4 42-6.83 21.53-31.53 21.12-50 22.68-17.6 1.48-37.64 6-52.29 16.27-13.66 9.56-21.66 24.2-26 40s-7.75 33-4.67 49.3c.8 4.24 1.45 8.84 3.39 12.75-41.83 0-140.07.06-140.07.06V0z" fill="#01b37c"/><path d="M321.44 0c-22.1 6.27-41.62 34.54-47.76 53-5.54 16.66-5.52 33.91-3.58 51.11 1.55 13.76 3.88 28.51-.4 42-6.83 21.53-31.53 21.12-50 22.68-17.6 1.48-37.64 6-52.29 16.27-13.66 9.56-21.66 24.2-26 40s-7.75 33-4.67 49.3c.8 4.24 1.45 8.84 3.39 12.75-41.83 0-140.07.06-140.07.06V0z" style="mix-blend-mode:overlay" fill="#01b37c"/><g opacity=".81"><path opacity=".65" fill="url(#linear-gradient)" d="M47.36 287.15L0 218.72.04 52.7l107.87 234.43-60.55.02z"/></g><g opacity=".1" fill="#999" clip-path="url(#clip-path-2)"><path d="M243.62 249.14c0-24 12.86-45.61 39.24-45.61s39.24 21.61 39.24 45.61-12.86 45.73-39.24 45.73-39.24-21.74-39.24-45.73zm51.57 0c0-15-3.85-22-12.33-22s-12.33 7-12.33 22 3.84 22.13 12.33 22.13 12.33-7.15 12.33-22.13zm59.39 44.14v-54.35l-15 14.85L324.49 238l33.8-33.14h23.07v88.42z"/></g><path d="M286.9 102.34l-153.07 7.85a12.66 12.66 0 00-4.23 1 17.44 17.44 0 00-4 2.35 18 18 0 00-3.29 3.35 14.86 14.86 0 00-2.18 4L83.38 227a13.18 13.18 0 00-.78 4.67 9.23 9.23 0 001 3.94 7.14 7.14 0 002.49 2.79 7.88 7.88 0 003.83 1.2L253 249.06a15.42 15.42 0 005.71-.78 18.33 18.33 0 009.22-7.06 16 16 0 002.32-5.35l27.16-122.56a9.42 9.42 0 00-.05-4.49 8 8 0 00-2-3.56 9.23 9.23 0 00-3.61-2.27 12.74 12.74 0 00-4.85-.65z" style="mix-blend-mode:multiply" fill="#d7d7d7" opacity=".33"/><path d="M61.23 208.13L49 207.81a40.17 40.17 0 00-6.79 10.55c-.33.79-.63 1.58-.89 2.39-4.78 14.82-1.56 31.92 10 42.88a32.75 32.75 0 007.56 5.46c.5-10.48 1.9-28.94 3.31-36.75 1.92-10.7-.96-24.21-.96-24.21z" fill="#7dc6c2"/><path d="M80 167a20.85 20.85 0 00-2.5 9.08A20.85 20.85 0 0180 167zm5.69 11.05l-1-.16zm2 .29l-1-.14zm-6.82-1.25l-.52-.13zm2.94.63l-.41-.07zm8.81 1.17l-1.62-.16zm-12.9-2.1l-.56-.17zm10.04 1.81l-.87-.11zm4.1.4c1.88.15 3.75.28 5.51.37-1.76-.09-3.63-.21-5.51-.37zm6.65.43l-1.14-.06 1.14.06z" fill="#fff"/><path d="M88.89 178.49l-1.2-.15zm-2.18-.29l-1-.15zm4.29.53l-1.25-.13zm-13.52-2.68q.78.3 1.68.57-.9-.27-1.68-.57zM93.86 179l-1.24-.11zm-10.46-1.35zm-3.05-.65l-.63-.17zm4.36.89l-.9-.17z" fill="#e8eaf1"/><path fill="#80769f" d="M40.55 215.29L.26 227.69l12.89 41.88 38.37-18.03-6.67-36.13-4.3-.12z"/><path style="mix-blend-mode:overlay" fill="#fff" opacity=".61" d="M40.55 215.29L.26 227.69l12.89 41.88 38.37-18.03-6.67-36.13-4.3-.12z"/><path fill="#ece9f5" d="M46 213.3l-39.07-.53.94 45.13 38.3-4.46 3.93-38.8-4.1-1.34z"/><path d="M85.81 218.41a5.67 5.67 0 01-2.75-.84 5.18 5.18 0 01-1.8-2 6.7 6.7 0 01-.7-2.81 9.51 9.51 0 01.54-3.34l34.83-101.51a10.52 10.52 0 011.55-2.89 13.18 13.18 0 012.37-2.41 12.4 12.4 0 012.86-1.68 9 9 0 013-.72l148.23-7a8.83 8.83 0 013.45.49 6.46 6.46 0 012.61 1.71 5.77 5.77 0 011.41 2.59 6.81 6.81 0 010 3.21l-26.3 116.15a11.36 11.36 0 01-1.66 3.79 12.9 12.9 0 01-2.87 3 12.72 12.72 0 01-3.66 2 10.73 10.73 0 01-4 .57l-157.11-8.31zM278.28 87.26l-153.07 7.85a12.72 12.72 0 00-4.23 1 17.09 17.09 0 00-4 2.35 17.69 17.69 0 00-3.29 3.35 15 15 0 00-2.18 4L74.76 211.9a13.31 13.31 0 00-.77 4.67 9.23 9.23 0 001 3.94 7.14 7.14 0 002.49 2.79 7.88 7.88 0 003.84 1.2l163.07 9.5a15.23 15.23 0 005.71-.79 17.67 17.67 0 005.17-2.76 18.29 18.29 0 004-4.28 16.08 16.08 0 002.32-5.36L288.8 98.23a9.6 9.6 0 000-4.5 8.08 8.08 0 00-2-3.55 9.16 9.16 0 00-3.61-2.27 12.71 12.71 0 00-4.85-.65z" style="mix-blend-mode:soft-light" fill="#e8eaf1"/><path d="M189.71 128.1a4.49 4.49 0 01-2-.38 3.39 3.39 0 01-1.35-1.13 3.69 3.69 0 01-.64-1.69 5.29 5.29 0 01.19-2.09 7.35 7.35 0 011-2.11 8.68 8.68 0 011.69-1.7 8.17 8.17 0 012-1.2 6.32 6.32 0 012.19-.49 4.49 4.49 0 012 .36 3.45 3.45 0 011.37 1.1 3.71 3.71 0 01.66 1.69 5.14 5.14 0 01-.17 2.1 7.59 7.59 0 01-1 2.13 8.6 8.6 0 01-1.65 1.76 8.32 8.32 0 01-2 1.21 6.41 6.41 0 01-2.21.48zm3.95-13.8a9.69 9.69 0 00-3.38.76 12.75 12.75 0 00-3.12 1.86 14 14 0 00-2.52 2.7 11.39 11.39 0 00-1.59 3.27 8 8 0 00-.31 3.24 5.8 5.8 0 001 2.64 5.28 5.28 0 002.09 1.76 6.65 6.65 0 003 .6 9.48 9.48 0 003.43-.74 12.34 12.34 0 003.17-1.88 13.36 13.36 0 002.56-2.75 11.53 11.53 0 001.59-3.32 8.12 8.12 0 00.26-3.27 5.81 5.81 0 00-1-2.61 5.28 5.28 0 00-2.13-1.71 6.78 6.78 0 00-3-.55zM133.07 203a.42.42 0 01-.16 0 .38.38 0 01-.11-.11.38.38 0 01-.05-.16.58.58 0 010-.18.77.77 0 01.1-.18.67.67 0 01.14-.15.59.59 0 01.17-.1.42.42 0 01.19 0l37 1.37a.34.34 0 01.17.05.25.25 0 01.12.11.44.44 0 01.06.16.43.43 0 010 .19.66.66 0 01-.09.19.54.54 0 01-.15.15.52.52 0 01-.18.1.43.43 0 01-.19 0l-37-1.41zm1.46-4.71a.42.42 0 01-.16 0 .38.38 0 01-.11-.11.27.27 0 010-.15.65.65 0 010-.19 1.62 1.62 0 01.1-.18.5.5 0 01.14-.15.56.56 0 01.17-.09.4.4 0 01.19 0l36.93 1.22a.58.58 0 01.18 0 .63.63 0 01.12.11.3.3 0 01.05.16.41.41 0 010 .19.52.52 0 01-.09.2l-.14.15-.18.1a.69.69 0 01-.2 0l-36.95-1.26zm-12.88 5l2.21-7 6.51.21-2.2 7-6.52-.25zm15.26-12.66h-.16a.38.38 0 01-.11-.11.33.33 0 010-.15.57.57 0 010-.18.66.66 0 01.09-.19l.14-.14a.4.4 0 01.17-.09.39.39 0 01.18 0l36.82 1a.33.33 0 01.17 0 .32.32 0 01.12.11.39.39 0 01.06.15.68.68 0 010 .2.61.61 0 01-.09.18.54.54 0 01-.15.15.4.4 0 01-.18.1.41.41 0 01-.19 0l-36.83-1zm1.44-4.63a.62.62 0 01-.16 0 .29.29 0 01-.11-.11.25.25 0 01-.05-.15.39.39 0 010-.18.76.76 0 01.09-.18 1 1 0 01.14-.15.7.7 0 01.17-.09.42.42 0 01.19 0l36.74.84a.34.34 0 01.17 0 .29.29 0 01.12.1.28.28 0 01.05.16.38.38 0 010 .18.66.66 0 01-.09.19 1.06 1.06 0 01-.15.15.59.59 0 01-.17.1.69.69 0 01-.2 0l-36.74-.86zm-12.79 4.94l2.18-6.85 6.47.14-2.16 6.9-6.49-.19zm15.18-12.68a.29.29 0 01-.16 0 .19.19 0 01-.1-.1.24.24 0 010-.14.43.43 0 010-.19.56.56 0 01.09-.17.5.5 0 01.14-.15 1 1 0 01.17-.1h.18l36.61.61a.39.39 0 01.17 0 .45.45 0 01.13.11.53.53 0 01.05.15.37.37 0 010 .18.56.56 0 01-.09.19.54.54 0 01-.15.15.59.59 0 01-.17.1.69.69 0 01-.2 0l-36.63-.64zm1.41-4.55a.33.33 0 01-.15 0 .22.22 0 01-.11-.1.25.25 0 010-.15.35.35 0 010-.17.51.51 0 01.11-.29.66.66 0 01.14-.15.56.56 0 01.17-.09.39.39 0 01.18 0l36.54.48a.47.47 0 01.17 0 .43.43 0 01.12.11.34.34 0 01.06.15.68.68 0 010 .19.76.76 0 01-.09.18.62.62 0 01-.14.14.67.67 0 01-.18.11.63.63 0 01-.19 0l-36.56-.5zm-12.7 5l2.15-6.75 6.4.04-2.13 6.79-6.46-.12zm61.68 9.29a20.94 20.94 0 013.05-6.42 24 24 0 014.94-5.17 23.49 23.49 0 016.19-3.47 19.53 19.53 0 016.82-1.24l-4.41 16.8 17.24.42a20 20 0 01-1.18 3.33 22.47 22.47 0 01-1.75 3.09 23.72 23.72 0 01-2.22 2.8 25.35 25.35 0 01-2.63 2.45l5.33 7.53a6.59 6.59 0 011-.52 6.26 6.26 0 011-.38 6.44 6.44 0 011.06-.22 5.45 5.45 0 011.07-.05 5.33 5.33 0 012.28.57 4.59 4.59 0 011.65 1.4 4.84 4.84 0 01.86 2 5.92 5.92 0 01-.1 2.43 7.32 7.32 0 01-1.08 2.4 8.26 8.26 0 01-4.12 3.17 6.67 6.67 0 01-2.54.37 5.24 5.24 0 01-2.28-.6 4.54 4.54 0 01-1.62-1.42 4.83 4.83 0 01-.83-2 6.09 6.09 0 01.12-2.42 8.47 8.47 0 01.37-1.07 7.91 7.91 0 01.52-1 6.76 6.76 0 01.67-.92 8.61 8.61 0 01.78-.82l-5.32-7.55a23.34 23.34 0 01-3 1.78 21.88 21.88 0 01-3.14 1.3 20.68 20.68 0 01-3.25.76 18.28 18.28 0 01-3.3.19 14.61 14.61 0 01-6.25-1.6 12.17 12.17 0 01-4.35-3.85 12.72 12.72 0 01-2.1-5.49 16.2 16.2 0 01.48-6.56zm47.41-14.63v-.76a3.81 3.81 0 01.53-1.16 4.45 4.45 0 01.9-.94 3.86 3.86 0 011.14-.63 3.7 3.7 0 011.27-.23 3 3 0 011.16.25 2.34 2.34 0 01.83.65 2.17 2.17 0 01.44 1 2.63 2.63 0 010 1.18 3.39 3.39 0 01-.53 1.16 4.23 4.23 0 01-2.05 1.58 3.7 3.7 0 01-1.27.23 3.6 3.6 0 01-.69-.09 2.46 2.46 0 01-1.09-.58 2.28 2.28 0 01-.36-.46l-13.29 5.7a12.75 12.75 0 01.23 1.42 14.84 14.84 0 01.05 1.5 14.19 14.19 0 01-.12 1.56 16.17 16.17 0 01-.32 1.6v.08l-14.53-.33 3.7-14.14h.08a13.76 13.76 0 013.66.54 11.32 11.32 0 013.05 1.46 10.11 10.11 0 013.89 5.16l13.29-5.71zM121.2 155.1a.61.61 0 01-.2-.1.46.46 0 01-.16-.15.57.57 0 01-.08-.23.93.93 0 010-.27 1 1 0 01.14-.28 1.52 1.52 0 01.22-.22 1.22 1.22 0 01.27-.15.71.71 0 01.28-.06l38.57-.1a.67.67 0 01.26 0 .46.46 0 01.18.16.43.43 0 01.09.23.67.67 0 010 .28 1.11 1.11 0 01-.14.29 1.67 1.67 0 01-.23.23 1 1 0 01-.28.16.93.93 0 01-.29.05l-38.59.07zm91.21-.14a.83.83 0 01-.29-.06.68.68 0 01-.21-.17.64.64 0 01-.1-.24.72.72 0 010-.29.83.83 0 01.14-.3 1 1 0 01.23-.24 1.14 1.14 0 01.61-.23l28.75-.07a.75.75 0 01.31.06.69.69 0 01.22.16.71.71 0 01.11.25.61.61 0 010 .3.79.79 0 01-.14.31 1 1 0 01-.23.24 1.17 1.17 0 01-.31.17.92.92 0 01-.33.06l-28.77.05zm-89.58-4.85a.48.48 0 01-.24-.06.35.35 0 01-.17-.15.48.48 0 01-.07-.22.93.93 0 010-.27 1 1 0 01.14-.27 1.15 1.15 0 01.22-.22.76.76 0 01.26-.15.71.71 0 01.28-.06l38.48-.26a.45.45 0 01.27.05.52.52 0 01.18.15.45.45 0 01.08.23.54.54 0 010 .28.92.92 0 01-.14.28 1 1 0 01-.23.24 1.43 1.43 0 01-.27.15.8.8 0 01-.3.06l-38.51.22zm91-.52a.68.68 0 01-.29-.06.45.45 0 01-.2-.16.48.48 0 01-.1-.23.62.62 0 010-.3 1.11 1.11 0 01.14-.29 1.31 1.31 0 01.23-.24 1.18 1.18 0 01.29-.16 1.23 1.23 0 01.32-.07l28.68-.19a.68.68 0 01.52.22.52.52 0 01.11.25.62.62 0 010 .3 1 1 0 01-.13.3 1.36 1.36 0 01-.24.24.87.87 0 01-.3.16.78.78 0 01-.33.07l-28.7.16zm-89.41-4.32a.6.6 0 01-.24-.05.5.5 0 01-.17-.15.48.48 0 01-.07-.22.93.93 0 010-.27.87.87 0 01.14-.27 1.19 1.19 0 01.22-.23 1.35 1.35 0 01.26-.15.87.87 0 01.28-.05l38.4-.42a.67.67 0 01.26 0 .4.4 0 01.18.16.43.43 0 01.09.22.69.69 0 010 .28.92.92 0 01-.14.28 1 1 0 01-.22.23 1.12 1.12 0 01-.28.16.75.75 0 01-.29.06l-38.43.37zm90.79-.88a.82.82 0 01-.28 0 .69.69 0 01-.21-.16.51.51 0 01-.1-.24.66.66 0 010-.28.85.85 0 01.15-.3 1.26 1.26 0 01.22-.24 1.18 1.18 0 01.29-.16.91.91 0 01.32-.06l28.6-.31a.73.73 0 01.3 0 .52.52 0 01.22.16.44.44 0 01.11.24.76.76 0 010 .3 1 1 0 01-.14.3 1.05 1.05 0 01-.23.24 1 1 0 01-.3.17 1 1 0 01-.33.07l-28.63.27zm-89.18-4a.39.39 0 01-.24 0 .36.36 0 01-.16-.14.44.44 0 01-.07-.22.64.64 0 010-.27 1.15 1.15 0 01.14-.27 1.52 1.52 0 01.22-.22.76.76 0 01.26-.15.71.71 0 01.28-.06l38.32-.57a.55.55 0 01.26 0 .65.65 0 01.18.15.69.69 0 01.09.23.66.66 0 010 .27 1 1 0 01-.14.28 1 1 0 01-.23.23.92.92 0 01-.27.16.94.94 0 01-.29.06l-38.35.52zm90.59-1.24a.65.65 0 01-.29-.06.5.5 0 01-.2-.15.53.53 0 01-.11-.24.69.69 0 010-.28.78.78 0 01.14-.29 1 1 0 01.23-.24.88.88 0 01.28-.16.74.74 0 01.32-.07l28.53-.42a.84.84 0 01.29.05.52.52 0 01.22.16.55.55 0 01.12.24.57.57 0 010 .29.83.83 0 01-.14.3 1 1 0 01-.23.24 1.11 1.11 0 01-.3.17.88.88 0 01-.33.07l-28.54.39zm-60-6.07l2.67-8.67 9.72-.26-2.64 8.74-9.75.19zm-14.45.28l4.69-14.72 9.47-.3-4.63 14.84-9.53.18zm46.18-.55a8.09 8.09 0 01-3.64-.72 6.24 6.24 0 01-2.51-2.11 6.9 6.9 0 01-1.2-3.18 9.41 9.41 0 01.37-3.87 13.13 13.13 0 011.9-3.89 15.79 15.79 0 013-3.2 14.82 14.82 0 013.73-2.23 11.94 11.94 0 014.06-.91 8.25 8.25 0 013.64.65 6.47 6.47 0 012.57 2 6.82 6.82 0 011.25 3.12 9.33 9.33 0 01-.3 3.9 13 13 0 01-1.9 3.95 15.71 15.71 0 01-3.07 3.29 15.11 15.11 0 01-3.82 2.25 11.76 11.76 0 01-4.12.88zM135.66 111l9.22-.34-7.31 22.72-9.31.18 7.4-22.56zm82.85 21.09l6.68-25.09 28.3-1.08-6.31 25.68-28.67.55zM274 93.28l-148.23 7a9 9 0 00-3 .72 12.4 12.4 0 00-2.86 1.68 13.18 13.18 0 00-2.37 2.41 10.52 10.52 0 00-1.55 2.89L81.1 209.45a9.51 9.51 0 00-.54 3.34 6.7 6.7 0 00.7 2.81 5.18 5.18 0 001.8 2 5.67 5.67 0 002.75.84l157.08 8.27a10.73 10.73 0 004-.57 12.72 12.72 0 003.66-2 12.9 12.9 0 002.87-3 11.36 11.36 0 001.66-3.79l26.3-116.15a6.81 6.81 0 000-3.21 5.77 5.77 0 00-1.38-2.58 6.46 6.46 0 00-2.57-1.64 8.83 8.83 0 00-3.45-.49z" fill="#1863f5"/><path fill="#f7d900" d="M138.03 171.98l-6.43-.08-2.15 6.75 6.46.12 2.12-6.79z"/><path fill="#e8eaf1" d="M134.22 184.18l-6.48-.15-2.18 6.87 6.49.18 2.17-6.9zm-3.85 12.29l-6.51-.21-2.22 6.98 6.53.25 2.2-7.02z"/><path d="M179 173.22l-36.54-.48a.39.39 0 00-.18 0 .56.56 0 00-.17.09.66.66 0 00-.14.15.51.51 0 00-.09.18.35.35 0 000 .17.25.25 0 000 .15.22.22 0 00.11.1.33.33 0 00.15 0l36.56.5a.63.63 0 00.19 0 .67.67 0 00.18-.11.62.62 0 00.14-.14.76.76 0 00.09-.18.68.68 0 000-.19.34.34 0 00-.06-.15.43.43 0 00-.12-.11.47.47 0 00-.17 0zm-1.36 4.68l-36.64-.61h-.18a1 1 0 00-.17.1.5.5 0 00-.14.15.56.56 0 00-.09.17.43.43 0 000 .19.24.24 0 000 .14.19.19 0 00.1.1.29.29 0 00.16 0l36.63.64a.69.69 0 00.2 0 .59.59 0 00.17-.1.54.54 0 00.15-.15.56.56 0 00.09-.19.37.37 0 000-.18.53.53 0 00-.05-.15.45.45 0 00-.13-.11.39.39 0 00-.17 0zm-2.26 7.96l-36.74-.86a.42.42 0 00-.19 0 .7.7 0 00-.17.09 1 1 0 00-.14.15.76.76 0 00-.09.18.39.39 0 000 .18.25.25 0 00.05.15.29.29 0 00.11.11.62.62 0 00.16 0l36.75.87a.69.69 0 00.2 0 .59.59 0 00.17-.1 1.06 1.06 0 00.15-.15.66.66 0 00.09-.19.38.38 0 000-.18.28.28 0 00-.05-.16.29.29 0 00-.12-.1.34.34 0 00-.17 0zm-1.38 4.77l-36.82-1a.39.39 0 00-.18 0 .4.4 0 00-.17.09l-.14.14a.66.66 0 00-.09.19.57.57 0 000 .18.33.33 0 000 .15.38.38 0 00.11.11h.16l36.83 1a.41.41 0 00.19 0 .4.4 0 00.18-.1.54.54 0 00.15-.15.61.61 0 00.09-.18.68.68 0 000-.2.39.39 0 00-.06-.15.32.32 0 00-.12-.11.33.33 0 00-.17 0zm-2.24 7.91l-36.93-1.22a.4.4 0 00-.19 0 .56.56 0 00-.17.09.5.5 0 00-.14.15 1.62 1.62 0 00-.1.18.65.65 0 000 .19.27.27 0 000 .15.38.38 0 00.11.11.42.42 0 00.16 0l36.95 1.26a.69.69 0 00.2 0l.18-.1.14-.15a.52.52 0 00.09-.2.41.41 0 000-.19.3.3 0 00-.05-.16.63.63 0 00-.12-.11.58.58 0 00-.18 0zm-1.38 4.85l-37-1.37a.42.42 0 00-.19 0 .59.59 0 00-.17.1.67.67 0 00-.14.15.77.77 0 00-.1.18.58.58 0 000 .18.38.38 0 00.05.16.38.38 0 00.11.11.42.42 0 00.16 0l37 1.41a.43.43 0 00.19 0 .52.52 0 00.18-.1.54.54 0 00.15-.15.66.66 0 00.09-.19.43.43 0 000-.19.44.44 0 00-.06-.16.25.25 0 00-.12-.11.34.34 0 00-.17-.05z" fill="#877f9f"/><path fill="#fff" d="M144.88 110.69l-9.22.34-7.4 22.56 9.31-.18 7.31-22.72z"/><path fill="#4da9ff" d="M156.35 118.3l-9.47.29-4.69 14.73 9.53-.18 4.63-14.84z"/><path fill="#f7d900" d="M169.03 124.11l-9.72.26-2.68 8.67 9.76-.19 2.64-8.74zm69.51 49.28l-13.29 5.71c0 .09.06.19.1.28s.05.19.08.28l.08.29c0 .1 0 .2.07.3l13.29-5.7a1.74 1.74 0 01-.14-.27 2.31 2.31 0 01-.1-.28 1.36 1.36 0 01-.06-.29 1.73 1.73 0 010-.32z"/><path d="M217.18 200.61l-.29.23-.3.22-.3.22-.3.21 5.33 7.55.29-.24.29-.24.3-.22.31-.2-5.33-7.53z" fill="#fff"/><path d="M212.13 171.72a19.53 19.53 0 00-6.82 1.24 23.49 23.49 0 00-6.19 3.47 24 24 0 00-4.94 5.17 20.94 20.94 0 00-3.05 6.42 16.2 16.2 0 00-.48 6.56 12.72 12.72 0 002.1 5.49 12.17 12.17 0 004.35 3.85 14.61 14.61 0 006.25 1.6 19 19 0 007-1.11 22.76 22.76 0 006.43-3.5 23.59 23.59 0 005.11-5.35 20.38 20.38 0 003.07-6.62l-17.24-.42 4.41-16.8z" fill="#fff"/><path d="M214.65 171.94h-.08l-3.7 14.14 14.53.33v-.08a16.17 16.17 0 00.32-1.6 14.19 14.19 0 00.12-1.56 14.84 14.84 0 00-.05-1.5 12.75 12.75 0 00-.23-1.42c0-.1-.05-.2-.07-.3l-.08-.29c0-.09-.05-.19-.08-.28s-.07-.19-.1-.28a10.11 10.11 0 00-3.89-5.16 11.32 11.32 0 00-3.05-1.46 13.76 13.76 0 00-3.66-.54z" fill="#f7d900"/><path d="M226.64 207a5.45 5.45 0 00-1.07.05 6.44 6.44 0 00-1.06.22 6.26 6.26 0 00-1 .38 6.59 6.59 0 00-1 .52l-.31.2-.3.22-.29.24-.29.24a8.61 8.61 0 00-.78.82 6.76 6.76 0 00-.67.92 7.91 7.91 0 00-.52 1 8.47 8.47 0 00-.37 1.07 6.09 6.09 0 00-.12 2.42 4.83 4.83 0 00.83 2 4.54 4.54 0 001.62 1.42 5.24 5.24 0 002.28.6 6.67 6.67 0 002.54-.37 8.26 8.26 0 004.12-3.17 7.32 7.32 0 001.08-2.4 5.92 5.92 0 00.1-2.43 4.84 4.84 0 00-.86-2 4.59 4.59 0 00-1.65-1.4 5.33 5.33 0 00-2.28-.57z" fill="#fff"/><path d="M242.46 169.67a3.7 3.7 0 00-1.27.23 3.86 3.86 0 00-1.14.63 4.45 4.45 0 00-.9.94 3.81 3.81 0 00-.53 1.16v.76a1.73 1.73 0 000 .32 1.36 1.36 0 00.06.29 2.31 2.31 0 00.1.28 1.74 1.74 0 00.14.27 2.28 2.28 0 00.36.46 2.46 2.46 0 001.09.58 3.6 3.6 0 00.69.09 3.7 3.7 0 001.27-.23 4.23 4.23 0 002.05-1.58 3.39 3.39 0 00.53-1.16 2.63 2.63 0 000-1.18 2.17 2.17 0 00-.44-1 2.34 2.34 0 00-.83-.65 3 3 0 00-1.16-.25zm-53.62-38.54a6.65 6.65 0 01-3-.6 5.28 5.28 0 01-2.09-1.76 5.8 5.8 0 01-1-2.64 8 8 0 01.31-3.24 11.39 11.39 0 011.59-3.27 14 14 0 012.52-2.7 12.75 12.75 0 013.12-1.86 9.69 9.69 0 013.38-.76 6.78 6.78 0 013 .55 5.28 5.28 0 012.13 1.71 5.81 5.81 0 011 2.61 8.12 8.12 0 01-.26 3.27 11.53 11.53 0 01-1.59 3.32 13.36 13.36 0 01-2.56 2.75 12.34 12.34 0 01-3.17 1.88 9.48 9.48 0 01-3.43.74zm5.28-18.43a11.94 11.94 0 00-4.06.91 14.82 14.82 0 00-3.73 2.23 15.79 15.79 0 00-3 3.2 13.13 13.13 0 00-1.9 3.89 9.41 9.41 0 00-.37 3.87 6.9 6.9 0 001.18 3.14 6.24 6.24 0 002.51 2.11 8.09 8.09 0 003.64.72 11.76 11.76 0 004.12-.88 15.11 15.11 0 003.82-2.25 15.71 15.71 0 003.07-3.29 13 13 0 001.9-3.95 9.33 9.33 0 00.3-3.9 6.82 6.82 0 00-1.25-3.12 6.47 6.47 0 00-2.57-2 8.25 8.25 0 00-3.64-.65z" fill="#f7d900"/><path d="M192.81 117.27a6.32 6.32 0 00-2.19.49 8.17 8.17 0 00-2 1.2 8.68 8.68 0 00-1.62 1.74 7.35 7.35 0 00-1 2.11 5.29 5.29 0 00-.19 2.09 3.69 3.69 0 00.64 1.69 3.39 3.39 0 001.35 1.13 4.49 4.49 0 002 .38 6.41 6.41 0 002.21-.48 8.32 8.32 0 002-1.21 8.6 8.6 0 001.65-1.76 7.59 7.59 0 001-2.13 5.14 5.14 0 00.17-2.1 3.71 3.71 0 00-.66-1.69 3.45 3.45 0 00-1.37-1.1 4.49 4.49 0 00-2-.36z" fill="#f7d900"/><path d="M245.54 137.2l-28.53.42a.74.74 0 00-.32.07.88.88 0 00-.28.16 1 1 0 00-.23.24.78.78 0 00-.14.29.69.69 0 000 .28.53.53 0 00.11.24.5.5 0 00.2.15.65.65 0 00.29.06l28.54-.39a.88.88 0 00.33-.07 1.11 1.11 0 00.3-.17 1 1 0 00.23-.24.83.83 0 00.14-.3.57.57 0 000-.29.55.55 0 00-.12-.24.52.52 0 00-.22-.16.84.84 0 00-.29-.05zm-1.33 5.39l-28.6.31a.91.91 0 00-.32.06 1.18 1.18 0 00-.29.16 1.26 1.26 0 00-.22.24.85.85 0 00-.15.3.66.66 0 000 .28.51.51 0 00.1.24.69.69 0 00.21.16.82.82 0 00.28 0l28.63-.27a1 1 0 00.33-.07 1 1 0 00.3-.17 1.05 1.05 0 00.23-.24 1 1 0 00.14-.3.76.76 0 000-.3.44.44 0 00-.11-.24.52.52 0 00-.22-.16.73.73 0 00-.3 0zm-1.3 5.3l-28.68.19a1.23 1.23 0 00-.32.07 1.18 1.18 0 00-.29.16 1.31 1.31 0 00-.23.24 1.11 1.11 0 00-.14.29.62.62 0 000 .3.48.48 0 00.1.23.45.45 0 00.2.16.68.68 0 00.29.06l28.7-.16a.78.78 0 00.33-.07.87.87 0 00.3-.16 1.36 1.36 0 00.24-.24 1 1 0 00.13-.3.62.62 0 000-.3.52.52 0 00-.11-.25.68.68 0 00-.52-.22zm-1.35 5.47l-28.75.07a1.14 1.14 0 00-.61.23 1 1 0 00-.23.24.83.83 0 00-.14.3.72.72 0 000 .29.64.64 0 00.1.24.68.68 0 00.21.17.83.83 0 00.29.06l28.77-.05a.92.92 0 00.33-.06 1.17 1.17 0 00.31-.17 1 1 0 00.23-.24.79.79 0 00.14-.31.61.61 0 000-.3.71.71 0 00-.11-.25.69.69 0 00-.22-.16.75.75 0 00-.31-.06zm-76.75-14.96l-38.32.57a.71.71 0 00-.28.06.76.76 0 00-.26.15 1.52 1.52 0 00-.22.22 1.15 1.15 0 00-.14.27.64.64 0 000 .27.44.44 0 00.07.22.36.36 0 00.16.14.39.39 0 00.24 0l38.35-.52a.94.94 0 00.29-.06.92.92 0 00.27-.16 1 1 0 00.23-.23 1 1 0 00.14-.28.66.66 0 000-.27.69.69 0 00-.09-.23.65.65 0 00-.18-.15.55.55 0 00-.26 0zm-1.53 5.06l-38.4.42a.87.87 0 00-.28.05 1.35 1.35 0 00-.26.15 1.19 1.19 0 00-.22.23.87.87 0 00-.14.27.93.93 0 000 .27.48.48 0 00.07.22.5.5 0 00.17.15.6.6 0 00.24.05l38.43-.37a.75.75 0 00.29-.06 1.12 1.12 0 00.28-.16 1 1 0 00.22-.23.92.92 0 00.14-.28.69.69 0 000-.28.43.43 0 00-.09-.22.4.4 0 00-.18-.16.67.67 0 00-.26 0zm-1.51 4.99l-38.48.26a.71.71 0 00-.28.06.76.76 0 00-.26.15 1.15 1.15 0 00-.22.22 1 1 0 00-.14.27.93.93 0 000 .27.48.48 0 00.07.22.35.35 0 00.17.15.48.48 0 00.24.06l38.51-.22a.8.8 0 00.3-.06 1.43 1.43 0 00.27-.15 1 1 0 00.23-.24.92.92 0 00.14-.28.54.54 0 000-.28.45.45 0 00-.08-.23.52.52 0 00-.18-.15.45.45 0 00-.27-.05zm-1.54 5.13l-38.57.1a.71.71 0 00-.28.06 1.22 1.22 0 00-.27.15 1.52 1.52 0 00-.22.22 1 1 0 00-.14.28.93.93 0 000 .27.57.57 0 00.08.23.46.46 0 00.16.15.61.61 0 00.25.06l38.59-.07a.93.93 0 00.29-.05 1 1 0 00.28-.16 1.67 1.67 0 00.23-.23 1.11 1.11 0 00.14-.29.67.67 0 000-.28.43.43 0 00-.09-.23.46.46 0 00-.18-.16.67.67 0 00-.26 0z" fill="#c3bfcf"/><path fill="#fff" d="M253.49 105.89l-28.3 1.08-6.68 25.15 28.67-.55 6.31-25.68z"/><path d="M107.87 141.45a1 1 0 01-1.44-.49l-5-11.35a1.14 1.14 0 01.59-1.46 1 1 0 011.43.49l5 11.35a1.14 1.14 0 01-.58 1.46z" fill="#473f65"/><path d="M107.58 148.72a18 18 0 00-5.64-11.9 43.8 43.8 0 00-5.86-13.42l-.45-.66L78.38 127s10 16.33 9.73 17.18-4.7 2.11-4.7 2.11-6.44-6.76-9.66-3.1 3.08 9.29 3.08 9.29l.41 6.76-3.63 1.41.4 5.92c3.23 2.53 21.08 2.25 21.49 2.25s.13-3.8.13-3.8 8.7.73 10.61-.7c3.52-2.68 1.76-8.13 1.34-15.6z" fill="#f4af9f"/><path d="M106.24 164.29a4.84 4.84 0 001.4-1.67c-14.71 2.51-16.86-17.19-16.86-17.19s-5.19-11-5.19-14.16c0-2.85 9-6.47 10.91-7.21l-.42-.66-.45-.66L78.38 127s10 16.33 9.73 17.18-4.7 2.11-4.7 2.11-6.44-6.76-9.66-3.1 3.08 9.29 3.08 9.29l.41 6.76-3.63 1.41.4 5.92a7.37 7.37 0 002.64 1l10.67.51c1.23-3.86 6.5-3.71 6.5-3.71l2.28.65c1.83.13 8.49.5 10.14-.73z" fill="#e1708b"/><g style="mix-blend-mode:overlay" opacity=".72"><path d="M107.58 148.72a18 18 0 00-5.64-11.9 43.8 43.8 0 00-5.86-13.42l-.45-.66L78.38 127s10 16.33 9.73 17.18-4.7 2.11-4.7 2.11-6.44-6.76-9.66-3.1 3.08 9.29 3.08 9.29l.41 6.76-3.63 1.41.4 5.92c3.23 2.53 21.08 2.25 21.49 2.25s.13-3.8.13-3.8 8.7.73 10.61-.7c3.52-2.68 1.76-8.13 1.34-15.6z" fill="url(#Áåçûìÿííûé_ãðàäèåíò_20)"/><path d="M106.24 164.29a4.84 4.84 0 001.4-1.67c-14.71 2.51-16.86-17.19-16.86-17.19s-5.19-11-5.19-14.16c0-2.85 9-6.47 10.91-7.21l-.42-.66-.45-.66L78.38 127s10 16.33 9.73 17.18-4.7 2.11-4.7 2.11-6.44-6.76-9.66-3.1 3.08 9.29 3.08 9.29l.41 6.76-3.63 1.41.4 5.92a7.37 7.37 0 002.64 1l10.67.51c1.23-3.86 6.5-3.71 6.5-3.71l2.28.65c1.83.13 8.49.5 10.14-.73z" fill="url(#Áåçûìÿííûé_ãðàäèåíò_20-2)"/></g><path d="M78.13 153.31s-7.61-6.49-4.38-10.15 9.66 3.1 9.66 3.1 4.44-1.27 4.7-2.11-5.61-10.94-4.11-14.51c1.22-2.92 11.58-7.28 11.86-6.85 6.92-5.89 3.76-20.37 3.76-20.37-3.63 8.3-23.25 10.18-33.84 13.79-12.54 4.29-9.39 15.84-9.39 15.84-1.88 1.12-6.3 7.65 5.16 15.47a40 40 0 0112.08 13.1s4.09-.86 4.61-1.71c.86-1.42-.11-5.6-.11-5.6z" fill="#473f65"/><path d="M82.13 144.2l-.64-1c.43-.3 14.76-5.75 23.26-9l.43 1.1c-8.91 3.42-22.39 8.56-23.05 8.9z" fill="#473f65"/><path d="M175.74 157.46s0-8.42.57-12.45a4.76 4.76 0 014.27-4.25s6.4-18.64 8.81-17.3-2.84 13-2.27 14.92 11.8 5.21 11.37 12.37-8.24 12.38-8.24 12.38z" fill="#e9989c"/><path d="M180.84 140c-.17.48-.26.76-.26.76a4.76 4.76 0 00-4.27 4.25c-.57 4-.57 12.45-.57 12.45l14.51 5.67s5.2-3.47 7.35-8.64c-12.36-3.06-16.23-8.94-16.76-14.49z" fill="#e1708b"/><path d="M194.5 163.41l2.1-3.31c-3.4-8.1-18.6-9.92-18.6-9.92l-2.5 3.64c3.5.36 14.09 2.07 19 9.59z" fill="#e8eaf1"/><path d="M194.5 163.41c-4.91-7.52-15.53-9.23-19-9.59-.7-.08-1.11-.09-1.11-.09l-26.1 34.52s-27.45-6.44-42.33-8.53c-.85-.12-1.68-.21-2.48-.29 0 0-21.52-.28-22-.33l-1.92-.19-1.5-.16-1-.12-1.44-.19-1.17-.16-1.23-.19-1.22-.19-1.07-.2a3.86 3.86 0 01-.49-.09c-1-.2-2.07-.42-3-.66l-.62-.16-.75-.21-.67-.19c-.71-.22-1.39-.45-2-.69 0 0-37.89 2.7-35.5 37.31l14.61.29s.9 28.1 1.69 43.21c.5 9.48-1.35 18.12-6.12 30.64h73.49c-.69-11-1.64-26.9-.89-33.26 1.08-9 5.95-24.73 5.3-34 15.5 0 35-.23 40.69-1.72 9.82-2.57 38.67-53.32 38.67-53.32a14.81 14.81 0 00-.84-1.44z" fill="#473f65"/><path d="M103.67 178.91l-6.11-9.56-.94-1.48-30.45-2.58a24.83 24.83 0 00-2.71 10.94c.63.22 1.31.43 2 .63l.67.18.76.19.63.14c1 .22 2 .41 3 .58l.49.08 1.08.17 1.17.16 1.23.16 1.17.13 1.45.15 1 .09 1.51.13 1.92.13 1.49.09c2.26.14 4.49.22 6.61.28h1.35c4.3.09 8 .06 10.36 0h2.6z" fill="#f4f6f8"/><path d="M101.31 179.21c-1-.13-2.06-.27-3.06-.42q-3.56-.56-6.67-1.27-2.33-.54-4.41-1.14c-15.09-4.37-21-11.09-21-11.09a24.8 24.8 0 00-2.71 10.93c.63.23 1.31.44 2 .64l.67.18.76.18.63.15c1 .21 2 .4 3 .58l.49.08 1.08.16 1.18.17 1.23.15 1.17.13c.48.05 1 .11 1.45.15l1 .1 1.5.12 1.93.14 1.48.09c2.26.13 4.49.22 6.61.27H91c4.29.09 8 .06 10.35 0h2.6c-.83-.09-1.74-.19-2.64-.3z" fill="#e8eaf1"/><path d="M115.82 219.85c-.44 0-22.37-1.62-28.95-4.32 0 0 19.71 10.47 28.82 9.85a33.81 33.81 0 00.13-5.53z" style="mix-blend-mode:soft-light" fill="#656565"/><path d="M201.58 118.5a6.82 6.82 0 00-1.25-3.12 6.47 6.47 0 00-2.57-2 8.25 8.25 0 00-3.64-.65 11.94 11.94 0 00-4.06.91 14.82 14.82 0 00-3.73 2.23 15.79 15.79 0 00-3 3.2 13.13 13.13 0 00-1.9 3.89 9.41 9.41 0 00-.37 3.87c0 .16.05.31.08.47a15.19 15.19 0 011.79-.3 5.68 5.68 0 01-.17-.84 8 8 0 01.31-3.24 11.39 11.39 0 011.59-3.27 14 14 0 012.52-2.7 12.75 12.75 0 013.12-1.86 9.69 9.69 0 013.38-.76 6.78 6.78 0 013 .55 5.28 5.28 0 012.13 1.71 5.81 5.81 0 011 2.61 8.12 8.12 0 01-.26 3.27 11.53 11.53 0 01-1.59 3.32 13.36 13.36 0 01-2.56 2.75 13.58 13.58 0 01-2.08 1.37 14.23 14.23 0 011.2 1 16.12 16.12 0 001.75-1.22 15.71 15.71 0 003.07-3.29 13 13 0 001.9-3.95 9.33 9.33 0 00.34-3.95z" fill="#f7d900"/><path d="M191.72 73.13a42.09 42.09 0 01-25.84-8.76 1.7 1.7 0 012.12-2.69 39.58 39.58 0 0025.64 8 1.65 1.65 0 011.76 1.63 1.7 1.7 0 01-1.63 1.77c-.71.03-1.38.05-2.05.05zm18.18-4.26a1.7 1.7 0 01-.76-3.22 39.46 39.46 0 0017.25-16.93 1.7 1.7 0 013 1.57 42.9 42.9 0 01-18.75 18.4 1.76 1.76 0 01-.74.18zM125 40.72a1.81 1.81 0 01-.83-.22 46.9 46.9 0 00-17.44-5.66 1.7 1.7 0 01.4-3.38 50.42 50.42 0 0118.7 6.07 1.7 1.7 0 01-.83 3.19zM61.84 54a1.7 1.7 0 01-1.35-2.73 51 51 0 0129.43-19 1.7 1.7 0 11.74 3.31A47.56 47.56 0 0063.2 53.37a1.69 1.69 0 01-1.36.63z" style="mix-blend-mode:soft-light" fill="#333"/><path d="M169.69 47.93c0 12.79-9.88 23.15-22.07 23.15s-22.08-10.36-22.08-23.15 9.89-23.15 22.08-23.15 22.07 10.36 22.07 23.15z" fill="#fff"/><path d="M169.69 47.93c0 12.79-9.88 23.15-22.07 23.15s-22.08-10.36-22.08-23.15 9.89-23.15 22.08-23.15 22.07 10.36 22.07 23.15z" fill="none"/><path d="M208.07 69.17a6.27 6.27 0 11-6.26-6.56 6.41 6.41 0 016.26 6.56z" fill="#fff"/><path d="M208.07 69.17a6.27 6.27 0 11-6.26-6.56 6.41 6.41 0 016.26 6.56z" fill="none"/><path d="M233.47 44a3.61 3.61 0 11-3.61-3.79 3.71 3.71 0 013.61 3.79z" fill="#fff"/><path d="M233.47 44a3.61 3.61 0 11-3.61-3.79 3.71 3.71 0 013.61 3.79z" fill="none"/><path d="M104.89 33.31a6.27 6.27 0 11-6.25-6.57 6.41 6.41 0 016.25 6.57z" fill="#fff"/><path d="M104.89 33.31a6.27 6.27 0 11-6.25-6.57 6.41 6.41 0 016.25 6.57z" fill="none"/><path d="M64.81 61.78a8.72 8.72 0 11-8.72-9.14 8.94 8.94 0 018.72 9.14z" fill="#fff"/><path d="M64.81 61.78a8.72 8.72 0 11-8.72-9.14 8.94 8.94 0 018.72 9.14z" fill="none"/><path d="M160.64 46.76a.4.4 0 00-.32-.47c-.73-.26-1.45-.53-2.15-.84a.84.84 0 01-.4-.43c-.29-.7-.55-1.41-.8-2.12a.76.76 0 010-.47c.36-.77.76-1.53 1.12-2.3a.48.48 0 000-.44c-.58-.63-1.19-1.24-1.77-1.87a.35.35 0 00-.49-.09c-.74.36-1.49.7-2.26 1a.74.74 0 01-.51 0q-1.08-.41-2.13-.87a.82.82 0 01-.4-.38c-.28-.74-.53-1.48-.77-2.22-.07-.24-.17-.36-.45-.36h-2.49a.41.41 0 00-.46.34c-.26.72-.56 1.43-.82 2.16a.66.66 0 01-.47.43c-.69.23-1.36.48-2 .77a.64.64 0 01-.64 0c-.72-.38-1.46-.73-2.17-1.11a.38.38 0 00-.53.09c-.58.59-1.18 1.16-1.79 1.73-.21.18-.19.33-.09.56.35.73.69 1.47 1 2.22a.72.72 0 010 .54c-.31.7-.65 1.39-1 2.07a.9.9 0 01-.43.41c-.78.28-1.56.53-2.35.77-.25.08-.36.18-.36.46v2.48a.38.38 0 00.3.44c.8.27 1.59.55 2.38.86a.91.91 0 01.4.44c.31.67.56 1.37.88 2a.73.73 0 010 .73c-.35.68-.68 1.38-1 2.06a.41.41 0 00.09.57c.59.58 1.16 1.17 1.72 1.78a.39.39 0 00.56.09c.73-.34 1.46-.65 2.18-1a.66.66 0 01.64 0c.68.35 1.39.64 2.08 1a.72.72 0 01.35.38c.28.79.54 1.59.79 2.4a.38.38 0 00.43.31c.83 0 1.66 0 2.49.05.27 0 .37-.09.46-.34.26-.78.54-1.56.85-2.32a.84.84 0 01.4-.39c.72-.32 1.44-.62 2.17-.9a.74.74 0 01.51 0c.83.39 1.66.81 2.53 1.23.69-.67 1.38-1.34 2.05-2a.52.52 0 00.05-.44c-.33-.77-.69-1.51-1-2.27a.72.72 0 010-.48c.27-.74.55-1.46.86-2.18a.78.78 0 01.39-.39c.74-.28 1.48-.53 2.22-.78a.37.37 0 00.31-.43c-.2-.82-.18-1.65-.16-2.48zM147.53 53a5 5 0 115.13-5 5.05 5.05 0 01-5.13 5z" fill="#70e286"/></g></g></g></svg>