<svg xmlns="http://www.w3.org/2000/svg" xmlns:xlink="http://www.w3.org/1999/xlink" viewBox="0 0 504 294.87"><defs><clipPath id="clip-path"><rect width="504" height="287.15" rx="8.26" style="fill:none"/></clipPath><linearGradient id="linear-gradient" x1="2.69" y1="140.14" x2="93.1" y2="290.08" gradientUnits="userSpaceOnUse"><stop offset="0" stop-color="#e1f0f7"/><stop offset="1" stop-color="#93a19d"/></linearGradient><clipPath id="clip-path-2"><rect width="504" height="287.15" style="fill:none"/></clipPath><linearGradient id="Áåçûìÿííûé_ãðàäèåíò_20" x1="72.83" y1="145.77" x2="108.39" y2="145.77" gradientUnits="userSpaceOnUse"><stop offset="0" stop-color="gray"/><stop offset="1" stop-color="#d6d6d6"/></linearGradient><linearGradient id="Áåçûìÿííûé_ãðàäèåíò_20-2" x1="72.83" y1="145.41" x2="108.39" y2="145.41" xlink:href="#Áåçûìÿííûé_ãðàäèåíò_20"/></defs><title>Ресурс 1</title><g style="isolation:isolate"><g id="Слой_2" data-name="Слой 2"><g id="Layer_1" data-name="Layer 1"><g style="clip-path:url(#clip-path)"><rect width="504" height="287.15" style="fill:#fff"/><path d="M504,174.52c0-6.19-13.42-5.05-17.45,13.15-8.66,39.15-14.75,54.63-41.36,69.13-12.19,6.65-34.13,17-41.15,30.35H504Z" style="fill:#27cc82;opacity:0.30000000000000004"/><path d="M328,0c-16.91,10.37-24.59,18.45-36.24,37.88-7.16,11.95-11,27.92-10.69,43.9a88.29,88.29,0,0,0,1.74,15.84c4.17,23,15.74,53.54-7.4,70.89a48.35,48.35,0,0,1-20.23,9.15,88.25,88.25,0,0,1-10.88,1.58c-32.52,0-65.57,6.62-86.22,35.55-15.7,22.3-20,48-14.15,72.36H0V0Z" style="fill:#61d983;opacity:0.28"/><path d="M321.77,0c-19.74,9.88-27,18.45-38.62,37.88-9.55,15.93-13.2,39-8.95,59.73,3.37,16.54,7.57,34.48,4.69,50.83-4.68,26.07-30.34,24.72-49.2,26-18,1.2-38.44,5.83-53.95,16.6C161.3,201.12,151.9,213.61,146,230.44s-8.7,33.24-4.17,56.71H0l1.92-286Z" style="fill:#61d983;opacity:0.28"/><path d="M321.44,0c-22.1,6.27-41.62,34.54-47.76,53-5.54,16.66-5.52,33.91-3.58,51.11,1.55,13.76,3.88,28.51-.4,42-6.83,21.53-31.53,21.12-50,22.68-17.6,1.48-37.64,6-52.29,16.27-13.66,9.56-21.66,24.2-26,40s-7.75,33-4.67,49.3c.8,4.24,1.45,8.84,3.39,12.75-41.83,0-140.07.06-140.07.06V0Z" style="fill:#01b37c"/><path d="M321.44,0c-22.1,6.27-41.62,34.54-47.76,53-5.54,16.66-5.52,33.91-3.58,51.11,1.55,13.76,3.88,28.51-.4,42-6.83,21.53-31.53,21.12-50,22.68-17.6,1.48-37.64,6-52.29,16.27-13.66,9.56-21.66,24.2-26,40s-7.75,33-4.67,49.3c.8,4.24,1.45,8.84,3.39,12.75-41.83,0-140.07.06-140.07.06V0Z" style="fill:#01b37c;mix-blend-mode:overlay"/><g style="opacity:0.81;mix-blend-mode:multiply"><polygon points="47.36 287.15 0 218.72 0.04 52.7 107.91 287.13 47.36 287.15" style="opacity:0.65;fill:url(#linear-gradient)"/></g><g style="clip-path:url(#clip-path-2)"><g style="opacity:0.1"><path d="M243.62,249.14c0-24,12.86-45.61,39.24-45.61s39.24,21.61,39.24,45.61-12.86,45.73-39.24,45.73S243.62,273.13,243.62,249.14Zm51.57,0c0-15-3.85-22-12.33-22s-12.33,7-12.33,22,3.84,22.13,12.33,22.13S295.19,264.12,295.19,249.14Z" style="fill:#999"/><path d="M354.58,293.28V238.93l-15,14.85L324.49,238l33.8-33.14h23.07v88.42Z" style="fill:#999"/></g></g><path d="M286.9,102.34l-153.07,7.85a12.66,12.66,0,0,0-4.23,1,17.44,17.44,0,0,0-4,2.35,18,18,0,0,0-3.29,3.35,14.86,14.86,0,0,0-2.18,4L83.38,227a13.18,13.18,0,0,0-.78,4.67,9.23,9.23,0,0,0,1,3.94,7.14,7.14,0,0,0,2.49,2.79,7.88,7.88,0,0,0,3.83,1.2L253,249.06a15.42,15.42,0,0,0,5.71-.78,18.33,18.33,0,0,0,9.22-7.06,16,16,0,0,0,2.32-5.35l27.16-122.56a9.42,9.42,0,0,0-.05-4.49,8,8,0,0,0-2-3.56,9.23,9.23,0,0,0-3.61-2.27,12.74,12.74,0,0,0-4.85-.65Z" style="fill:#d7d7d7;opacity:0.33;mix-blend-mode:multiply"/><path d="M61.23,208.13,49,207.81a40.17,40.17,0,0,0-6.79,10.55c-.33.79-.63,1.58-.89,2.39-4.78,14.82-1.56,31.92,10,42.88a32.75,32.75,0,0,0,7.56,5.46c.5-10.48,1.9-28.94,3.31-36.75C64.11,221.64,61.23,208.13,61.23,208.13Z" style="fill:#7dc6c2"/><path d="M80,167h0a20.85,20.85,0,0,0-2.5,9.08h0A20.85,20.85,0,0,1,80,167Z" style="fill:#fff"/><path d="M85.69,178.05l-1-.16Z" style="fill:#fff"/><path d="M87.69,178.34l-1-.14Z" style="fill:#fff"/><path d="M80.87,177.09l-.52-.13Z" style="fill:#fff"/><path d="M83.81,177.72l-.41-.07Z" style="fill:#fff"/><path d="M92.62,178.89,91,178.73Z" style="fill:#fff"/><path d="M79.72,176.79l-.56-.17Z" style="fill:#fff"/><path d="M89.76,178.6l-.87-.11Z" style="fill:#fff"/><path d="M93.86,179c1.88.15,3.75.28,5.51.37h0C97.61,179.28,95.74,179.16,93.86,179Z" style="fill:#fff"/><path d="M100.51,179.43l-1.14-.06h0l1.14.06Z" style="fill:#fff"/><path d="M88.89,178.49l-1.2-.15Z" style="fill:#e8eaf1"/><path d="M86.71,178.2l-1-.15Z" style="fill:#e8eaf1"/><path d="M91,178.73l-1.25-.13Z" style="fill:#e8eaf1"/><path d="M77.48,176.05h0q.78.3,1.68.57Q78.26,176.35,77.48,176.05Z" style="fill:#e8eaf1"/><path d="M93.86,179l-1.24-.11Z" style="fill:#e8eaf1"/><path d="M83.4,177.65c-.88-.17-1.73-.35-2.53-.56C81.67,177.3,82.52,177.48,83.4,177.65Z" style="fill:#e8eaf1"/><path d="M80.35,177l-.63-.17Z" style="fill:#e8eaf1"/><path d="M84.71,177.89l-.9-.17Z" style="fill:#e8eaf1"/><polygon points="40.55 215.29 0.26 227.69 13.15 269.57 51.52 251.54 44.85 215.41 40.55 215.29" style="fill:#80769f"/><polygon points="40.55 215.29 0.26 227.69 13.15 269.57 51.52 251.54 44.85 215.41 40.55 215.29" style="fill:#fff;opacity:0.61;mix-blend-mode:overlay"/><polygon points="46 213.3 6.93 212.77 7.87 257.9 46.17 253.44 50.1 214.64 46 213.3" style="fill:#ece9f5"/><path d="M85.81,218.41a5.67,5.67,0,0,1-2.75-.84,5.18,5.18,0,0,1-1.8-2,6.7,6.7,0,0,1-.7-2.81,9.51,9.51,0,0,1,.54-3.34l34.83-101.51a10.52,10.52,0,0,1,1.55-2.89,13.18,13.18,0,0,1,2.37-2.41,12.4,12.4,0,0,1,2.86-1.68,9,9,0,0,1,3-.72l148.23-7a8.83,8.83,0,0,1,3.45.49A6.46,6.46,0,0,1,280,95.41,5.77,5.77,0,0,1,281.41,98a6.81,6.81,0,0,1,0,3.21l-26.3,116.15a11.36,11.36,0,0,1-1.66,3.79,12.9,12.9,0,0,1-2.87,3,12.72,12.72,0,0,1-3.66,2,10.73,10.73,0,0,1-4,.57L85.81,218.41ZM278.28,87.26,125.21,95.11a12.72,12.72,0,0,0-4.23,1,17.09,17.09,0,0,0-4,2.35,17.69,17.69,0,0,0-3.29,3.35,15,15,0,0,0-2.18,4L74.76,211.9a13.31,13.31,0,0,0-.77,4.67,9.23,9.23,0,0,0,1,3.94,7.14,7.14,0,0,0,2.49,2.79,7.88,7.88,0,0,0,3.84,1.2L244.39,234a15.23,15.23,0,0,0,5.71-.79,17.67,17.67,0,0,0,5.17-2.76,18.29,18.29,0,0,0,4-4.28,16.08,16.08,0,0,0,2.32-5.36L288.8,98.23a9.6,9.6,0,0,0,0-4.5,8.08,8.08,0,0,0-2-3.55,9.16,9.16,0,0,0-3.61-2.27,12.71,12.71,0,0,0-4.85-.65Z" style="fill:#e8eaf1;mix-blend-mode:soft-light"/><path d="M189.71,128.1a4.49,4.49,0,0,1-2-.38,3.39,3.39,0,0,1-1.35-1.13,3.69,3.69,0,0,1-.64-1.69,5.29,5.29,0,0,1,.19-2.09,7.35,7.35,0,0,1,1-2.11A8.68,8.68,0,0,1,188.6,119a8.17,8.17,0,0,1,2-1.2,6.32,6.32,0,0,1,2.19-.49,4.49,4.49,0,0,1,2,.36,3.45,3.45,0,0,1,1.37,1.1,3.71,3.71,0,0,1,.66,1.69,5.14,5.14,0,0,1-.17,2.1,7.59,7.59,0,0,1-1,2.13,8.6,8.6,0,0,1-1.65,1.76,8.32,8.32,0,0,1-2,1.21,6.41,6.41,0,0,1-2.21.48Zm3.95-13.8a9.69,9.69,0,0,0-3.38.76,12.75,12.75,0,0,0-3.12,1.86,14,14,0,0,0-2.52,2.7,11.39,11.39,0,0,0-1.59,3.27,8,8,0,0,0-.31,3.24,5.8,5.8,0,0,0,1,2.64,5.28,5.28,0,0,0,2.09,1.76,6.65,6.65,0,0,0,3,.6,9.48,9.48,0,0,0,3.43-.74,12.34,12.34,0,0,0,3.17-1.88,13.36,13.36,0,0,0,2.56-2.75,11.53,11.53,0,0,0,1.59-3.32,8.12,8.12,0,0,0,.26-3.27,5.81,5.81,0,0,0-1-2.61,5.28,5.28,0,0,0-2.13-1.71,6.78,6.78,0,0,0-3-.55ZM133.07,203a.42.42,0,0,1-.16,0,.38.38,0,0,1-.11-.11.38.38,0,0,1-.05-.16.58.58,0,0,1,0-.18.77.77,0,0,1,.1-.18.67.67,0,0,1,.14-.15.59.59,0,0,1,.17-.1.42.42,0,0,1,.19,0l37,1.37a.34.34,0,0,1,.17.05.25.25,0,0,1,.12.11.44.44,0,0,1,.06.16.43.43,0,0,1,0,.19.66.66,0,0,1-.09.19.54.54,0,0,1-.15.15.52.52,0,0,1-.18.1.43.43,0,0,1-.19,0l-37-1.41Zm1.46-4.71a.42.42,0,0,1-.16,0,.38.38,0,0,1-.11-.11.27.27,0,0,1,0-.15.65.65,0,0,1,0-.19,1.62,1.62,0,0,1,.1-.18.5.5,0,0,1,.14-.15.56.56,0,0,1,.17-.09.4.4,0,0,1,.19,0l36.93,1.22a.58.58,0,0,1,.18,0,.63.63,0,0,1,.12.11.3.3,0,0,1,.05.16.41.41,0,0,1,0,.19.52.52,0,0,1-.09.2l-.14.15-.18.1a.69.69,0,0,1-.2,0l-36.95-1.26Zm-12.88,5,2.21-7,6.51.21-2.2,7-6.52-.25Zm15.26-12.66-.16,0a.38.38,0,0,1-.11-.11.33.33,0,0,1,0-.15.57.57,0,0,1,0-.18.66.66,0,0,1,.09-.19l.14-.14a.4.4,0,0,1,.17-.09.39.39,0,0,1,.18,0l36.82,1a.33.33,0,0,1,.17,0,.32.32,0,0,1,.12.11.39.39,0,0,1,.06.15.68.68,0,0,1,0,.2.61.61,0,0,1-.09.18.54.54,0,0,1-.15.15.4.4,0,0,1-.18.1.41.41,0,0,1-.19,0l-36.83-1Zm1.44-4.63a.62.62,0,0,1-.16,0,.29.29,0,0,1-.11-.11.25.25,0,0,1-.05-.15.39.39,0,0,1,0-.18.76.76,0,0,1,.09-.18,1,1,0,0,1,.14-.15.7.7,0,0,1,.17-.09.42.42,0,0,1,.19,0l36.74.84a.34.34,0,0,1,.17,0,.29.29,0,0,1,.12.1.28.28,0,0,1,.05.16.38.38,0,0,1,0,.18.66.66,0,0,1-.09.19,1.06,1.06,0,0,1-.15.15.59.59,0,0,1-.17.1.69.69,0,0,1-.2,0L138.35,186Zm-12.79,4.94,2.18-6.85,6.47.14-2.16,6.9-6.49-.19Zm15.18-12.68a.29.29,0,0,1-.16,0,.19.19,0,0,1-.1-.1.24.24,0,0,1,0-.14.43.43,0,0,1,0-.19.56.56,0,0,1,.09-.17.5.5,0,0,1,.14-.15,1,1,0,0,1,.17-.1l.18,0,36.61.61a.39.39,0,0,1,.17,0,.45.45,0,0,1,.13.11.53.53,0,0,1,.05.15.37.37,0,0,1,0,.18.56.56,0,0,1-.09.19.54.54,0,0,1-.15.15.59.59,0,0,1-.17.1.69.69,0,0,1-.2,0l-36.63-.64Zm1.41-4.55a.33.33,0,0,1-.15,0,.22.22,0,0,1-.11-.1.25.25,0,0,1,0-.15.35.35,0,0,1,0-.17A.51.51,0,0,1,142,173a.66.66,0,0,1,.14-.15.56.56,0,0,1,.17-.09.39.39,0,0,1,.18,0l36.54.48a.47.47,0,0,1,.17,0,.43.43,0,0,1,.12.11.34.34,0,0,1,.06.15.68.68,0,0,1,0,.19.76.76,0,0,1-.09.18.62.62,0,0,1-.14.14.67.67,0,0,1-.18.11.63.63,0,0,1-.19,0l-36.56-.5Zm-12.7,5,2.15-6.75L138,172l-2.13,6.79-6.46-.12ZM191.13,188a20.94,20.94,0,0,1,3.05-6.42,24,24,0,0,1,4.94-5.17,23.49,23.49,0,0,1,6.19-3.47,19.53,19.53,0,0,1,6.82-1.24l-4.41,16.8,17.24.42a20,20,0,0,1-1.18,3.33,22.47,22.47,0,0,1-1.75,3.09,23.72,23.72,0,0,1-2.22,2.8,25.35,25.35,0,0,1-2.63,2.45l5.33,7.53a6.59,6.59,0,0,1,1-.52,6.26,6.26,0,0,1,1-.38,6.44,6.44,0,0,1,1.06-.22,5.45,5.45,0,0,1,1.07-.05,5.33,5.33,0,0,1,2.28.57,4.59,4.59,0,0,1,1.65,1.4,4.84,4.84,0,0,1,.86,2,5.92,5.92,0,0,1-.1,2.43,7.32,7.32,0,0,1-1.08,2.4,8.26,8.26,0,0,1-4.12,3.17,6.67,6.67,0,0,1-2.54.37,5.24,5.24,0,0,1-2.28-.6,4.54,4.54,0,0,1-1.62-1.42,4.83,4.83,0,0,1-.83-2,6.09,6.09,0,0,1,.12-2.42,8.47,8.47,0,0,1,.37-1.07,7.91,7.91,0,0,1,.52-1,6.76,6.76,0,0,1,.67-.92,8.61,8.61,0,0,1,.78-.82L216,201.49a23.34,23.34,0,0,1-3,1.78,21.88,21.88,0,0,1-3.14,1.3,20.68,20.68,0,0,1-3.25.76,18.28,18.28,0,0,1-3.3.19,14.61,14.61,0,0,1-6.25-1.6,12.17,12.17,0,0,1-4.35-3.85,12.72,12.72,0,0,1-2.1-5.49,16.2,16.2,0,0,1,.48-6.56Zm47.41-14.63v-.18c0-.06,0-.13,0-.19l0-.19c0-.07,0-.13,0-.2a3.81,3.81,0,0,1,.53-1.16,4.45,4.45,0,0,1,.9-.94,3.86,3.86,0,0,1,1.14-.63,3.7,3.7,0,0,1,1.27-.23,3,3,0,0,1,1.16.25,2.34,2.34,0,0,1,.83.65,2.17,2.17,0,0,1,.44,1,2.63,2.63,0,0,1,0,1.18,3.39,3.39,0,0,1-.53,1.16,4.23,4.23,0,0,1-2.05,1.58,3.7,3.7,0,0,1-1.27.23,3.6,3.6,0,0,1-.69-.09,2.46,2.46,0,0,1-1.09-.58,2.28,2.28,0,0,1-.36-.46l-13.29,5.7a12.75,12.75,0,0,1,.23,1.42,14.84,14.84,0,0,1,.05,1.5,14.19,14.19,0,0,1-.12,1.56,16.17,16.17,0,0,1-.32,1.6l0,.08-14.53-.33,3.7-14.14h.08a13.76,13.76,0,0,1,3.66.54,11.32,11.32,0,0,1,3.05,1.46,10.11,10.11,0,0,1,3.89,5.16l13.29-5.71ZM121.2,155.1A.61.61,0,0,1,121,155a.46.46,0,0,1-.16-.15.57.57,0,0,1-.08-.23.93.93,0,0,1,0-.27,1,1,0,0,1,.14-.28,1.52,1.52,0,0,1,.22-.22,1.22,1.22,0,0,1,.27-.15.71.71,0,0,1,.28-.06l38.57-.1a.67.67,0,0,1,.26,0,.46.46,0,0,1,.18.16.43.43,0,0,1,.09.23.67.67,0,0,1,0,.28,1.11,1.11,0,0,1-.14.29,1.67,1.67,0,0,1-.23.23,1,1,0,0,1-.28.16.93.93,0,0,1-.29.05l-38.59.07Zm91.21-.14a.83.83,0,0,1-.29-.06.68.68,0,0,1-.21-.17.64.64,0,0,1-.1-.24.72.72,0,0,1,0-.29.83.83,0,0,1,.14-.3,1,1,0,0,1,.23-.24,1.14,1.14,0,0,1,.61-.23l28.75-.07a.75.75,0,0,1,.31.06.69.69,0,0,1,.22.16.71.71,0,0,1,.11.25.61.61,0,0,1,0,.3.79.79,0,0,1-.14.31,1,1,0,0,1-.23.24,1.17,1.17,0,0,1-.31.17.92.92,0,0,1-.33.06l-28.77.05Zm-89.58-4.85a.48.48,0,0,1-.24-.06.35.35,0,0,1-.17-.15.48.48,0,0,1-.07-.22.93.93,0,0,1,0-.27,1,1,0,0,1,.14-.27,1.15,1.15,0,0,1,.22-.22.76.76,0,0,1,.26-.15.71.71,0,0,1,.28-.06l38.48-.26a.45.45,0,0,1,.27.05.52.52,0,0,1,.18.15.45.45,0,0,1,.08.23.54.54,0,0,1,0,.28.92.92,0,0,1-.14.28,1,1,0,0,1-.23.24,1.43,1.43,0,0,1-.27.15.8.8,0,0,1-.3.06l-38.51.22Zm91-.52a.68.68,0,0,1-.29-.06.45.45,0,0,1-.2-.16.48.48,0,0,1-.1-.23.62.62,0,0,1,0-.3,1.11,1.11,0,0,1,.14-.29,1.31,1.31,0,0,1,.23-.24,1.18,1.18,0,0,1,.29-.16,1.23,1.23,0,0,1,.32-.07l28.68-.19a.68.68,0,0,1,.52.22.52.52,0,0,1,.11.25.62.62,0,0,1,0,.3,1,1,0,0,1-.13.3,1.36,1.36,0,0,1-.24.24.87.87,0,0,1-.3.16.78.78,0,0,1-.33.07l-28.7.16Zm-89.41-4.32a.6.6,0,0,1-.24-.05.5.5,0,0,1-.17-.15.48.48,0,0,1-.07-.22.93.93,0,0,1,0-.27.87.87,0,0,1,.14-.27,1.19,1.19,0,0,1,.22-.23,1.35,1.35,0,0,1,.26-.15.87.87,0,0,1,.28-.05l38.4-.42a.67.67,0,0,1,.26,0,.4.4,0,0,1,.18.16.43.43,0,0,1,.09.22.69.69,0,0,1,0,.28.92.92,0,0,1-.14.28,1,1,0,0,1-.22.23,1.12,1.12,0,0,1-.28.16.75.75,0,0,1-.29.06l-38.43.37Zm90.79-.88a.82.82,0,0,1-.28,0,.69.69,0,0,1-.21-.16.51.51,0,0,1-.1-.24.66.66,0,0,1,0-.28.85.85,0,0,1,.15-.3,1.26,1.26,0,0,1,.22-.24,1.18,1.18,0,0,1,.29-.16.91.91,0,0,1,.32-.06l28.6-.31a.73.73,0,0,1,.3,0,.52.52,0,0,1,.22.16.44.44,0,0,1,.11.24.76.76,0,0,1,0,.3,1,1,0,0,1-.14.3,1.05,1.05,0,0,1-.23.24,1,1,0,0,1-.3.17,1,1,0,0,1-.33.07l-28.63.27Zm-89.18-4a.39.39,0,0,1-.24,0,.36.36,0,0,1-.16-.14.44.44,0,0,1-.07-.22.64.64,0,0,1,0-.27,1.15,1.15,0,0,1,.14-.27,1.52,1.52,0,0,1,.22-.22.76.76,0,0,1,.26-.15.71.71,0,0,1,.28-.06l38.32-.57a.55.55,0,0,1,.26,0,.65.65,0,0,1,.18.15.69.69,0,0,1,.09.23.66.66,0,0,1,0,.27,1,1,0,0,1-.14.28,1,1,0,0,1-.23.23.92.92,0,0,1-.27.16.94.94,0,0,1-.29.06l-38.35.52Zm90.59-1.24a.65.65,0,0,1-.29-.06.5.5,0,0,1-.2-.15.53.53,0,0,1-.11-.24.69.69,0,0,1,0-.28.78.78,0,0,1,.14-.29,1,1,0,0,1,.23-.24.88.88,0,0,1,.28-.16.74.74,0,0,1,.32-.07l28.53-.42a.84.84,0,0,1,.29.05.52.52,0,0,1,.22.16.55.55,0,0,1,.12.24.57.57,0,0,1,0,.29.83.83,0,0,1-.14.3,1,1,0,0,1-.23.24,1.11,1.11,0,0,1-.3.17.88.88,0,0,1-.33.07l-28.54.39Zm-60-6.07,2.67-8.67,9.72-.26-2.64,8.74-9.75.19Zm-14.45.28,4.69-14.72,9.47-.3-4.63,14.84-9.53.18Zm46.18-.55a8.09,8.09,0,0,1-3.64-.72,6.24,6.24,0,0,1-2.51-2.11A6.9,6.9,0,0,1,181,126.8a9.41,9.41,0,0,1,.37-3.87,13.13,13.13,0,0,1,1.9-3.89,15.79,15.79,0,0,1,3-3.2,14.82,14.82,0,0,1,3.73-2.23,11.94,11.94,0,0,1,4.06-.91,8.25,8.25,0,0,1,3.64.65,6.47,6.47,0,0,1,2.57,2,6.82,6.82,0,0,1,1.25,3.12,9.33,9.33,0,0,1-.3,3.9,13,13,0,0,1-1.9,3.95,15.71,15.71,0,0,1-3.07,3.29,15.11,15.11,0,0,1-3.82,2.25,11.76,11.76,0,0,1-4.12.88ZM135.66,111l9.22-.34-7.31,22.72-9.31.18,7.4-22.56Zm82.85,21.09L225.19,107l28.3-1.08-6.31,25.68-28.67.55ZM274,93.28l-148.23,7a9,9,0,0,0-3,.72,12.4,12.4,0,0,0-2.86,1.68,13.18,13.18,0,0,0-2.37,2.41,10.52,10.52,0,0,0-1.55,2.89L81.1,209.45a9.51,9.51,0,0,0-.54,3.34,6.7,6.7,0,0,0,.7,2.81,5.18,5.18,0,0,0,1.8,2,5.67,5.67,0,0,0,2.75.84l157.08,8.27a10.73,10.73,0,0,0,4-.57,12.72,12.72,0,0,0,3.66-2,12.9,12.9,0,0,0,2.87-3,11.36,11.36,0,0,0,1.66-3.79l26.3-116.15a6.81,6.81,0,0,0,0-3.21A5.77,5.77,0,0,0,280,95.41a6.46,6.46,0,0,0-2.57-1.64,8.83,8.83,0,0,0-3.45-.49Z" style="fill:#1863f5"/><polygon points="138.03 171.98 131.6 171.9 129.45 178.65 135.91 178.77 138.03 171.98 138.03 171.98" style="fill:#f7d900"/><polygon points="134.22 184.18 127.74 184.03 125.56 190.9 132.05 191.08 134.22 184.18 134.22 184.18" style="fill:#e8eaf1"/><polygon points="130.37 196.47 123.86 196.26 121.64 203.24 128.17 203.49 130.37 196.47 130.37 196.47" style="fill:#e8eaf1"/><path d="M179,173.22l-36.54-.48a.39.39,0,0,0-.18,0,.56.56,0,0,0-.17.09.66.66,0,0,0-.14.15.51.51,0,0,0-.09.18.35.35,0,0,0,0,.17.25.25,0,0,0,0,.15.22.22,0,0,0,.11.1.33.33,0,0,0,.15,0l36.56.5a.63.63,0,0,0,.19,0,.67.67,0,0,0,.18-.11.62.62,0,0,0,.14-.14.76.76,0,0,0,.09-.18.68.68,0,0,0,0-.19.34.34,0,0,0-.06-.15.43.43,0,0,0-.12-.11.47.47,0,0,0-.17,0Z" style="fill:#877f9f"/><path d="M177.64,177.9,141,177.29l-.18,0a1,1,0,0,0-.17.1.5.5,0,0,0-.14.15.56.56,0,0,0-.09.17.43.43,0,0,0,0,.19.24.24,0,0,0,0,.14.19.19,0,0,0,.1.1.29.29,0,0,0,.16,0l36.63.64a.69.69,0,0,0,.2,0,.59.59,0,0,0,.17-.1.54.54,0,0,0,.15-.15.56.56,0,0,0,.09-.19.37.37,0,0,0,0-.18.53.53,0,0,0-.05-.15.45.45,0,0,0-.13-.11.39.39,0,0,0-.17,0Z" style="fill:#877f9f"/><path d="M175.38,185.86,138.64,185a.42.42,0,0,0-.19,0,.7.7,0,0,0-.17.09,1,1,0,0,0-.14.15.76.76,0,0,0-.09.18.39.39,0,0,0,0,.18.25.25,0,0,0,.05.15.29.29,0,0,0,.11.11.62.62,0,0,0,.16,0l36.75.87a.69.69,0,0,0,.2,0,.59.59,0,0,0,.17-.1,1.06,1.06,0,0,0,.15-.15.66.66,0,0,0,.09-.19.38.38,0,0,0,0-.18.28.28,0,0,0-.05-.16.29.29,0,0,0-.12-.1.34.34,0,0,0-.17,0Z" style="fill:#877f9f"/><path d="M174,190.63l-36.82-1a.39.39,0,0,0-.18,0,.4.4,0,0,0-.17.09l-.14.14a.66.66,0,0,0-.09.19.57.57,0,0,0,0,.18.33.33,0,0,0,0,.15.38.38,0,0,0,.11.11l.16,0,36.83,1a.41.41,0,0,0,.19,0,.4.4,0,0,0,.18-.1.54.54,0,0,0,.15-.15.61.61,0,0,0,.09-.18.68.68,0,0,0,0-.2.39.39,0,0,0-.06-.15.32.32,0,0,0-.12-.11.33.33,0,0,0-.17,0Z" style="fill:#877f9f"/><path d="M171.76,198.54l-36.93-1.22a.4.4,0,0,0-.19,0,.56.56,0,0,0-.17.09.5.5,0,0,0-.14.15,1.62,1.62,0,0,0-.1.18.65.65,0,0,0,0,.19.27.27,0,0,0,0,.15.38.38,0,0,0,.11.11.42.42,0,0,0,.16,0l36.95,1.26a.69.69,0,0,0,.2,0l.18-.1.14-.15a.52.52,0,0,0,.09-.2.41.41,0,0,0,0-.19.3.3,0,0,0-.05-.16.63.63,0,0,0-.12-.11.58.58,0,0,0-.18,0Z" style="fill:#877f9f"/><path d="M170.38,203.39l-37-1.37a.42.42,0,0,0-.19,0,.59.59,0,0,0-.17.1.67.67,0,0,0-.14.15.77.77,0,0,0-.1.18.58.58,0,0,0,0,.18.38.38,0,0,0,.05.16.38.38,0,0,0,.11.11.42.42,0,0,0,.16,0l37,1.41a.43.43,0,0,0,.19,0,.52.52,0,0,0,.18-.1.54.54,0,0,0,.15-.15.66.66,0,0,0,.09-.19.43.43,0,0,0,0-.19.44.44,0,0,0-.06-.16.25.25,0,0,0-.12-.11.34.34,0,0,0-.17-.05Z" style="fill:#877f9f"/><polygon points="144.88 110.69 135.66 111.03 128.26 133.59 137.57 133.41 144.88 110.69 144.88 110.69" style="fill:#fff"/><polygon points="156.35 118.3 146.88 118.59 142.19 133.32 151.72 133.14 156.35 118.3 156.35 118.3" style="fill:#4da9ff"/><polygon points="169.03 124.11 159.31 124.37 156.63 133.04 166.39 132.85 169.03 124.11 169.03 124.11" style="fill:#f7d900"/><path d="M238.54,173.39l-13.29,5.71c0,.09.06.19.1.28s.05.19.08.28l.08.29c0,.1,0,.2.07.3l13.29-5.7a1.74,1.74,0,0,1-.14-.27,2.31,2.31,0,0,1-.1-.28,1.36,1.36,0,0,1-.06-.29,1.73,1.73,0,0,1,0-.32Z" style="fill:#f7d900"/><path d="M217.18,200.61l-.29.23-.3.22-.3.22-.3.21,5.33,7.55.29-.24.29-.24.3-.22.31-.2-5.33-7.53Z" style="fill:#fff"/><path d="M212.13,171.72a19.53,19.53,0,0,0-6.82,1.24,23.49,23.49,0,0,0-6.19,3.47,24,24,0,0,0-4.94,5.17,20.94,20.94,0,0,0-3.05,6.42,16.2,16.2,0,0,0-.48,6.56,12.72,12.72,0,0,0,2.1,5.49,12.17,12.17,0,0,0,4.35,3.85,14.61,14.61,0,0,0,6.25,1.6,19,19,0,0,0,7-1.11,22.76,22.76,0,0,0,6.43-3.5,23.59,23.59,0,0,0,5.11-5.35,20.38,20.38,0,0,0,3.07-6.62l-17.24-.42,4.41-16.8Z" style="fill:#fff"/><path d="M214.65,171.94h-.08l-3.7,14.14,14.53.33,0-.08a16.17,16.17,0,0,0,.32-1.6,14.19,14.19,0,0,0,.12-1.56,14.84,14.84,0,0,0-.05-1.5,12.75,12.75,0,0,0-.23-1.42c0-.1-.05-.2-.07-.3l-.08-.29c0-.09-.05-.19-.08-.28s-.07-.19-.1-.28a10.11,10.11,0,0,0-3.89-5.16,11.32,11.32,0,0,0-3.05-1.46,13.76,13.76,0,0,0-3.66-.54Z" style="fill:#f7d900"/><path d="M226.64,207a5.45,5.45,0,0,0-1.07.05,6.44,6.44,0,0,0-1.06.22,6.26,6.26,0,0,0-1,.38,6.59,6.59,0,0,0-1,.52l-.31.2-.3.22-.29.24-.29.24a8.61,8.61,0,0,0-.78.82,6.76,6.76,0,0,0-.67.92,7.91,7.91,0,0,0-.52,1,8.47,8.47,0,0,0-.37,1.07,6.09,6.09,0,0,0-.12,2.42,4.83,4.83,0,0,0,.83,2,4.54,4.54,0,0,0,1.62,1.42,5.24,5.24,0,0,0,2.28.6,6.67,6.67,0,0,0,2.54-.37,8.26,8.26,0,0,0,4.12-3.17,7.32,7.32,0,0,0,1.08-2.4,5.92,5.92,0,0,0,.1-2.43,4.84,4.84,0,0,0-.86-2,4.59,4.59,0,0,0-1.65-1.4,5.33,5.33,0,0,0-2.28-.57Z" style="fill:#fff"/><path d="M242.46,169.67a3.7,3.7,0,0,0-1.27.23,3.86,3.86,0,0,0-1.14.63,4.45,4.45,0,0,0-.9.94,3.81,3.81,0,0,0-.53,1.16c0,.07,0,.13,0,.2l0,.19c0,.06,0,.13,0,.19v.18a1.73,1.73,0,0,0,0,.32,1.36,1.36,0,0,0,.06.29,2.31,2.31,0,0,0,.1.28,1.74,1.74,0,0,0,.14.27,2.28,2.28,0,0,0,.36.46,2.46,2.46,0,0,0,1.09.58,3.6,3.6,0,0,0,.69.09,3.7,3.7,0,0,0,1.27-.23,4.23,4.23,0,0,0,2.05-1.58,3.39,3.39,0,0,0,.53-1.16,2.63,2.63,0,0,0,0-1.18,2.17,2.17,0,0,0-.44-1,2.34,2.34,0,0,0-.83-.65,3,3,0,0,0-1.16-.25Z" style="fill:#f7d900"/><path d="M188.84,131.13a6.65,6.65,0,0,1-3-.6,5.28,5.28,0,0,1-2.09-1.76,5.8,5.8,0,0,1-1-2.64,8,8,0,0,1,.31-3.24,11.39,11.39,0,0,1,1.59-3.27,14,14,0,0,1,2.52-2.7,12.75,12.75,0,0,1,3.12-1.86,9.69,9.69,0,0,1,3.38-.76,6.78,6.78,0,0,1,3,.55,5.28,5.28,0,0,1,2.13,1.71,5.81,5.81,0,0,1,1,2.61,8.12,8.12,0,0,1-.26,3.27,11.53,11.53,0,0,1-1.59,3.32,13.36,13.36,0,0,1-2.56,2.75,12.34,12.34,0,0,1-3.17,1.88,9.48,9.48,0,0,1-3.43.74Zm5.28-18.43a11.94,11.94,0,0,0-4.06.91,14.82,14.82,0,0,0-3.73,2.23,15.79,15.79,0,0,0-3,3.2,13.13,13.13,0,0,0-1.9,3.89,9.41,9.41,0,0,0-.37,3.87,6.9,6.9,0,0,0,1.18,3.14,6.24,6.24,0,0,0,2.51,2.11,8.09,8.09,0,0,0,3.64.72,11.76,11.76,0,0,0,4.12-.88,15.11,15.11,0,0,0,3.82-2.25,15.71,15.71,0,0,0,3.07-3.29,13,13,0,0,0,1.9-3.95,9.33,9.33,0,0,0,.3-3.9,6.82,6.82,0,0,0-1.25-3.12,6.47,6.47,0,0,0-2.57-2,8.25,8.25,0,0,0-3.64-.65Z" style="fill:#f7d900"/><path d="M192.81,117.27a6.32,6.32,0,0,0-2.19.49,8.17,8.17,0,0,0-2,1.2A8.68,8.68,0,0,0,187,120.7a7.35,7.35,0,0,0-1,2.11,5.29,5.29,0,0,0-.19,2.09,3.69,3.69,0,0,0,.64,1.69,3.39,3.39,0,0,0,1.35,1.13,4.49,4.49,0,0,0,2,.38,6.41,6.41,0,0,0,2.21-.48,8.32,8.32,0,0,0,2-1.21,8.6,8.6,0,0,0,1.65-1.76,7.59,7.59,0,0,0,1-2.13,5.14,5.14,0,0,0,.17-2.1,3.71,3.71,0,0,0-.66-1.69,3.45,3.45,0,0,0-1.37-1.1,4.49,4.49,0,0,0-2-.36Z" style="fill:#f7d900"/><path d="M245.54,137.2l-28.53.42a.74.74,0,0,0-.32.07.88.88,0,0,0-.28.16,1,1,0,0,0-.23.24.78.78,0,0,0-.14.29.69.69,0,0,0,0,.28.53.53,0,0,0,.11.24.5.5,0,0,0,.2.15.65.65,0,0,0,.29.06l28.54-.39a.88.88,0,0,0,.33-.07,1.11,1.11,0,0,0,.3-.17,1,1,0,0,0,.23-.24.83.83,0,0,0,.14-.3.57.57,0,0,0,0-.29.55.55,0,0,0-.12-.24.52.52,0,0,0-.22-.16.84.84,0,0,0-.29-.05Z" style="fill:#c3bfcf"/><path d="M244.21,142.59l-28.6.31a.91.91,0,0,0-.32.06,1.18,1.18,0,0,0-.29.16,1.26,1.26,0,0,0-.22.24.85.85,0,0,0-.15.3.66.66,0,0,0,0,.28.51.51,0,0,0,.1.24.69.69,0,0,0,.21.16.82.82,0,0,0,.28,0l28.63-.27a1,1,0,0,0,.33-.07,1,1,0,0,0,.3-.17,1.05,1.05,0,0,0,.23-.24,1,1,0,0,0,.14-.3.76.76,0,0,0,0-.3.44.44,0,0,0-.11-.24.52.52,0,0,0-.22-.16.73.73,0,0,0-.3,0Z" style="fill:#c3bfcf"/><path d="M242.91,147.89l-28.68.19a1.23,1.23,0,0,0-.32.07,1.18,1.18,0,0,0-.29.16,1.31,1.31,0,0,0-.23.24,1.11,1.11,0,0,0-.14.29.62.62,0,0,0,0,.3.48.48,0,0,0,.1.23.45.45,0,0,0,.2.16.68.68,0,0,0,.29.06l28.7-.16a.78.78,0,0,0,.33-.07.87.87,0,0,0,.3-.16,1.36,1.36,0,0,0,.24-.24,1,1,0,0,0,.13-.3.62.62,0,0,0,0-.3.52.52,0,0,0-.11-.25.68.68,0,0,0-.52-.22Z" style="fill:#c3bfcf"/><path d="M241.56,153.36l-28.75.07a1.14,1.14,0,0,0-.61.23,1,1,0,0,0-.23.24.83.83,0,0,0-.14.3.72.72,0,0,0,0,.29.64.64,0,0,0,.1.24.68.68,0,0,0,.21.17.83.83,0,0,0,.29.06l28.77-.05a.92.92,0,0,0,.33-.06,1.17,1.17,0,0,0,.31-.17,1,1,0,0,0,.23-.24.79.79,0,0,0,.14-.31.61.61,0,0,0,0-.3.71.71,0,0,0-.11-.25.69.69,0,0,0-.22-.16.75.75,0,0,0-.31-.06Z" style="fill:#c3bfcf"/><path d="M164.81,138.4l-38.32.57a.71.71,0,0,0-.28.06.76.76,0,0,0-.26.15,1.52,1.52,0,0,0-.22.22,1.15,1.15,0,0,0-.14.27.64.64,0,0,0,0,.27.44.44,0,0,0,.07.22.36.36,0,0,0,.16.14.39.39,0,0,0,.24,0l38.35-.52a.94.94,0,0,0,.29-.06.92.92,0,0,0,.27-.16,1,1,0,0,0,.23-.23,1,1,0,0,0,.14-.28.66.66,0,0,0,0-.27.69.69,0,0,0-.09-.23.65.65,0,0,0-.18-.15.55.55,0,0,0-.26,0Z" style="fill:#c3bfcf"/><path d="M163.28,143.46l-38.4.42a.87.87,0,0,0-.28.05,1.35,1.35,0,0,0-.26.15,1.19,1.19,0,0,0-.22.23.87.87,0,0,0-.14.27.93.93,0,0,0,0,.27.48.48,0,0,0,.07.22.5.5,0,0,0,.17.15.6.6,0,0,0,.24.05l38.43-.37a.75.75,0,0,0,.29-.06,1.12,1.12,0,0,0,.28-.16,1,1,0,0,0,.22-.23.92.92,0,0,0,.14-.28.69.69,0,0,0,0-.28.43.43,0,0,0-.09-.22.4.4,0,0,0-.18-.16.67.67,0,0,0-.26,0Z" style="fill:#c3bfcf"/><path d="M161.77,148.45l-38.48.26a.71.71,0,0,0-.28.06.76.76,0,0,0-.26.15,1.15,1.15,0,0,0-.22.22,1,1,0,0,0-.14.27.93.93,0,0,0,0,.27.48.48,0,0,0,.07.22.35.35,0,0,0,.17.15.48.48,0,0,0,.24.06l38.51-.22a.8.8,0,0,0,.3-.06,1.43,1.43,0,0,0,.27-.15,1,1,0,0,0,.23-.24.92.92,0,0,0,.14-.28.54.54,0,0,0,0-.28.45.45,0,0,0-.08-.23.52.52,0,0,0-.18-.15.45.45,0,0,0-.27-.05Z" style="fill:#c3bfcf"/><path d="M160.23,153.58l-38.57.1a.71.71,0,0,0-.28.06,1.22,1.22,0,0,0-.27.15,1.52,1.52,0,0,0-.22.22,1,1,0,0,0-.14.28.93.93,0,0,0,0,.27.57.57,0,0,0,.08.23.46.46,0,0,0,.16.15.61.61,0,0,0,.25.06l38.59-.07a.93.93,0,0,0,.29-.05,1,1,0,0,0,.28-.16,1.67,1.67,0,0,0,.23-.23,1.11,1.11,0,0,0,.14-.29.67.67,0,0,0,0-.28.43.43,0,0,0-.09-.23.46.46,0,0,0-.18-.16.67.67,0,0,0-.26,0Z" style="fill:#c3bfcf"/><polygon points="253.49 105.89 225.19 106.97 218.51 132.12 247.18 131.57 253.49 105.89 253.49 105.89" style="fill:#fff"/><path d="M107.87,141.45h0a1,1,0,0,1-1.44-.49l-5-11.35a1.14,1.14,0,0,1,.59-1.46h0a1,1,0,0,1,1.43.49l5,11.35A1.14,1.14,0,0,1,107.87,141.45Z" style="fill:#473f65"/><path d="M107.58,148.72a18,18,0,0,0-5.64-11.9,43.8,43.8,0,0,0-5.86-13.42l-.45-.66L78.38,127s10,16.33,9.73,17.18-4.7,2.11-4.7,2.11-6.44-6.76-9.66-3.1,3.08,9.29,3.08,9.29l.41,6.76-3.63,1.41.4,5.92c3.23,2.53,21.08,2.25,21.49,2.25s.13-3.8.13-3.8,8.7.73,10.61-.7C109.76,161.64,108,156.19,107.58,148.72Z" style="fill:#f4af9f"/><path d="M106.24,164.29a4.84,4.84,0,0,0,1.4-1.67c-14.71,2.51-16.86-17.19-16.86-17.19s-5.19-11-5.19-14.16c0-2.85,9-6.47,10.91-7.21l-.42-.66-.45-.66L78.38,127s10,16.33,9.73,17.18-4.7,2.11-4.7,2.11-6.44-6.76-9.66-3.1,3.08,9.29,3.08,9.29l.41,6.76-3.63,1.41.4,5.92a7.37,7.37,0,0,0,2.64,1l10.67.51c1.23-3.86,6.5-3.71,6.5-3.71l2.28.65C97.93,165.15,104.59,165.52,106.24,164.29Z" style="fill:#e1708b"/><g style="opacity:0.72;mix-blend-mode:overlay"><path d="M107.58,148.72a18,18,0,0,0-5.64-11.9,43.8,43.8,0,0,0-5.86-13.42l-.45-.66L78.38,127s10,16.33,9.73,17.18-4.7,2.11-4.7,2.11-6.44-6.76-9.66-3.1,3.08,9.29,3.08,9.29l.41,6.76-3.63,1.41.4,5.92c3.23,2.53,21.08,2.25,21.49,2.25s.13-3.8.13-3.8,8.7.73,10.61-.7C109.76,161.64,108,156.19,107.58,148.72Z" style="fill:url(#Áåçûìÿííûé_ãðàäèåíò_20)"/><path d="M106.24,164.29a4.84,4.84,0,0,0,1.4-1.67c-14.71,2.51-16.86-17.19-16.86-17.19s-5.19-11-5.19-14.16c0-2.85,9-6.47,10.91-7.21l-.42-.66-.45-.66L78.38,127s10,16.33,9.73,17.18-4.7,2.11-4.7,2.11-6.44-6.76-9.66-3.1,3.08,9.29,3.08,9.29l.41,6.76-3.63,1.41.4,5.92a7.37,7.37,0,0,0,2.64,1l10.67.51c1.23-3.86,6.5-3.71,6.5-3.71l2.28.65C97.93,165.15,104.59,165.52,106.24,164.29Z" style="fill:url(#Áåçûìÿííûé_ãðàäèåíò_20-2)"/></g><path d="M78.13,153.31s-7.61-6.49-4.38-10.15,9.66,3.1,9.66,3.1,4.44-1.27,4.7-2.11S82.5,133.21,84,129.64c1.22-2.92,11.58-7.28,11.86-6.85,6.92-5.89,3.76-20.37,3.76-20.37-3.63,8.3-23.25,10.18-33.84,13.79-12.54,4.29-9.39,15.84-9.39,15.84-1.88,1.12-6.3,7.65,5.16,15.47a40,40,0,0,1,12.08,13.1s4.09-.86,4.61-1.71C79.1,157.49,78.13,153.31,78.13,153.31Z" style="fill:#473f65"/><path d="M82.13,144.2l-.64-1c.43-.3,14.76-5.75,23.26-9l.43,1.1C96.27,138.72,82.79,143.86,82.13,144.2Z" style="fill:#473f65"/><path d="M175.74,157.46s0-8.42.57-12.45a4.76,4.76,0,0,1,4.27-4.25s6.4-18.64,8.81-17.3-2.84,13-2.27,14.92,11.8,5.21,11.37,12.37-8.24,12.38-8.24,12.38Z" style="fill:#e9989c"/><path d="M180.84,140c-.17.48-.26.76-.26.76a4.76,4.76,0,0,0-4.27,4.25c-.57,4-.57,12.45-.57,12.45l14.51,5.67s5.2-3.47,7.35-8.64C185.24,151.43,181.37,145.55,180.84,140Z" style="fill:#e1708b"/><path d="M194.5,163.41l2.1-3.31C193.2,152,178,150.18,178,150.18l-2.5,3.64C179,154.18,189.59,155.89,194.5,163.41Z" style="fill:#e8eaf1"/><path d="M194.5,163.41c-4.91-7.52-15.53-9.23-19-9.59-.7-.08-1.11-.09-1.11-.09l-26.1,34.52s-27.45-6.44-42.33-8.53c-.85-.12-1.68-.21-2.48-.29,0,0-21.52-.28-22-.33l-1.92-.19-1.5-.16-1-.12-1.44-.19-1.17-.16-1.23-.19L72,177.9l-1.07-.2a3.86,3.86,0,0,1-.49-.09c-1-.2-2.07-.42-3-.66l-.62-.16-.75-.21-.67-.19c-.71-.22-1.39-.45-2-.69,0,0-37.89,2.7-35.5,37.31l14.61.29s.9,28.1,1.69,43.21c.5,9.48-1.35,18.12-6.12,30.64h73.49c-.69-11-1.64-26.9-.89-33.26,1.08-9,5.95-24.73,5.3-34,15.5,0,35-.23,40.69-1.72,9.82-2.57,38.67-53.32,38.67-53.32A14.81,14.81,0,0,0,194.5,163.41Z" style="fill:#473f65"/><path d="M103.67,178.91l-6.11-9.56-.94-1.48-30.45-2.58a24.83,24.83,0,0,0-2.71,10.94c.63.22,1.31.43,2,.63l.67.18.76.19.63.14c1,.22,2,.41,3,.58l.49.08,1.08.17,1.17.16,1.23.16,1.17.13,1.45.15,1,.09,1.51.13,1.92.13,1.49.09c2.26.14,4.49.22,6.61.28l1.35,0c4.3.09,8,.06,10.36,0l1.88,0,.72,0Z" style="fill:#f4f6f8"/><path d="M101.31,179.21c-1-.13-2.06-.27-3.06-.42q-3.56-.56-6.67-1.27-2.33-.54-4.41-1.14c-15.09-4.37-21-11.09-21-11.09a24.8,24.8,0,0,0-2.71,10.93c.63.23,1.31.44,2,.64l.67.18.76.18.63.15c1,.21,2,.4,3,.58l.49.08,1.08.16,1.18.17,1.23.15,1.17.13c.48.05,1,.11,1.45.15l1,.1,1.5.12,1.93.14,1.48.09c2.26.13,4.49.22,6.61.27l1.36,0c4.29.09,8,.06,10.35,0l1.88,0,.72,0C103.12,179.42,102.21,179.32,101.31,179.21Z" style="fill:#e8eaf1"/><path d="M115.82,219.85c-.44,0-22.37-1.62-28.95-4.32,0,0,19.71,10.47,28.82,9.85A33.81,33.81,0,0,0,115.82,219.85Z" style="fill:#656565;mix-blend-mode:soft-light"/><path d="M201.58,118.5a6.82,6.82,0,0,0-1.25-3.12,6.47,6.47,0,0,0-2.57-2,8.25,8.25,0,0,0-3.64-.65,11.94,11.94,0,0,0-4.06.91,14.82,14.82,0,0,0-3.73,2.23,15.79,15.79,0,0,0-3,3.2,13.13,13.13,0,0,0-1.9,3.89,9.41,9.41,0,0,0-.37,3.87c0,.16.05.31.08.47a15.19,15.19,0,0,1,1.79-.3,5.68,5.68,0,0,1-.17-.84,8,8,0,0,1,.31-3.24,11.39,11.39,0,0,1,1.59-3.27,14,14,0,0,1,2.52-2.7,12.75,12.75,0,0,1,3.12-1.86,9.69,9.69,0,0,1,3.38-.76,6.78,6.78,0,0,1,3,.55,5.28,5.28,0,0,1,2.13,1.71,5.81,5.81,0,0,1,1,2.61,8.12,8.12,0,0,1-.26,3.27,11.53,11.53,0,0,1-1.59,3.32,13.36,13.36,0,0,1-2.56,2.75,13.58,13.58,0,0,1-2.08,1.37,14.23,14.23,0,0,1,1.2,1,16.12,16.12,0,0,0,1.75-1.22,15.71,15.71,0,0,0,3.07-3.29,13,13,0,0,0,1.9-3.95A9.33,9.33,0,0,0,201.58,118.5Z" style="fill:#f7d900"/><path d="M191.72,73.13a42.09,42.09,0,0,1-25.84-8.76A1.7,1.7,0,0,1,168,61.68a39.58,39.58,0,0,0,25.64,8,1.65,1.65,0,0,1,1.76,1.63,1.7,1.7,0,0,1-1.63,1.77C193.06,73.11,192.39,73.13,191.72,73.13Z" style="fill:#333;mix-blend-mode:soft-light"/><path d="M209.9,68.87a1.7,1.7,0,0,1-.76-3.22,39.46,39.46,0,0,0,17.25-16.93,1.7,1.7,0,0,1,3,1.57,42.9,42.9,0,0,1-18.75,18.4A1.76,1.76,0,0,1,209.9,68.87Z" style="fill:#333;mix-blend-mode:soft-light"/><path d="M125,40.72a1.81,1.81,0,0,1-.83-.22,46.9,46.9,0,0,0-17.44-5.66,1.7,1.7,0,0,1,.4-3.38,50.42,50.42,0,0,1,18.7,6.07,1.7,1.7,0,0,1-.83,3.19Z" style="fill:#333;mix-blend-mode:soft-light"/><path d="M61.84,54a1.7,1.7,0,0,1-1.35-2.73,51,51,0,0,1,29.43-19,1.7,1.7,0,1,1,.74,3.31A47.56,47.56,0,0,0,63.2,53.37,1.69,1.69,0,0,1,61.84,54Z" style="fill:#333;mix-blend-mode:soft-light"/><path d="M169.69,47.93c0,12.79-9.88,23.15-22.07,23.15s-22.08-10.36-22.08-23.15,9.89-23.15,22.08-23.15S169.69,35.14,169.69,47.93Z" style="fill:#fff"/><path d="M169.69,47.93c0,12.79-9.88,23.15-22.07,23.15s-22.08-10.36-22.08-23.15,9.89-23.15,22.08-23.15S169.69,35.14,169.69,47.93Z" style="fill:none"/><path d="M208.07,69.17a6.27,6.27,0,1,1-6.26-6.56A6.41,6.41,0,0,1,208.07,69.17Z" style="fill:#fff"/><path d="M208.07,69.17a6.27,6.27,0,1,1-6.26-6.56A6.41,6.41,0,0,1,208.07,69.17Z" style="fill:none"/><path d="M233.47,44a3.61,3.61,0,1,1-3.61-3.79A3.71,3.71,0,0,1,233.47,44Z" style="fill:#fff"/><path d="M233.47,44a3.61,3.61,0,1,1-3.61-3.79A3.71,3.71,0,0,1,233.47,44Z" style="fill:none"/><path d="M104.89,33.31a6.27,6.27,0,1,1-6.25-6.57A6.41,6.41,0,0,1,104.89,33.31Z" style="fill:#fff"/><path d="M104.89,33.31a6.27,6.27,0,1,1-6.25-6.57A6.41,6.41,0,0,1,104.89,33.31Z" style="fill:none"/><path d="M64.81,61.78a8.72,8.72,0,1,1-8.72-9.14A8.94,8.94,0,0,1,64.81,61.78Z" style="fill:#fff"/><path d="M64.81,61.78a8.72,8.72,0,1,1-8.72-9.14A8.94,8.94,0,0,1,64.81,61.78Z" style="fill:none"/><path d="M160.64,46.76a.4.4,0,0,0-.32-.47c-.73-.26-1.45-.53-2.15-.84a.84.84,0,0,1-.4-.43c-.29-.7-.55-1.41-.8-2.12a.76.76,0,0,1,0-.47c.36-.77.76-1.53,1.12-2.3a.48.48,0,0,0,0-.44c-.58-.63-1.19-1.24-1.77-1.87a.35.35,0,0,0-.49-.09c-.74.36-1.49.7-2.26,1a.74.74,0,0,1-.51,0q-1.08-.41-2.13-.87a.82.82,0,0,1-.4-.38c-.28-.74-.53-1.48-.77-2.22-.07-.24-.17-.36-.45-.36-.82,0-1.66,0-2.49,0a.41.41,0,0,0-.46.34c-.26.72-.56,1.43-.82,2.16a.66.66,0,0,1-.47.43c-.69.23-1.36.48-2,.77a.64.64,0,0,1-.64,0c-.72-.38-1.46-.73-2.17-1.11a.38.38,0,0,0-.53.09c-.58.59-1.18,1.16-1.79,1.73-.21.18-.19.33-.09.56.35.73.69,1.47,1,2.22a.72.72,0,0,1,0,.54c-.31.7-.65,1.39-1,2.07a.9.9,0,0,1-.43.41c-.78.28-1.56.53-2.35.77-.25.08-.36.18-.36.46,0,.82,0,1.65,0,2.48a.38.38,0,0,0,.3.44c.8.27,1.59.55,2.38.86a.91.91,0,0,1,.4.44c.31.67.56,1.37.88,2a.73.73,0,0,1,0,.73c-.35.68-.68,1.38-1,2.06a.41.41,0,0,0,.09.57c.59.58,1.16,1.17,1.72,1.78a.39.39,0,0,0,.56.09c.73-.34,1.46-.65,2.18-1a.66.66,0,0,1,.64,0c.68.35,1.39.64,2.08,1a.72.72,0,0,1,.35.38c.28.79.54,1.59.79,2.4a.38.38,0,0,0,.43.31c.83,0,1.66,0,2.49.05.27,0,.37-.09.46-.34.26-.78.54-1.56.85-2.32a.84.84,0,0,1,.4-.39c.72-.32,1.44-.62,2.17-.9a.74.74,0,0,1,.51,0c.83.39,1.66.81,2.53,1.23.69-.67,1.38-1.34,2.05-2a.52.52,0,0,0,.05-.44c-.33-.77-.69-1.51-1-2.27a.72.72,0,0,1,0-.48c.27-.74.55-1.46.86-2.18a.78.78,0,0,1,.39-.39c.74-.28,1.48-.53,2.22-.78a.37.37,0,0,0,.31-.43C160.6,48.42,160.62,47.59,160.64,46.76ZM147.53,53a5,5,0,1,1,5.13-5A5.05,5.05,0,0,1,147.53,53Z" style="fill:#70e286"/></g></g></g></g></svg>