<svg viewBox="0 0 1792 375" xmlns="http://www.w3.org/2000/svg" fill-rule="evenodd" clip-rule="evenodd" stroke-linejoin="round" stroke-miterlimit="2"><g font-family="'ArialMT','Arial',sans-serif" font-size="16" fill="#223983"><text x="552.208" y="5503.52" transform="translate(-4437.5 -45647.608) scale(8.33333)">Верн<tspan x="589.381" y="5503.52">у</tspan>тьс<tspan x="620.912" y="5503.52">я</tspan></text><text x="632.768" y="5503.52" transform="translate(-4437.5 -45647.608) scale(8.33333)">в</text><text x="645.104" y="5503.52" transform="translate(-4437.5 -45647.608) scale(8.33333)">пор<tspan x="671.114px 678.409px 691.54px 700.054px 709.357px" y="5503.52px 5503.52px 5503.52px 5503.52px 5503.52px">тфоли</tspan>о</text></g><path d="M.211.1A.1.1 0 01.112 0a.1.1 0 01.099-.1h.753a.1.1 0 01.1.1.1.1 0 01-.1.1H.211zM.134 0c0 .043.035.078.077.078h.753a.078.078 0 000-.156H.211A.078.078 0 00.134 0z" fill="url(#_Linear1)" fill-rule="nonzero" transform="matrix(1881.51591 0 0 -1881.51591 -210.302 187.498)"/><defs><linearGradient id="_Linear1" x1="0" y1="0" x2="1" y2="0" gradientUnits="userSpaceOnUse" gradientTransform="scale(1 -1)"><stop offset="0" stop-color="#9e4a99"/><stop offset="0" stop-color="#9e4a99"/><stop offset=".32" stop-color="#223980"/><stop offset="1" stop-color="#67be89"/></linearGradient></defs></svg>