<svg viewBox="0 0 1667 375" xmlns="http://www.w3.org/2000/svg" fill-rule="evenodd" clip-rule="evenodd" stroke-linejoin="round" stroke-miterlimit="2"><g font-family="'ArialMT','Arial',sans-serif" font-size="16" fill="#223982"><text x="560.896" y="2503.78" transform="translate(-4500 -20644.097) scale(8.33333)">Смо<tspan x="592.095px 599.455px 608.385px 616.785px 624.145px" y="2503.78px 2503.78px 2503.78px 2503.78px 2503.78px">треть</tspan></text><text x="636.241" y="2503.78" transform="translate(-4500 -20644.097) scale(8.33333)">пор<tspan x="662.446px 669.807px 683.003px 691.582px 700.95px" y="2503.78px 2503.78px 2503.78px 2503.78px 2503.78px">тфоли</tspan>о</text></g><path d="M.219.107a.107.107 0 010-.214h.738a.107.107 0 010 .214H.219zM.136 0c0 .046.037.083.083.083h.738a.083.083 0 100-.166H.219A.083.083 0 00.136 0z" fill="url(#_Linear1)" fill-rule="nonzero" transform="matrix(1750.2493 0 0 -1750.2493 -195.635 187.508)"/><defs><linearGradient id="_Linear1" x1="0" y1="0" x2="1" y2="0" gradientUnits="userSpaceOnUse" gradientTransform="scale(1 -1)"><stop offset="0" stop-color="#a04a9b"/><stop offset="0" stop-color="#a04a9b"/><stop offset=".32" stop-color="#223982"/><stop offset="1" stop-color="#67c08b"/></linearGradient></defs></svg>