<svg viewBox="0 0 1394 292" xmlns="http://www.w3.org/2000/svg" fill-rule="evenodd" clip-rule="evenodd" stroke-linejoin="round" stroke-miterlimit="2"><g font-family="'ArialMT','Arial',sans-serif" font-size="12.444" fill="#223981"><text x="94.963" y="3746.59" transform="translate(-636.575 -31053.454) scale(8.33333)">Посм<tspan x="125.728px 132.406px 138.136px 145.088px 151.626px 157.356px" y="3746.59px 3746.59px 3746.59px 3746.59px 3746.59px 3746.59px">отреть</tspan> СМ<tspan x="186.632" y="3746.59">И</tspan></text><text x="198.191" y="3746.59" transform="translate(-636.575 -31053.454) scale(8.33333)">о</text><text x="208.097" y="3746.59" transform="translate(-636.575 -31053.454) scale(8.33333)">нас</text></g><path d="M.211.1A.1.1 0 01.112 0a.1.1 0 01.099-.1h.753a.1.1 0 01.1.1.1.1 0 01-.1.1H.211zM.134 0c0 .043.035.078.077.078h.753a.078.078 0 000-.156H.211A.078.078 0 00.134 0z" fill="url(#_Linear1)" fill-rule="nonzero" transform="matrix(1463.39941 0 0 -1463.39941 -163.57 145.854)"/><defs><linearGradient id="_Linear1" x1="0" y1="0" x2="1" y2="0" gradientUnits="userSpaceOnUse" gradientTransform="scale(1 -1)"><stop offset="0" stop-color="#9f4a9a"/><stop offset="0" stop-color="#9f4a9a"/><stop offset=".32" stop-color="#223981"/><stop offset="1" stop-color="#67bf8a"/></linearGradient></defs></svg>