<svg viewBox="0 0 1621 292" xmlns="http://www.w3.org/2000/svg" fill-rule="evenodd" clip-rule="evenodd" stroke-linejoin="round" stroke-miterlimit="2"><path d="M.197.086A.086.086 0 01.112 0c0-.047.038-.086.085-.086h.781a.086.086 0 110 .172H.197z" fill="url(#_Linear1)" fill-rule="nonzero" transform="matrix(1701.63265 0 0 -1701.63265 -190.19 145.856)"/><path d="M1474.54 259.29H145.84c-62.541 0-113.425-50.875-113.425-113.417C32.415 83.323 83.3 32.44 145.84 32.44h1328.7c62.542 0 113.425 50.883 113.425 113.433 0 62.542-50.883 113.417-113.425 113.417" fill="#fff" fill-rule="nonzero"/><g font-family="'ArialMT','Arial',sans-serif" font-size="13" fill="#223981"><text x="76.568" y="3115.18" transform="translate(-523.142 -25783.003) scale(8.33333)">Св<tspan x="92.528" y="3115.18">я</tspan>за<tspan x="112.19px 118.05px 124.729px 131.135px" y="3115.18px 3115.18px 3115.18px 3115.18px">ться</tspan></text><text x="140.437" y="3115.18" transform="translate(-523.142 -25783.003) scale(8.33333)">со</text><text x="156.609" y="3115.18" transform="translate(-523.142 -25783.003) scale(8.33333)">сп<tspan x="169.961px 177.096px 184.448px 191.615px 198.751px 206.242px 213.41px 219.816px 225.53px" y="3115.18px 3115.18px 3115.18px 3115.18px 3115.18px 3115.18px 3115.18px 3115.18px 3115.18px">ециалисто</tspan>м</text></g><defs><linearGradient id="_Linear1" x1="0" y1="0" x2="1" y2="0" gradientUnits="userSpaceOnUse" gradientTransform="scale(1 -1)"><stop offset="0" stop-color="#a04a9b"/><stop offset="0" stop-color="#a04a9b"/><stop offset=".32" stop-color="#223982"/><stop offset="1" stop-color="#67c08b"/></linearGradient></defs></svg>