<svg viewBox="0 0 1792 375" xmlns="http://www.w3.org/2000/svg" fill-rule="evenodd" clip-rule="evenodd" stroke-linejoin="round" stroke-miterlimit="2"><g font-family="'ArialMT','Arial',sans-serif" font-size="16" fill="#223980"><text x="556.487" y="3202.76" transform="translate(-4438.38 -26472.964) scale(8.33333)">Пос<tspan x="585.003px 596.042px 604.628px 611.995px 620.933px 629.339px 636.706px" y="3202.76px 3202.76px 3202.76px 3202.76px 3202.76px 3202.76px 3202.76px">мотреть</tspan> СМ<tspan x="674.347" y="3202.76">И</tspan></text><text x="689.207" y="3202.76" transform="translate(-4438.38 -26472.964) scale(8.33333)">о</text><text x="701.943" y="3202.76" transform="translate(-4438.38 -26472.964) scale(8.33333)">нас</text></g><path d="M.211.1A.1.1 0 01.112 0a.1.1 0 01.099-.1h.753a.1.1 0 01.1.1.1.1 0 01-.1.1H.211zM.134 0c0 .043.035.078.077.078h.753a.078.078 0 000-.156H.211A.078.078 0 00.134 0z" fill="url(#_Linear1)" fill-rule="nonzero" transform="matrix(1881.51591 0 0 -1881.51591 -210.307 187.49)"/><defs><linearGradient id="_Linear1" x1="0" y1="0" x2="1" y2="0" gradientUnits="userSpaceOnUse" gradientTransform="scale(1 -1)"><stop offset="0" stop-color="#9e4a99"/><stop offset="0" stop-color="#9e4a99"/><stop offset=".32" stop-color="#223980"/><stop offset="1" stop-color="#67be89"/></linearGradient></defs></svg>