<svg viewBox="0 0 1125 375" xmlns="http://www.w3.org/2000/svg" fill-rule="evenodd" clip-rule="evenodd" stroke-linejoin="round" stroke-miterlimit="2"><path d="M.27.159A.159.159 0 01.112 0c0-.088.071-.159.158-.159h.635a.159.159 0 110 .318H.27z" fill="url(#_Linear1)" fill-rule="nonzero" transform="matrix(1181.4162 0 0 -1181.4162 -132.054 187.554)"/><path d="M937.496 335.554h-750c-80.408 0-145.833-65.425-145.833-145.834 0-80.408 65.425-145.833 145.833-145.833h750c80.408 0 145.833 65.425 145.833 145.833 0 80.409-65.425 145.834-145.833 145.834" fill="#fff" fill-rule="nonzero"/><text x="723.31" y="3927.28" font-family="'ArialMT','Arial',sans-serif" font-size="16" fill="#223982" transform="translate(-5762.81 -32497.814) scale(8.33333)">См<tspan x="746.029px 754.658px 762.069px 771.05px 779.499px 786.91px" y="3927.28px 3927.28px 3927.28px 3927.28px 3927.28px 3927.28px">отреть</tspan></text><defs><linearGradient id="_Linear1" x1="0" y1="0" x2="1" y2="0" gradientUnits="userSpaceOnUse" gradientTransform="scale(1 -1)"><stop offset="0" stop-color="#a04a9b"/><stop offset="0" stop-color="#a04a9b"/><stop offset=".32" stop-color="#223982"/><stop offset="1" stop-color="#67c08b"/></linearGradient></defs></svg>