<svg viewBox="0 0 2084 375" xmlns="http://www.w3.org/2000/svg" fill-rule="evenodd" clip-rule="evenodd" stroke-linejoin="round" stroke-miterlimit="2"><path d="M.197.086A.086.086 0 01.112 0c0-.047.038-.086.085-.086h.781a.086.086 0 110 .172H.197z" fill="url(#_Linear1)" fill-rule="nonzero" transform="matrix(2187.80746 0 0 -2187.80746 -244.53 187.425)"/><path d="M1895.844 336.175H187.512c-80.409 0-145.834-65.425-145.834-145.833S107.103 44.509 187.512 44.509h1708.332c80.408 0 145.833 65.425 145.833 145.833s-65.425 145.833-145.833 145.833" fill="#fff" fill-rule="nonzero"/><g font-family="'ArialMT','Arial',sans-serif" font-size="16" fill="#223982"><text x="537.029" y="2507.84" transform="translate(-4289.22 -20671.376) scale(8.33333)">С<tspan x="548.468px 556.672px" y="2507.84px 2507.84px">вя</tspan>за<tspan x="580.871px 588.083px 596.303px 604.187px" y="2507.84px 2507.84px 2507.84px 2507.84px">ться</tspan></text><text x="615.636" y="2507.84" transform="translate(-4289.22 -20671.376) scale(8.33333)">со</text><text x="635.54" y="2507.84" transform="translate(-4289.22 -20671.376) scale(8.33333)">с<tspan x="643.424px 651.972px 660.754px 669.802px 678.624px 687.406px 696.626px 705.447px 713.331px 720.364px" y="2507.84px 2507.84px 2507.84px 2507.84px 2507.84px 2507.84px 2507.84px 2507.84px 2507.84px 2507.84px">пециалисто</tspan>м</text></g><defs><linearGradient id="_Linear1" x1="0" y1="0" x2="1" y2="0" gradientUnits="userSpaceOnUse" gradientTransform="scale(1 -1)"><stop offset="0" stop-color="#a04a9b"/><stop offset="0" stop-color="#a04a9b"/><stop offset=".32" stop-color="#223982"/><stop offset="1" stop-color="#67c08b"/></linearGradient></defs></svg>