<svg viewBox="0 0 834 188" xmlns="http://www.w3.org/2000/svg" fill-rule="evenodd" clip-rule="evenodd" stroke-linejoin="round" stroke-miterlimit="2"><g font-family="'ArialMT','Arial',sans-serif" font-size="16" fill="#223983"><text x="738" y="569.18" transform="translate(-2950.73 -2262.556) scale(4.16667)">О<tspan x="750.684px 758.251px 767.153px 776.29px 785.428px 794.166px 803.342px 810.909px" y="569.18px 569.18px 569.18px 569.18px 569.18px 569.18px 569.18px 569.18px">тправить</tspan></text><text x="822.606" y="569.18" transform="translate(-2950.73 -2262.556) scale(4.16667)">п<tspan x="831.509px 840.685px 848.924px 857.498px 868.737px" y="569.18px 569.18px 569.18px 569.18px 569.18px">исьмо</tspan></text></g><path d="M.219.107a.107.107 0 010-.214h.738a.107.107 0 010 .214H.219zM.136 0c0 .046.037.083.083.083h.738a.083.083 0 100-.166H.219A.083.083 0 00.136 0z" fill="url(#_Linear1)" fill-rule="nonzero" transform="matrix(875.1257 0 0 -875.1257 -97.815 93.754)"/><defs><linearGradient id="_Linear1" x1="0" y1="0" x2="1" y2="0" gradientUnits="userSpaceOnUse" gradientTransform="scale(1 -1)"><stop offset="0" stop-color="#a04a9b"/><stop offset="0" stop-color="#a04a9b"/><stop offset=".32" stop-color="#223982"/><stop offset="1" stop-color="#67c08b"/></linearGradient></defs></svg>