<svg viewBox="0 0 649 146" xmlns="http://www.w3.org/2000/svg" fill-rule="evenodd" clip-rule="evenodd" stroke-linejoin="round" stroke-miterlimit="2"><g font-family="'ArialMT','Arial',sans-serif" font-size="13" fill="#223983"><text x="102.983" y="661.322" transform="translate(-342.592 -2670.701) scale(4.16667)">О<tspan x="113.289px 119.437px 126.67px 134.094px 141.518px 148.619px 156.074px 162.222px" y="661.322px 661.322px 661.322px 661.322px 661.322px 661.322px 661.322px 661.322px">тправить</tspan></text><text x="171.727" y="661.322" transform="translate(-342.592 -2670.701) scale(4.16667)">п<tspan x="178.96px 186.416px 193.11px 200.077px 209.209px" y="661.322px 661.322px 661.322px 661.322px 661.322px">исьмо</tspan></text></g><path d="M.219.107a.107.107 0 010-.214h.738a.107.107 0 010 .214H.219zM.136 0c0 .046.037.083.083.083h.738a.083.083 0 100-.166H.219A.083.083 0 00.136 0z" fill="url(#_Linear1)" fill-rule="nonzero" transform="matrix(680.65471 0 0 -680.65471 -76.077 72.921)"/><defs><linearGradient id="_Linear1" x1="0" y1="0" x2="1" y2="0" gradientUnits="userSpaceOnUse" gradientTransform="scale(1 -1)"><stop offset="0" stop-color="#a04a9b"/><stop offset="0" stop-color="#a04a9b"/><stop offset=".32" stop-color="#223982"/><stop offset="1" stop-color="#67c08b"/></linearGradient></defs></svg>