<svg viewBox="0 0 1667 375" xmlns="http://www.w3.org/2000/svg" fill-rule="evenodd" clip-rule="evenodd" stroke-linejoin="round" stroke-miterlimit="2"><g font-family="'ArialMT','Arial',sans-serif" font-size="16" fill="#223982"><text x="524.692" y="3469.27" transform="translate(-4049.43 -28699.75) scale(8.33333)">Ост<tspan x="552.324px 561.235px" y="3469.27px 3469.27px">ав</tspan>ить</text><text x="597.667" y="3469.27" transform="translate(-4049.43 -28699.75) scale(8.33333)">заявк<tspan x="638.307" y="3469.27">у</tspan></text></g><path d="M.219.107a.107.107 0 010-.214h.738a.107.107 0 010 .214H.219zM.136 0c0 .046.037.083.083.083h.738a.083.083 0 100-.166H.219A.083.083 0 00.136 0z" fill="url(#_Linear1)" fill-rule="nonzero" transform="matrix(1750.2493 0 0 -1750.2493 -195.632 187.538)"/><defs><linearGradient id="_Linear1" x1="0" y1="0" x2="1" y2="0" gradientUnits="userSpaceOnUse" gradientTransform="scale(1 -1)"><stop offset="0" stop-color="#a04a9b"/><stop offset="0" stop-color="#a04a9b"/><stop offset=".32" stop-color="#223982"/><stop offset="1" stop-color="#67c08b"/></linearGradient></defs></svg>