<svg viewBox="0 0 55 60" xmlns="http://www.w3.org/2000/svg" fill-rule="evenodd" clip-rule="evenodd" stroke-linejoin="round" stroke-miterlimit="2"><path d="M15.703 56.223c2.292-2.32 4.316-4.264 6.208-6.33 1.034-1.128 2.174-1.576 3.682-1.622 3.818-.112 7.64-.264 11.442-.59 8.376-.722 12.634-4.424 14.35-12.618 1.372-6.56 1.186-13.132-.218-19.712-1.152-5.402-4.302-8.96-9.436-10.566-9.066-2.836-18.25-3.186-27.38-.276-4.766 1.516-8.59 4.304-10.064 9.378-.618 2.12-.934 4.342-1.216 6.542-.78 6.05-.718 12.058 1.346 17.898.928 2.618 2.404 4.892 4.808 6.354 1.262.766 2.71 1.244 4.102 1.782 1.644.638 2.438 1.764 2.388 3.552-.054 1.918-.012 3.84-.012 6.208m-2.614 3.648c0-3.266-.022-6.45.018-9.634.01-.8-.214-1.266-1.004-1.488-7.566-2.132-10.284-7.98-11.51-14.992-1.15-6.592-.514-13.124.938-19.56C2.889 8.169 7.043 4.509 12.655 2.375 18.889.007 25.383-.351 31.927.265c3.11.294 6.234.824 9.248 1.636 6.956 1.874 11.274 6.314 12.658 13.548 1.412 7.368 1.486 14.67-.366 21.97-1.96 7.714-7.164 11.682-14.804 12.604-4.31.518-8.672.582-13.006.924-.638.052-1.384.36-1.842.8-2.376 2.27-4.738 4.56-6.97 6.974-1.048 1.136-2.15 1.5-3.756 1.15" fill="#59267c" fill-rule="nonzero"/><path d="M35.441 43.073c-.296-.098-.954-.258-1.566-.524-10.962-4.72-18.82-12.424-23.032-23.736-1.126-3.028.95-6.65 4.948-7.026.636-.06 1.55.444 1.98.974 1.482 1.83 2.844 3.76 4.176 5.702.786 1.15.48 2.256-.6 3.052-2.764 2.032-2.488 3.248-.912 6.058 1.67 2.972 4.214 4.98 7.308 6.36 1.374.61 2.404.296 3.312-.836 1.624-2.026 3.108-2.288 5.244-.854a65.978 65.978 0 014.202 3.094c1.482 1.178 1.652 2.226.774 3.934-1.084 2.106-3.568 3.842-5.834 3.802m7.67-19.736c-.09.812-.162 1.626-.276 2.436-.12.862-.404 1.732-1.472 1.584-1.106-.154-1.206-.988-1.05-1.984.468-3.008.074-5.898-1.698-8.438-2.866-4.114-6.82-5.794-11.786-4.996-.918.148-1.71.082-1.902-.974-.192-1.05.516-1.41 1.434-1.584 8.716-1.644 16.742 5.056 16.75 13.956" fill="#59267c" fill-rule="nonzero"/><path d="M29.017 13.139c5.778-.02 10.374 4.734 10.192 10.52-.014.43.016.956-.21 1.264-.35.472-.902.792-1.368 1.178-.36-.482-.932-.922-1.036-1.454-.228-1.17-.038-2.436-.344-3.574-.946-3.52-4.534-5.854-8.096-5.374-.974.132-1.838.064-1.978-1.076-.144-1.166.712-1.45 1.68-1.482.386-.014.774-.002 1.16-.002" fill="#59267c" fill-rule="nonzero"/><path d="M35.213 23.745c-.188.176-.664.962-1.102.942-.476-.024-1.19-.73-1.322-1.256-.656-2.636-1.422-3.388-3.946-3.918-.508-.108-.88-.882-1.316-1.348.5-.402.984-1.128 1.502-1.154 3.152-.156 6.238 3.008 6.184 6.734" fill="#59267c" fill-rule="nonzero"/></svg>