<svg viewBox="0 0 61 61" xmlns="http://www.w3.org/2000/svg" fill-rule="evenodd" clip-rule="evenodd" stroke-linejoin="round" stroke-miterlimit="2"><path d="M36.93 46.168c1.452.104 2.408-.73 2.738-2.23 1.742-7.9 3.468-15.804 5.212-23.702.192-.876.082-1.63-.622-2.242-.702-.61-1.472-.618-2.306-.3a32685.17 32685.17 0 01-30.388 11.51c-.724.272-1.322.674-1.312 1.516.008.838.598 1.242 1.338 1.494 1.784.608 3.574 1.2 5.336 1.874 1.472.562 2.77.376 4.09-.478 3.794-2.462 7.63-4.862 11.454-7.286.924-.588 1.838-1.198 2.79-1.742.208-.12.548-.002.828.008-.044.274-.038.57-.152.81-.096.204-.328.344-.502.51-3.332 3.21-6.672 6.414-9.998 9.634-1.046 1.01-1.034 1.838.074 2.644 3.434 2.506 6.884 4.986 10.344 7.456.378.27.848.414 1.076.524m23.132-16.174C59.82 46.658 46.916 59.914 30.148 60 13.602 60.084.272 47.13.004 30.25-.258 13.672 13.388.042 29.99 0c16.466-.04 29.998 13.458 30.072 29.994" fill="#08c" fill-rule="nonzero"/></svg>