<svg viewBox="0 0 60 60" xmlns="http://www.w3.org/2000/svg" fill-rule="evenodd" clip-rule="evenodd" stroke-linejoin="round" stroke-miterlimit="2"><path d="M7.58 52.571c2.966-.954 5.582-1.756 8.168-2.646.776-.268 1.364-.212 2.066.21 4.77 2.852 9.916 3.894 15.452 3.272 12.004-1.348 23.154-12.508 21.108-27.69C52.65 12.911 40.484 3.615 27.69 5.069 9.75 7.105.16 26.983 9.772 42.281c.638 1.016.708 1.816.3 2.902-.874 2.33-1.602 4.714-2.492 7.388M0 59.999c.572-1.756 1.078-3.342 1.606-4.922 1.026-3.084 2.028-6.178 3.12-9.24.36-1.01.246-1.81-.232-2.764C-.778 32.559-.36 22.163 6.356 12.577 13.372 2.557 23.454-1.629 35.498.571c11.974 2.186 19.874 9.566 23.068 21.352 4.654 17.168-7.332 34.432-24.968 36.414-5.726.642-11.168-.328-16.324-2.868-.846-.418-1.568-.44-2.446-.152-4.576 1.502-9.172 2.95-13.762 4.41-.28.09-.574.148-1.066.272" fill="#43d854" fill-rule="nonzero"/><path d="M37.91 43.903c-.68-.136-1.658-.252-2.584-.538-6.748-2.072-12.014-6.116-15.886-12.006-1.642-2.496-3.3-4.978-3.676-8.042-.348-2.834.556-5.24 2.51-7.292 1.224-1.288 2.742-1.202 4.262-.864.356.08.73.584.892.976.778 1.882 1.556 3.768 2.182 5.704.186.582-.036 1.35-.228 1.984-.128.422-.52.774-.822 1.132-1.504 1.788-1.858 1.328-.26 3.866a20.103 20.103 0 005.186 5.562 22.62 22.62 0 003.31 1.998c.994.49 1.762.45 2.478-.446.608-.764 1.306-1.462 1.928-2.218.496-.604 1.05-.78 1.752-.414 1.978 1.038 3.974 2.042 5.91 3.148.326.188.57.842.548 1.264-.158 3.238-2.304 5.52-5.564 6-.542.078-1.092.106-1.938.186" fill="#43d854" fill-rule="nonzero"/></svg>