<svg viewBox="0 0 60 61" xmlns="http://www.w3.org/2000/svg" fill-rule="evenodd" clip-rule="evenodd" stroke-linejoin="round" stroke-miterlimit="2"><path d="M29.536 48.074c4.178-.076 7.784-.654 10.958-2.836 3.116-2.144 4.622-5.162 4.486-8.894-.142-3.87-2.264-6.48-5.734-8.004-1.418-.624-2.908-1.116-4.4-1.548-3.058-.884-6.162-1.612-9.198-2.554-1.482-.458-2.73-1.48-2.666-3.206.064-1.778 1.346-2.858 2.926-3.274 4.706-1.238 8.358-.754 10.396 3.506.21.442.518.846.8 1.252 1.088 1.55 2.64 1.69 4.168 1.028 1.576-.682 2.448-2.118 1.968-3.82-.37-1.318-1.028-2.694-1.942-3.694-4.902-5.356-17.68-5.602-22.958-.544-3.662 3.508-3.68 9.462.31 12.57 1.946 1.516 4.436 2.446 6.81 3.276 2.864 1 5.944 1.394 8.784 2.45 3.48 1.294 3.97 5.04 1.154 7.23-4.18 3.246-10.81 1.694-13.05-3.042-.36-.764-.728-1.554-1.246-2.212-1.112-1.41-2.608-1.676-4.196-.942-1.528.706-2.348 2.034-1.84 3.644.522 1.654 1.202 3.378 2.262 4.712 3.216 4.032 7.846 4.752 12.208 4.902m28.234-17.64c-.694 2.27.358 4.752 1.236 7.406 2.236 6.748.676 12.864-4.562 17.658-5.238 4.794-11.422 5.7-18.002 3.004-1.616-.662-3.094-.976-4.878-.808-14.338 1.354-28.23-10.556-29.218-24.978-.12-1.76.07-3.54-.032-5.304-.066-1.088-.218-2.252-.67-3.222C-1.41 17.656-.144 9.95 4.91 4.9 9.96-.146 17.664-1.404 24.204 1.638c1.028.478 2.302.738 3.428.646 16.272-1.32 29.994 11.21 30.138 28.15" fill="#00aff0" fill-rule="nonzero"/></svg>