<svg viewBox="0 0 60 60" xmlns="http://www.w3.org/2000/svg" fill-rule="evenodd" clip-rule="evenodd" stroke-linejoin="round" stroke-miterlimit="2"><path d="M46.63 29.945h.006c0-2.322.018-4.644-.016-6.964-.006-.44-.166-.894-.326-1.312-.238-.614-1.136-.846-1.682-.418-.856.67-1.682 1.384-2.516 2.082-.756.636-1.566 1.22-2.244 1.93-.518.542-1.09 1.122-1.084 1.99.01 1.832-.032 3.668.034 5.5.016.46.288.964.574 1.348.398.538.902.998 1.388 1.464.536.508 1.094.994 1.658 1.47.606.51 1.2 1.044 1.862 1.472.37.238.882.41 1.304.366.328-.036.694-.398.9-.71.162-.246.136-.636.138-.962.01-2.418.004-4.838.004-7.256m-11.05 9.156c.092.014.214.072.272.034.804-.528 1.428-1.146 1.42-2.224-.02-3.336.032-6.674-.028-10.01-.02-1.106-.102-2.23-.778-3.24-.806-1.206-1.778-2.176-3.172-2.596-.726-.22-1.518-.302-2.282-.306-5.01-.028-10.024.012-15.036-.042-1.45-.016-2.65.982-2.624 2.608.058 3.314.122 6.626.094 9.936-.012 1.416.41 2.622 1.21 3.738 1.172 1.638 2.84 2.25 4.766 2.256 5.192.018 10.382.012 15.574.004.194 0 .39-.102.584-.156v-.002zm24.404-17.178v16.284c-.074 1.064-.15 2.13-.228 3.196-.136 1.924-.372 3.834-1.022 5.668-2.174 6.12-8.268 12.392-17.282 12.706-1.088.038-2.17.146-3.256.22H21.798c-.288-.032-.574-.086-.864-.094-2.436-.092-4.874-.224-7.232-.916C7.564 57.189.576 51.031.246 41.529c-.102-2.886-.22-5.774-.222-8.66-.002-5.168-.15-10.34.322-15.502.324-3.512 1.526-6.66 3.66-9.454 2.448-3.198 5.54-5.522 9.386-6.776 2.13-.698 4.358-.9 6.58-.964 7.182-.21 14.364-.284 21.542.088 3.918.204 7.496 1.362 10.626 3.788 3.164 2.452 5.492 5.518 6.73 9.34.8 2.468.93 5.046 1.012 7.62.01.308.066.61.102.914" fill="#008eff" fill-rule="nonzero"/></svg>