<svg viewBox="0 0 60 60" xmlns="http://www.w3.org/2000/svg" fill-rule="evenodd" clip-rule="evenodd" stroke-linejoin="round" stroke-miterlimit="2"><path d="M12.384 23.234c-.008.826.242 2.648.75 4.152.996 2.952 2.342 5.732 4.346 8.138 1.766 2.118 3.578 4.2 5.434 6.242 2.474 2.722 5.454 4.74 8.896 6.048 1.772.674 3.592 1.184 5.514 1.088 4.032-.204 7.204-2.074 9.752-5.12.474-.568.61-1.23.5-1.952-.126-.822-.596-1.452-1.154-2.026-1.37-1.408-2.918-2.6-4.514-3.736-1.584-1.128-3.26-1.16-4.896-.114-.83.532-1.468 1.256-2.126 1.972-1.086 1.18-2.404 1.44-3.86.78a6.036 6.036 0 01-1.308-.796c-2.45-1.984-4.648-4.214-6.36-6.874a18.577 18.577 0 01-1.628-3.12c-.55-1.378-.112-2.624 1.024-3.524.844-.672 1.672-1.366 2.518-2.038.624-.494.954-1.146 1.072-1.912.184-1.19-.182-2.284-.652-3.342-.816-1.844-2.016-3.442-3.324-4.96-1.098-1.276-2.334-1.488-3.822-.688-1.082.582-1.934 1.422-2.75 2.322-2.254 2.482-3.402 5.384-3.412 9.46M0 29.98C.036 13.072 13.888-.27 30.462.004c15.954.262 28.908 12.988 29.47 28.85.618 17.448-13.262 30.886-29.412 31.14C13.578 60.262 0 46.628 0 29.98" fill="#223983" fill-rule="nonzero"/></svg>