<?xml version="1.0" encoding="UTF-8" standalone="no"?>
<!DOCTYPE svg PUBLIC "-//W3C//DTD SVG 1.1//EN" "http://www.w3.org/Graphics/SVG/1.1/DTD/svg11.dtd">
<svg width="100%" height="100%" viewBox="0 0 1125 375" version="1.1" xmlns="http://www.w3.org/2000/svg" xmlns:xlink="http://www.w3.org/1999/xlink" xml:space="preserve" xmlns:serif="http://www.serif.com/" style="fill-rule:evenodd;clip-rule:evenodd;stroke-linejoin:round;stroke-miterlimit:2;">
    <g transform="matrix(1,0,0,1,-5762.81,-31961.1)">
        <g transform="matrix(8.33333,0,0,8.33333,0,0)">
            <g transform="matrix(141.77,0,0,-141.77,675.691,3857.84)">
                <path d="M0.27,0.159C0.183,0.159 0.112,0.088 0.112,0C0.112,-0.088 0.183,-0.159 0.27,-0.159L0.905,-0.159C0.993,-0.159 1.064,-0.088 1.064,0C1.064,0.088 0.993,0.159 0.905,0.159L0.27,0.159Z" style="fill:url(#_Linear1);fill-rule:nonzero;"/>
            </g>
        </g>
        <g transform="matrix(8.33333,0,0,8.33333,0,0)">
            <g transform="matrix(1,0,0,1,804.037,3840.6)">
                <path d="M0,35L-90,35C-99.649,35 -107.5,27.149 -107.5,17.5C-107.5,7.851 -99.649,0 -90,0L0,0C9.649,0 17.5,7.851 17.5,17.5C17.5,27.149 9.649,35 0,35" style="fill:white;fill-rule:nonzero;"/>
            </g>
        </g>
        <g transform="matrix(8.33333,0,0,8.33333,0,0)">
            <g transform="matrix(1,0,0,1,0,-64.4057)">
                <text x="723.31px" y="3927.28px" style="font-family:'ArialMT', 'Arial', sans-serif;font-size:16px;fill:rgb(34,57,130);">См<tspan x="746.029px 754.658px 762.069px 771.05px 779.499px 786.91px " y="3927.28px 3927.28px 3927.28px 3927.28px 3927.28px 3927.28px ">отреть</tspan></text>
            </g>
        </g>
    </g>
    <defs>
        <linearGradient id="_Linear1" x1="0" y1="0" x2="1" y2="0" gradientUnits="userSpaceOnUse" gradientTransform="matrix(1,0,0,-1,0,-7.21168e-06)"><stop offset="0" style="stop-color:rgb(160,74,155);stop-opacity:1"/><stop offset="0" style="stop-color:rgb(160,74,155);stop-opacity:1"/><stop offset="0.32" style="stop-color:rgb(34,57,130);stop-opacity:1"/><stop offset="1" style="stop-color:rgb(103,192,139);stop-opacity:1"/></linearGradient>
    </defs>
</svg>
