<?xml version="1.0" encoding="UTF-8" standalone="no"?>
<!DOCTYPE svg PUBLIC "-//W3C//DTD SVG 1.1//EN" "http://www.w3.org/Graphics/SVG/1.1/DTD/svg11.dtd">
<svg width="100%" height="100%" viewBox="0 0 834 188" version="1.1" xmlns="http://www.w3.org/2000/svg" xmlns:xlink="http://www.w3.org/1999/xlink" xml:space="preserve" xmlns:serif="http://www.serif.com/" style="fill-rule:evenodd;clip-rule:evenodd;stroke-linejoin:round;stroke-miterlimit:2;">
    <g transform="matrix(1,0,0,1,-2950.73,-2405.94)">
        <g transform="matrix(4.16667,0,0,4.16667,0,0)">
            <g transform="matrix(1,0,0,1,0,34.4122)">
                <text x="738px" y="569.18px" style="font-family:'ArialMT', 'Arial', sans-serif;font-size:16px;fill:rgb(34,57,131);">О<tspan x="750.684px 758.251px 767.153px 776.29px 785.428px 794.166px 803.342px 810.909px " y="569.18px 569.18px 569.18px 569.18px 569.18px 569.18px 569.18px 569.18px ">тправить</tspan></text>
                <text x="822.606px" y="569.18px" style="font-family:'ArialMT', 'Arial', sans-serif;font-size:16px;fill:rgb(34,57,131);">п<tspan x="831.509px 840.685px 848.924px 857.498px 868.737px " y="569.18px 569.18px 569.18px 569.18px 569.18px ">исьмо</tspan></text>
            </g>
        </g>
        <g transform="matrix(4.16667,0,0,4.16667,0,0)">
            <g transform="matrix(210.03,0,0,-210.03,684.699,599.926)">
                <path d="M0.219,0.107C0.16,0.107 0.112,0.059 0.112,0C0.112,-0.059 0.16,-0.107 0.219,-0.107L0.957,-0.107C1.016,-0.107 1.064,-0.059 1.064,0C1.064,0.059 1.016,0.107 0.957,0.107L0.219,0.107ZM0.136,0C0.136,0.046 0.173,0.083 0.219,0.083L0.957,0.083C1.003,0.083 1.04,0.046 1.04,0C1.04,-0.046 1.003,-0.083 0.957,-0.083L0.219,-0.083C0.173,-0.083 0.136,-0.046 0.136,0Z" style="fill:url(#_Linear1);fill-rule:nonzero;"/>
            </g>
        </g>
    </g>
    <defs>
        <linearGradient id="_Linear1" x1="0" y1="0" x2="1" y2="0" gradientUnits="userSpaceOnUse" gradientTransform="matrix(1,0,0,-1,0,7.737e-06)"><stop offset="0" style="stop-color:rgb(160,74,155);stop-opacity:1"/><stop offset="0" style="stop-color:rgb(160,74,155);stop-opacity:1"/><stop offset="0.32" style="stop-color:rgb(34,57,130);stop-opacity:1"/><stop offset="1" style="stop-color:rgb(103,192,139);stop-opacity:1"/></linearGradient>
    </defs>
</svg>
