<?xml version="1.0" encoding="UTF-8" standalone="no"?>
<!DOCTYPE svg PUBLIC "-//W3C//DTD SVG 1.1//EN" "http://www.w3.org/Graphics/SVG/1.1/DTD/svg11.dtd">
<svg width="100%" height="100%" viewBox="0 0 1792 375" version="1.1" xmlns="http://www.w3.org/2000/svg" xmlns:xlink="http://www.w3.org/1999/xlink" xml:space="preserve" xmlns:serif="http://www.serif.com/" style="fill-rule:evenodd;clip-rule:evenodd;stroke-linejoin:round;stroke-miterlimit:2;">
    <g transform="matrix(1,0,0,1,-4437.5,-45725.9)">
        <g transform="matrix(8.33333,0,0,8.33333,0,0)">
            <g transform="matrix(1,0,0,1,0,9.3951)">
                <text x="552.208px" y="5503.52px" style="font-family:'ArialMT', 'Arial', sans-serif;font-size:16px;fill:rgb(34,57,131);">Верн<tspan x="589.381px " y="5503.52px ">у</tspan>тьс<tspan x="620.912px " y="5503.52px ">я</tspan></text>
                <text x="632.768px" y="5503.52px" style="font-family:'ArialMT', 'Arial', sans-serif;font-size:16px;fill:rgb(34,57,131);">в</text>
                <text x="645.104px" y="5503.52px" style="font-family:'ArialMT', 'Arial', sans-serif;font-size:16px;fill:rgb(34,57,131);">пор<tspan x="671.114px 678.409px 691.54px 700.054px 709.357px " y="5503.52px 5503.52px 5503.52px 5503.52px 5503.52px ">тфоли</tspan>о</text>
            </g>
        </g>
        <g transform="matrix(8.33333,0,0,8.33333,0,0)">
            <g transform="matrix(225.782,0,0,-225.782,507.264,5509.61)">
                <path d="M0.211,0.1C0.156,0.1 0.112,0.055 0.112,0C0.112,-0.055 0.156,-0.1 0.211,-0.1L0.964,-0.1C1.019,-0.1 1.064,-0.055 1.064,0C1.064,0.055 1.019,0.1 0.964,0.1L0.211,0.1ZM0.134,0C0.134,0.043 0.169,0.078 0.211,0.078L0.964,0.078C1.007,0.078 1.042,0.043 1.042,0C1.042,-0.043 1.007,-0.078 0.964,-0.078L0.211,-0.078C0.169,-0.078 0.134,-0.043 0.134,0Z" style="fill:url(#_Linear1);fill-rule:nonzero;"/>
            </g>
        </g>
    </g>
    <defs>
        <linearGradient id="_Linear1" x1="0" y1="0" x2="1" y2="0" gradientUnits="userSpaceOnUse" gradientTransform="matrix(1,0,0,-1,0,-6.81188e-07)"><stop offset="0" style="stop-color:rgb(158,74,153);stop-opacity:1"/><stop offset="0" style="stop-color:rgb(158,74,153);stop-opacity:1"/><stop offset="0.32" style="stop-color:rgb(34,57,128);stop-opacity:1"/><stop offset="1" style="stop-color:rgb(103,190,137);stop-opacity:1"/></linearGradient>
    </defs>
</svg>
