<svg viewBox="0 0 167 116" xmlns="http://www.w3.org/2000/svg" fill-rule="evenodd" clip-rule="evenodd" stroke-linejoin="round" stroke-miterlimit="2"><path d="M1.064.055L.341.494.335.51.322.505.301.518.286.493.271.488.275.475-.007.011-.021.008l.003-.015-.014-.024.022-.013.003-.015.015.003.722-.438.005-.015.014.004.022-.013.014.024L.8-.49l-.004.014.282.464.013.002-.002.016.015.025-.021.013-.002.014-.017-.003zM.375.394L.959.039.518-.03.375.394zm.304-.468l.311.049-.22-.362-.091.313zM.304.391l.1-.298-.32-.064.22.362zm.171-.496l.136.021.091-.313-.595.361.319.064.045-.131v-.003h.001l.003.001z" fill="url(#_Linear1)" fill-rule="nonzero" transform="scale(173.5465 -173.5465) rotate(31.239 1.102 -.266)"/><defs><linearGradient id="_Linear1" x1="0" y1="0" x2="1" y2="0" gradientUnits="userSpaceOnUse" gradientTransform="scale(1 -1)"><stop offset="0" stop-color="#a6418f"/><stop offset="0" stop-color="#a6418f"/><stop offset=".32" stop-color="#26317a"/><stop offset="1" stop-color="#6fba83"/></linearGradient></defs></svg>