<svg viewBox="0 0 397 419" xmlns="http://www.w3.org/2000/svg" fill-rule="evenodd" clip-rule="evenodd" stroke-linejoin="round" stroke-miterlimit="2"><path d="M.615.324A.56.56 0 01.56.351C.543.359.527.352.518.336L.501.301C.491.283.476.274.456.275L.431.276C.396.278.387.285.375.319.356.373.352.375.297.356A.155.155 0 00.274.348C.249.338.243.325.251.299L.262.268a.045.045 0 00-.013-.05C.208.183.205.167.143.2L.136.203C.117.212.101.206.091.188a.569.569 0 01-.024-.05C.058.118.063.103.082.093L.114.077C.151.058.155-.019.119-.041L.103-.048.07-.06C.053-.067.046-.082.051-.099l.02-.058c.007-.017.023-.023.04-.018l.038.013c.018.005.036.003.048-.012.037-.043.054-.045.02-.108a.049.049 0 01-.003-.007C.205-.309.21-.323.229-.334L.28-.358c.019-.009.033-.004.044.014l.017.035c.019.036.097.038.118.003C.462-.31.463-.315.465-.32a.383.383 0 01.011-.031c.007-.02.022-.028.042-.021a.472.472 0 01.053.018c.02.007.027.023.021.043a.425.425 0 01-.011.033c-.012.037.04.096.079.088l.017-.007c.011-.005.021-.011.032-.015.017-.007.031-.002.04.015.01.017.019.035.027.053.007.018.002.033-.015.043l-.036.018c-.015.008-.026.02-.026.038C.702.014.695.03.762.049l.007.003C.788.059.796.074.79.093l-.013.04C.764.171.753.176.716.163.665.146.661.147.625.188a.057.057 0 00-.007.008.042.042 0 00-.007.049C.616.258.623.27.629.283a.033.033 0 01-.005.035.02.02 0 01-.009.006zM.257-.059a.172.172 0 10.327.111.172.172 0 00-.327-.111z" fill="url(#_Linear1)" fill-rule="nonzero" transform="scale(360.84885 -360.84885) rotate(47.021 .909 -.289)"/><path d="M.518.184C.503.169.487.166.468.176.439.191.436.194.438.223l.001.011C.439.251.432.26.415.261L.396.262C.362.264.358.261.357.227.356.213.355.2.34.192.306.174.294.176.267.204.261.21.248.218.245.216A.159.159 0 01.199.177C.189.164.204.151.214.142.231.126.228.11.219.091.21.073.2.062.178.063.137.066.136.064.134.023L.133.015C.132-.009.138-.016.162-.017c.025 0 .042-.006.049-.033.008-.027.007-.033-.015-.053C.186-.112.175-.12.183-.142c.01-.009.023-.026.04-.034.007-.003.022.013.035.018.01.005.022.011.031.009.035-.007.044-.022.043-.057L.331-.215C.332-.23.339-.24.354-.238c.02.001.044-.016.058.013l.001.009.001.018c0 .015.008.026.023.032.033.013.04.012.065-.015C.518-.199.526-.2.544-.184l.011.01c.025.023.026.027.004.052-.02.022-.02.026-.007.054.012.024.019.028.046.026.031-.001.036.002.038.034v.011C.638.033.634.036.604.04.592.041.577.044.569.052.547.077.55.104.575.126l.007.006c.012.011.012.022.002.034l-.018.02C.547.206.541.206.518.184zm-.241-.21c-.02.06.012.125.071.145.06.02.124-.012.145-.071a.115.115 0 00-.071-.145.113.113 0 00-.12.031.118.118 0 00-.025.04z" fill="url(#_Linear2)" fill-rule="nonzero" transform="scale(360.84885 -360.84885) rotate(47.021 1.653 .035)"/><path d="M1.083.159C1.079.161 1.065.152 1.06.145 1.049.128 1.036.129 1.02.134 1.004.138.998.147.996.162.994.187.99.188.957.184.937.181.932.176.937.154.941.135.932.126.917.117.903.108.891.111.879.121.859.136.857.135.839.11.824.091.824.086.842.073.856.063.86.052.857.036.853.018.843.009.825.008L.812.006C.795-.004.804-.02.805-.035c.002-.017.013-.021.028-.017.015.003.027.001.036-.014.009-.016.012-.029-.002-.045-.014-.017-.012-.022.01-.038.021-.016.025-.016.039.003.011.015.023.018.04.013.017-.004.024-.013.025-.031.002-.021.008-.024.034-.021.025.004.03.008.026.029-.003.018.001.029.017.038.016.01.028.008.042-.003.016-.014.022-.012.036.006.018.024.019.029.001.041-.014.01-.021.02-.016.039.005.018.014.027.033.029.007 0 .019.005.019.009a.1.1 0 01-.005.042c-.002.005-.017.008-.026.007-.017-.002-.026.003-.035.017-.009.015-.009.027.002.041.004.006.011.018.009.021l-.005.005a.11.11 0 01-.03.023zM.909-.027A.085.085 0 00.96.08a.085.085 0 10.056-.16.084.084 0 00-.107.053z" fill="url(#_Linear3)" fill-rule="nonzero" transform="scale(360.84885 -360.84885) rotate(47.021 1.162 -.179)"/><path d="M.388.101a.103.103 0 01-.065-.13.105.105 0 01.13-.064.103.103 0 01.043.168.102.102 0 01-.108.026z" fill="url(#_Linear4)" fill-rule="nonzero" transform="scale(360.84885 -360.84885) rotate(47.021 .918 -.284)"/><path d="M.364.067a.067.067 0 01-.043-.086.067.067 0 01.085-.042.067.067 0 11-.042.128z" fill="url(#_Linear5)" fill-rule="nonzero" transform="scale(360.84885 -360.84885) rotate(47.021 1.643 .031)"/><path d="M.973.05a.05.05 0 01-.032-.063.05.05 0 01.063-.032.05.05 0 01.033.063l-.011.019A.052.052 0 01.973.05z" fill="url(#_Linear6)" fill-rule="nonzero" transform="scale(360.84885 -360.84885) rotate(47.021 1.164 -.178)"/><defs><linearGradient id="_Linear1" x1="0" y1="0" x2="1" y2="0" gradientUnits="userSpaceOnUse" gradientTransform="matrix(1 0 0 -1 0 -.004)"><stop offset="0" stop-color="#a04a9b"/><stop offset="0" stop-color="#a04a9b"/><stop offset=".32" stop-color="#223982"/><stop offset="1" stop-color="#67c08b"/></linearGradient><linearGradient id="_Linear2" x1="0" y1="0" x2="1" y2="0" gradientUnits="userSpaceOnUse" gradientTransform="matrix(1 0 0 -1 0 .01)"><stop offset="0" stop-color="#a04a9b"/><stop offset="0" stop-color="#a04a9b"/><stop offset=".32" stop-color="#223982"/><stop offset="1" stop-color="#67c08b"/></linearGradient><linearGradient id="_Linear3" x1="0" y1="0" x2="1" y2="0" gradientUnits="userSpaceOnUse" gradientTransform="scale(1 -1)"><stop offset="0" stop-color="#a04a9b"/><stop offset="0" stop-color="#a04a9b"/><stop offset=".32" stop-color="#223982"/><stop offset="1" stop-color="#67c08b"/></linearGradient><linearGradient id="_Linear4" x1="0" y1="0" x2="1" y2="0" gradientUnits="userSpaceOnUse" gradientTransform="matrix(1 0 0 -1 0 .005)"><stop offset="0" stop-color="#a04a9b"/><stop offset="0" stop-color="#a04a9b"/><stop offset=".32" stop-color="#223982"/><stop offset="1" stop-color="#67c08b"/></linearGradient><linearGradient id="_Linear5" x1="0" y1="0" x2="1" y2="0" gradientUnits="userSpaceOnUse" gradientTransform="matrix(1 0 0 -1 0 .003)"><stop offset="0" stop-color="#a04a9b"/><stop offset="0" stop-color="#a04a9b"/><stop offset=".32" stop-color="#223982"/><stop offset="1" stop-color="#67c08b"/></linearGradient><linearGradient id="_Linear6" x1="0" y1="0" x2="1" y2="0" gradientUnits="userSpaceOnUse" gradientTransform="matrix(1 0 0 -1 0 .002)"><stop offset="0" stop-color="#a04a9b"/><stop offset="0" stop-color="#a04a9b"/><stop offset=".32" stop-color="#223982"/><stop offset="1" stop-color="#67c08b"/></linearGradient></defs></svg>