<svg viewBox="0 0 395 367" xmlns="http://www.w3.org/2000/svg" fill-rule="evenodd" clip-rule="evenodd" stroke-linejoin="round" stroke-miterlimit="2"><path d="M.221.524L-.006.158C-.011.15-.016.135-.012.13-.007.123.006.118.016.118.048.119.08.122.111.125c.032-.24.308-.513.647-.478a.392.392 0 00-.25-.04.598.598 0 00-.406.275.454.454 0 01.335-.345c.215-.056.396.015.55.194C.67-.388.383-.074.379.135c.032.001.065.001.097.003.029.002.037.015.022.038A53.528 53.528 0 01.257.54C.245.551.235.546.221.524z" fill="url(#_Linear1)" fill-rule="nonzero" transform="scale(356.83693 -356.83693) rotate(43.636 1.267 -.212)"/><path d="M.525.358a.374.374 0 01-.15-.052A1.89 1.89 0 00.419.24c.013.006.023.011.034.014.009.002.022.007.026.003C.506.234.531.209.557.184L.489.135A.532.532 0 01.512.1c.022.014.041.028.061.039C.581.144.595.146.6.142.64.107.678.07.717.032L.589-.102C.58-.098.572-.09.564-.082c-.018.019-.036.038-.071.003l.064-.06-.061-.064.027-.036.066.069.145-.139-.043-.044C.72-.386.745-.364.769-.34c.019-.018.032-.038.052-.048C.84-.397.864-.396.886-.4l.003.009-.086.083.109.154.045-.043c.037-.036.039-.036.016-.087C.956-.321.934-.357.912-.397c.057.012.114.024.137.083A.477.477 0 01.936.24a.466.466 0 01-.411.118zM.896.152c.042-.073.027-.146 0-.225L.784.034l.112.118zM.86.181L.751.067.642.17c.056.042.17.049.218.011zm.094-.215c.012.022.01.051.016.083a.398.398 0 00.032-.223l-.009.007a.256.256 0 00-.026.02c-.029.029-.04.063-.013.113zM.53.275C.61.29.68.281.75.257L.616.213C.609.211.597.212.592.216L.565.241.53.275zM.75 0l.117-.113c.004-.003.003-.016 0-.022L.773-.278l-.151.143L.75 0z" fill="url(#_Linear2)" fill-rule="nonzero" transform="scale(356.48268 -356.48268) rotate(43.636 1.07 -.29)"/><defs><linearGradient id="_Linear1" x1="0" y1="0" x2="1" y2="0" gradientUnits="userSpaceOnUse" gradientTransform="matrix(1 0 0 -1 0 .032)"><stop offset="0" stop-color="#a04a9b"/><stop offset="0" stop-color="#a04a9b"/><stop offset=".32" stop-color="#223982"/><stop offset="1" stop-color="#67c08b"/></linearGradient><linearGradient id="_Linear2" x1="0" y1="0" x2="1" y2="0" gradientUnits="userSpaceOnUse" gradientTransform="matrix(1 0 0 -1 0 -.017)"><stop offset="0" stop-color="#a04a9b"/><stop offset="0" stop-color="#a04a9b"/><stop offset=".32" stop-color="#223982"/><stop offset="1" stop-color="#67c08b"/></linearGradient></defs></svg>