<svg viewBox="0 0 559 417" xmlns="http://www.w3.org/2000/svg" fill-rule="evenodd" clip-rule="evenodd" stroke-linejoin="round" stroke-miterlimit="2"><path d="M15.755 402.154c1.417 0 2.742-.216 3.983-.65 1.238-.433 2.3-1.029 3.188-1.8a8.248 8.248 0 002.091-2.77c.513-1.084.767-2.255.767-3.513 0-1.575-.304-2.879-.912-3.925a6.833 6.833 0 00-2.48-2.479c-1.041-.608-2.241-1.033-3.6-1.27a24.858 24.858 0 00-4.216-.35h-4.43v16.287c.555.158 1.213.275 1.98.354.766.079 1.979.116 3.629.116m-2.654-19.829a41.888 41.888 0 004.658-.291c1.813-.63 3.296-1.646 4.458-3.042 1.159-1.396 1.738-3.038 1.738-4.925 0-2.596-.775-4.546-2.33-5.846-1.553-1.296-3.628-1.942-6.224-1.942-1.221 0-2.263.021-3.125.055-.867.041-1.575.104-2.13.179v15.812h2.955zM0 404.867v-1.708a15.586 15.586 0 014.837-1.421V366.75a25.248 25.248 0 01-2.42-.62A28.572 28.572 0 010 365.27v-1.708h6.254c.746 0 1.462-.021 2.154-.059.688-.037 1.404-.079 2.15-.12.75-.034 1.554-.075 2.421-.117.867-.038 1.85-.058 2.95-.058 1.575 0 3.18.129 4.812.383 1.63.258 3.105.737 4.425 1.446a8.629 8.629 0 013.217 2.983c.825 1.275 1.238 2.938 1.238 4.983 0 1.021-.159 2.046-.471 3.067a9.651 9.651 0 01-1.446 2.863c-.65.887-1.467 1.662-2.45 2.329-.983.67-2.146 1.162-3.483 1.479v.233c1.183.196 2.35.53 3.512 1.004a10.67 10.67 0 013.1 1.921c.904.804 1.642 1.796 2.213 2.975.566 1.184.854 2.6.854 4.25 0 2.125-.471 3.954-1.417 5.488a11.873 11.873 0 01-3.687 3.779c-1.517.983-3.238 1.7-5.163 2.15-1.929.454-3.875.68-5.842.68a67.16 67.16 0 01-4.662-.176 72.132 72.132 0 00-5.017-.179H.001zm42.426-29.8H40.95a54.73 54.73 0 01-1.325-4.013 72.646 72.646 0 01-1.154-4.366c1.379-1.18 3.029-2.113 4.958-2.804 1.93-.688 4.013-1.03 6.254-1.03 1.967 0 3.659.275 5.075.83 1.417.545 2.588 1.295 3.513 2.241.92.942 1.6 2.034 2.037 3.275.43 1.238.646 2.525.646 3.863 0 2.204-.512 4.466-1.533 6.783a40.85 40.85 0 01-3.804 6.763 58.171 58.171 0 01-4.93 6.162 127.44 127.44 0 01-4.895 5.075l-2.484 2.304v.234l3.309-.355h10.145l2.892-6.608h1.48c.074.863.153 1.813.233 2.833.079 1.021.15 2.055.208 3.096.058 1.042.108 2.046.146 3.013.041.962.062 1.796.062 2.504H37.41v-1.888c.867-.904 1.921-2.004 3.158-3.304a94.406 94.406 0 003.863-4.308 94.888 94.888 0 003.983-5.013 49.267 49.267 0 003.513-5.4 35.719 35.719 0 002.508-5.462c.65-1.804.975-3.538.975-5.192 0-1.137-.146-2.22-.441-3.246-.296-1.02-.738-1.916-1.33-2.683a6.351 6.351 0 00-2.154-1.8c-.846-.433-1.82-.646-2.92-.646-.826 0-1.555.054-2.184.175a17.1 17.1 0 00-2.062.534l-1.892 8.433zm41.071 27.087c1.416 0 2.746-.216 3.983-.65 1.238-.433 2.3-1.029 3.188-1.8a8.248 8.248 0 002.091-2.77c.513-1.084.767-2.255.767-3.513 0-1.575-.304-2.879-.913-3.925a6.833 6.833 0 00-2.479-2.479c-1.041-.608-2.241-1.033-3.6-1.27a24.858 24.858 0 00-4.216-.35h-4.425v16.287c.55.158 1.208.275 1.975.354.766.079 1.979.116 3.629.116m-2.654-19.829a41.888 41.888 0 004.658-.291c1.812-.63 3.296-1.646 4.458-3.042 1.159-1.396 1.738-3.038 1.738-4.925 0-2.596-.775-4.546-2.33-5.846-1.554-1.296-3.629-1.942-6.224-1.942-1.221 0-2.263.021-3.125.055-.867.041-1.575.104-2.125.179v15.812h2.95zm-13.1 22.542v-1.708a15.586 15.586 0 014.837-1.421V366.75a25.248 25.248 0 01-2.42-.62 28.572 28.572 0 01-2.417-.859v-1.708h6.254c.746 0 1.462-.021 2.154-.059.687-.037 1.404-.079 2.15-.12.75-.034 1.554-.075 2.42-.117.867-.038 1.85-.058 2.95-.058 1.576 0 3.18.129 4.813.383 1.63.258 3.104.737 4.425 1.446a8.629 8.629 0 013.217 2.983c.825 1.275 1.237 2.938 1.237 4.983 0 1.021-.158 2.046-.47 3.067a9.651 9.651 0 01-1.446 2.863c-.65.887-1.467 1.662-2.45 2.329-.984.67-2.146 1.162-3.484 1.479v.233a16.21 16.21 0 013.513 1.004 10.67 10.67 0 013.1 1.921c.904.804 1.642 1.796 2.212 2.975.567 1.184.855 2.6.855 4.25 0 2.125-.471 3.954-1.417 5.488a11.873 11.873 0 01-3.688 3.779c-1.516.983-3.237 1.7-5.162 2.15-1.93.454-3.875.68-5.842.68a67.16 67.16 0 01-4.662-.176 72.132 72.132 0 00-5.017-.179h-5.662zm61.129 0h-10.388v-1.475c1.3-.63 2.596-1.1 3.896-1.417l.883-23.07a16.59 16.59 0 01-2.183-1.005 43.63 43.63 0 01-1.708-1.004v-1.533h11.504l6.08 17.233 1.12 4.067h.175l1.242-4.13 6.312-17.17h11.154v1.533a9.597 9.597 0 01-1.712.825 12.94 12.94 0 01-2.184.592l1.18 23.662c1.3.234 2.6.713 3.895 1.417v1.475H145.63v-1.475c.392-.196.863-.413 1.417-.65a24.72 24.72 0 012.125-.767l-1.184-23.9h-.47l-9.68 26.792h-1.591l-9.559-26.792h-.475l-.883 23.9c1.417.434 2.596.904 3.542 1.417v1.475zm43.9-2.95c.983 0 1.85-.196 2.596-.592a7.037 7.037 0 001.891-1.412 8.733 8.733 0 001.238-1.684c.312-.566.529-1.054.65-1.445v-6.196c-2.284 0-4.15.116-5.609.354-1.454.237-2.595.612-3.42 1.12-.825.513-1.396 1.15-1.713 1.922-.317.762-.47 1.637-.47 2.625 0 1.691.433 2.995 1.295 3.92.867.925 2.046 1.388 3.542 1.388m11.387-4.78c0 .867.021 1.613.063 2.242.037.63.079 1.296.116 2.005l4.071.591v1.242c-.983.512-2.075.962-3.275 1.358-1.2.388-2.35.688-3.45.884h-1.475a8.901 8.901 0 01-.708-2.98 88.259 88.259 0 01-.18-3.575h-.295c-.158.792-.463 1.588-.913 2.396a8.053 8.053 0 01-1.77 2.15 8.787 8.787 0 01-2.567 1.534c-.983.395-2.104.591-3.363.591-2.404 0-4.358-.729-5.875-2.183-1.512-1.454-2.27-3.363-2.27-5.725 0-1.808.362-3.296 1.091-4.454.73-1.159 1.8-2.075 3.217-2.742 1.417-.67 3.167-1.15 5.25-1.45 2.087-.292 4.504-.52 7.262-.675.155-1.692.205-3.217.146-4.57-.058-1.363-.275-2.522-.65-3.484-.375-.967-.925-1.717-1.65-2.246-.729-.529-1.683-.796-2.862-.796-.554 0-1.171.03-1.859.092a6.726 6.726 0 00-2.037.5l-2.775 7.08h-1.533a41.95 41.95 0 01-1.034-3.66 22.224 22.224 0 01-.558-3.716c1.492-.904 3.158-1.612 4.987-2.125 1.83-.508 3.863-.767 6.105-.767 2.008 0 3.608.284 4.808.855 1.2.575 2.117 1.312 2.746 2.212a7.528 7.528 0 011.237 3.013c.2 1.1.296 2.2.296 3.304 0 2.358-.05 4.629-.146 6.816-.1 2.18-.15 4.275-.15 6.284m23.667-18.825c-1.93 0-3.463.608-4.604 1.829-1.142 1.217-1.946 2.892-2.421 5.017v16.52c.708.438 1.508.759 2.392.975.887.221 2.033.325 3.45.325 1.3 0 2.47-.333 3.512-1.004 1.042-.666 1.925-1.612 2.654-2.833.73-1.217 1.288-2.646 1.684-4.275.391-1.633.591-3.433.591-5.4 0-1.613-.129-3.096-.387-4.458-.254-1.355-.667-2.534-1.238-3.538-.57-1.004-1.316-1.779-2.241-2.333-.925-.55-2.055-.825-3.392-.825m-3.13 38.354h-13.1v-1.47c1.338-.634 2.634-1.105 3.897-1.418v-34.995l-3.896-.471v-1.534a25.225 25.225 0 013.866-1.329 43.642 43.642 0 013.863-.796h1.475v6.609h.062c.784-2.004 1.888-3.609 3.305-4.809 1.412-1.2 3.262-1.8 5.545-1.8 3.5 0 6.217 1.159 8.142 3.484 1.93 2.32 2.892 6.096 2.892 11.329 0 2.475-.325 4.72-.971 6.725-.65 2.004-1.575 3.7-2.775 5.075a12.102 12.102 0 01-4.367 3.183c-1.712.75-3.608 1.125-5.696 1.125-1.454 0-2.595-.091-3.42-.266-.825-.175-1.734-.48-2.717-.913v9.383c.63.075 1.262.221 1.892.442a10.21 10.21 0 012.004.975v1.471zm37.651-41.304h11.387v1.533c-.391.317-.912.592-1.562.825-.65.238-1.446.513-2.392.83a152.309 152.309 0 01-4.246 4.895 139.933 139.933 0 01-4.72 4.958 97.1 97.1 0 012.741 3.13 189.61 189.61 0 012.921 3.537 271.248 271.248 0 002.95 3.6 88.09 88.09 0 002.892 3.304l2.775 1.417v1.475h-6.905l-1.887-1.358a85.446 85.446 0 01-4.838-6.371 256.404 256.404 0 00-4.429-6.254h-2.358v11.091c.787.2 1.504.404 2.154.621.65.217 1.208.48 1.68.796v1.475h-13.042v-1.475c1.062-.63 2.362-1.1 3.895-1.417v-23.662a13.445 13.445 0 01-3.895-1.417v-1.533h12.1v1.533c-.396.28-.817.533-1.271.771-.454.233-.992.45-1.621.646v11.033l2.712-.587c1.575-1.813 3.067-3.5 4.488-5.075a43.363 43.363 0 003.95-5.134 60.345 60.345 0 01-1.858-.8 13 13 0 01-1.621-.854v-1.533zm27.558 1.887c-2.241 0-3.954.759-5.133 2.271-1.183 1.517-1.892 4.183-2.125 7.996h12.983c.038-.354.067-.696.088-1.03.016-.333.029-.658.029-.978 0-2.513-.471-4.521-1.417-6.017-.946-1.492-2.42-2.242-4.425-2.242m10.796 23.488c-.312.666-.804 1.296-1.475 1.887-.667.588-1.433 1.1-2.3 1.534a13.57 13.57 0 01-2.833 1.033 12.705 12.705 0 01-3.125.383c-2.325 0-4.367-.366-6.138-1.091-1.77-.73-3.246-1.771-4.425-3.13-1.179-1.354-2.075-2.979-2.687-4.866-.609-1.888-.917-4.013-.917-6.371 0-5.038 1.163-8.875 3.483-11.508 2.321-2.638 5.609-3.955 9.859-3.955 1.375 0 2.729.188 4.07.563a9.602 9.602 0 013.571 1.858c1.042.863 1.888 2.013 2.538 3.45.646 1.438.97 3.217.97 5.338 0 .675-.028 1.354-.087 2.041-.058.688-.17 1.421-.325 2.213h-18.412c0 1.65.208 3.192.62 4.63.413 1.437 1.034 2.687 1.859 3.75.825 1.062 1.867 1.895 3.129 2.503 1.258.613 2.733.917 4.425.917 1.375 0 2.775-.196 4.188-.592 1.416-.391 2.479-.9 3.187-1.533l.825.946zm24.546 4.129h-13.1v-1.475c1.217-.63 2.517-1.1 3.896-1.417V377.96h-5.609l-2.533 7.079h-1.496c-.191-1.688-.346-3.35-.462-4.984a101.597 101.597 0 01-.23-4.691h25.963a150.457 150.457 0 01-.2 4.629 65.158 65.158 0 01-.487 5.046h-1.496l-2.534-7.08h-5.608v24.017c1.85.471 3.146.942 3.896 1.417v1.475zm10.387-29.504h12.509v1.533a15.62 15.62 0 01-1.504.708 21.67 21.67 0 01-2.038.709v16.17l-.646 5.484h.292l2.304-4.42 12.625-20.184h7.967v1.533a12.262 12.262 0 01-3.892 1.417v23.662c.746.2 1.454.404 2.125.621.667.217 1.258.48 1.767.796v1.475h-12.509v-1.475c1.1-.63 2.28-1.1 3.542-1.417V385.1l.588-4.662h-.296l-2.242 4.425-12.508 20.004h-8.084v-1.475c.667-.317 1.317-.58 1.946-.796.63-.217 1.28-.42 1.95-.62v-23.663c-1.537-.238-2.833-.709-3.896-1.417v-1.533zm48.8 29.504h-12.687v-1.475a9.615 9.615 0 011.83-.796 56.41 56.41 0 012.066-.62v-23.663a58.083 58.083 0 01-2.067-.617 9.622 9.622 0 01-1.83-.8v-1.533h12.688v1.533c-.904.554-2.066 1.025-3.479 1.417v10.325h13.1v-10.325c-1.379-.238-2.558-.709-3.541-1.417v-1.533h12.745v1.533c-1.062.671-2.358 1.146-3.895 1.417v23.662c.708.159 1.395.338 2.066.534.667.191 1.28.491 1.83.883v1.475h-12.746v-1.475c.983-.704 2.162-1.183 3.541-1.417v-10.737h-13.1v10.737c.788.159 1.454.354 2.004.592a7.36 7.36 0 011.475.825v1.475zm45.434-29.504a146.746 146.746 0 01-.204 4.779 57.1 57.1 0 01-.505 4.896h-1.533l-2.596-7.08h-7.966v24.017c2.241.434 4.012.904 5.312 1.417v1.475H387.86v-1.475a9.364 9.364 0 011.946-.883 30.03 30.03 0 011.946-.534v-23.72c-1.454-.234-2.754-.688-3.892-1.359v-1.533h22.009zm-339.434-76.27l-.108-50.83-25.196 42.063h-6.354L13.58 248.918v50.175H0v-76.684h11.722l30.454 50.83 29.904-50.83H83.8l.11 76.684H70.433zm68.142-18.293v-6.791h-14.13c-9.312 0-11.828 3.504-11.828 7.775 0 4.929 4.162 8.108 11.17 8.108 6.684 0 12.488-3.071 14.788-9.092m13.696-15.996v34.292h-12.925v-7.12c-3.288 5.037-9.642 7.883-18.409 7.883-13.362 0-21.795-7.338-21.795-17.525 0-9.75 6.57-17.421 24.316-17.421h15.117v-.871c0-8-4.817-12.708-14.57-12.708-6.572 0-13.363 2.191-17.747 5.804l-5.366-9.967c6.245-4.825 15.337-7.233 24.758-7.233 16.87 0 26.62 7.996 26.62 24.866m51.38-24.866v13.037c-1.204-.22-2.192-.329-3.18-.329-10.403 0-16.978 6.13-16.978 18.075v28.37H169.8v-58.5h13.037v8.55c3.942-6.137 11.063-9.203 20.813-9.203m35.501 34.071l-10.192 9.637v15.45h-13.687v-81.283h13.687v49.075l28.375-26.296h16.434l-24.43 24.542 26.73 33.962h-16.654L239.15 274.01zm52.142-8.875h33.191c-1.095-8.434-7.558-14.242-16.541-14.242-8.875 0-15.338 5.696-16.65 14.242m46.008 9.091h-45.9c1.642 8.542 8.763 14.021 18.954 14.021 6.571 0 11.721-2.08 15.884-6.354l7.337 8.437c-5.254 6.242-13.475 9.53-23.55 9.53-19.608 0-32.317-12.596-32.317-30.013 0-17.42 12.817-29.908 30.234-29.908 17.091 0 29.579 11.937 29.579 30.233 0 1.1-.113 2.738-.22 4.054m48.537 21.688c-3.288 2.629-8.221 3.941-13.146 3.941-12.817 0-20.159-6.791-20.159-19.712v-28.154h-9.641v-10.959h9.641v-13.362h13.696v13.362h15.663v10.959H366.23v27.82c0 5.696 2.846 8.763 8.104 8.763 2.846 0 5.588-.762 7.671-2.408l3.834 9.75zm84.95 3.18l-.104-50.83-25.2 42.063h-6.355l-25.196-41.408v50.175h-13.579v-76.684h11.721l30.454 50.83 29.905-50.83h11.72l.109 76.684h-13.475zm41.633-33.959h33.192c-1.096-8.434-7.559-14.242-16.542-14.242-8.875 0-15.337 5.696-16.65 14.242m46.008 9.091h-45.9c1.642 8.542 8.763 14.021 18.95 14.021 6.575 0 11.725-2.08 15.888-6.354l7.337 8.437c-5.258 6.242-13.475 9.53-23.55 9.53-19.608 0-32.316-12.596-32.316-30.013 0-17.42 12.816-29.908 30.233-29.908 17.092 0 29.58 11.937 29.58 30.233 0 1.1-.113 2.738-.222 4.054" fill="#223983" fill-rule="nonzero"/><path d="M.934.361A1.09 1.09 0 01.612.038L.611.09c0 .065.005.13.017.193v.001a.045.045 0 01-.009.035.044.044 0 01-.061.006A1.117 1.117 0 01.375.138.821.821 0 01.296.016L.29.053.264.208a.042.042 0 01-.016.027.045.045 0 01-.062-.006A1.015 1.015 0 01.094.096a.982.982 0 01-.066-.147.799.799 0 01-.021-.317c.008.052.02.102.035.151.016.048.038.093.057.139.018.042.061.117.061.117l.032.052C.195.074.214-.015.221-.042a.736.736 0 01.024-.08.04.04 0 01.024-.025.043.043 0 01.056.023.96.96 0 00.118.21.972.972 0 00.085.096 1.153 1.153 0 01.015-.303.046.046 0 01.027-.032.044.044 0 01.056.025.779.779 0 00.144.234.97.97 0 00.112.11L.869.165A1.522 1.522 0 01.827-.19c0-.06.003-.119.014-.178.003.059.012.117.023.174.012.058.03.13.046.186a8.6 8.6 0 01.042.152C.966.2.982.256.998.312v.001a.04.04 0 01-.005.035.042.042 0 01-.036.02.048.048 0 01-.023-.007z" fill="url(#_Linear1)" fill-rule="nonzero" transform="matrix(238.07352 0 0 -238.07352 160.288 87.525)"/><defs><linearGradient id="_Linear1" x1="0" y1="0" x2="1" y2="0" gradientUnits="userSpaceOnUse" gradientTransform="scale(1 -1)"><stop offset="0" stop-color="#a6418f"/><stop offset="0" stop-color="#a6418f"/><stop offset=".32" stop-color="#26317a"/><stop offset="1" stop-color="#6fba83"/></linearGradient></defs></svg>