<svg viewBox="0 0 664 602" xmlns="http://www.w3.org/2000/svg" fill-rule="evenodd" clip-rule="evenodd" stroke-linejoin="round" stroke-miterlimit="2"><path d="M.639.369C.574.415.509.404.461.342A7.806 7.806 0 01.289.108C.241.042.252-.022.317-.072l.06-.044a2.34 2.34 0 00.099-.075.108.108 0 00.035-.06c.012-.06.018-.121.026-.181l.012-.001.089.121.034-.021C.754-.39.813-.38.873-.299l.157.213c.049.068.041.136-.025.185l-.18.135-.186.135zM.358-.018C.323.009.319.034.345.07l.167.227C.54.335.564.338.603.31L.96.047c.039-.029.043-.052.015-.09A18.935 18.935 0 00.808-.27C.781-.307.757-.31.72-.284l-.093.068a.57.57 0 01-.036-.039l-.007.004c.001.069-.044.104-.095.138-.02.012-.038.026-.057.039l-.074.056z" fill="url(#_Linear1)" fill-rule="nonzero" transform="scale(592.22438 -592.22438) rotate(36.347 1.623 -.127)"/><path d="M.86.088C.738.178.614.266.49.353.423.4.355.386.307.318A16.775 16.775 0 01.152.103C.094.021.103-.038.182-.099l.031-.025-.088-.122.005-.011c.06.011.12.024.181.031a.104.104 0 00.067-.015c.056-.035.109-.076.163-.114.067-.046.132-.036.18.029.057.078.113.157.168.236.045.065.035.131-.028.178H.86z" fill="url(#_Linear2)" fill-rule="nonzero" transform="scale(592.22438 -592.22438) rotate(36.347 .856 -.379)"/><path d="M153.202 317.214c1.933.175 4.417.983 4.842.366 23.125-33.358 56.858-35.258 93.116-33.566 31.784 1.466 63.742-.084 95.609-.934 26.358-.7 36.958-11.516 36.766-37.866-.4-55.567-1.141-111.142-2.216-166.709-.534-27.916-10.942-37.85-39.409-37.541a49164.81 49164.81 0 00-262.383 3.533c-28.767.467-38.7 10.283-38.525 38.45.358 55.567 1.1 111.142 2.283 166.708.567 27.084 10.784 36.834 37.534 37.025 22.016.15 44.033-.516 68.65-.85 1.466 12.342 2.6 21.875 3.733 31.384" fill="#fff" fill-rule="nonzero"/><defs><linearGradient id="_Linear1" x1="0" y1="0" x2="1" y2="0" gradientUnits="userSpaceOnUse" gradientTransform="matrix(1 0 0 -1 0 -.018)"><stop offset="0" stop-color="#a04a9b"/><stop offset="0" stop-color="#a04a9b"/><stop offset=".32" stop-color="#223982"/><stop offset="1" stop-color="#67c08b"/></linearGradient><linearGradient id="_Linear2" x1="0" y1="0" x2="1" y2="0" gradientUnits="userSpaceOnUse" gradientTransform="matrix(1 0 0 -1 0 -.002)"><stop offset="0" stop-color="#a04a9b"/><stop offset="0" stop-color="#a04a9b"/><stop offset=".32" stop-color="#223982"/><stop offset="1" stop-color="#67c08b"/></linearGradient></defs></svg>