<svg viewBox="0 0 56 86" xmlns="http://www.w3.org/2000/svg" fill-rule="evenodd" clip-rule="evenodd" stroke-linejoin="round" stroke-miterlimit="2"><path d="M1.315 0c0 1.444.097 3.247.297 5.414.198 2.166.478 4.413.836 6.738.359 2.327.756 4.652 1.195 6.978.437 2.328.854 4.331 1.254 6.014h4.061l4.658-12.271h18.035l6.451-.721v.481l-4.06 4.21-17.917 23.583v4.812h6.927c1.911 0 3.822.301 5.734.902a14.097 14.097 0 015.076 2.829c1.472 1.283 2.667 2.907 3.583 4.873.915 1.965 1.373 4.311 1.373 7.037 0 2.407-.418 4.653-1.254 6.737-.836 2.087-1.952 3.892-3.344 5.415-1.394 1.524-2.968 2.708-4.717 3.55-1.753.841-3.545 1.263-5.376 1.263-1.672 0-3.005-.121-4.001-.361a77.027 77.027 0 00-2.688-.602 145.071 145.071 0 01-2.27-2.646 196.547 196.547 0 00-2.686-3.128 266.563 266.563 0 00-2.629-2.948 97.433 97.433 0 01-1.969-2.226H4.419L0 78.445c1.194 1.043 2.647 2.007 4.359 2.888 1.711.883 3.623 1.644 5.734 2.286a47.833 47.833 0 006.749 1.504c2.389.361 4.777.54 7.165.54 4.22 0 8.242-.582 12.064-1.744 3.822-1.161 7.167-2.865 10.034-5.112a25.59 25.59 0 006.868-8.182c1.71-3.207 2.567-6.817 2.567-10.828 0-3.37-.537-6.455-1.613-9.265-1.074-2.807-2.626-5.272-4.657-7.4-2.031-2.124-4.539-3.808-7.524-5.052-2.987-1.243-6.351-1.943-10.095-2.106l-4.06.842v-.24l5.136-5.294L53.391 5.896V0H1.315z" fill="url(#_Linear1)" fill-rule="nonzero"/><defs><linearGradient id="_Linear1" x1="0" y1="0" x2="1" y2="0" gradientUnits="userSpaceOnUse" gradientTransform="rotate(-64.486 65.073 33.394) scale(70.2777)"><stop offset="0" stop-color="#a74190"/><stop offset="0" stop-color="#a74190"/><stop offset=".32" stop-color="#26317a"/><stop offset="1" stop-color="#6fbb84"/></linearGradient></defs></svg>