<svg viewBox="0 0 44 86" xmlns="http://www.w3.org/2000/svg" fill-rule="evenodd" clip-rule="evenodd" stroke-linejoin="round" stroke-miterlimit="2"><path d="M27.591 0c-4.221 2.567-8.82 4.812-13.795 6.737C8.817 8.663 4.219 10.187 0 11.31l.597 4.451c2.547.081 5.017 0 7.405-.24a33.247 33.247 0 006.928-1.444l-.478 7.098V76.4a66.564 66.564 0 00-6.151 1.745 69.414 69.414 0 00-6.032 2.346v5.173h41.328v-5.173a74.184 74.184 0 00-5.972-2.346 67.205 67.205 0 00-5.972-1.745V0h-4.062z" fill="url(#_Linear1)" fill-rule="nonzero"/><defs><linearGradient id="_Linear1" x1="0" y1="0" x2="1" y2="0" gradientUnits="userSpaceOnUse" gradientTransform="rotate(-59.47 71.557 37.084) scale(65.2895)"><stop offset="0" stop-color="#a74190"/><stop offset="0" stop-color="#a74190"/><stop offset=".32" stop-color="#26317a"/><stop offset="1" stop-color="#6fbb84"/></linearGradient></defs></svg>