<svg viewBox="0 0 55 86" xmlns="http://www.w3.org/2000/svg" fill-rule="evenodd" clip-rule="evenodd" stroke-linejoin="round" stroke-miterlimit="2"><path d="M11.764 2.647C7.423 4.412 3.861 6.497 1.075 8.903c.316 1.445.756 3.03 1.313 4.752a157.766 157.766 0 001.791 5.234 521.037 521.037 0 001.852 5.054 211.418 211.418 0 001.613 4.212h4.061l4.42-18.65c1.353-.4 2.568-.681 3.642-.842 1.075-.16 2.288-.241 3.643-.241 4.3 0 7.624 1.384 9.973 4.152 2.348 2.766 3.525 6.357 3.525 10.767 0 3.369-.618 6.818-1.852 10.348-1.236 3.53-2.888 6.999-4.957 10.407a95.382 95.382 0 01-7.047 10.045 169.928 169.928 0 01-8.003 9.325 150.48 150.48 0 01-8.002 8.06A434.371 434.371 0 010 77.964v7.7h54.704c0-1.444-.08-3.348-.239-5.716-.161-2.364-.358-4.85-.597-7.458a465.172 465.172 0 00-.776-7.76c-.28-2.566-.537-4.813-.777-6.738h-4.06l-5.853 13.475H21.857l-7.286.721v-.481l6.211-4.21c3.026-2.648 6.409-5.596 10.154-8.843a101.343 101.343 0 0010.51-10.588 62.372 62.372 0 008.242-12.272c2.228-4.371 3.344-9.003 3.344-13.896 0-3.048-.498-5.897-1.493-8.543-.997-2.647-2.549-4.972-4.658-6.978-2.111-2.004-4.759-3.569-7.943-4.693C35.752.563 31.969 0 27.591 0 21.38 0 16.104.884 11.764 2.647z" fill="url(#_Linear1)" fill-rule="nonzero"/><defs><linearGradient id="_Linear1" x1="0" y1="0" x2="1" y2="0" gradientUnits="userSpaceOnUse" gradientTransform="rotate(-55.713 80.022 37.64) scale(76.7347)"><stop offset="0" stop-color="#a74190"/><stop offset="0" stop-color="#a74190"/><stop offset=".32" stop-color="#26317a"/><stop offset="1" stop-color="#6fbb84"/></linearGradient></defs></svg>