<svg viewBox="0 0 381 303" xmlns="http://www.w3.org/2000/svg" fill-rule="evenodd" clip-rule="evenodd" stroke-linejoin="round" stroke-miterlimit="2"><path d="M.829.237C.813.222.802.203.787.186a6.101 6.101 0 00-.1-.116L.739.007C.721-.028.714-.03.678-.016l-.045.014v-.014C.635-.02.637-.024.64-.026A.147.147 0 00.7-.145c.001-.036.018-.053.044-.07a.119.119 0 00.023-.016L.878-.31c.03.05.027.098-.006.14l-.031.036c-.024.03-.022.043.008.066a3.98 3.98 0 00.086-.035.233.233 0 00.062.134.347.347 0 01.037.057c.035.068.023.123-.035.164L.998.253C.938.296.881.291.829.237z" fill="url(#_Linear1)" fill-rule="nonzero" transform="scale(382.9202 -382.9202) rotate(35.433 1.483 -.304)"/><path d="M.744.403C.659.45.549.445.487.308.48.294.463.285.455.271.438.239.414.208.422.168.423.162.423.155.42.151A.163.163 0 01.394.057c0-.041-.051-.073-.089-.059-.03.01-.058.024-.086.036a.18.18 0 01-.226-.065L.61-.47a.18.18 0 01-.012.235C.577-.212.555-.19.535-.166c-.025.031-.012.091.026.104a.16.16 0 01.081.055c.003.004.01.006.015.007.041.006.062.039.087.066.01.011.013.031.025.042.108.103.077.209.005.274L.759.393l-.015.01z" fill="url(#_Linear2)" fill-rule="nonzero" transform="scale(382.9202 -382.9202) rotate(35.433 1.184 -.4)"/><defs><linearGradient id="_Linear1" x1="0" y1="0" x2="1" y2="0" gradientUnits="userSpaceOnUse" gradientTransform="matrix(1 0 0 -1 0 -.014)"><stop offset="0" stop-color="#a04a9b"/><stop offset="0" stop-color="#a04a9b"/><stop offset=".32" stop-color="#223982"/><stop offset="1" stop-color="#67c08b"/></linearGradient><linearGradient id="_Linear2" x1="0" y1="0" x2="1" y2="0" gradientUnits="userSpaceOnUse" gradientTransform="matrix(1 0 0 -1 0 -.02)"><stop offset="0" stop-color="#a04a9b"/><stop offset="0" stop-color="#a04a9b"/><stop offset=".32" stop-color="#223982"/><stop offset="1" stop-color="#67c08b"/></linearGradient></defs></svg>