<svg viewBox="0 0 445 301" xmlns="http://www.w3.org/2000/svg" fill-rule="evenodd" clip-rule="evenodd" stroke-linejoin="round" stroke-miterlimit="2"><g font-family="'PTSerif-Regular','PT Serif',sans-serif" font-size="14" fill="#58595b"><text x="242.395" y="580.259" transform="translate(-149.939 -561.284)">Привлекает</text><text x="253.553" y="594.359" transform="translate(-149.939 -561.284)">внимание</text></g><g font-family="'PTSerif-Regular','PT Serif',sans-serif" font-size="14" fill="#58595b"><text x="321.355" y="831.279" transform="translate(-149.939 -561.284)">Выгодно выделяет</text><text x="275.911" y="845.379" transform="translate(-149.939 -561.284)">компанию на фоне конкурентов,</text><text x="271.459" y="859.479" transform="translate(-149.939 -561.284)">поддерживает позиционирование</text></g><g font-family="'PTSerif-Regular','PT Serif',sans-serif" font-size="14" fill="#58595b"><text x="149.533" y="729.905" transform="translate(-149.939 -561.284)">Влияет на мнение</text><text x="164.149" y="744.005" transform="translate(-149.939 -561.284)">потенциальных</text><text x="194.151" y="758.105" transform="translate(-149.939 -561.284)">заказчиков</text></g><g font-family="'PTSerif-Regular','PT Serif',sans-serif" font-size="14" fill="#58595b"><text x="447.425" y="573.175" transform="translate(-149.939 -561.284)">Повышает</text><text x="447.425" y="587.275" transform="translate(-149.939 -561.284)">узнаваемость</text><text x="447.425" y="601.375" transform="translate(-149.939 -561.284)">бренда</text></g><g font-family="'PTSerif-Regular','PT Serif',sans-serif" font-size="14" fill="#58595b"><text x="498.693" y="729.877" transform="translate(-149.939 -561.284)">Поддерживает</text><text x="498.693" y="743.977" transform="translate(-149.939 -561.284)">лояльность</text><text x="498.693" y="758.077" transform="translate(-149.939 -561.284)">клиентов</text></g><text x="339.259" y="687.712" font-family="'PTSerif-Bold','PT Serif',sans-serif" font-weight="700" font-size="18" fill="#223983" transform="matrix(.93248 0 0 1 -127.031 -561.284)">ПР<tspan x="364.269px 377.378px 390.464px 403.354px" y="687.712px 687.712px 687.712px 687.712px">ОДАЖ</tspan>И</text><text x="351.781" y="709.312" font-family="'PTSerif-Bold','PT Serif',sans-serif" font-weight="700" font-size="18" fill="#223983" transform="matrix(.93248 0 0 1 -126.186 -561.284)">Р<tspan x="361.644px 373.785px 385.004px" y="709.312px 709.312px 709.312px">АСТ</tspan>УТ</text><path d="M231.339 1.459l-34.443 83.249-87.071-.706a2.363 2.363 0 00-1.525 4.167l67.528 57.018-23.808 86.819a2.36 2.36 0 00.915 2.554 2.359 2.359 0 002.714.008l77.873-54.298 77.875 54.298a2.358 2.358 0 002.713-.008 2.358 2.358 0 00.915-2.554l-23.807-86.819 67.527-57.017a2.366 2.366 0 00.691-2.625c-.346-.936-1.24-1.566-2.235-1.543l-87.051.706-34.443-83.249a2.366 2.366 0 00-4.368 0zm-30.218 87.235l32.401-78.318 32.402 78.318a2.365 2.365 0 002.183 1.458l80.654-.655-62.539 52.808a2.363 2.363 0 00-.755 2.43l22.086 80.54-72.474-50.535-.2-.141a2.37 2.37 0 00-2.708-.002l-72.679 50.678 22.086-80.542a2.363 2.363 0 00-.754-2.428l-62.54-52.809 80.676.657c.99 0 1.798-.581 2.161-1.459z" fill="url(#_Linear1)" fill-rule="nonzero"/><path d="M362.609 103.919l-54.575 46.083a2.36 2.36 0 00-.754 2.429l20.158 73.512a2.364 2.364 0 002.901 1.654l.677-.185a2.363 2.363 0 001.656-2.904l-19.642-71.623 53.079-44.821a2.363 2.363 0 00.282-3.328l-.452-.535a2.368 2.368 0 00-1.797-.84c-.554 0-1.102.196-1.533.558z" fill="url(#_Linear2)" fill-rule="nonzero"/><path d="M232.198 197.621l-61.517 42.935a2.358 2.358 0 00-.585 3.289l.401.576a2.36 2.36 0 003.289.584l59.765-41.712 59.824 41.713a2.362 2.362 0 003.288-.585l.401-.576a2.36 2.36 0 00-.586-3.29l-61.582-42.939a2.362 2.362 0 00-2.698.005z" fill="url(#_Linear3)" fill-rule="nonzero"/><path d="M102.773 105.555l-.453.535a2.366 2.366 0 00.279 3.332l51.472 43.463-18.225 66.458a2.36 2.36 0 001.657 2.904l.677.185a2.366 2.366 0 002.901-1.654l18.741-68.347a2.36 2.36 0 00-.753-2.429l-52.968-44.725a2.357 2.357 0 00-3.328.278z" fill="url(#_Linear4)" fill-rule="nonzero"/><path d="M212.035.963a2.371 2.371 0 00-1.279 1.279l-27.038 65.352-65.236-.53a2.351 2.351 0 00-1.677.678 2.36 2.36 0 00-.706 1.665l-.005.701a2.365 2.365 0 002.342 2.383l67.323.546c.955 0 1.817-.576 2.184-1.459l27.828-67.26a2.364 2.364 0 00-1.279-3.086l-.648-.269a2.364 2.364 0 00-1.809 0z" fill="url(#_Linear5)" fill-rule="nonzero"/><path d="M253.259.963l-.648.269a2.363 2.363 0 00-1.279 3.086l27.827 67.257a2.362 2.362 0 002.184 1.46h70.44a2.362 2.362 0 002.363-2.362v-.701a2.363 2.363 0 00-2.363-2.364H283.39L256.347 2.242a2.373 2.373 0 00-2.184-1.459c-.307 0-.614.06-.904.18z" fill="url(#_Linear6)" fill-rule="nonzero"/><defs><linearGradient id="_Linear1" x1="0" y1="0" x2="1" y2="0" gradientUnits="userSpaceOnUse" gradientTransform="rotate(-54.233 309.465 -32.635) scale(228.728)"><stop offset="0" stop-color="#a74190"/><stop offset="0" stop-color="#a74190"/><stop offset=".32" stop-color="#26317a"/><stop offset="1" stop-color="#6fbb84"/></linearGradient><linearGradient id="_Linear2" x1="0" y1="0" x2="1" y2="0" gradientUnits="userSpaceOnUse" gradientTransform="rotate(-54.233 412.108 -85.198) scale(228.728)"><stop offset="0" stop-color="#a74190"/><stop offset="0" stop-color="#a74190"/><stop offset=".32" stop-color="#26317a"/><stop offset="1" stop-color="#6fbb84"/></linearGradient><linearGradient id="_Linear3" x1="0" y1="0" x2="1" y2="0" gradientUnits="userSpaceOnUse" gradientTransform="rotate(-54.233 374.496 -65.938) scale(228.728)"><stop offset="0" stop-color="#a74190"/><stop offset="0" stop-color="#a74190"/><stop offset=".32" stop-color="#26317a"/><stop offset="1" stop-color="#6fbb84"/></linearGradient><linearGradient id="_Linear4" x1="0" y1="0" x2="1" y2="0" gradientUnits="userSpaceOnUse" gradientTransform="rotate(-54.233 240.808 2.524) scale(228.728)"><stop offset="0" stop-color="#a74190"/><stop offset="0" stop-color="#a74190"/><stop offset=".32" stop-color="#26317a"/><stop offset="1" stop-color="#6fbb84"/></linearGradient><linearGradient id="_Linear5" x1="0" y1="0" x2="1" y2="0" gradientUnits="userSpaceOnUse" gradientTransform="rotate(-54.233 211.538 17.512) scale(228.728)"><stop offset="0" stop-color="#a74190"/><stop offset="0" stop-color="#a74190"/><stop offset=".32" stop-color="#26317a"/><stop offset="1" stop-color="#6fbb84"/></linearGradient><linearGradient id="_Linear6" x1="0" y1="0" x2="1" y2="0" gradientUnits="userSpaceOnUse" gradientTransform="rotate(-54.233 311.964 -33.915) scale(228.728)"><stop offset="0" stop-color="#a74190"/><stop offset="0" stop-color="#a74190"/><stop offset=".32" stop-color="#26317a"/><stop offset="1" stop-color="#6fbb84"/></linearGradient></defs></svg>