<svg viewBox="0 0 291 206" xmlns="http://www.w3.org/2000/svg" fill-rule="evenodd" clip-rule="evenodd" stroke-linejoin="round" stroke-miterlimit="2"><g font-family="'PTSerif-Regular','PT Serif',sans-serif" font-size="13" fill="#58595b"><text x="20.369" y="884.674" transform="translate(-17.04 -765.503)">Привлекает</text><text x="30.73" y="897.297" transform="translate(-17.04 -765.503)">внимание</text></g><g font-family="'PTSerif-Regular','PT Serif',sans-serif" font-size="13" fill="#58595b"><text x="102.061" y="943.317" transform="translate(-17.04 -765.503)">Выгодно выделяет</text><text x="59.863" y="955.94" transform="translate(-17.04 -765.503)">компанию на фоне конкурентов,</text><text x="55.729" y="968.563" transform="translate(-17.04 -765.503)">поддерживает позиционирование</text></g><g font-family="'PTSerif-Regular','PT Serif',sans-serif" font-size="13" fill="#58595b"><text x="16.664" y="774.681" transform="translate(-17.04 -765.503)">Влияет на мнение</text><text x="30.236" y="787.304" transform="translate(-17.04 -765.503)">потенциальных</text><text x="58.095" y="799.927" transform="translate(-17.04 -765.503)">заказчиков</text></g><g font-family="'PTSerif-Regular','PT Serif',sans-serif" font-size="13" fill="#58595b"><text x="224.742" y="876.692" transform="translate(-17.04 -765.503)">Повышает</text><text x="224.742" y="889.315" transform="translate(-17.04 -765.503)">узнаваемость</text><text x="224.742" y="901.938" transform="translate(-17.04 -765.503)">бренда</text></g><text x="196.389" y="774.681" font-family="'PTSerif-Regular','PT Serif',sans-serif" font-size="13" fill="#58595b" transform="translate(-17.04 -765.503)">Поддерживает</text><text x="196.389" y="787.304" font-family="'PTSerif-Regular','PT Serif',sans-serif" font-size="13" fill="#58595b" transform="translate(-17.04 -765.503)">лояльность</text><text x="196.389" y="799.927" font-family="'PTSerif-Regular','PT Serif',sans-serif" font-size="13" fill="#58595b" transform="translate(-17.04 -765.503)">клиентов</text><text x="125.475" y="847.927" font-family="'PTSerif-Bold','PT Serif',sans-serif" font-weight="700" font-size="14" fill="#223983" transform="matrix(.93248 0 0 1 -8.568 -765.503)">ПР<tspan x="144.926px 155.122px 165.3px 175.326px" y="847.927px 847.927px 847.927px 847.927px">ОДАЖ</tspan>И</text><text x="135.213" y="864.727" font-family="'PTSerif-Bold','PT Serif',sans-serif" font-weight="700" font-size="14" fill="#223983" transform="matrix(.93248 0 0 1 -7.91 -765.503)">Р<tspan x="142.885px 152.328px 161.054px" y="864.727px 864.727px 864.727px">АСТ</tspan>УТ</text><path d="M141.574 6.598l-21.537 52.055-54.446-.441a1.476 1.476 0 00-.954 2.605l42.226 35.654-14.887 54.288a1.476 1.476 0 002.269 1.603l48.694-33.953 48.694 33.953a1.485 1.485 0 001.698-.006c.508-.359.737-.997.572-1.597l-14.886-54.288 42.223-35.653a1.48 1.48 0 00.434-1.642 1.466 1.466 0 00-1.399-.964l-54.433.441-21.537-52.055a1.476 1.476 0 00-2.731 0zm-18.895 54.547l20.26-48.972L163.2 61.145a1.48 1.48 0 001.365.913l50.433-.41-39.107 33.02a1.478 1.478 0 00-.47 1.52l13.81 50.361-45.318-31.599-.126-.087a1.469 1.469 0 00-.848-.267c-.295 0-.59.087-.844.265l-45.447 31.688 13.811-50.362a1.481 1.481 0 00-.472-1.519L70.88 61.647l50.268.408.178.003c.619 0 1.126-.364 1.353-.913z" fill="url(#_Linear1)" fill-rule="nonzero"/><path d="M223.658 70.666l-34.126 28.815c-.44.372-.624.965-.472 1.52l12.605 45.966a1.48 1.48 0 001.814 1.035l.423-.115a1.481 1.481 0 001.036-1.816l-12.282-44.786 33.19-28.027a1.478 1.478 0 00.176-2.082l-.282-.334a1.487 1.487 0 00-1.125-.525c-.346 0-.689.122-.957.349z" fill="url(#_Linear2)" fill-rule="nonzero"/><path d="M142.111 129.258l-38.467 26.847a1.475 1.475 0 00-.366 2.058l.251.359c.468.67 1.389.833 2.058.365l37.371-26.082 37.407 26.082c.257.18.552.267.844.267a1.48 1.48 0 001.212-.632l.251-.359a1.48 1.48 0 00-.367-2.058l-38.381-26.763-.126-.086a1.476 1.476 0 00-1.687.002z" fill="url(#_Linear3)" fill-rule="nonzero"/><path d="M61.181 71.689l-.282.335a1.475 1.475 0 00.174 2.083l32.185 27.178-11.395 41.556a1.478 1.478 0 001.036 1.816l.423.115a1.476 1.476 0 001.813-1.035l11.72-42.736a1.479 1.479 0 00-.472-1.52l-33.12-27.966a1.473 1.473 0 00-2.082.174z" fill="url(#_Linear4)" fill-rule="nonzero"/><path d="M129.504 6.287a1.48 1.48 0 00-.801.799l-16.906 40.866-40.793-.332a1.474 1.474 0 00-1.489 1.466l-.004.438a1.48 1.48 0 001.465 1.49l42.097.341c.598 0 1.137-.36 1.365-.912l17.401-42.058a1.48 1.48 0 00-.799-1.93l-.406-.168a1.475 1.475 0 00-1.13 0z" fill="url(#_Linear5)" fill-rule="nonzero"/><path d="M155.281 6.287l-.405.168a1.48 1.48 0 00-.801 1.93l17.401 42.056c.228.553.767.913 1.366.913h44.046c.816 0 1.477-.661 1.477-1.477v-.438c0-.816-.661-1.478-1.477-1.478h-42.766L157.211 7.086a1.482 1.482 0 00-1.365-.911c-.192 0-.384.037-.565.112z" fill="url(#_Linear6)" fill-rule="nonzero"/><defs><linearGradient id="_Linear1" x1="0" y1="0" x2="1" y2="0" gradientUnits="userSpaceOnUse" gradientTransform="rotate(-52.017 202.737 -17.652) scale(133.37)"><stop offset="0" stop-color="#a74190"/><stop offset="0" stop-color="#a74190"/><stop offset=".32" stop-color="#26317a"/><stop offset="1" stop-color="#6fbb84"/></linearGradient><linearGradient id="_Linear2" x1="0" y1="0" x2="1" y2="0" gradientUnits="userSpaceOnUse" gradientTransform="rotate(-52.017 269.058 -50.012) scale(133.37)"><stop offset="0" stop-color="#a74190"/><stop offset="0" stop-color="#a74190"/><stop offset=".32" stop-color="#26317a"/><stop offset="1" stop-color="#6fbb84"/></linearGradient><linearGradient id="_Linear3" x1="0" y1="0" x2="1" y2="0" gradientUnits="userSpaceOnUse" gradientTransform="rotate(-52.017 246.74 -39.121) scale(133.37)"><stop offset="0" stop-color="#a74190"/><stop offset="0" stop-color="#a74190"/><stop offset=".32" stop-color="#26317a"/><stop offset="1" stop-color="#6fbb84"/></linearGradient><linearGradient id="_Linear4" x1="0" y1="0" x2="1" y2="0" gradientUnits="userSpaceOnUse" gradientTransform="rotate(-52.017 159.099 3.638) scale(133.37)"><stop offset="0" stop-color="#a74190"/><stop offset="0" stop-color="#a74190"/><stop offset=".32" stop-color="#26317a"/><stop offset="1" stop-color="#6fbb84"/></linearGradient><linearGradient id="_Linear5" x1="0" y1="0" x2="1" y2="0" gradientUnits="userSpaceOnUse" gradientTransform="rotate(-52.017 137.573 14.14) scale(133.37)"><stop offset="0" stop-color="#a74190"/><stop offset="0" stop-color="#a74190"/><stop offset=".32" stop-color="#26317a"/><stop offset="1" stop-color="#6fbb84"/></linearGradient><linearGradient id="_Linear6" x1="0" y1="0" x2="1" y2="0" gradientUnits="userSpaceOnUse" gradientTransform="rotate(-52.017 200.589 -16.605) scale(133.37)"><stop offset="0" stop-color="#a74190"/><stop offset="0" stop-color="#a74190"/><stop offset=".32" stop-color="#26317a"/><stop offset="1" stop-color="#6fbb84"/></linearGradient></defs></svg>