<svg viewBox="0 0 728 478" xmlns="http://www.w3.org/2000/svg" fill-rule="evenodd" clip-rule="evenodd" stroke-linejoin="round" stroke-miterlimit="2"><g font-family="'PTSerif-Regular','PT Serif',sans-serif" font-size="23" fill="#58595b"><text x="712.902" y="1052.42" transform="translate(-580.997 -1011.67)">Привлекает</text><text x="731.233" y="1074.43" transform="translate(-580.997 -1011.67)">внимание</text></g><g font-family="'PTSerif-Regular','PT Serif',sans-serif" font-size="23" fill="#58595b"><text x="859.09" y="1440.06" transform="translate(-580.997 -1011.67)">Выгодно выделяет</text><text x="784.432" y="1462.07" transform="translate(-580.997 -1011.67)">компанию на фоне конкурентов,</text><text x="777.118" y="1484.08" transform="translate(-580.997 -1011.67)">поддерживает позиционирование</text></g><g font-family="'PTSerif-Regular','PT Serif',sans-serif" font-size="23" fill="#58595b"><text x="580.33" y="1273.84" transform="translate(-580.997 -1011.67)">Влияет на мнение</text><text x="604.342" y="1295.85" transform="translate(-580.997 -1011.67)">потенциальных</text><text x="653.631" y="1317.86" transform="translate(-580.997 -1011.67)">заказчиков</text></g><g font-family="'PTSerif-Regular','PT Serif',sans-serif" font-size="23" fill="#58595b"><text x="1076.42" y="1035.49" transform="translate(-580.997 -1011.67)">Повышает</text><text x="1076.42" y="1057.5" transform="translate(-580.997 -1011.67)">узнаваемость</text><text x="1076.42" y="1079.51" transform="translate(-580.997 -1011.67)">бренда</text></g><g font-family="'PTSerif-Regular','PT Serif',sans-serif" font-size="23" fill="#58595b"><text x="1151.77" y="1273.89" transform="translate(-580.997 -1011.67)">Поддерживает</text><text x="1151.77" y="1295.9" transform="translate(-580.997 -1011.67)">лояльность</text><text x="1151.77" y="1317.91" transform="translate(-580.997 -1011.67)">клиентов</text></g><text x="892.426" y="1215.89" font-family="'PTSerif-Bold','PT Serif',sans-serif" font-weight="700" font-size="28" fill="#223983" transform="matrix(.93248 0 0 1 -520.74 -1011.67)">ПР<tspan x="931.329px 951.721px 972.077px 992.128px" y="1215.89px 1215.89px 1215.89px 1215.89px">ОДАЖ</tspan>И</text><text x="911.903" y="1249.49" font-family="'PTSerif-Bold','PT Serif',sans-serif" font-weight="700" font-size="28" fill="#223983" transform="matrix(.93248 0 0 1 -519.424 -1011.67)">Р<tspan x="927.246px 946.132px 963.583px" y="1249.49px 1249.49px 1249.49px">АСТ</tspan>УТ</text><path d="M376.705 2.312l-54.547 131.841-137.896-1.119a3.74 3.74 0 00-2.415 6.599l106.944 90.303-37.705 137.494a3.74 3.74 0 005.749 4.058l123.328-85.992 123.329 85.992a3.743 3.743 0 005.748-4.058l-37.704-137.494 106.942-90.301a3.743 3.743 0 001.096-4.158c-.548-1.48-1.964-2.478-3.54-2.443l-137.864 1.119L383.622 2.312a3.743 3.743 0 00-6.917 0zm-47.857 138.153l51.315-124.032 51.316 124.032a3.743 3.743 0 003.457 2.311l127.731-1.039-99.044 83.632a3.744 3.744 0 00-1.194 3.848l34.977 127.551-115.096-80.253a3.737 3.737 0 00-4.287-.005L262.92 356.768l34.978-127.554a3.744 3.744 0 00-1.194-3.845l-99.046-83.633 127.766 1.04c1.569 0 2.85-.921 3.424-2.311z" fill="url(#_Linear1)" fill-rule="nonzero"/><path d="M584.599 164.578l-86.431 72.981a3.74 3.74 0 00-1.194 3.848l31.925 116.42a3.743 3.743 0 003.606 2.754c.325 0 .657-.044.987-.134l1.071-.292a3.747 3.747 0 002.266-1.756 3.746 3.746 0 00.358-2.844l-31.106-113.43 84.062-70.984a3.74 3.74 0 00.445-5.269l-.714-.848a3.749 3.749 0 00-2.847-1.33c-.877 0-1.746.31-2.428.884z" fill="url(#_Linear2)" fill-rule="nonzero"/><path d="M378.066 312.974L280.64 380.97a3.734 3.734 0 00-1.542 2.413 3.733 3.733 0 00.616 2.798l.635.911a3.739 3.739 0 005.209.925l94.651-66.06 94.743 66.061a3.744 3.744 0 005.207-.926l.635-.911c.57-.813.791-1.82.616-2.8a3.75 3.75 0 00-1.544-2.413l-97.528-68.001a3.743 3.743 0 00-4.272.007z" fill="url(#_Linear3)" fill-rule="nonzero"/><path d="M173.094 167.168l-.717.847a3.74 3.74 0 00.441 5.277l81.517 68.833-28.863 105.251a3.744 3.744 0 002.624 4.6l1.071.291c.33.089.661.134.989.134a3.745 3.745 0 003.606-2.754l29.682-108.24a3.744 3.744 0 00-1.194-3.848l-83.885-70.833a3.735 3.735 0 00-2.414-.883 3.73 3.73 0 00-2.857 1.325z" fill="url(#_Linear4)" fill-rule="nonzero"/><path d="M346.133 1.525a3.75 3.75 0 00-2.026 2.025l-42.82 103.498-103.316-.839a3.743 3.743 0 00-3.772 3.712l-.009 1.111a3.743 3.743 0 003.712 3.771l106.618.866a3.743 3.743 0 003.458-2.311L352.05 6.838a3.744 3.744 0 00-2.026-4.888l-1.027-.425a3.718 3.718 0 00-2.864 0z" fill="url(#_Linear5)" fill-rule="nonzero"/><path d="M411.42 1.525l-1.026.425a3.743 3.743 0 00-2.026 4.888l44.07 106.514a3.74 3.74 0 003.459 2.314h111.557a3.74 3.74 0 003.741-3.742v-1.11a3.741 3.741 0 00-3.741-3.742H459.139L416.31 3.55a3.744 3.744 0 00-4.89-2.025z" fill="url(#_Linear6)" fill-rule="nonzero"/><defs><linearGradient id="_Linear1" x1="0" y1="0" x2="1" y2="0" gradientUnits="userSpaceOnUse" gradientTransform="rotate(-54.233 495.18 -61.58) scale(362.239)"><stop offset="0" stop-color="#a74190"/><stop offset="0" stop-color="#a74190"/><stop offset=".32" stop-color="#26317a"/><stop offset="1" stop-color="#6fbb84"/></linearGradient><linearGradient id="_Linear2" x1="0" y1="0" x2="1" y2="0" gradientUnits="userSpaceOnUse" gradientTransform="rotate(-54.233 657.826 -144.896) scale(362.239)"><stop offset="0" stop-color="#a74190"/><stop offset="0" stop-color="#a74190"/><stop offset=".32" stop-color="#26317a"/><stop offset="1" stop-color="#6fbb84"/></linearGradient><linearGradient id="_Linear3" x1="0" y1="0" x2="1" y2="0" gradientUnits="userSpaceOnUse" gradientTransform="rotate(-54.233 598.419 -114.468) scale(362.239)"><stop offset="0" stop-color="#a74190"/><stop offset="0" stop-color="#a74190"/><stop offset=".32" stop-color="#26317a"/><stop offset="1" stop-color="#6fbb84"/></linearGradient><linearGradient id="_Linear4" x1="0" y1="0" x2="1" y2="0" gradientUnits="userSpaceOnUse" gradientTransform="rotate(-54.233 386.509 -6.158) scale(362.239)"><stop offset="0" stop-color="#a74190"/><stop offset="0" stop-color="#a74190"/><stop offset=".32" stop-color="#26317a"/><stop offset="1" stop-color="#6fbb84"/></linearGradient><linearGradient id="_Linear5" x1="0" y1="0" x2="1" y2="0" gradientUnits="userSpaceOnUse" gradientTransform="rotate(-54.233 340.505 17.75) scale(362.239)"><stop offset="0" stop-color="#a74190"/><stop offset="0" stop-color="#a74190"/><stop offset=".32" stop-color="#26317a"/><stop offset="1" stop-color="#6fbb84"/></linearGradient><linearGradient id="_Linear6" x1="0" y1="0" x2="1" y2="0" gradientUnits="userSpaceOnUse" gradientTransform="rotate(-54.233 499.165 -63.754) scale(362.239)"><stop offset="0" stop-color="#a74190"/><stop offset="0" stop-color="#a74190"/><stop offset=".32" stop-color="#26317a"/><stop offset="1" stop-color="#6fbb84"/></linearGradient></defs></svg>