<svg viewBox="0 0 602 413" xmlns="http://www.w3.org/2000/svg" fill-rule="evenodd" clip-rule="evenodd" stroke-linejoin="round" stroke-miterlimit="2"><g font-family="'PTSerif-Regular','PT Serif',sans-serif" font-size="18" fill="#58595b"><text x="514.688" y="960.766" transform="translate(-406.004 -925.421)">Привлекает</text><text x="529.034" y="978.766" transform="translate(-406.004 -925.421)">внимание</text></g><g font-family="'PTSerif-Regular','PT Serif',sans-serif" font-size="18" fill="#58595b"><text x="639.464" y="1298.64" transform="translate(-406.004 -925.421)">Выгодно выделяет</text><text x="581.036" y="1316.64" transform="translate(-406.004 -925.421)">компанию на фоне конкурентов,</text><text x="575.312" y="1334.64" transform="translate(-406.004 -925.421)">поддерживает позиционирование</text></g><g font-family="'PTSerif-Regular','PT Serif',sans-serif" font-size="18" fill="#58595b"><text x="405.482" y="1152.74" transform="translate(-406.004 -925.421)">Влияет на мнение</text><text x="424.274" y="1170.74" transform="translate(-406.004 -925.421)">потенциальных</text><text x="462.848" y="1188.74" transform="translate(-406.004 -925.421)">заказчиков</text></g><g font-family="'PTSerif-Regular','PT Serif',sans-serif" font-size="18" fill="#58595b"><text x="819.194" y="946.024" transform="translate(-406.004 -925.421)">Повышает</text><text x="819.194" y="964.024" transform="translate(-406.004 -925.421)">узнаваемость</text><text x="819.194" y="982.024" transform="translate(-406.004 -925.421)">бренда</text></g><g font-family="'PTSerif-Regular','PT Serif',sans-serif" font-size="18" fill="#58595b"><text x="884.516" y="1152.74" transform="translate(-406.004 -925.421)">Поддерживает</text><text x="884.516" y="1170.74" transform="translate(-406.004 -925.421)">лояльность</text><text x="884.516" y="1188.74" transform="translate(-406.004 -925.421)">клиентов</text></g><text x="657.828" y="1102.52" font-family="'PTSerif-Bold','PT Serif',sans-serif" font-weight="700" font-size="25" fill="#223983" transform="matrix(.93248 0 0 1 -361.587 -925.421)">ПР<tspan x="692.564px 710.77px 728.945px 746.848px" y="1102.52px 1102.52px 1102.52px 1102.52px">ОДАЖ</tspan>И</text><text x="675.219" y="1132.52" font-family="'PTSerif-Bold','PT Serif',sans-serif" font-weight="700" font-size="25" fill="#223983" transform="matrix(.93248 0 0 1 -360.413 -925.421)">Р<tspan x="688.918px 705.781px 721.362px" y="1132.52px 1132.52px 1132.52px">АСТ</tspan>УТ</text><path d="M310.229 2.004l-47.301 114.33-119.579-.97a3.243 3.243 0 00-2.094 5.723l92.738 78.305-32.697 119.231a3.245 3.245 0 004.985 3.519l106.947-74.569 106.947 74.569c.558.39 1.207.583 1.856.583a3.245 3.245 0 003.129-4.102l-32.697-119.231 92.738-78.304a3.249 3.249 0 00.95-3.606c-.475-1.284-1.703-2.15-3.069-2.118l-119.553.97-47.302-114.33a3.246 3.246 0 00-5.998 0zM268.73 121.807L313.228 14.25l44.499 107.557a3.248 3.248 0 002.998 2.003l110.765-.9-85.888 72.524a3.241 3.241 0 00-1.035 3.336l30.331 110.608-99.808-69.593a3.244 3.244 0 00-3.718-.004l-99.813 69.597 30.331-110.61a3.241 3.241 0 00-1.035-3.334l-85.89-72.525 110.796.902c1.359 0 2.47-.799 2.969-2.004z" fill="url(#_Linear1)" fill-rule="nonzero"/><path d="M490.509 142.716l-74.951 63.287a3.25 3.25 0 00-1.036 3.338l27.684 100.955a3.248 3.248 0 003.984 2.273l.929-.254a3.246 3.246 0 002.275-3.988l-26.974-98.364 72.895-61.554a3.244 3.244 0 00.387-4.57l-.62-.736a3.249 3.249 0 00-2.473-1.152c-.76 0-1.511.269-2.1.765z" fill="url(#_Linear2)" fill-rule="nonzero"/><path d="M311.409 271.401l-84.484 58.965a3.248 3.248 0 00-.804 4.518l.552.79a3.243 3.243 0 004.517.802l82.078-57.285 82.157 57.286a3.244 3.244 0 004.516-.803l.551-.79a3.248 3.248 0 00-.804-4.52l-84.573-58.969a3.248 3.248 0 00-3.706.006z" fill="url(#_Linear3)" fill-rule="nonzero"/><path d="M133.664 144.963l-.622.735a3.244 3.244 0 00.382 4.576l70.69 59.689-25.029 91.27a3.24 3.24 0 00.312 2.465 3.237 3.237 0 001.963 1.523l.93.254a3.246 3.246 0 003.983-2.272l25.739-93.862a3.245 3.245 0 00-1.034-3.338l-72.744-61.423a3.24 3.24 0 00-2.093-.766c-.921 0-1.836.39-2.477 1.149z" fill="url(#_Linear4)" fill-rule="nonzero"/><path d="M283.718 1.322a3.25 3.25 0 00-1.757 1.757L244.829 92.83l-89.592-.73a3.241 3.241 0 00-3.272 3.221l-.007.962a3.246 3.246 0 003.218 3.27l92.457.752a3.247 3.247 0 002.998-2.004L288.849 5.93a3.247 3.247 0 00-1.757-4.239l-.89-.369a3.26 3.26 0 00-2.484 0z" fill="url(#_Linear5)" fill-rule="nonzero"/><path d="M340.333 1.322l-.889.369a3.245 3.245 0 00-1.757 4.239l38.215 92.366a3.245 3.245 0 002.999 2.007h96.739a3.246 3.246 0 003.245-3.245v-.964a3.246 3.246 0 00-3.245-3.245h-93.926l-37.14-89.77a3.25 3.25 0 00-4.241-1.757z" fill="url(#_Linear6)" fill-rule="nonzero"/><defs><linearGradient id="_Linear1" x1="0" y1="0" x2="1" y2="0" gradientUnits="userSpaceOnUse" gradientTransform="rotate(-54.233 421.261 -37.52) scale(314.12)"><stop offset="0" stop-color="#a74190"/><stop offset="0" stop-color="#a74190"/><stop offset=".32" stop-color="#26317a"/><stop offset="1" stop-color="#6fbb84"/></linearGradient><linearGradient id="_Linear2" x1="0" y1="0" x2="1" y2="0" gradientUnits="userSpaceOnUse" gradientTransform="rotate(-54.233 562.224 -109.708) scale(314.12)"><stop offset="0" stop-color="#a74190"/><stop offset="0" stop-color="#a74190"/><stop offset=".32" stop-color="#26317a"/><stop offset="1" stop-color="#6fbb84"/></linearGradient><linearGradient id="_Linear3" x1="0" y1="0" x2="1" y2="0" gradientUnits="userSpaceOnUse" gradientTransform="rotate(-54.233 510.57 -83.257) scale(314.12)"><stop offset="0" stop-color="#a74190"/><stop offset="0" stop-color="#a74190"/><stop offset=".32" stop-color="#26317a"/><stop offset="1" stop-color="#6fbb84"/></linearGradient><linearGradient id="_Linear4" x1="0" y1="0" x2="1" y2="0" gradientUnits="userSpaceOnUse" gradientTransform="rotate(-54.233 326.972 10.765) scale(314.12)"><stop offset="0" stop-color="#a74190"/><stop offset="0" stop-color="#a74190"/><stop offset=".32" stop-color="#26317a"/><stop offset="1" stop-color="#6fbb84"/></linearGradient><linearGradient id="_Linear5" x1="0" y1="0" x2="1" y2="0" gradientUnits="userSpaceOnUse" gradientTransform="rotate(-54.233 286.775 31.35) scale(314.12)"><stop offset="0" stop-color="#a74190"/><stop offset="0" stop-color="#a74190"/><stop offset=".32" stop-color="#26317a"/><stop offset="1" stop-color="#6fbb84"/></linearGradient><linearGradient id="_Linear6" x1="0" y1="0" x2="1" y2="0" gradientUnits="userSpaceOnUse" gradientTransform="rotate(-54.233 424.694 -39.279) scale(314.12)"><stop offset="0" stop-color="#a74190"/><stop offset="0" stop-color="#a74190"/><stop offset=".32" stop-color="#26317a"/><stop offset="1" stop-color="#6fbb84"/></linearGradient></defs></svg>