<svg viewBox="0 0 157 167" xmlns="http://www.w3.org/2000/svg" fill-rule="evenodd" clip-rule="evenodd" stroke-linejoin="round" stroke-miterlimit="2"><path d="M.233.531A.134.134 0 01.166.497L.154.487.137.472A.349.349 0 01.001.213a.408.408 0 01.021-.16A.633.633 0 01.08-.08a1.09 1.09 0 01.135-.185 1.225 1.225 0 01.169-.158.567.567 0 01.151-.083.397.397 0 01.143-.026.341.341 0 01.236.09l.034.032a.277.277 0 01.025.024.115.115 0 01.02.114.165.165 0 01-.04.061.373.373 0 01-.035.034L.86-.128a.258.258 0 01-.067.04.15.15 0 01-.071.011.14.14 0 01-.073-.028.38.38 0 01-.033-.028L.591-.155.583-.164.574-.172C.571-.175.57-.175.567-.175.563-.176.555-.174.541-.167A.338.338 0 00.48-.12a.807.807 0 00-.119.147.14.14 0 00-.018.045.028.028 0 000 .013c0 .001.001.004.007.009l.011.008a.3.3 0 01.03.023l.012.011.024.023c.028.03.041.069.037.112a.22.22 0 01-.018.065.393.393 0 01-.031.055L.404.409a.69.69 0 01-.038.056.2.2 0 01-.058.052.118.118 0 01-.057.015L.233.531zm.34-.933a.511.511 0 00-.124.068.944.944 0 00-.151.142 1.162 1.162 0 00-.122.167.661.661 0 00-.049.111.361.361 0 00-.013.062.293.293 0 00-.003.058.258.258 0 00.055.141c.01.013.023.026.039.037l.026.023.007.006a.05.05 0 00.013.009L.254.42A.094.094 0 00.279.396C.29.383.3.366.31.35L.322.331A.236.236 0 00.354.26C.355.246.351.24.346.235L.329.219A.192.192 0 01.314.205L.296.192.282.181A.121.121 0 01.236.113.125.125 0 01.234.052a.235.235 0 01.03-.079 1.032 1.032 0 01.14-.174.447.447 0 01.085-.064.166.166 0 01.078-.021.13.13 0 01.079.029l.016.016.007.006.022.021a.552.552 0 00.025.021.04.04 0 00.015.006.06.06 0 00.021-.004.16.16 0 00.039-.023L.845-.26l.028-.027a.048.048 0 00.015-.028.22.22 0 00-.015-.014L.838-.361a.231.231 0 00-.11-.055C.712-.42.695-.421.678-.422a.325.325 0 00-.105.02z" fill="url(#_Linear1)" fill-rule="nonzero" transform="matrix(156.52638 0 0 -156.52638 .004 83.327)"/><defs><linearGradient id="_Linear1" x1="0" y1="0" x2="1" y2="0" gradientUnits="userSpaceOnUse" gradientTransform="scale(1 -1)"><stop offset="0" stop-color="#a6418f"/><stop offset="0" stop-color="#a6418f"/><stop offset=".32" stop-color="#26317a"/><stop offset="1" stop-color="#6fba83"/></linearGradient></defs></svg>