<?xml version="1.0" encoding="UTF-8" standalone="no"?>
<!DOCTYPE svg PUBLIC "-//W3C//DTD SVG 1.1//EN" "http://www.w3.org/Graphics/SVG/1.1/DTD/svg11.dtd">
<svg width="100%" height="100%" viewBox="0 0 60 60" version="1.1" xmlns="http://www.w3.org/2000/svg" xmlns:xlink="http://www.w3.org/1999/xlink" xml:space="preserve" xmlns:serif="http://www.serif.com/" style="fill-rule:evenodd;clip-rule:evenodd;stroke-linejoin:round;stroke-miterlimit:2;">
    <g transform="matrix(1,0,0,1,-771.756,-919.785)">
        <g transform="matrix(2,0,0,2,0,0)">
            <g transform="matrix(1,0,0,1,409.193,474.863)">
                <path d="M0,0.002L0.003,0.002C0.003,-1.159 0.012,-2.32 -0.005,-3.48C-0.008,-3.7 -0.088,-3.927 -0.168,-4.136C-0.287,-4.443 -0.736,-4.559 -1.009,-4.345C-1.437,-4.01 -1.85,-3.653 -2.267,-3.304C-2.645,-2.986 -3.05,-2.694 -3.389,-2.339C-3.648,-2.068 -3.934,-1.778 -3.931,-1.344C-3.926,-0.428 -3.947,0.49 -3.914,1.406C-3.906,1.636 -3.77,1.888 -3.627,2.08C-3.428,2.349 -3.176,2.579 -2.933,2.812C-2.665,3.066 -2.386,3.309 -2.104,3.547C-1.801,3.802 -1.504,4.069 -1.173,4.283C-0.988,4.402 -0.732,4.488 -0.521,4.466C-0.357,4.448 -0.174,4.267 -0.071,4.111C0.01,3.988 -0.003,3.793 -0.002,3.63C0.003,2.421 0,1.211 0,0.002M-5.525,4.58C-5.479,4.587 -5.418,4.616 -5.389,4.597C-4.987,4.333 -4.675,4.024 -4.679,3.485C-4.689,1.817 -4.663,0.148 -4.693,-1.52C-4.703,-2.073 -4.744,-2.635 -5.082,-3.14C-5.485,-3.743 -5.971,-4.228 -6.668,-4.438C-7.031,-4.548 -7.427,-4.589 -7.809,-4.591C-10.314,-4.605 -12.821,-4.585 -15.327,-4.612C-16.052,-4.62 -16.652,-4.121 -16.639,-3.308C-16.61,-1.651 -16.578,0.005 -16.592,1.66C-16.598,2.368 -16.387,2.971 -15.987,3.529C-15.401,4.348 -14.567,4.654 -13.604,4.657C-11.008,4.666 -8.413,4.663 -5.817,4.659C-5.72,4.659 -5.622,4.608 -5.525,4.581L-5.525,4.58ZM6.677,-4.009L6.677,4.133C6.64,4.665 6.602,5.198 6.563,5.731C6.495,6.693 6.377,7.648 6.052,8.565C4.965,11.625 1.918,14.761 -2.589,14.918C-3.133,14.937 -3.674,14.991 -4.217,15.028L-12.416,15.028C-12.56,15.012 -12.703,14.985 -12.848,14.981C-14.066,14.935 -15.285,14.869 -16.464,14.523C-19.533,13.624 -23.027,10.545 -23.192,5.794C-23.243,4.351 -23.302,2.907 -23.303,1.464C-23.304,-1.12 -23.378,-3.706 -23.142,-6.287C-22.98,-8.043 -22.379,-9.617 -21.312,-11.014C-20.088,-12.613 -18.542,-13.775 -16.619,-14.402C-15.554,-14.751 -14.44,-14.852 -13.329,-14.884C-9.738,-14.989 -6.147,-15.026 -2.558,-14.84C-0.599,-14.738 1.19,-14.159 2.755,-12.946C4.337,-11.72 5.501,-10.187 6.12,-8.276C6.52,-7.042 6.585,-5.753 6.626,-4.466C6.631,-4.312 6.659,-4.161 6.677,-4.009" style="fill:rgb(0,142,255);fill-rule:nonzero;"/>
            </g>
        </g>
    </g>
</svg>
