<?xml version="1.0" encoding="UTF-8" standalone="no"?>
<!DOCTYPE svg PUBLIC "-//W3C//DTD SVG 1.1//EN" "http://www.w3.org/Graphics/SVG/1.1/DTD/svg11.dtd">
<svg width="100%" height="100%" viewBox="0 0 60 60" version="1.1" xmlns="http://www.w3.org/2000/svg" xmlns:xlink="http://www.w3.org/1999/xlink" xml:space="preserve" xmlns:serif="http://www.serif.com/" style="fill-rule:evenodd;clip-rule:evenodd;stroke-linejoin:round;stroke-miterlimit:2;">
    <g transform="matrix(1,0,0,1,-521.822,-919.786)">
        <g transform="matrix(2,0,0,2,0,0)">
            <g transform="matrix(1,0,0,1,267.103,478.272)">
                <path d="M0,-6.762C-0.004,-6.349 0.121,-5.438 0.375,-4.686C0.873,-3.21 1.546,-1.82 2.548,-0.617C3.431,0.442 4.337,1.483 5.265,2.504C6.502,3.865 7.992,4.874 9.713,5.528C10.599,5.865 11.509,6.12 12.47,6.072C14.486,5.97 16.072,5.035 17.346,3.512C17.583,3.228 17.651,2.897 17.596,2.536C17.533,2.125 17.298,1.81 17.019,1.523C16.334,0.819 15.56,0.223 14.762,-0.345C13.97,-0.909 13.132,-0.925 12.314,-0.402C11.899,-0.136 11.58,0.226 11.251,0.584C10.708,1.174 10.049,1.304 9.321,0.974C9.091,0.87 8.864,0.736 8.667,0.576C7.442,-0.416 6.343,-1.531 5.487,-2.861C5.171,-3.353 4.89,-3.878 4.673,-4.421C4.398,-5.11 4.617,-5.733 5.185,-6.183C5.607,-6.519 6.021,-6.866 6.444,-7.202C6.756,-7.449 6.921,-7.775 6.98,-8.158C7.072,-8.753 6.889,-9.3 6.654,-9.829C6.246,-10.751 5.646,-11.55 4.992,-12.309C4.443,-12.947 3.825,-13.053 3.081,-12.653C2.54,-12.362 2.114,-11.942 1.706,-11.492C0.579,-10.251 0.005,-8.8 0,-6.762M-6.192,-3.389C-6.174,-11.843 0.752,-18.514 9.039,-18.377C17.016,-18.246 23.493,-11.883 23.774,-3.952C24.083,4.772 17.143,11.491 9.068,11.618C0.597,11.752 -6.192,4.935 -6.192,-3.389" style="fill:rgb(34,57,131);fill-rule:nonzero;"/>
            </g>
        </g>
    </g>
</svg>
