<?xml version="1.0" encoding="UTF-8" standalone="no"?>
<!DOCTYPE svg PUBLIC "-//W3C//DTD SVG 1.1//EN" "http://www.w3.org/Graphics/SVG/1.1/DTD/svg11.dtd">
<svg width="100%" height="100%" viewBox="0 0 61 61" version="1.1" xmlns="http://www.w3.org/2000/svg" xmlns:xlink="http://www.w3.org/1999/xlink" xml:space="preserve" xmlns:serif="http://www.serif.com/" style="fill-rule:evenodd;clip-rule:evenodd;stroke-linejoin:round;stroke-miterlimit:2;">
    <g transform="matrix(1,0,0,1,-605.344,-920.51)">
        <g transform="matrix(2,0,0,2,0,0)">
            <g transform="matrix(1,0,0,1,321.137,467.193)">
                <path d="M0,16.146C0.726,16.198 1.204,15.781 1.369,15.031C2.24,11.081 3.103,7.129 3.975,3.18C4.071,2.742 4.016,2.365 3.664,2.059C3.313,1.754 2.928,1.75 2.511,1.909C-2.553,3.83 -7.617,5.748 -12.683,7.664C-13.045,7.8 -13.344,8.001 -13.339,8.422C-13.335,8.841 -13.04,9.043 -12.67,9.169C-11.778,9.473 -10.883,9.769 -10.002,10.106C-9.266,10.387 -8.617,10.294 -7.957,9.867C-6.06,8.636 -4.142,7.436 -2.23,6.224C-1.768,5.93 -1.311,5.625 -0.835,5.353C-0.731,5.293 -0.561,5.352 -0.421,5.357C-0.443,5.494 -0.44,5.642 -0.497,5.762C-0.545,5.864 -0.661,5.934 -0.748,6.017C-2.414,7.622 -4.084,9.224 -5.747,10.834C-6.27,11.339 -6.264,11.753 -5.71,12.156C-3.993,13.409 -2.268,14.649 -0.538,15.884C-0.349,16.019 -0.114,16.091 0,16.146M11.566,8.059C11.445,16.391 4.993,23.019 -3.391,23.062C-11.664,23.104 -18.329,16.627 -18.463,8.187C-18.594,-0.102 -11.771,-6.917 -3.47,-6.938C4.763,-6.958 11.529,-0.209 11.566,8.059" style="fill:rgb(0,136,204);fill-rule:nonzero;"/>
            </g>
        </g>
    </g>
</svg>
