<?xml version="1.0" encoding="UTF-8" standalone="no"?>
<!DOCTYPE svg PUBLIC "-//W3C//DTD SVG 1.1//EN" "http://www.w3.org/Graphics/SVG/1.1/DTD/svg11.dtd">
<svg width="100%" height="100%" viewBox="0 0 60 61" version="1.1" xmlns="http://www.w3.org/2000/svg" xmlns:xlink="http://www.w3.org/1999/xlink" xml:space="preserve" xmlns:serif="http://www.serif.com/" style="fill-rule:evenodd;clip-rule:evenodd;stroke-linejoin:round;stroke-miterlimit:2;">
    <g transform="matrix(1,0,0,1,-934.168,-919.784)">
        <g transform="matrix(2,0,0,2,0,0)">
            <g transform="matrix(1,0,0,1,481.852,465.752)">
                <path d="M0,18.177C2.089,18.139 3.892,17.85 5.479,16.759C7.037,15.687 7.79,14.178 7.722,12.312C7.651,10.377 6.59,9.072 4.855,8.31C4.146,7.998 3.401,7.752 2.655,7.536C1.126,7.094 -0.426,6.73 -1.944,6.259C-2.685,6.03 -3.309,5.519 -3.277,4.656C-3.245,3.767 -2.604,3.227 -1.814,3.019C0.539,2.4 2.365,2.642 3.384,4.772C3.489,4.993 3.643,5.195 3.784,5.398C4.328,6.173 5.104,6.243 5.868,5.912C6.656,5.571 7.092,4.853 6.852,4.002C6.667,3.343 6.338,2.655 5.881,2.155C3.43,-0.523 -2.959,-0.646 -5.598,1.883C-7.429,3.637 -7.438,6.614 -5.443,8.168C-4.47,8.926 -3.225,9.391 -2.038,9.806C-0.606,10.306 0.934,10.503 2.354,11.031C4.094,11.678 4.339,13.551 2.931,14.646C0.841,16.269 -2.474,15.493 -3.594,13.125C-3.774,12.743 -3.958,12.348 -4.217,12.019C-4.773,11.314 -5.521,11.181 -6.315,11.548C-7.079,11.901 -7.489,12.565 -7.235,13.37C-6.974,14.197 -6.634,15.059 -6.104,15.726C-4.496,17.742 -2.181,18.102 0,18.177M14.117,9.357C13.77,10.492 14.296,11.733 14.735,13.06C15.853,16.434 15.073,19.492 12.454,21.889C9.835,24.286 6.743,24.739 3.453,23.391C2.645,23.06 1.906,22.903 1.014,22.987C-6.155,23.664 -13.101,17.709 -13.595,10.498C-13.655,9.618 -13.56,8.728 -13.611,7.846C-13.644,7.302 -13.72,6.72 -13.946,6.235C-15.473,2.968 -14.84,-0.885 -12.313,-3.41C-9.788,-5.933 -5.936,-6.562 -2.666,-5.041C-2.152,-4.802 -1.515,-4.672 -0.952,-4.718C7.184,-5.378 14.045,0.887 14.117,9.357" style="fill:rgb(0,175,240);fill-rule:nonzero;"/>
            </g>
        </g>
    </g>
</svg>
