<?xml version="1.0" encoding="UTF-8" standalone="no"?>
<!DOCTYPE svg PUBLIC "-//W3C//DTD SVG 1.1//EN" "http://www.w3.org/Graphics/SVG/1.1/DTD/svg11.dtd">
<svg width="100%" height="100%" viewBox="0 0 60 60" version="1.1" xmlns="http://www.w3.org/2000/svg" xmlns:xlink="http://www.w3.org/1999/xlink" xml:space="preserve" xmlns:serif="http://www.serif.com/" style="fill-rule:evenodd;clip-rule:evenodd;stroke-linejoin:round;stroke-miterlimit:2;">
    <g transform="matrix(1,0,0,1,-689.192,-920.511)">
        <g transform="matrix(2,0,0,2,0,0)">
            <g transform="matrix(1,0,0,1,348.386,463.155)">
                <path d="M0,23.386C1.483,22.909 2.791,22.508 4.084,22.063C4.472,21.929 4.766,21.957 5.117,22.168C7.502,23.594 10.075,24.115 12.843,23.804C18.845,23.13 24.42,17.55 23.397,9.959C22.535,3.556 16.452,-1.092 10.055,-0.365C1.085,0.653 -3.71,10.592 1.096,18.241C1.415,18.749 1.45,19.149 1.246,19.692C0.809,20.857 0.445,22.049 0,23.386M-3.79,27.1C-3.504,26.222 -3.251,25.429 -2.987,24.639C-2.474,23.097 -1.973,21.55 -1.427,20.019C-1.247,19.514 -1.304,19.114 -1.543,18.637C-4.179,13.38 -3.97,8.182 -0.612,3.389C2.896,-1.621 7.937,-3.714 13.959,-2.614C19.946,-1.521 23.896,2.169 25.493,8.062C27.82,16.646 21.827,25.278 13.009,26.269C10.146,26.59 7.425,26.105 4.847,24.835C4.424,24.626 4.063,24.615 3.624,24.759C1.336,25.51 -0.962,26.234 -3.257,26.964C-3.397,27.009 -3.544,27.038 -3.79,27.1" style="fill:rgb(67,216,84);fill-rule:nonzero;"/>
            </g>
        </g>
        <g transform="matrix(2,0,0,2,0,0)">
            <g transform="matrix(1,0,0,1,363.551,467.624)">
                <path d="M0,14.583C-0.34,14.515 -0.829,14.457 -1.292,14.314C-4.666,13.278 -7.299,11.256 -9.235,8.311C-10.056,7.063 -10.885,5.822 -11.073,4.29C-11.247,2.873 -10.795,1.67 -9.818,0.644C-9.206,0 -8.447,0.043 -7.687,0.212C-7.509,0.252 -7.322,0.504 -7.241,0.7C-6.852,1.641 -6.463,2.584 -6.15,3.552C-6.057,3.843 -6.168,4.227 -6.264,4.544C-6.328,4.755 -6.524,4.931 -6.675,5.11C-7.427,6.004 -7.604,5.774 -6.805,7.043C-6.104,8.155 -5.236,9.075 -4.212,9.824C-3.699,10.199 -3.146,10.531 -2.557,10.823C-2.06,11.068 -1.676,11.048 -1.318,10.6C-1.014,10.218 -0.665,9.869 -0.354,9.491C-0.106,9.189 0.171,9.101 0.522,9.284C1.511,9.803 2.509,10.305 3.477,10.858C3.64,10.952 3.762,11.279 3.751,11.49C3.672,13.109 2.599,14.25 0.969,14.49C0.698,14.529 0.423,14.543 0,14.583" style="fill:rgb(67,216,84);fill-rule:nonzero;"/>
            </g>
        </g>
    </g>
</svg>
