<?xml version="1.0" encoding="UTF-8" standalone="no"?>
<!DOCTYPE svg PUBLIC "-//W3C//DTD SVG 1.1//EN" "http://www.w3.org/Graphics/SVG/1.1/DTD/svg11.dtd">
<svg width="100%" height="100%" viewBox="0 0 55 60" version="1.1" xmlns="http://www.w3.org/2000/svg" xmlns:xlink="http://www.w3.org/1999/xlink" xml:space="preserve" xmlns:serif="http://www.serif.com/" style="fill-rule:evenodd;clip-rule:evenodd;stroke-linejoin:round;stroke-miterlimit:2;">
    <g transform="matrix(1,0,0,1,-855.583,-920.511)">
        <g transform="matrix(2,0,0,2,0,0)">
            <g transform="matrix(1,0,0,1,435.643,462.079)">
                <path d="M0,26.288C1.146,25.128 2.158,24.156 3.104,23.123C3.621,22.559 4.191,22.335 4.945,22.312C6.854,22.256 8.765,22.18 10.666,22.017C14.854,21.656 16.983,19.805 17.841,15.708C18.527,12.428 18.434,9.142 17.732,5.852C17.156,3.151 15.581,1.372 13.014,0.569C8.481,-0.849 3.889,-1.024 -0.676,0.431C-3.059,1.189 -4.971,2.583 -5.708,5.12C-6.017,6.18 -6.175,7.291 -6.316,8.391C-6.706,11.416 -6.675,14.42 -5.643,17.34C-5.179,18.649 -4.441,19.786 -3.239,20.517C-2.608,20.9 -1.884,21.139 -1.188,21.408C-0.366,21.727 0.031,22.29 0.006,23.184C-0.021,24.143 0,25.104 0,26.288M-1.307,28.112C-1.307,26.479 -1.318,24.887 -1.298,23.295C-1.293,22.895 -1.405,22.662 -1.8,22.551C-5.583,21.485 -6.942,18.561 -7.555,15.055C-8.13,11.759 -7.812,8.493 -7.086,5.275C-6.407,2.261 -4.33,0.431 -1.524,-0.636C1.593,-1.82 4.84,-1.999 8.112,-1.691C9.667,-1.544 11.229,-1.279 12.736,-0.873C16.214,0.064 18.373,2.284 19.065,5.901C19.771,9.585 19.808,13.236 18.882,16.886C17.902,20.743 15.3,22.727 11.48,23.188C9.325,23.447 7.144,23.479 4.977,23.65C4.658,23.676 4.285,23.83 4.056,24.05C2.868,25.185 1.687,26.33 0.571,27.537C0.047,28.105 -0.504,28.287 -1.307,28.112" style="fill:rgb(89,38,124);fill-rule:nonzero;"/>
            </g>
        </g>
        <g transform="matrix(2,0,0,2,0,0)">
            <g transform="matrix(1,0,0,1,445.512,466.139)">
                <path d="M0,15.653C-0.148,15.604 -0.477,15.524 -0.783,15.391C-6.264,13.031 -10.193,9.179 -12.299,3.523C-12.862,2.009 -11.824,0.198 -9.825,0.01C-9.507,-0.02 -9.05,0.232 -8.835,0.497C-8.094,1.412 -7.413,2.377 -6.747,3.348C-6.354,3.923 -6.507,4.476 -7.047,4.874C-8.429,5.89 -8.291,6.498 -7.503,7.903C-6.668,9.389 -5.396,10.393 -3.849,11.083C-3.162,11.388 -2.647,11.231 -2.193,10.665C-1.381,9.652 -0.639,9.521 0.429,10.238C1.15,10.722 1.849,11.245 2.53,11.785C3.271,12.374 3.356,12.898 2.917,13.752C2.375,14.805 1.133,15.673 0,15.653" style="fill:rgb(89,38,124);fill-rule:nonzero;"/>
            </g>
        </g>
        <g transform="matrix(2,0,0,2,0,0)">
            <g transform="matrix(1,0,0,1,449.347,466.208)">
                <path d="M0,5.716C-0.045,6.122 -0.081,6.529 -0.138,6.934C-0.198,7.365 -0.34,7.8 -0.874,7.726C-1.427,7.649 -1.477,7.232 -1.399,6.734C-1.165,5.23 -1.362,3.785 -2.248,2.515C-3.681,0.458 -5.658,-0.382 -8.141,0.017C-8.6,0.091 -8.996,0.058 -9.092,-0.47C-9.188,-0.995 -8.834,-1.175 -8.375,-1.262C-4.017,-2.084 -0.004,1.266 0,5.716" style="fill:rgb(89,38,124);fill-rule:nonzero;"/>
            </g>
        </g>
        <g transform="matrix(2,0,0,2,0,0)">
            <g transform="matrix(1,0,0,1,442.3,473.296)">
                <path d="M0,-6.471C2.889,-6.481 5.187,-4.104 5.096,-1.211C5.089,-0.996 5.104,-0.733 4.991,-0.579C4.816,-0.343 4.54,-0.183 4.307,0.01C4.127,-0.231 3.841,-0.451 3.789,-0.717C3.675,-1.302 3.77,-1.935 3.617,-2.504C3.144,-4.264 1.35,-5.431 -0.431,-5.191C-0.918,-5.125 -1.35,-5.159 -1.42,-5.729C-1.492,-6.312 -1.064,-6.454 -0.58,-6.47C-0.387,-6.477 -0.193,-6.471 0,-6.471" style="fill:rgb(89,38,124);fill-rule:nonzero;"/>
            </g>
        </g>
        <g transform="matrix(2,0,0,2,0,0)">
            <g transform="matrix(1,0,0,1,445.398,469.164)">
                <path d="M0,2.964C-0.094,3.052 -0.332,3.445 -0.551,3.435C-0.789,3.423 -1.146,3.07 -1.212,2.807C-1.54,1.489 -1.923,1.113 -3.185,0.848C-3.439,0.794 -3.625,0.407 -3.843,0.174C-3.593,-0.027 -3.351,-0.39 -3.092,-0.403C-1.516,-0.481 0.027,1.101 0,2.964" style="fill:rgb(89,38,124);fill-rule:nonzero;"/>
            </g>
        </g>
    </g>
</svg>
