<?xml version="1.0" encoding="UTF-8" standalone="no"?>
<!DOCTYPE svg PUBLIC "-//W3C//DTD SVG 1.1//EN" "http://www.w3.org/Graphics/SVG/1.1/DTD/svg11.dtd">
<svg width="100%" height="100%" viewBox="0 0 125 84" version="1.1" xmlns="http://www.w3.org/2000/svg" xmlns:xlink="http://www.w3.org/1999/xlink" xml:space="preserve" xmlns:serif="http://www.serif.com/" style="fill-rule:evenodd;clip-rule:evenodd;stroke-linejoin:round;stroke-miterlimit:2;">
    <g transform="matrix(1,0,0,1,-1122,-158.537)">
        <g transform="matrix(4.16667,0,0,4.16667,0,0)">
            <g transform="matrix(-30,0,0,30,299.28,39.5052)">
                <rect x="0" y="-0.049" width="1" height="0.097" style="fill:url(#_Linear1);"/>
            </g>
        </g>
        <g transform="matrix(4.16667,0,0,4.16667,0,0)">
            <g transform="matrix(-30,0,0,30,299.28,48.0489)">
                <rect x="0" y="-0.049" width="1" height="0.097" style="fill:url(#_Linear2);"/>
            </g>
        </g>
        <g transform="matrix(4.16667,0,0,4.16667,0,0)">
            <g transform="matrix(-30,0,0,30,299.28,56.5925)">
                <rect x="0" y="-0.049" width="1" height="0.097" style="fill:url(#_Linear3);"/>
            </g>
        </g>
    </g>
    <defs>
        <linearGradient id="_Linear1" x1="0" y1="0" x2="1" y2="0" gradientUnits="userSpaceOnUse" gradientTransform="matrix(-1,0,-0,1,0.999992,0)"><stop offset="0" style="stop-color:rgb(160,74,155);stop-opacity:1"/><stop offset="0" style="stop-color:rgb(160,74,155);stop-opacity:1"/><stop offset="0.32" style="stop-color:rgb(34,57,130);stop-opacity:1"/><stop offset="1" style="stop-color:rgb(103,192,139);stop-opacity:1"/></linearGradient>
        <linearGradient id="_Linear2" x1="0" y1="0" x2="1" y2="0" gradientUnits="userSpaceOnUse" gradientTransform="matrix(-1,0,-0,1,0.999992,0)"><stop offset="0" style="stop-color:rgb(160,74,155);stop-opacity:1"/><stop offset="0" style="stop-color:rgb(160,74,155);stop-opacity:1"/><stop offset="0.32" style="stop-color:rgb(34,57,130);stop-opacity:1"/><stop offset="1" style="stop-color:rgb(103,192,139);stop-opacity:1"/></linearGradient>
        <linearGradient id="_Linear3" x1="0" y1="0" x2="1" y2="0" gradientUnits="userSpaceOnUse" gradientTransform="matrix(-1,0,-0,1,0.999992,0)"><stop offset="0" style="stop-color:rgb(160,74,155);stop-opacity:1"/><stop offset="0" style="stop-color:rgb(160,74,155);stop-opacity:1"/><stop offset="0.32" style="stop-color:rgb(34,57,130);stop-opacity:1"/><stop offset="1" style="stop-color:rgb(103,192,139);stop-opacity:1"/></linearGradient>
    </defs>
</svg>
