<?xml version="1.0" encoding="UTF-8" standalone="no"?>
<!DOCTYPE svg PUBLIC "-//W3C//DTD SVG 1.1//EN" "http://www.w3.org/Graphics/SVG/1.1/DTD/svg11.dtd">
<svg width="100%" height="100%" viewBox="0 0 167 116" version="1.1" xmlns="http://www.w3.org/2000/svg" xmlns:xlink="http://www.w3.org/1999/xlink" xml:space="preserve" xmlns:serif="http://www.serif.com/" style="fill-rule:evenodd;clip-rule:evenodd;stroke-linejoin:round;stroke-miterlimit:2;">
    <g transform="matrix(1,0,0,1,-583.329,-1084.79)">
        <g transform="matrix(4.16667,0,0,4.16667,0,0)">
            <g transform="matrix(35.6121,-21.6008,-21.6008,-35.6121,140.916,285.754)">
                <path d="M1.064,0.055L0.341,0.494L0.335,0.51L0.322,0.505L0.301,0.518L0.286,0.493L0.271,0.488L0.275,0.475L-0.007,0.011L-0.021,0.008L-0.018,-0.007L-0.032,-0.031L-0.01,-0.044L-0.007,-0.059L0.008,-0.056L0.73,-0.494L0.735,-0.509L0.749,-0.505L0.771,-0.518L0.785,-0.494L0.8,-0.49L0.796,-0.476L1.078,-0.012L1.091,-0.01L1.089,0.006L1.104,0.031L1.083,0.044L1.081,0.058L1.064,0.055ZM0.375,0.394L0.959,0.039L0.518,-0.03L0.375,0.394ZM0.679,-0.074L0.99,-0.025L0.77,-0.387L0.679,-0.074ZM0.304,0.391L0.404,0.093L0.084,0.029L0.304,0.391ZM0.475,-0.105L0.611,-0.084L0.702,-0.397L0.107,-0.036L0.426,0.028L0.471,-0.103L0.471,-0.106L0.472,-0.106L0.472,-0.106L0.475,-0.105Z" style="fill:url(#_Linear1);fill-rule:nonzero;"/>
            </g>
        </g>
    </g>
    <defs>
        <linearGradient id="_Linear1" x1="0" y1="0" x2="1" y2="0" gradientUnits="userSpaceOnUse" gradientTransform="matrix(1,0,0,-1,0,-1.32249e-05)"><stop offset="0" style="stop-color:rgb(166,65,143);stop-opacity:1"/><stop offset="0" style="stop-color:rgb(166,65,143);stop-opacity:1"/><stop offset="0.32" style="stop-color:rgb(38,49,122);stop-opacity:1"/><stop offset="1" style="stop-color:rgb(111,186,131);stop-opacity:1"/></linearGradient>
    </defs>
</svg>
