<?xml version="1.0" encoding="UTF-8" standalone="no"?>
<!DOCTYPE svg PUBLIC "-//W3C//DTD SVG 1.1//EN" "http://www.w3.org/Graphics/SVG/1.1/DTD/svg11.dtd">
<svg width="100%" height="100%" viewBox="0 0 397 419" version="1.1" xmlns="http://www.w3.org/2000/svg" xmlns:xlink="http://www.w3.org/1999/xlink" xml:space="preserve" xmlns:serif="http://www.serif.com/" style="fill-rule:evenodd;clip-rule:evenodd;stroke-linejoin:round;stroke-miterlimit:2;">
    <g transform="matrix(1,0,0,1,-1867.59,-11801.2)">
        <g transform="matrix(8.33333,0,0,8.33333,0,0)">
            <g transform="matrix(29.52,-31.68,-31.68,-29.52,227.489,1448.91)">
                <path d="M0.615,0.324C0.597,0.334 0.579,0.343 0.56,0.351C0.543,0.359 0.527,0.352 0.518,0.336C0.512,0.324 0.507,0.312 0.501,0.301C0.491,0.283 0.476,0.274 0.456,0.275C0.447,0.275 0.439,0.276 0.431,0.276C0.396,0.278 0.387,0.285 0.375,0.319C0.356,0.373 0.352,0.375 0.297,0.356C0.29,0.353 0.282,0.35 0.274,0.348C0.249,0.338 0.243,0.325 0.251,0.299C0.255,0.289 0.258,0.279 0.262,0.268C0.268,0.249 0.264,0.231 0.249,0.218C0.208,0.183 0.205,0.167 0.143,0.2C0.141,0.201 0.139,0.202 0.136,0.203C0.117,0.212 0.101,0.206 0.091,0.188C0.082,0.171 0.074,0.155 0.067,0.138C0.058,0.118 0.063,0.103 0.082,0.093C0.093,0.087 0.103,0.083 0.114,0.077C0.151,0.058 0.155,-0.019 0.119,-0.041C0.114,-0.044 0.108,-0.046 0.103,-0.048C0.092,-0.052 0.081,-0.055 0.07,-0.06C0.053,-0.067 0.046,-0.082 0.051,-0.099C0.057,-0.119 0.064,-0.138 0.071,-0.157C0.078,-0.174 0.094,-0.18 0.111,-0.175C0.124,-0.171 0.136,-0.166 0.149,-0.162C0.167,-0.157 0.185,-0.159 0.197,-0.174C0.234,-0.217 0.251,-0.219 0.217,-0.282C0.216,-0.284 0.215,-0.286 0.214,-0.289C0.205,-0.309 0.21,-0.323 0.229,-0.334C0.246,-0.342 0.263,-0.35 0.28,-0.358C0.299,-0.367 0.313,-0.362 0.324,-0.344C0.33,-0.332 0.335,-0.32 0.341,-0.309C0.36,-0.273 0.438,-0.271 0.459,-0.306C0.462,-0.31 0.463,-0.315 0.465,-0.32C0.468,-0.33 0.472,-0.341 0.476,-0.351C0.483,-0.371 0.498,-0.379 0.518,-0.372C0.536,-0.367 0.554,-0.361 0.571,-0.354C0.591,-0.347 0.598,-0.331 0.592,-0.311C0.589,-0.3 0.585,-0.289 0.581,-0.278C0.569,-0.241 0.621,-0.182 0.66,-0.19C0.666,-0.192 0.672,-0.195 0.677,-0.197C0.688,-0.202 0.698,-0.208 0.709,-0.212C0.726,-0.219 0.74,-0.214 0.749,-0.197C0.759,-0.18 0.768,-0.162 0.776,-0.144C0.783,-0.126 0.778,-0.111 0.761,-0.101C0.749,-0.095 0.737,-0.089 0.725,-0.083C0.71,-0.075 0.699,-0.063 0.699,-0.045C0.702,0.014 0.695,0.03 0.762,0.049C0.764,0.05 0.767,0.051 0.769,0.052C0.788,0.059 0.796,0.074 0.79,0.093C0.786,0.107 0.781,0.12 0.777,0.133C0.764,0.171 0.753,0.176 0.716,0.163C0.665,0.146 0.661,0.147 0.625,0.188C0.623,0.19 0.62,0.193 0.618,0.196C0.605,0.211 0.603,0.227 0.611,0.245C0.616,0.258 0.623,0.27 0.629,0.283C0.634,0.296 0.632,0.309 0.624,0.318C0.622,0.32 0.619,0.323 0.615,0.324ZM0.257,-0.059C0.227,0.031 0.276,0.13 0.365,0.16C0.457,0.19 0.554,0.142 0.584,0.052C0.615,-0.039 0.565,-0.138 0.473,-0.168C0.408,-0.189 0.338,-0.168 0.294,-0.12C0.278,-0.103 0.265,-0.083 0.257,-0.059Z" style="fill:url(#_Linear1);fill-rule:nonzero;"/>
            </g>
        </g>
        <g transform="matrix(8.33333,0,0,8.33333,0,0)">
            <g transform="matrix(29.52,-31.68,-31.68,-29.52,247.996,1468.02)">
                <path d="M0.518,0.184C0.503,0.169 0.487,0.166 0.468,0.176C0.439,0.191 0.436,0.194 0.438,0.223C0.438,0.227 0.438,0.231 0.439,0.234C0.439,0.251 0.432,0.26 0.415,0.261C0.409,0.261 0.402,0.262 0.396,0.262C0.362,0.264 0.358,0.261 0.357,0.227C0.356,0.213 0.355,0.2 0.34,0.192C0.306,0.174 0.294,0.176 0.267,0.204C0.261,0.21 0.248,0.218 0.245,0.216C0.228,0.205 0.21,0.193 0.199,0.177C0.189,0.164 0.204,0.151 0.214,0.142C0.231,0.126 0.228,0.11 0.219,0.091C0.21,0.073 0.2,0.062 0.178,0.063C0.137,0.066 0.136,0.064 0.134,0.023C0.134,0.021 0.133,0.018 0.133,0.015C0.132,-0.009 0.138,-0.016 0.162,-0.017C0.187,-0.017 0.204,-0.023 0.211,-0.05C0.219,-0.077 0.218,-0.083 0.196,-0.103C0.186,-0.112 0.175,-0.12 0.183,-0.142C0.193,-0.151 0.206,-0.168 0.223,-0.176C0.23,-0.179 0.245,-0.163 0.258,-0.158C0.268,-0.153 0.28,-0.147 0.289,-0.149C0.324,-0.156 0.333,-0.171 0.332,-0.206C0.332,-0.209 0.331,-0.212 0.331,-0.215C0.332,-0.23 0.339,-0.24 0.354,-0.238C0.374,-0.237 0.398,-0.254 0.412,-0.225C0.413,-0.222 0.412,-0.219 0.413,-0.216C0.413,-0.21 0.414,-0.204 0.414,-0.198C0.414,-0.183 0.422,-0.172 0.437,-0.166C0.47,-0.153 0.477,-0.154 0.502,-0.181C0.518,-0.199 0.526,-0.2 0.544,-0.184C0.548,-0.181 0.551,-0.177 0.555,-0.174C0.58,-0.151 0.581,-0.147 0.559,-0.122C0.539,-0.1 0.539,-0.096 0.552,-0.068C0.564,-0.044 0.571,-0.04 0.598,-0.042C0.629,-0.043 0.634,-0.04 0.636,-0.008C0.636,-0.005 0.636,-0.001 0.636,0.003C0.638,0.033 0.634,0.036 0.604,0.04C0.592,0.041 0.577,0.044 0.569,0.052C0.547,0.077 0.55,0.104 0.575,0.126C0.577,0.128 0.58,0.13 0.582,0.132C0.594,0.143 0.594,0.154 0.584,0.166L0.566,0.186C0.547,0.206 0.541,0.206 0.518,0.184ZM0.277,-0.026C0.257,0.034 0.289,0.099 0.348,0.119C0.408,0.139 0.472,0.107 0.493,0.048C0.513,-0.012 0.481,-0.077 0.422,-0.097C0.378,-0.112 0.331,-0.098 0.302,-0.066C0.291,-0.055 0.283,-0.041 0.277,-0.026Z" style="fill:url(#_Linear2);fill-rule:nonzero;"/>
            </g>
        </g>
        <g transform="matrix(8.33333,0,0,8.33333,0,0)">
            <g transform="matrix(29.52,-31.68,-31.68,-29.52,234.464,1455.41)">
                <path d="M1.083,0.159C1.079,0.161 1.065,0.152 1.06,0.145C1.049,0.128 1.036,0.129 1.02,0.134C1.004,0.138 0.998,0.147 0.996,0.162C0.994,0.187 0.99,0.188 0.957,0.184C0.937,0.181 0.932,0.176 0.937,0.154C0.941,0.135 0.932,0.126 0.917,0.117C0.903,0.108 0.891,0.111 0.879,0.121C0.859,0.136 0.857,0.135 0.839,0.11C0.824,0.091 0.824,0.086 0.842,0.073C0.856,0.063 0.86,0.052 0.857,0.036C0.853,0.018 0.843,0.009 0.825,0.008C0.821,0.007 0.818,0.007 0.812,0.006C0.795,-0.004 0.804,-0.02 0.805,-0.035C0.807,-0.052 0.818,-0.056 0.833,-0.052C0.848,-0.049 0.86,-0.051 0.869,-0.066C0.878,-0.082 0.881,-0.095 0.867,-0.111C0.853,-0.128 0.855,-0.133 0.877,-0.149C0.898,-0.165 0.902,-0.165 0.916,-0.146C0.927,-0.131 0.939,-0.128 0.956,-0.133C0.973,-0.137 0.98,-0.146 0.981,-0.164C0.983,-0.185 0.989,-0.188 1.015,-0.185C1.04,-0.181 1.045,-0.177 1.041,-0.156C1.038,-0.138 1.042,-0.127 1.058,-0.118C1.074,-0.108 1.086,-0.11 1.1,-0.121C1.116,-0.135 1.122,-0.133 1.136,-0.115C1.154,-0.091 1.155,-0.086 1.137,-0.074C1.123,-0.064 1.116,-0.054 1.121,-0.035C1.126,-0.017 1.135,-0.008 1.154,-0.006C1.161,-0.006 1.173,-0.001 1.173,0.003C1.174,0.017 1.173,0.032 1.168,0.045C1.166,0.05 1.151,0.053 1.142,0.052C1.125,0.05 1.116,0.055 1.107,0.069C1.098,0.084 1.098,0.096 1.109,0.11C1.113,0.116 1.12,0.128 1.118,0.131C1.116,0.133 1.114,0.134 1.113,0.136C1.104,0.145 1.094,0.154 1.083,0.159ZM0.909,-0.027C0.894,0.016 0.917,0.065 0.96,0.08C1.005,0.095 1.054,0.072 1.069,0.027C1.084,-0.017 1.06,-0.065 1.016,-0.08C0.984,-0.091 0.949,-0.081 0.927,-0.057C0.919,-0.049 0.913,-0.038 0.909,-0.027Z" style="fill:url(#_Linear3);fill-rule:nonzero;"/>
            </g>
        </g>
        <g transform="matrix(8.33333,0,0,8.33333,0,0)">
            <g transform="matrix(29.52,-31.68,-31.68,-29.52,227.757,1449.16)">
                <path d="M0.388,0.101C0.334,0.083 0.305,0.024 0.323,-0.029C0.341,-0.081 0.401,-0.11 0.453,-0.093C0.507,-0.075 0.536,-0.016 0.518,0.037C0.513,0.052 0.505,0.065 0.496,0.075C0.469,0.103 0.428,0.115 0.388,0.101Z" style="fill:url(#_Linear4);fill-rule:nonzero;"/>
            </g>
        </g>
        <g transform="matrix(8.33333,0,0,8.33333,0,0)">
            <g transform="matrix(29.52,-31.68,-31.68,-29.52,247.743,1467.78)">
                <path d="M0.364,0.067C0.328,0.055 0.308,0.016 0.321,-0.019C0.333,-0.054 0.371,-0.073 0.406,-0.061C0.442,-0.049 0.461,-0.011 0.449,0.025C0.446,0.034 0.441,0.042 0.435,0.049C0.417,0.068 0.39,0.076 0.364,0.067Z" style="fill:url(#_Linear5);fill-rule:nonzero;"/>
            </g>
        </g>
        <g transform="matrix(8.33333,0,0,8.33333,0,0)">
            <g transform="matrix(29.52,-31.68,-31.68,-29.52,234.531,1455.47)">
                <path d="M0.973,0.05C0.947,0.042 0.932,0.013 0.941,-0.013C0.95,-0.04 0.978,-0.054 1.004,-0.045C1.031,-0.037 1.045,-0.009 1.037,0.018C1.034,0.025 1.03,0.031 1.026,0.037C1.013,0.051 0.992,0.056 0.973,0.05Z" style="fill:url(#_Linear6);fill-rule:nonzero;"/>
            </g>
        </g>
    </g>
    <defs>
        <linearGradient id="_Linear1" x1="0" y1="0" x2="1" y2="0" gradientUnits="userSpaceOnUse" gradientTransform="matrix(1,5.55112e-17,5.55112e-17,-1,0,-0.00389616)"><stop offset="0" style="stop-color:rgb(160,74,155);stop-opacity:1"/><stop offset="0" style="stop-color:rgb(160,74,155);stop-opacity:1"/><stop offset="0.32" style="stop-color:rgb(34,57,130);stop-opacity:1"/><stop offset="1" style="stop-color:rgb(103,192,139);stop-opacity:1"/></linearGradient>
        <linearGradient id="_Linear2" x1="0" y1="0" x2="1" y2="0" gradientUnits="userSpaceOnUse" gradientTransform="matrix(1,5.55112e-17,5.55112e-17,-1,0,0.0103176)"><stop offset="0" style="stop-color:rgb(160,74,155);stop-opacity:1"/><stop offset="0" style="stop-color:rgb(160,74,155);stop-opacity:1"/><stop offset="0.32" style="stop-color:rgb(34,57,130);stop-opacity:1"/><stop offset="1" style="stop-color:rgb(103,192,139);stop-opacity:1"/></linearGradient>
        <linearGradient id="_Linear3" x1="0" y1="0" x2="1" y2="0" gradientUnits="userSpaceOnUse" gradientTransform="matrix(1,5.55112e-17,5.55112e-17,-1,0,-0.000156068)"><stop offset="0" style="stop-color:rgb(160,74,155);stop-opacity:1"/><stop offset="0" style="stop-color:rgb(160,74,155);stop-opacity:1"/><stop offset="0.32" style="stop-color:rgb(34,57,130);stop-opacity:1"/><stop offset="1" style="stop-color:rgb(103,192,139);stop-opacity:1"/></linearGradient>
        <linearGradient id="_Linear4" x1="0" y1="0" x2="1" y2="0" gradientUnits="userSpaceOnUse" gradientTransform="matrix(1,5.55112e-17,5.55112e-17,-1,0,0.00456168)"><stop offset="0" style="stop-color:rgb(160,74,155);stop-opacity:1"/><stop offset="0" style="stop-color:rgb(160,74,155);stop-opacity:1"/><stop offset="0.32" style="stop-color:rgb(34,57,130);stop-opacity:1"/><stop offset="1" style="stop-color:rgb(103,192,139);stop-opacity:1"/></linearGradient>
        <linearGradient id="_Linear5" x1="0" y1="0" x2="1" y2="0" gradientUnits="userSpaceOnUse" gradientTransform="matrix(1,5.55112e-17,5.55112e-17,-1,0,0.00296123)"><stop offset="0" style="stop-color:rgb(160,74,155);stop-opacity:1"/><stop offset="0" style="stop-color:rgb(160,74,155);stop-opacity:1"/><stop offset="0.32" style="stop-color:rgb(34,57,130);stop-opacity:1"/><stop offset="1" style="stop-color:rgb(103,192,139);stop-opacity:1"/></linearGradient>
        <linearGradient id="_Linear6" x1="0" y1="0" x2="1" y2="0" gradientUnits="userSpaceOnUse" gradientTransform="matrix(1,5.55112e-17,5.55112e-17,-1,0,0.00239)"><stop offset="0" style="stop-color:rgb(160,74,155);stop-opacity:1"/><stop offset="0" style="stop-color:rgb(160,74,155);stop-opacity:1"/><stop offset="0.32" style="stop-color:rgb(34,57,130);stop-opacity:1"/><stop offset="1" style="stop-color:rgb(103,192,139);stop-opacity:1"/></linearGradient>
    </defs>
</svg>
