<?xml version="1.0" encoding="UTF-8" standalone="no"?>
<!DOCTYPE svg PUBLIC "-//W3C//DTD SVG 1.1//EN" "http://www.w3.org/Graphics/SVG/1.1/DTD/svg11.dtd">
<svg width="100%" height="100%" viewBox="0 0 395 367" version="1.1" xmlns="http://www.w3.org/2000/svg" xmlns:xlink="http://www.w3.org/1999/xlink" xml:space="preserve" xmlns:serif="http://www.serif.com/" style="fill-rule:evenodd;clip-rule:evenodd;stroke-linejoin:round;stroke-miterlimit:2;">
    <g transform="matrix(1,0,0,1,-1706.51,-11252.8)">
        <g transform="matrix(8.33333,0,0,8.33333,0,0)">
            <g transform="matrix(30.9908,-29.5493,-29.5493,-30.9908,213.507,1390.27)">
                <path d="M0.221,0.524C0.145,0.402 0.07,0.28 -0.006,0.158C-0.011,0.15 -0.016,0.135 -0.012,0.13C-0.007,0.123 0.006,0.118 0.016,0.118C0.048,0.119 0.08,0.122 0.111,0.125C0.143,-0.115 0.419,-0.388 0.758,-0.353C0.673,-0.396 0.591,-0.407 0.508,-0.393C0.33,-0.363 0.2,-0.263 0.102,-0.118C0.15,-0.295 0.259,-0.416 0.437,-0.463C0.652,-0.519 0.833,-0.448 0.987,-0.269C0.67,-0.388 0.383,-0.074 0.379,0.135C0.411,0.136 0.444,0.136 0.476,0.138C0.505,0.14 0.513,0.153 0.498,0.176C0.421,0.294 0.344,0.411 0.267,0.527C0.263,0.533 0.26,0.537 0.257,0.54C0.245,0.551 0.235,0.546 0.221,0.524Z" style="fill:url(#_Linear1);fill-rule:nonzero;"/>
            </g>
        </g>
        <g transform="matrix(8.33333,0,0,8.33333,0,0)">
            <g transform="matrix(30.96,-29.52,-29.52,-30.96,208.851,1385.38)">
                <path d="M0.525,0.358C0.474,0.351 0.423,0.336 0.375,0.306C0.391,0.283 0.405,0.262 0.419,0.24C0.432,0.246 0.442,0.251 0.453,0.254C0.462,0.256 0.475,0.261 0.479,0.257C0.506,0.234 0.531,0.209 0.557,0.184C0.532,0.166 0.511,0.151 0.489,0.135C0.497,0.122 0.504,0.111 0.512,0.1C0.534,0.114 0.553,0.128 0.573,0.139C0.581,0.144 0.595,0.146 0.6,0.142C0.64,0.107 0.678,0.07 0.717,0.032L0.589,-0.102C0.58,-0.098 0.572,-0.09 0.564,-0.082C0.546,-0.063 0.528,-0.044 0.493,-0.079L0.557,-0.139L0.496,-0.203C0.505,-0.215 0.513,-0.225 0.523,-0.239L0.589,-0.17L0.734,-0.309L0.691,-0.353C0.72,-0.386 0.745,-0.364 0.769,-0.34C0.788,-0.358 0.801,-0.378 0.821,-0.388C0.84,-0.397 0.864,-0.396 0.886,-0.4C0.887,-0.397 0.888,-0.394 0.889,-0.391L0.803,-0.308C0.84,-0.256 0.875,-0.206 0.912,-0.154C0.928,-0.169 0.942,-0.183 0.957,-0.197C0.994,-0.233 0.996,-0.233 0.973,-0.284C0.956,-0.321 0.934,-0.357 0.912,-0.397C0.969,-0.385 1.026,-0.373 1.049,-0.314C1.121,-0.131 1.102,0.041 0.982,0.189C0.967,0.208 0.952,0.225 0.936,0.24C0.826,0.344 0.687,0.383 0.525,0.358ZM0.896,0.152C0.938,0.079 0.923,0.006 0.896,-0.073L0.784,0.034L0.896,0.152ZM0.86,0.181L0.751,0.067L0.642,0.17C0.698,0.212 0.812,0.219 0.86,0.181ZM0.954,-0.034C0.966,-0.012 0.964,0.017 0.97,0.049C1.003,-0.024 1.012,-0.095 1.002,-0.174C0.996,-0.169 0.995,-0.168 0.993,-0.167C0.984,-0.161 0.975,-0.154 0.967,-0.147C0.938,-0.118 0.927,-0.084 0.954,-0.034ZM0.53,0.275C0.61,0.29 0.68,0.281 0.75,0.257C0.704,0.242 0.66,0.227 0.616,0.213C0.609,0.211 0.597,0.212 0.592,0.216C0.583,0.224 0.574,0.232 0.565,0.241C0.554,0.251 0.543,0.263 0.53,0.275ZM0.75,0C0.79,-0.038 0.829,-0.075 0.867,-0.113C0.871,-0.116 0.87,-0.129 0.867,-0.135C0.837,-0.182 0.806,-0.228 0.773,-0.278L0.622,-0.135L0.75,0Z" style="fill:url(#_Linear2);fill-rule:nonzero;"/>
            </g>
        </g>
    </g>
    <defs>
        <linearGradient id="_Linear1" x1="0" y1="0" x2="1" y2="0" gradientUnits="userSpaceOnUse" gradientTransform="matrix(1,-1.11022e-16,-1.11022e-16,-1,0,0.0318723)"><stop offset="0" style="stop-color:rgb(160,74,155);stop-opacity:1"/><stop offset="0" style="stop-color:rgb(160,74,155);stop-opacity:1"/><stop offset="0.32" style="stop-color:rgb(34,57,130);stop-opacity:1"/><stop offset="1" style="stop-color:rgb(103,192,139);stop-opacity:1"/></linearGradient>
        <linearGradient id="_Linear2" x1="0" y1="0" x2="1" y2="0" gradientUnits="userSpaceOnUse" gradientTransform="matrix(1,0,0,-1,0,-0.0173578)"><stop offset="0" style="stop-color:rgb(160,74,155);stop-opacity:1"/><stop offset="0" style="stop-color:rgb(160,74,155);stop-opacity:1"/><stop offset="0.32" style="stop-color:rgb(34,57,130);stop-opacity:1"/><stop offset="1" style="stop-color:rgb(103,192,139);stop-opacity:1"/></linearGradient>
    </defs>
</svg>
