<?xml version="1.0" encoding="UTF-8" standalone="no"?>
<!DOCTYPE svg PUBLIC "-//W3C//DTD SVG 1.1//EN" "http://www.w3.org/Graphics/SVG/1.1/DTD/svg11.dtd">
<svg width="100%" height="100%" viewBox="0 0 181 167" version="1.1" xmlns="http://www.w3.org/2000/svg" xmlns:xlink="http://www.w3.org/1999/xlink" xml:space="preserve" xmlns:serif="http://www.serif.com/" style="fill-rule:evenodd;clip-rule:evenodd;stroke-linejoin:round;stroke-miterlimit:2;">
    <g transform="matrix(1,0,0,1,-706.513,-2889.74)">
        <g transform="matrix(4.16667,0,0,4.16667,0,0)">
            <g transform="matrix(43.301,0,0,-43.301,169.563,713.537)">
                <path d="M0,-0.011L0.089,-0.106L0.118,-0.078L0.118,-0.462L0.483,-0.462L0.483,-0.228L0.517,-0.228L0.517,-0.462L0.882,-0.462L0.882,-0.078L0.911,-0.106L1,-0.011L0.5,0.462L0,-0.011ZM0.5,0.283L0.753,0.043L0.751,0.043L0.751,-0.332L0.647,-0.331L0.647,-0.098L0.353,-0.098L0.353,-0.332L0.249,-0.332L0.249,0.043L0.247,0.043L0.5,0.283Z" style="fill:url(#_Linear1);fill-rule:nonzero;"/>
            </g>
        </g>
    </g>
    <defs>
        <linearGradient id="_Linear1" x1="0" y1="0" x2="1" y2="0" gradientUnits="userSpaceOnUse" gradientTransform="matrix(1,0,0,-1,0,9.94435e-06)"><stop offset="0" style="stop-color:rgb(160,74,155);stop-opacity:1"/><stop offset="0" style="stop-color:rgb(160,74,155);stop-opacity:1"/><stop offset="0.32" style="stop-color:rgb(34,57,130);stop-opacity:1"/><stop offset="1" style="stop-color:rgb(103,192,139);stop-opacity:1"/></linearGradient>
    </defs>
</svg>
