<svg xmlns="http://www.w3.org/2000/svg" viewBox="0 0 213.11 88.1"><title>Ресурс 1</title><g id="Слой_2" data-name="Слой 2"><g id="Layer_1" data-name="Layer 1"><path d="M93.78,32.85V14.18L86.07,32.85h-.7L77.64,14.18V32.85H75.83V11.71h2.69l7.2,17.43,7.17-17.43h2.72V32.85Z" style="fill:#66bb86"/><path d="M110.55,32.85V31a6.69,6.69,0,0,1-5.2,2.19,5.12,5.12,0,0,1-5.36-5.1,5.06,5.06,0,0,1,5.36-5.07,6.62,6.62,0,0,1,5.2,2.18v-3.1c0-2.29-1.84-3.52-4.12-3.52a5.93,5.93,0,0,0-4.79,2.25l-.92-1.14a7.41,7.41,0,0,1,5.9-2.57c3.1,0,5.58,1.49,5.58,4.91V32.85Zm0-3V26.48a5.74,5.74,0,0,0-4.63-2.12c-2.54,0-4.19,1.61-4.19,3.8s1.65,3.77,4.19,3.77A5.71,5.71,0,0,0,110.55,29.84Z" style="fill:#66bb86"/><path d="M117.33,32.85V17.54H119v2.63a6.58,6.58,0,0,1,5.17-3V19a3.73,3.73,0,0,0-.83-.06A5.84,5.84,0,0,0,119,21.69V32.85Z" style="fill:#66bb86"/><path d="M138,32.85l-6.12-7.29L129,28.25v4.6h-1.65V11.71H129V26.29l9-8.75h2.18l-7.13,6.91,7.1,8.4Z" style="fill:#66bb86"/><path d="M142.47,25.18c0-4.44,3.14-8,7.39-8,4.66,0,7.23,3.71,7.23,8.11v.45H144.28c.16,3.33,2.38,6.09,6,6.09a6.71,6.71,0,0,0,5-2.13l.86,1.08a7.92,7.92,0,0,1-6,2.47C145.68,33.23,142.47,29.9,142.47,25.18Zm7.36-6.59c-3.61,0-5.42,3.17-5.55,5.83h11.13C155.38,21.82,153.67,18.59,149.83,18.59Z" style="fill:#66bb86"/><path d="M161.66,29.9V19h-2.54V17.54h2.54V13.35h1.68v4.19h3.1V19h-3.1V29.65c0,1.24.5,2.09,1.58,2.09a2.39,2.39,0,0,0,1.71-.73l.64,1.27a3.44,3.44,0,0,1-2.6.95C162.64,33.23,161.66,32,161.66,29.9Z" style="fill:#66bb86"/><path d="M192.08,32.85V14.18l-7.71,18.67h-.69l-7.74-18.67V32.85h-1.81V11.71h2.7L184,29.14l7.16-17.43h2.73V32.85Z" style="fill:#66bb86"/><path d="M198.23,25.18c0-4.44,3.14-8,7.39-8,4.66,0,7.22,3.71,7.22,8.11v.45H200c.16,3.33,2.37,6.09,6,6.09a6.72,6.72,0,0,0,5-2.13l.85,1.08a7.9,7.9,0,0,1-6,2.47C201.43,33.23,198.23,29.9,198.23,25.18Zm7.35-6.59c-3.61,0-5.42,3.17-5.54,5.83h11.12C211.13,21.82,209.42,18.59,205.58,18.59Z" style="fill:#66bb86"/><polygon points="37.3 32.86 37.3 0 25.52 0 18.62 18.64 11.78 0 0 0 0 32.86 8.47 32.86 8.47 11.48 15.95 32.86 21.3 32.86 28.82 11.48 28.82 32.86 37.3 32.86 37.3 32.86" style="fill:#66bb86"/><polygon points="37.3 88.1 37.3 55.24 25.52 55.24 18.62 73.88 11.78 55.24 0 55.24 0 88.1 8.47 88.1 8.47 66.72 15.95 88.1 21.3 88.1 28.82 66.72 28.82 88.1 37.3 88.1 37.3 88.1" style="fill:#66bb86"/><polygon points="0 47.78 37.3 47.78 37.3 40.32 0 40.32 0 47.78 0 47.78" style="fill:#66bb86"/><path d="M80.57,63.45,80,62h-3.4l-.55,1.42H74.6L77.52,56h1.62l2.91,7.41Zm-2.24-6.1L77,60.88h2.67Z" style="fill:#66bb86"/><path d="M86.89,59.11H84v4.34H82.82V58.08h4.07Z" style="fill:#66bb86"/><path d="M87.51,60.76A2.72,2.72,0,0,1,90.24,58a2.65,2.65,0,0,1,2.64,2.92v.28H88.73a1.64,1.64,0,0,0,1.72,1.48A2.26,2.26,0,0,0,92,62l.53.77a3.12,3.12,0,0,1-2.18.77A2.7,2.7,0,0,1,87.51,60.76Zm2.73-1.85a1.49,1.49,0,0,0-1.52,1.42h3A1.44,1.44,0,0,0,90.24,58.91Z" style="fill:#66bb86"/><path d="M94,63.45V58.08H95.2V60.2h2.47V58.08h1.16v5.37H97.67V61.22H95.2v2.23Z" style="fill:#66bb86"/><path d="M101.32,63.45V59.11H99.79v-1H104v1h-1.54v4.34Z" style="fill:#66bb86"/><path d="M104.65,60.76A2.7,2.7,0,0,1,107.43,58a2.39,2.39,0,0,1,2.06,1l-.77.71a1.42,1.42,0,0,0-1.23-.64,1.79,1.79,0,0,0,0,3.57,1.46,1.46,0,0,0,1.23-.63l.77.71a2.41,2.41,0,0,1-2.06.95A2.69,2.69,0,0,1,104.65,60.76Z" style="fill:#66bb86"/><path d="M111.49,63.45V59.11H110v-1h4.25v1h-1.55v4.34Z" style="fill:#66bb86"/><path d="M115.15,63.45V58.08h3.21A1.4,1.4,0,0,1,120,59.46a1.23,1.23,0,0,1-.9,1.22,1.35,1.35,0,0,1,1,1.32,1.44,1.44,0,0,1-1.62,1.45Zm3.61-3.79a.53.53,0,0,0-.6-.55h-1.84V60.2h1.84A.54.54,0,0,0,118.76,59.66Zm.1,2.17a.61.61,0,0,0-.66-.61h-1.88v1.21h1.88A.58.58,0,0,0,118.86,61.83Z" style="fill:#66bb86"/><path d="M121.17,60.76a2.77,2.77,0,1,1,2.76,2.82A2.69,2.69,0,0,1,121.17,60.76Zm4.31,0a1.57,1.57,0,1,0-1.55,1.79A1.61,1.61,0,0,0,125.48,60.76Z" style="fill:#66bb86"/><path d="M134,63.45v-.58a2.24,2.24,0,0,1-1.73.71,1.78,1.78,0,0,1-1.87-1.77,1.73,1.73,0,0,1,1.87-1.75,2.24,2.24,0,0,1,1.73.69V60c0-.62-.51-1-1.25-1a2.19,2.19,0,0,0-1.59.68l-.48-.81a3.19,3.19,0,0,1,2.26-.87c1.19,0,2.23.5,2.23,1.95v3.55Zm0-1.22v-.81a1.54,1.54,0,0,0-1.27-.56,1,1,0,0,0-1.15,1c0,.58.49,1,1.15,1A1.53,1.53,0,0,0,134,62.23Z" style="fill:#66bb86"/><path d="M136.68,63.45V58.08h1.17V60.2h2.46V58.08h1.17v5.37h-1.17V61.22h-2.46v2.23Z" style="fill:#66bb86"/><path d="M144,63.45V59.11h-1.54v-1h4.25v1h-1.54v4.34Z" style="fill:#66bb86"/><path d="M147.63,63.45V58.08h1.17V61.7l2.47-3.62h1.16v5.37h-1.16V59.74l-2.51,3.71Z" style="fill:#66bb86"/><path d="M157.5,63.45l-1.65-2.21-.74.77v1.44h-1.17V58.08h1.17v2.59l2.37-2.59h1.44l-2.23,2.44L159,63.45Z" style="fill:#66bb86"/><path d="M161,62.71V65.5h-1.16V58.08H161v.74a2.14,2.14,0,0,1,1.73-.87c1.39,0,2.37,1,2.37,2.81s-1,2.82-2.37,2.82A2.14,2.14,0,0,1,161,62.71Zm2.89-2A1.58,1.58,0,0,0,162.33,59a1.77,1.77,0,0,0-1.38.73v2.12a1.79,1.79,0,0,0,1.38.72C163.25,62.55,163.84,61.81,163.84,60.76Z" style="fill:#66bb86"/><path d="M166.21,63.45V58.08h1.16V61.7l2.47-3.62H171v5.37h-1.17V59.74l-2.51,3.71Z" style="fill:#66bb86"/><path d="M172,62.72l.55-.75a2.87,2.87,0,0,0,1.92.66c.82,0,1.31-.29,1.31-.72s-.59-.7-1.41-.7h-1.14v-.94h1.14c.8,0,1.31-.23,1.31-.7s-.54-.66-1.29-.66a2.32,2.32,0,0,0-1.72.64l-.58-.71a3.07,3.07,0,0,1,2.25-.88c1.58,0,2.55.55,2.55,1.46,0,.73-.74,1.19-1.42,1.29.65,0,1.53.44,1.53,1.29s-.95,1.58-2.53,1.58A3.47,3.47,0,0,1,172,62.72Z" style="fill:#66bb86"/><path d="M178.16,63.45V58.08h1.17V61.7l2.46-3.62H183v5.37h-1.17V59.74l-2.51,3.71Z" style="fill:#66bb86"/><path d="M184.14,60.76A2.69,2.69,0,0,1,186.92,58a2.38,2.38,0,0,1,2.05,1l-.77.71A1.42,1.42,0,0,0,187,59a1.79,1.79,0,0,0,0,3.57,1.46,1.46,0,0,0,1.23-.63l.77.71a2.4,2.4,0,0,1-2.05.95A2.69,2.69,0,0,1,184.14,60.76Z" style="fill:#66bb86"/><path d="M190,63.45V58.08h1.17V60.2h2.46V58.08h1.17v5.37h-1.17V61.22h-2.46v2.23Z" style="fill:#66bb86"/><path d="M196,60.76a2.76,2.76,0,1,1,2.75,2.82A2.68,2.68,0,0,1,196,60.76Zm4.31,0a1.57,1.57,0,1,0-1.56,1.79A1.62,1.62,0,0,0,200.28,60.76Z" style="fill:#66bb86"/><path d="M206.73,59.11h-2.9v4.34h-1.16V58.08h4.06Z" style="fill:#66bb86"/><path d="M207.35,60.76a2.77,2.77,0,1,1,2.76,2.82A2.69,2.69,0,0,1,207.35,60.76Zm4.32,0a1.57,1.57,0,1,0-1.56,1.79A1.62,1.62,0,0,0,211.67,60.76Z" style="fill:#66bb86"/><path d="M80.19,76.78V73.05l-1.6,3.73h-.46l-1.61-3.73v3.73H75.35V71.41h1.52l1.49,3.47,1.47-3.47h1.53v5.37Z" style="fill:#66bb86"/><path d="M86.15,76.78V76.2a2.26,2.26,0,0,1-1.74.72,1.78,1.78,0,0,1-1.86-1.78,1.73,1.73,0,0,1,1.86-1.75,2.24,2.24,0,0,1,1.74.69v-.8c0-.62-.51-1-1.26-1A2.19,2.19,0,0,0,83.3,73l-.48-.81a3.21,3.21,0,0,1,2.26-.87c1.19,0,2.23.5,2.23,2v3.55Zm0-1.22v-.81a1.57,1.57,0,0,0-1.28-.56,1,1,0,1,0,0,1.93A1.57,1.57,0,0,0,86.15,75.56Z" style="fill:#66bb86"/><path d="M90,76v2.79H88.82V71.41H90v.74a2.12,2.12,0,0,1,1.72-.87c1.39,0,2.38,1,2.38,2.81s-1,2.83-2.38,2.83A2.09,2.09,0,0,1,90,76Zm2.89-2a1.58,1.58,0,0,0-1.51-1.78A1.75,1.75,0,0,0,90,73v2.12a1.77,1.77,0,0,0,1.38.72C92.29,75.88,92.88,75.14,92.88,74.09Z" style="fill:#66bb86"/><path d="M98.8,76.78l-1.64-2.21-.75.77v1.44H95.24V71.41h1.17V74l2.37-2.59h1.44L98,73.85l2.28,2.93Z" style="fill:#66bb86"/><path d="M100.7,74.09a2.71,2.71,0,0,1,2.72-2.81,2.66,2.66,0,0,1,2.65,2.92v.28h-4.15A1.63,1.63,0,0,0,103.63,76a2.25,2.25,0,0,0,1.52-.59l.54.77a3.14,3.14,0,0,1-2.18.78A2.7,2.7,0,0,1,100.7,74.09Zm2.72-1.85a1.48,1.48,0,0,0-1.51,1.42h3A1.43,1.43,0,0,0,103.42,72.24Z" style="fill:#66bb86"/><path d="M108.2,76.78V72.44h-1.54v-1h4.25v1h-1.55v4.34Z" style="fill:#66bb86"/><path d="M111.86,76.78V71.41H113V75l2.47-3.62h1.16v5.37H115.5V73.07L113,76.78Z" style="fill:#66bb86"/><path d="M118.17,76.78V71.41h1.17v2.12h2.47V71.41H123v5.37h-1.16V74.55h-2.47v2.23Z" style="fill:#66bb86"/><path d="M128.55,72.44h-2.9v4.34h-1.17V71.41h4.07Z" style="fill:#66bb86"/><path d="M132.78,76.78V76.2a2.25,2.25,0,0,1-1.73.72,1.79,1.79,0,0,1-1.87-1.78,1.73,1.73,0,0,1,1.87-1.75,2.24,2.24,0,0,1,1.73.69v-.8c0-.62-.51-1-1.25-1a2.17,2.17,0,0,0-1.59.68l-.48-.81a3.19,3.19,0,0,1,2.26-.87c1.18,0,2.23.5,2.23,2v3.55Zm0-1.22v-.81a1.55,1.55,0,0,0-1.28-.56,1,1,0,1,0,0,1.93A1.55,1.55,0,0,0,132.78,75.56Z" style="fill:#66bb86"/><line x1="74.59" y1="44.05" x2="213.11" y2="44.05" style="fill:#223983"/><rect x="74.59" y="43.07" width="138.52" height="1.97" style="fill:#223983"/></g></g></svg>