<?xml version="1.0" encoding="UTF-8" standalone="no"?>
<!DOCTYPE svg PUBLIC "-//W3C//DTD SVG 1.1//EN" "http://www.w3.org/Graphics/SVG/1.1/DTD/svg11.dtd">
<svg width="100%" height="100%" viewBox="0 0 559 417" version="1.1" xmlns="http://www.w3.org/2000/svg" xmlns:xlink="http://www.w3.org/1999/xlink" xml:space="preserve" xmlns:serif="http://www.serif.com/" style="fill-rule:evenodd;clip-rule:evenodd;stroke-linejoin:round;stroke-miterlimit:2;">
    <g transform="matrix(1,0,0,1,-583.333,-190.771)">
        <g transform="matrix(4.16667,0,0,4.16667,0,0)">
            <g transform="matrix(1,0,0,1,143.781,133.691)">
                <path d="M0,8.611C0.34,8.611 0.658,8.559 0.956,8.455C1.253,8.351 1.508,8.208 1.721,8.023C1.933,7.84 2.101,7.618 2.223,7.358C2.346,7.098 2.407,6.817 2.407,6.515C2.407,6.137 2.334,5.824 2.188,5.573C2.042,5.323 1.843,5.125 1.593,4.978C1.343,4.832 1.055,4.73 0.729,4.673C0.403,4.617 0.066,4.589 -0.283,4.589L-1.346,4.589L-1.346,8.498C-1.213,8.536 -1.055,8.564 -0.871,8.583C-0.687,8.602 -0.396,8.611 0,8.611M-0.637,3.852C-0.477,3.852 -0.286,3.845 -0.064,3.832C0.158,3.817 0.34,3.8 0.481,3.782C0.916,3.631 1.272,3.387 1.551,3.052C1.829,2.717 1.968,2.323 1.968,1.87C1.968,1.247 1.782,0.779 1.409,0.467C1.036,0.156 0.538,0.001 -0.085,0.001C-0.378,0.001 -0.628,0.006 -0.835,0.014C-1.043,0.024 -1.213,0.039 -1.346,0.057L-1.346,3.852L-0.637,3.852ZM-3.781,9.262L-3.781,8.852C-3.404,8.673 -3.017,8.559 -2.62,8.511L-2.62,0.114C-2.809,0.076 -3.002,0.026 -3.201,-0.035C-3.399,-0.096 -3.593,-0.164 -3.781,-0.241L-3.781,-0.651L-2.28,-0.651C-2.101,-0.651 -1.929,-0.656 -1.763,-0.665C-1.598,-0.674 -1.426,-0.684 -1.247,-0.694C-1.067,-0.702 -0.874,-0.712 -0.666,-0.722C-0.458,-0.731 -0.222,-0.736 0.042,-0.736C0.42,-0.736 0.805,-0.705 1.197,-0.644C1.588,-0.582 1.942,-0.467 2.259,-0.297C2.575,-0.127 2.833,0.111 3.031,0.419C3.229,0.725 3.328,1.124 3.328,1.615C3.328,1.86 3.29,2.106 3.215,2.351C3.139,2.597 3.023,2.826 2.868,3.038C2.712,3.251 2.516,3.437 2.28,3.597C2.044,3.758 1.765,3.876 1.444,3.952L1.444,4.008C1.728,4.055 2.008,4.135 2.287,4.249C2.565,4.362 2.813,4.516 3.031,4.71C3.248,4.903 3.425,5.141 3.562,5.424C3.698,5.708 3.767,6.048 3.767,6.444C3.767,6.954 3.654,7.393 3.427,7.761C3.201,8.13 2.905,8.431 2.542,8.668C2.178,8.904 1.765,9.076 1.303,9.184C0.84,9.293 0.373,9.347 -0.099,9.347C-0.43,9.347 -0.803,9.334 -1.218,9.305C-1.634,9.276 -2.035,9.262 -2.422,9.262L-3.781,9.262Z" style="fill:rgb(34,57,131);fill-rule:nonzero;"/>
            </g>
        </g>
        <g transform="matrix(4.16667,0,0,4.16667,0,0)">
            <g transform="matrix(1,0,0,1,150.182,140.022)">
                <path d="M0,-4.221L-0.354,-4.221C-0.458,-4.494 -0.564,-4.816 -0.672,-5.184C-0.781,-5.552 -0.873,-5.901 -0.949,-6.232C-0.618,-6.515 -0.222,-6.739 0.241,-6.905C0.704,-7.07 1.204,-7.152 1.742,-7.152C2.214,-7.152 2.62,-7.086 2.96,-6.953C3.3,-6.822 3.581,-6.642 3.803,-6.415C4.024,-6.189 4.187,-5.927 4.292,-5.629C4.395,-5.332 4.447,-5.023 4.447,-4.702C4.447,-4.173 4.324,-3.63 4.079,-3.074C3.833,-2.516 3.529,-1.976 3.166,-1.451C2.802,-0.928 2.408,-0.434 1.983,0.028C1.558,0.491 1.166,0.897 0.808,1.246L0.212,1.799L0.212,1.855L1.006,1.77L3.441,1.77L4.135,0.184L4.49,0.184C4.508,0.391 4.527,0.619 4.546,0.864C4.565,1.109 4.582,1.357 4.596,1.607C4.61,1.857 4.622,2.098 4.631,2.33C4.641,2.561 4.646,2.761 4.646,2.931L-1.204,2.931L-1.204,2.478C-0.996,2.261 -0.743,1.997 -0.446,1.685C-0.148,1.374 0.161,1.029 0.481,0.651C0.803,0.274 1.121,-0.127 1.437,-0.552C1.754,-0.978 2.035,-1.409 2.28,-1.848C2.526,-2.287 2.727,-2.724 2.882,-3.159C3.038,-3.592 3.116,-4.008 3.116,-4.405C3.116,-4.678 3.081,-4.938 3.01,-5.184C2.939,-5.429 2.833,-5.644 2.691,-5.828C2.549,-6.012 2.377,-6.156 2.174,-6.26C1.971,-6.364 1.737,-6.415 1.473,-6.415C1.275,-6.415 1.1,-6.402 0.949,-6.373C0.798,-6.345 0.633,-6.302 0.454,-6.245L0,-4.221Z" style="fill:rgb(34,57,131);fill-rule:nonzero;"/>
            </g>
        </g>
        <g transform="matrix(4.16667,0,0,4.16667,0,0)">
            <g transform="matrix(1,0,0,1,160.039,133.691)">
                <path d="M0,8.611C0.34,8.611 0.659,8.559 0.956,8.455C1.253,8.351 1.508,8.208 1.721,8.023C1.933,7.84 2.101,7.618 2.223,7.358C2.346,7.098 2.407,6.817 2.407,6.515C2.407,6.137 2.334,5.824 2.188,5.573C2.042,5.323 1.843,5.125 1.593,4.978C1.343,4.832 1.055,4.73 0.729,4.673C0.403,4.617 0.066,4.589 -0.283,4.589L-1.345,4.589L-1.345,8.498C-1.213,8.536 -1.055,8.564 -0.871,8.583C-0.687,8.602 -0.396,8.611 0,8.611M-0.637,3.852C-0.477,3.852 -0.286,3.845 -0.064,3.832C0.158,3.817 0.34,3.8 0.481,3.782C0.916,3.631 1.272,3.387 1.551,3.052C1.829,2.717 1.968,2.323 1.968,1.87C1.968,1.247 1.782,0.779 1.409,0.467C1.036,0.156 0.538,0.001 -0.085,0.001C-0.378,0.001 -0.628,0.006 -0.835,0.014C-1.043,0.024 -1.213,0.039 -1.345,0.057L-1.345,3.852L-0.637,3.852ZM-3.781,9.262L-3.781,8.852C-3.404,8.673 -3.017,8.559 -2.62,8.511L-2.62,0.114C-2.809,0.076 -3.002,0.026 -3.201,-0.035C-3.399,-0.096 -3.593,-0.164 -3.781,-0.241L-3.781,-0.651L-2.28,-0.651C-2.101,-0.651 -1.929,-0.656 -1.763,-0.665C-1.598,-0.674 -1.426,-0.684 -1.247,-0.694C-1.067,-0.702 -0.874,-0.712 -0.666,-0.722C-0.458,-0.731 -0.222,-0.736 0.042,-0.736C0.42,-0.736 0.805,-0.705 1.197,-0.644C1.588,-0.582 1.942,-0.467 2.259,-0.297C2.575,-0.127 2.833,0.111 3.031,0.419C3.229,0.725 3.328,1.124 3.328,1.615C3.328,1.86 3.29,2.106 3.215,2.351C3.139,2.597 3.023,2.826 2.868,3.038C2.712,3.251 2.516,3.437 2.28,3.597C2.044,3.758 1.765,3.876 1.444,3.952L1.444,4.008C1.728,4.055 2.009,4.135 2.287,4.249C2.565,4.362 2.813,4.516 3.031,4.71C3.248,4.903 3.425,5.141 3.562,5.424C3.698,5.708 3.767,6.048 3.767,6.444C3.767,6.954 3.654,7.393 3.427,7.761C3.201,8.13 2.905,8.431 2.542,8.668C2.178,8.904 1.765,9.076 1.303,9.184C0.84,9.293 0.373,9.347 -0.099,9.347C-0.43,9.347 -0.803,9.334 -1.218,9.305C-1.634,9.276 -2.035,9.262 -2.422,9.262L-3.781,9.262Z" style="fill:rgb(34,57,131);fill-rule:nonzero;"/>
            </g>
        </g>
        <g transform="matrix(4.16667,0,0,4.16667,0,0)">
            <g transform="matrix(1,0,0,1,170.929,135.872)">
                <path d="M0,7.081L-2.493,7.081L-2.493,6.727C-2.181,6.576 -1.87,6.463 -1.558,6.387L-1.346,0.85C-1.544,0.774 -1.719,0.694 -1.87,0.609C-2.021,0.524 -2.158,0.444 -2.28,0.368L-2.28,0L0.481,0L1.94,4.136L2.209,5.112L2.251,5.112L2.549,4.121L4.064,0L6.741,0L6.741,0.368C6.618,0.444 6.481,0.51 6.33,0.566C6.179,0.623 6.004,0.671 5.806,0.708L6.089,6.387C6.401,6.443 6.713,6.558 7.024,6.727L7.024,7.081L4.022,7.081L4.022,6.727C4.116,6.68 4.229,6.628 4.362,6.571C4.494,6.515 4.664,6.453 4.872,6.387L4.588,0.651L4.475,0.651L2.152,7.081L1.77,7.081L-0.524,0.651L-0.638,0.651L-0.85,6.387C-0.51,6.491 -0.227,6.604 0,6.727L0,7.081Z" style="fill:rgb(34,57,131);fill-rule:nonzero;"/>
            </g>
        </g>
        <g transform="matrix(4.16667,0,0,4.16667,0,0)">
            <g transform="matrix(1,0,0,1,181.465,136.58)">
                <path d="M0,5.665C0.236,5.665 0.444,5.618 0.623,5.523C0.803,5.429 0.954,5.315 1.077,5.184C1.199,5.052 1.298,4.917 1.374,4.78C1.449,4.644 1.501,4.527 1.53,4.433L1.53,2.946C0.982,2.946 0.534,2.974 0.184,3.031C-0.165,3.088 -0.439,3.178 -0.637,3.3C-0.835,3.423 -0.972,3.576 -1.048,3.761C-1.124,3.944 -1.161,4.154 -1.161,4.391C-1.161,4.797 -1.057,5.11 -0.85,5.332C-0.642,5.554 -0.359,5.665 0,5.665M2.733,4.518C2.733,4.726 2.738,4.905 2.748,5.056C2.757,5.207 2.767,5.367 2.776,5.537L3.753,5.679L3.753,5.977C3.517,6.1 3.255,6.208 2.967,6.303C2.679,6.396 2.403,6.468 2.139,6.515L1.785,6.515C1.69,6.298 1.633,6.06 1.615,5.8C1.596,5.54 1.582,5.254 1.572,4.942L1.501,4.942C1.463,5.132 1.39,5.323 1.282,5.517C1.173,5.71 1.032,5.882 0.857,6.033C0.682,6.185 0.477,6.308 0.241,6.401C0.005,6.496 -0.264,6.543 -0.566,6.543C-1.143,6.543 -1.612,6.368 -1.976,6.019C-2.339,5.67 -2.521,5.212 -2.521,4.645C-2.521,4.211 -2.434,3.854 -2.259,3.576C-2.084,3.298 -1.827,3.078 -1.487,2.918C-1.147,2.757 -0.727,2.642 -0.227,2.57C0.274,2.5 0.854,2.445 1.516,2.408C1.553,2.002 1.565,1.636 1.551,1.311C1.537,0.984 1.485,0.706 1.395,0.475C1.305,0.243 1.173,0.063 0.999,-0.064C0.824,-0.191 0.595,-0.255 0.312,-0.255C0.179,-0.255 0.031,-0.248 -0.134,-0.233C-0.3,-0.22 -0.462,-0.179 -0.623,-0.113L-1.289,1.586L-1.657,1.586C-1.751,1.303 -1.834,1.011 -1.905,0.708C-1.976,0.406 -2.021,0.108 -2.039,-0.184C-1.681,-0.401 -1.281,-0.571 -0.842,-0.694C-0.403,-0.816 0.085,-0.878 0.623,-0.878C1.105,-0.878 1.489,-0.81 1.777,-0.673C2.065,-0.535 2.285,-0.358 2.436,-0.142C2.587,0.076 2.686,0.316 2.733,0.581C2.781,0.845 2.804,1.109 2.804,1.374C2.804,1.94 2.792,2.485 2.769,3.01C2.745,3.533 2.733,4.036 2.733,4.518" style="fill:rgb(34,57,131);fill-rule:nonzero;"/>
            </g>
        </g>
        <g transform="matrix(4.16667,0,0,4.16667,0,0)">
            <g transform="matrix(1,0,0,1,189.878,144.907)">
                <path d="M0,-8.327C-0.463,-8.327 -0.831,-8.181 -1.105,-7.888C-1.379,-7.596 -1.572,-7.194 -1.686,-6.684L-1.686,-2.719C-1.516,-2.614 -1.324,-2.537 -1.112,-2.485C-0.899,-2.432 -0.624,-2.407 -0.284,-2.407C0.028,-2.407 0.309,-2.487 0.559,-2.648C0.809,-2.808 1.021,-3.035 1.196,-3.328C1.371,-3.62 1.505,-3.963 1.6,-4.354C1.694,-4.746 1.742,-5.178 1.742,-5.65C1.742,-6.037 1.711,-6.393 1.649,-6.72C1.588,-7.045 1.489,-7.328 1.352,-7.569C1.215,-7.81 1.036,-7.996 0.814,-8.129C0.592,-8.261 0.321,-8.327 0,-8.327M-0.751,0.878L-3.895,0.878L-3.895,0.525C-3.574,0.373 -3.263,0.26 -2.96,0.185L-2.96,-8.214L-3.895,-8.327L-3.895,-8.695C-3.593,-8.827 -3.284,-8.933 -2.967,-9.014C-2.651,-9.094 -2.342,-9.157 -2.04,-9.205L-1.686,-9.205L-1.686,-7.619L-1.671,-7.619C-1.483,-8.1 -1.218,-8.485 -0.878,-8.773C-0.539,-9.061 -0.095,-9.205 0.453,-9.205C1.293,-9.205 1.945,-8.927 2.407,-8.369C2.87,-7.812 3.101,-6.906 3.101,-5.65C3.101,-5.056 3.023,-4.517 2.868,-4.036C2.712,-3.555 2.49,-3.148 2.202,-2.818C1.914,-2.487 1.564,-2.232 1.154,-2.054C0.743,-1.874 0.288,-1.784 -0.213,-1.784C-0.562,-1.784 -0.836,-1.806 -1.034,-1.848C-1.232,-1.89 -1.45,-1.963 -1.686,-2.067L-1.686,0.185C-1.535,0.203 -1.383,0.238 -1.232,0.291C-1.082,0.343 -0.921,0.42 -0.751,0.525L-0.751,0.878Z" style="fill:rgb(34,57,131);fill-rule:nonzero;"/>
            </g>
        </g>
        <g transform="matrix(4.16667,0,0,4.16667,0,0)">
            <g transform="matrix(1,0,0,1,198.163,142.953)">
                <path d="M0,-7.081L2.733,-7.081L2.733,-6.713C2.639,-6.637 2.514,-6.571 2.358,-6.515C2.202,-6.458 2.011,-6.392 1.784,-6.316C1.463,-5.929 1.123,-5.537 0.765,-5.141C0.406,-4.744 0.028,-4.348 -0.368,-3.951C-0.161,-3.725 0.059,-3.475 0.29,-3.2C0.521,-2.927 0.755,-2.644 0.991,-2.351C1.227,-2.058 1.463,-1.77 1.699,-1.487C1.935,-1.204 2.167,-0.939 2.393,-0.694L3.059,-0.354L3.059,0L1.402,0L0.949,-0.326C0.524,-0.836 0.137,-1.346 -0.212,-1.855C-0.562,-2.365 -0.916,-2.865 -1.275,-3.356L-1.841,-3.356L-1.841,-0.694C-1.652,-0.646 -1.48,-0.597 -1.324,-0.545C-1.168,-0.493 -1.034,-0.43 -0.921,-0.354L-0.921,0L-4.051,0L-4.051,-0.354C-3.796,-0.505 -3.484,-0.618 -3.116,-0.694L-3.116,-6.373C-3.446,-6.438 -3.758,-6.552 -4.051,-6.713L-4.051,-7.081L-1.147,-7.081L-1.147,-6.713C-1.242,-6.646 -1.343,-6.585 -1.452,-6.528C-1.561,-6.472 -1.69,-6.42 -1.841,-6.373L-1.841,-3.725L-1.19,-3.866C-0.812,-4.301 -0.454,-4.706 -0.113,-5.084C0.227,-5.462 0.542,-5.872 0.835,-6.316C0.675,-6.382 0.526,-6.446 0.389,-6.508C0.252,-6.568 0.123,-6.637 0,-6.713L0,-7.081Z" style="fill:rgb(34,57,131);fill-rule:nonzero;"/>
            </g>
        </g>
        <g transform="matrix(4.16667,0,0,4.16667,0,0)">
            <g transform="matrix(1,0,0,1,204.777,142.5)">
                <path d="M0,-6.175C-0.538,-6.175 -0.949,-5.993 -1.232,-5.63C-1.516,-5.266 -1.686,-4.626 -1.742,-3.711L1.374,-3.711C1.383,-3.796 1.39,-3.878 1.395,-3.958C1.399,-4.038 1.402,-4.116 1.402,-4.193C1.402,-4.796 1.289,-5.278 1.062,-5.637C0.835,-5.995 0.481,-6.175 0,-6.175M2.591,-0.538C2.516,-0.378 2.398,-0.227 2.237,-0.085C2.077,0.056 1.893,0.179 1.685,0.283C1.478,0.387 1.251,0.47 1.005,0.531C0.76,0.593 0.51,0.623 0.255,0.623C-0.303,0.623 -0.793,0.535 -1.218,0.361C-1.643,0.186 -1.997,-0.064 -2.28,-0.39C-2.563,-0.715 -2.778,-1.105 -2.925,-1.558C-3.071,-2.011 -3.145,-2.521 -3.145,-3.087C-3.145,-4.296 -2.866,-5.217 -2.309,-5.849C-1.752,-6.482 -0.963,-6.798 0.057,-6.798C0.387,-6.798 0.712,-6.753 1.034,-6.663C1.354,-6.573 1.64,-6.425 1.891,-6.217C2.141,-6.01 2.344,-5.734 2.5,-5.389C2.655,-5.044 2.733,-4.617 2.733,-4.108C2.733,-3.946 2.726,-3.783 2.712,-3.618C2.698,-3.453 2.671,-3.277 2.634,-3.087L-1.785,-3.087C-1.785,-2.691 -1.735,-2.321 -1.636,-1.976C-1.537,-1.631 -1.388,-1.331 -1.19,-1.076C-0.992,-0.821 -0.742,-0.621 -0.439,-0.475C-0.137,-0.328 0.217,-0.255 0.623,-0.255C0.953,-0.255 1.289,-0.302 1.628,-0.397C1.968,-0.491 2.223,-0.613 2.393,-0.765L2.591,-0.538Z" style="fill:rgb(34,57,131);fill-rule:nonzero;"/>
            </g>
        </g>
        <g transform="matrix(4.16667,0,0,4.16667,0,0)">
            <g transform="matrix(1,0,0,1,213.259,135.872)">
                <path d="M0,7.081L-3.144,7.081L-3.144,6.727C-2.852,6.576 -2.54,6.463 -2.209,6.387L-2.209,0.623L-3.555,0.623L-4.163,2.322L-4.522,2.322C-4.568,1.917 -4.605,1.518 -4.633,1.126C-4.661,0.734 -4.679,0.359 -4.688,0L1.543,0C1.534,0.34 1.518,0.711 1.495,1.111C1.472,1.513 1.433,1.917 1.378,2.322L1.019,2.322L0.411,0.623L-0.935,0.623L-0.935,6.387C-0.491,6.5 -0.18,6.613 0,6.727L0,7.081Z" style="fill:rgb(34,57,131);fill-rule:nonzero;"/>
            </g>
        </g>
        <g transform="matrix(4.16667,0,0,4.16667,0,0)">
            <g transform="matrix(1,0,0,1,215.752,142.953)">
                <path d="M0,-7.081L3.002,-7.081L3.002,-6.713C2.898,-6.656 2.778,-6.6 2.641,-6.543C2.504,-6.486 2.341,-6.43 2.152,-6.373L2.152,-2.492L1.997,-1.176L2.067,-1.176L2.62,-2.237L5.65,-7.081L7.562,-7.081L7.562,-6.713C7.26,-6.543 6.949,-6.43 6.628,-6.373L6.628,-0.694C6.807,-0.646 6.977,-0.597 7.138,-0.545C7.298,-0.493 7.44,-0.43 7.562,-0.354L7.562,0L4.56,0L4.56,-0.354C4.824,-0.505 5.107,-0.618 5.41,-0.694L5.41,-4.744L5.551,-5.863L5.48,-5.863L4.942,-4.801L1.94,0L0,0L0,-0.354C0.16,-0.43 0.316,-0.493 0.467,-0.545C0.618,-0.597 0.774,-0.646 0.935,-0.694L0.935,-6.373C0.566,-6.43 0.255,-6.543 0,-6.713L0,-7.081Z" style="fill:rgb(34,57,131);fill-rule:nonzero;"/>
            </g>
        </g>
        <g transform="matrix(4.16667,0,0,4.16667,0,0)">
            <g transform="matrix(1,0,0,1,227.464,135.872)">
                <path d="M0,7.081L-3.045,7.081L-3.045,6.727C-2.913,6.651 -2.766,6.588 -2.606,6.536C-2.445,6.484 -2.28,6.435 -2.11,6.387L-2.11,0.708C-2.28,0.661 -2.445,0.611 -2.606,0.56C-2.766,0.508 -2.913,0.444 -3.045,0.368L-3.045,0L0,0L0,0.368C-0.217,0.501 -0.496,0.614 -0.835,0.708L-0.835,3.186L2.309,3.186L2.309,0.708C1.978,0.651 1.695,0.538 1.459,0.368L1.459,0L4.518,0L4.518,0.368C4.263,0.529 3.952,0.643 3.583,0.708L3.583,6.387C3.753,6.425 3.918,6.468 4.079,6.515C4.239,6.561 4.386,6.633 4.518,6.727L4.518,7.081L1.459,7.081L1.459,6.727C1.695,6.558 1.978,6.443 2.309,6.387L2.309,3.81L-0.835,3.81L-0.835,6.387C-0.646,6.425 -0.486,6.472 -0.354,6.529C-0.222,6.585 -0.104,6.651 0,6.727L0,7.081Z" style="fill:rgb(34,57,131);fill-rule:nonzero;"/>
            </g>
        </g>
        <g transform="matrix(4.16667,0,0,4.16667,0,0)">
            <g transform="matrix(1,0,0,1,238.368,142.953)">
                <path d="M0,-7.081C-0.009,-6.713 -0.026,-6.33 -0.049,-5.934C-0.073,-5.537 -0.113,-5.145 -0.17,-4.759L-0.538,-4.759L-1.161,-6.458L-3.073,-6.458L-3.073,-0.694C-2.535,-0.59 -2.11,-0.477 -1.798,-0.354L-1.798,0L-5.282,0L-5.282,-0.354C-5.122,-0.448 -4.966,-0.519 -4.815,-0.566C-4.664,-0.613 -4.508,-0.656 -4.348,-0.694L-4.348,-6.387C-4.697,-6.443 -5.009,-6.552 -5.282,-6.713L-5.282,-7.081L0,-7.081Z" style="fill:rgb(34,57,131);fill-rule:nonzero;"/>
            </g>
        </g>
        <g transform="matrix(4.16667,0,0,4.16667,0,0)">
            <g transform="matrix(1,0,0,1,156.904,99.1632)">
                <path d="M0,18.404L-0.026,6.205L-6.073,16.3L-7.598,16.3L-13.645,6.362L-13.645,18.404L-16.904,18.404L-16.904,0L-14.091,0L-6.782,12.199L0.395,0L3.208,0L3.234,18.404L0,18.404Z" style="fill:rgb(34,57,131);fill-rule:nonzero;"/>
            </g>
        </g>
        <g transform="matrix(4.16667,0,0,4.16667,0,0)">
            <g transform="matrix(1,0,0,1,173.258,107.944)">
                <path d="M0,5.233L0,3.603L-3.391,3.603C-5.626,3.603 -6.23,4.444 -6.23,5.469C-6.23,6.652 -5.231,7.415 -3.549,7.415C-1.945,7.415 -0.552,6.678 0,5.233M3.287,1.394L3.287,9.624L0.185,9.624L0.185,7.915C-0.604,9.124 -2.129,9.807 -4.233,9.807C-7.44,9.807 -9.464,8.046 -9.464,5.601C-9.464,3.261 -7.887,1.42 -3.628,1.42L0,1.42L0,1.211C0,-0.709 -1.156,-1.839 -3.497,-1.839C-5.074,-1.839 -6.704,-1.313 -7.756,-0.446L-9.044,-2.838C-7.545,-3.996 -5.363,-4.574 -3.102,-4.574C0.947,-4.574 3.287,-2.655 3.287,1.394" style="fill:rgb(34,57,131);fill-rule:nonzero;"/>
            </g>
        </g>
        <g transform="matrix(4.16667,0,0,4.16667,0,0)">
            <g transform="matrix(1,0,0,1,188.876,117.567)">
                <path d="M0,-14.197L0,-11.068C-0.289,-11.121 -0.526,-11.147 -0.763,-11.147C-3.26,-11.147 -4.838,-9.676 -4.838,-6.809L-4.838,0L-8.124,0L-8.124,-14.04L-4.995,-14.04L-4.995,-11.988C-4.049,-13.461 -2.34,-14.197 0,-14.197" style="fill:rgb(34,57,131);fill-rule:nonzero;"/>
            </g>
        </g>
        <g transform="matrix(4.16667,0,0,4.16667,0,0)">
            <g transform="matrix(1,0,0,1,197.396,104.081)">
                <path d="M0,7.466L-2.446,9.779L-2.446,13.487L-5.731,13.487L-5.731,-6.021L-2.446,-6.021L-2.446,5.757L4.364,-0.554L8.308,-0.554L2.445,5.336L8.86,13.487L4.863,13.487L0,7.466Z" style="fill:rgb(34,57,131);fill-rule:nonzero;"/>
            </g>
        </g>
        <g transform="matrix(4.16667,0,0,4.16667,0,0)">
            <g transform="matrix(1,0,0,1,209.91,111.704)">
                <path d="M0,-2.287L7.966,-2.287C7.703,-4.311 6.152,-5.705 3.996,-5.705C1.866,-5.705 0.315,-4.338 0,-2.287M11.042,-0.105L0.026,-0.105C0.42,1.945 2.129,3.26 4.575,3.26C6.152,3.26 7.388,2.761 8.387,1.735L10.148,3.76C8.887,5.258 6.914,6.047 4.496,6.047C-0.21,6.047 -3.26,3.024 -3.26,-1.156C-3.26,-5.337 -0.184,-8.334 3.996,-8.334C8.098,-8.334 11.095,-5.469 11.095,-1.078C11.095,-0.814 11.068,-0.421 11.042,-0.105" style="fill:rgb(34,57,131);fill-rule:nonzero;"/>
            </g>
        </g>
        <g transform="matrix(4.16667,0,0,4.16667,0,0)">
            <g transform="matrix(1,0,0,1,232.601,101.371)">
                <path d="M0,15.433C-0.789,16.064 -1.973,16.379 -3.155,16.379C-6.231,16.379 -7.993,14.749 -7.993,11.648L-7.993,4.891L-10.307,4.891L-10.307,2.261L-7.993,2.261L-7.993,-0.946L-4.706,-0.946L-4.706,2.261L-0.947,2.261L-0.947,4.891L-4.706,4.891L-4.706,11.568C-4.706,12.935 -4.023,13.671 -2.761,13.671C-2.078,13.671 -1.42,13.488 -0.92,13.093L0,15.433Z" style="fill:rgb(34,57,131);fill-rule:nonzero;"/>
            </g>
        </g>
        <g transform="matrix(4.16667,0,0,4.16667,0,0)">
            <g transform="matrix(1,0,0,1,252.989,99.1632)">
                <path d="M0,18.404L-0.025,6.205L-6.073,16.3L-7.598,16.3L-13.645,6.362L-13.645,18.404L-16.904,18.404L-16.904,0L-14.091,0L-6.782,12.199L0.395,0L3.208,0L3.234,18.404L0,18.404Z" style="fill:rgb(34,57,131);fill-rule:nonzero;"/>
            </g>
        </g>
        <g transform="matrix(4.16667,0,0,4.16667,0,0)">
            <g transform="matrix(1,0,0,1,262.981,111.704)">
                <path d="M0,-2.287L7.966,-2.287C7.703,-4.311 6.152,-5.705 3.996,-5.705C1.866,-5.705 0.315,-4.338 0,-2.287M11.042,-0.105L0.026,-0.105C0.42,1.945 2.129,3.26 4.574,3.26C6.152,3.26 7.388,2.761 8.387,1.735L10.148,3.76C8.886,5.258 6.914,6.047 4.496,6.047C-0.21,6.047 -3.26,3.024 -3.26,-1.156C-3.26,-5.337 -0.184,-8.334 3.996,-8.334C8.098,-8.334 11.095,-5.469 11.095,-1.078C11.095,-0.814 11.068,-0.421 11.042,-0.105" style="fill:rgb(34,57,131);fill-rule:nonzero;"/>
            </g>
        </g>
        <g transform="matrix(4.16667,0,0,4.16667,0,0)">
            <g transform="matrix(57.1376,0,0,-57.1376,178.469,66.7911)">
                <path d="M0.934,0.361C0.848,0.306 0.771,0.239 0.704,0.163C0.671,0.124 0.64,0.083 0.612,0.038C0.612,0.055 0.611,0.072 0.611,0.09C0.611,0.155 0.616,0.22 0.628,0.283L0.628,0.284C0.63,0.296 0.627,0.309 0.619,0.319C0.604,0.337 0.576,0.34 0.558,0.325C0.491,0.27 0.428,0.208 0.375,0.138C0.345,0.1 0.319,0.059 0.296,0.016C0.294,0.028 0.292,0.04 0.29,0.053C0.282,0.104 0.272,0.156 0.264,0.208L0.264,0.208C0.262,0.219 0.257,0.228 0.248,0.235C0.23,0.25 0.201,0.247 0.186,0.229C0.152,0.187 0.121,0.143 0.094,0.096C0.08,0.073 0.04,-0.011 0.028,-0.051C0.014,-0.104 0.005,-0.157 0.002,-0.21C-0.002,-0.263 0,-0.316 0.007,-0.368C0.015,-0.316 0.027,-0.266 0.042,-0.217C0.058,-0.169 0.08,-0.124 0.099,-0.078C0.117,-0.036 0.16,0.039 0.16,0.039C0.168,0.052 0.184,0.079 0.192,0.091C0.195,0.074 0.214,-0.015 0.221,-0.042C0.227,-0.069 0.236,-0.096 0.245,-0.122C0.248,-0.133 0.257,-0.142 0.269,-0.147C0.291,-0.156 0.316,-0.146 0.325,-0.124C0.356,-0.049 0.395,0.022 0.443,0.086C0.469,0.12 0.498,0.152 0.528,0.182C0.526,0.151 0.525,0.12 0.525,0.089C0.525,0.019 0.53,-0.05 0.543,-0.121C0.546,-0.135 0.556,-0.147 0.57,-0.153C0.593,-0.161 0.617,-0.15 0.626,-0.128L0.626,-0.128C0.658,-0.043 0.709,0.036 0.77,0.106C0.804,0.146 0.842,0.182 0.882,0.216C0.878,0.199 0.873,0.182 0.869,0.165C0.862,0.136 0.841,0.019 0.838,-0.011C0.831,-0.07 0.827,-0.13 0.827,-0.19C0.827,-0.25 0.83,-0.309 0.841,-0.368C0.844,-0.309 0.853,-0.251 0.864,-0.194C0.876,-0.136 0.894,-0.064 0.91,-0.008C0.918,0.02 0.945,0.116 0.952,0.144C0.966,0.2 0.982,0.256 0.998,0.312L0.998,0.313C1.002,0.324 1,0.337 0.993,0.348C0.985,0.361 0.971,0.368 0.957,0.368C0.949,0.368 0.941,0.365 0.934,0.361Z" style="fill:url(#_Linear1);fill-rule:nonzero;"/>
            </g>
        </g>
    </g>
    <defs>
        <linearGradient id="_Linear1" x1="0" y1="0" x2="1" y2="0" gradientUnits="userSpaceOnUse" gradientTransform="matrix(1,0,0,-1,0,4.4104e-06)"><stop offset="0" style="stop-color:rgb(166,65,143);stop-opacity:1"/><stop offset="0" style="stop-color:rgb(166,65,143);stop-opacity:1"/><stop offset="0.32" style="stop-color:rgb(38,49,122);stop-opacity:1"/><stop offset="1" style="stop-color:rgb(111,186,131);stop-opacity:1"/></linearGradient>
    </defs>
</svg>
