<?xml version="1.0" encoding="UTF-8" standalone="no"?>
<!DOCTYPE svg PUBLIC "-//W3C//DTD SVG 1.1//EN" "http://www.w3.org/Graphics/SVG/1.1/DTD/svg11.dtd">
<svg width="100%" height="100%" viewBox="0 0 664 602" version="1.1" xmlns="http://www.w3.org/2000/svg" xmlns:xlink="http://www.w3.org/1999/xlink" xml:space="preserve" xmlns:serif="http://www.serif.com/" style="fill-rule:evenodd;clip-rule:evenodd;stroke-linejoin:round;stroke-miterlimit:2;">
    <g transform="matrix(1,0,0,1,-2945.88,-28123.1)">
        <g transform="matrix(8.33333,0,0,8.33333,0,0)">
            <g transform="matrix(57.24,-42.12,-42.12,-57.24,370.589,3444.88)">
                <path d="M0.639,0.369C0.574,0.415 0.509,0.404 0.461,0.342C0.402,0.265 0.345,0.187 0.289,0.108C0.241,0.042 0.252,-0.022 0.317,-0.072C0.337,-0.087 0.357,-0.101 0.377,-0.116C0.41,-0.14 0.444,-0.165 0.476,-0.191C0.493,-0.205 0.507,-0.229 0.511,-0.251C0.523,-0.311 0.529,-0.372 0.537,-0.432C0.541,-0.433 0.545,-0.433 0.549,-0.433L0.638,-0.312C0.653,-0.322 0.663,-0.327 0.672,-0.333C0.754,-0.39 0.813,-0.38 0.873,-0.299C0.925,-0.228 0.978,-0.157 1.03,-0.086C1.079,-0.018 1.071,0.05 1.005,0.099C0.946,0.144 0.885,0.189 0.825,0.234C0.763,0.279 0.701,0.324 0.639,0.369ZM0.358,-0.018C0.323,0.009 0.319,0.034 0.345,0.07C0.4,0.146 0.456,0.222 0.512,0.297C0.54,0.335 0.564,0.338 0.603,0.31C0.722,0.223 0.841,0.135 0.96,0.047C0.999,0.018 1.003,-0.005 0.975,-0.043C0.92,-0.119 0.864,-0.195 0.808,-0.27C0.781,-0.307 0.757,-0.31 0.72,-0.284C0.69,-0.263 0.66,-0.24 0.627,-0.216C0.612,-0.231 0.601,-0.243 0.591,-0.255C0.588,-0.253 0.584,-0.252 0.584,-0.251C0.585,-0.182 0.54,-0.147 0.489,-0.113C0.469,-0.101 0.451,-0.087 0.432,-0.074C0.407,-0.056 0.383,-0.037 0.358,-0.018Z" style="fill:url(#_Linear1);fill-rule:nonzero;"/>
            </g>
        </g>
        <g transform="matrix(8.33333,0,0,8.33333,0,0)">
            <g transform="matrix(57.24,-42.12,-42.12,-57.24,349.374,3416.05)">
                <path d="M0.86,0.088C0.738,0.178 0.614,0.266 0.49,0.353C0.423,0.4 0.355,0.386 0.307,0.318C0.255,0.247 0.203,0.175 0.152,0.103C0.094,0.021 0.103,-0.038 0.182,-0.099C0.191,-0.105 0.199,-0.112 0.213,-0.124C0.182,-0.167 0.154,-0.207 0.125,-0.246C0.127,-0.25 0.128,-0.254 0.13,-0.257C0.19,-0.246 0.25,-0.233 0.311,-0.226C0.333,-0.223 0.36,-0.229 0.378,-0.241C0.434,-0.276 0.487,-0.317 0.541,-0.355C0.608,-0.401 0.673,-0.391 0.721,-0.326C0.778,-0.248 0.834,-0.169 0.889,-0.09C0.934,-0.025 0.924,0.041 0.861,0.088C0.861,0.088 0.861,0.088 0.86,0.088Z" style="fill:url(#_Linear2);fill-rule:nonzero;"/>
            </g>
        </g>
        <g transform="matrix(8.33333,0,0,8.33333,0,0)">
            <g transform="matrix(1,0,0,1,371.89,3379.77)">
                <path d="M0,33.069C0.232,33.09 0.53,33.187 0.581,33.113C3.356,29.11 7.404,28.882 11.755,29.085C15.569,29.261 19.404,29.075 23.228,28.973C26.391,28.889 27.663,27.591 27.64,24.429C27.592,17.761 27.503,11.092 27.374,4.424C27.31,1.074 26.061,-0.118 22.645,-0.081C12.149,0.032 1.653,0.174 -8.841,0.343C-12.293,0.399 -13.485,1.577 -13.464,4.957C-13.421,11.625 -13.332,18.294 -13.19,24.962C-13.122,28.212 -11.896,29.382 -8.686,29.405C-6.044,29.423 -3.402,29.343 -0.448,29.303C-0.272,30.784 -0.136,31.928 0,33.069" style="fill:white;fill-rule:nonzero;"/>
            </g>
        </g>
    </g>
    <defs>
        <linearGradient id="_Linear1" x1="0" y1="0" x2="1" y2="0" gradientUnits="userSpaceOnUse" gradientTransform="matrix(1,-5.55112e-17,-5.55112e-17,-1,0,-0.0178564)"><stop offset="0" style="stop-color:rgb(160,74,155);stop-opacity:1"/><stop offset="0" style="stop-color:rgb(160,74,155);stop-opacity:1"/><stop offset="0.32" style="stop-color:rgb(34,57,130);stop-opacity:1"/><stop offset="1" style="stop-color:rgb(103,192,139);stop-opacity:1"/></linearGradient>
        <linearGradient id="_Linear2" x1="0" y1="0" x2="1" y2="0" gradientUnits="userSpaceOnUse" gradientTransform="matrix(1,-5.55112e-17,-5.55112e-17,-1,0,-0.00158182)"><stop offset="0" style="stop-color:rgb(160,74,155);stop-opacity:1"/><stop offset="0" style="stop-color:rgb(160,74,155);stop-opacity:1"/><stop offset="0.32" style="stop-color:rgb(34,57,130);stop-opacity:1"/><stop offset="1" style="stop-color:rgb(103,192,139);stop-opacity:1"/></linearGradient>
    </defs>
</svg>
