<svg viewBox="0 0 91 74" xmlns="http://www.w3.org/2000/svg" fill-rule="evenodd" clip-rule="evenodd" stroke-linejoin="round" stroke-miterlimit="2"><path d="M.797.163L.418-.32l.068.727-.043.034-.447-.571.042-.033.385.49-.072-.735.041-.033L.84.13.797.163z" fill="url(#_Linear1)" fill-rule="nonzero" transform="scale(101.54 -101.54) rotate(38.09 .86 -.422)"/><path d="M.795.415L.348-.156l.208-.163c.089-.069.188-.052.263.043.053.067.059.165.013.216.053-.025.133-.009.19.063.07.09.06.187-.023.252l-.204.16zM.803.337L.959.215c.064-.05.06-.124.014-.182C.927-.026.857-.046.793.004L.637.126l.166.211zM.602.082l.159-.125C.83-.097.823-.18.777-.238.723-.307.65-.32.584-.269l-.159.125.177.226z" fill="url(#_Linear2)" fill-rule="nonzero" transform="scale(101.54 -101.54) rotate(38.09 1.222 -.297)"/><defs><linearGradient id="_Linear1" x1="0" y1="0" x2="1" y2="0" gradientUnits="userSpaceOnUse" gradientTransform="scale(1 -1)"><stop offset="0" stop-color="#a7418f"/><stop offset="0" stop-color="#a7418f"/><stop offset=".32" stop-color="#273476"/><stop offset="1" stop-color="#70ba83"/></linearGradient><linearGradient id="_Linear2" x1="0" y1="0" x2="1" y2="0" gradientUnits="userSpaceOnUse" gradientTransform="matrix(1 0 0 -1 0 .027)"><stop offset="0" stop-color="#a7418f"/><stop offset="0" stop-color="#a7418f"/><stop offset=".32" stop-color="#273476"/><stop offset="1" stop-color="#70ba83"/></linearGradient></defs></svg>