<?xml version="1.0" encoding="UTF-8" standalone="no"?><!DOCTYPE svg PUBLIC "-//W3C//DTD SVG 1.1//EN" "http://www.w3.org/Graphics/SVG/1.1/DTD/svg11.dtd"><svg width="100%" height="100%" viewBox="0 0 55 86" version="1.1" xmlns="http://www.w3.org/2000/svg" xmlns:xlink="http://www.w3.org/1999/xlink" xml:space="preserve" xmlns:serif="http://www.serif.com/" style="fill-rule:evenodd;clip-rule:evenodd;stroke-linejoin:round;stroke-miterlimit:2;"><path d="M11.764,2.647c-4.341,1.765 -7.903,3.85 -10.689,6.256c0.316,1.445 0.756,3.03 1.313,4.752c0.556,1.726 1.154,3.471 1.791,5.234c0.637,1.766 1.255,3.451 1.852,5.054c0.597,1.605 1.135,3.007 1.613,4.212l4.061,0l4.42,-18.65c1.353,-0.4 2.568,-0.681 3.642,-0.842c1.075,-0.16 2.288,-0.241 3.643,-0.241c4.3,0 7.624,1.384 9.973,4.152c2.348,2.766 3.525,6.357 3.525,10.767c0,3.369 -0.618,6.818 -1.852,10.348c-1.236,3.53 -2.888,6.999 -4.957,10.407c-2.071,3.41 -4.419,6.758 -7.047,10.045c-2.628,3.291 -5.297,6.398 -8.003,9.325c-2.707,2.929 -5.374,5.616 -8.002,8.06c-2.628,2.449 -4.978,4.594 -7.047,6.438l0,7.7l54.704,0c0,-1.444 -0.08,-3.348 -0.239,-5.716c-0.161,-2.364 -0.358,-4.85 -0.597,-7.458c-0.238,-2.605 -0.498,-5.193 -0.776,-7.76c-0.28,-2.566 -0.537,-4.813 -0.777,-6.738l-4.06,0l-5.853,13.475l-20.545,0l-7.286,0.721l0,-0.481l6.211,-4.21c3.026,-2.648 6.409,-5.596 10.154,-8.843c3.741,-3.249 7.245,-6.778 10.51,-10.588c3.264,-3.808 6.011,-7.9 8.242,-12.272c2.228,-4.371 3.344,-9.003 3.344,-13.896c0,-3.048 -0.498,-5.897 -1.493,-8.543c-0.997,-2.647 -2.549,-4.972 -4.658,-6.978c-2.111,-2.004 -4.759,-3.569 -7.943,-4.693c-3.186,-1.121 -6.969,-1.684 -11.347,-1.684c-6.211,0 -11.487,0.884 -15.827,2.647Z" style="fill:url(#_Linear1);fill-rule:nonzero;"/><defs><linearGradient id="_Linear1" x1="0" y1="0" x2="1" y2="0" gradientUnits="userSpaceOnUse" gradientTransform="matrix(43.2275,-63.4003,63.4003,43.2275,3.84265,82.5523)"><stop offset="0" style="stop-color:#a74190;stop-opacity:1"/><stop offset="0" style="stop-color:#a74190;stop-opacity:1"/><stop offset="0.32" style="stop-color:#26317a;stop-opacity:1"/><stop offset="1" style="stop-color:#6fbb84;stop-opacity:1"/></linearGradient></defs></svg>