<?xml version="1.0" encoding="UTF-8" standalone="no"?><!DOCTYPE svg PUBLIC "-//W3C//DTD SVG 1.1//EN" "http://www.w3.org/Graphics/SVG/1.1/DTD/svg11.dtd"><svg width="100%" height="100%" viewBox="0 0 56 86" version="1.1" xmlns="http://www.w3.org/2000/svg" xmlns:xlink="http://www.w3.org/1999/xlink" xml:space="preserve" xmlns:serif="http://www.serif.com/" style="fill-rule:evenodd;clip-rule:evenodd;stroke-linejoin:round;stroke-miterlimit:2;"><path d="M1.315,0c0,1.444 0.097,3.247 0.297,5.414c0.198,2.166 0.478,4.413 0.836,6.738c0.359,2.327 0.756,4.652 1.195,6.978c0.437,2.328 0.854,4.331 1.254,6.014l4.061,0l4.658,-12.271l18.035,0l6.451,-0.721l0,0.481l-4.06,4.21l-17.917,23.583l0,4.812l6.927,0c1.911,0 3.822,0.301 5.734,0.902c1.911,0.602 3.601,1.546 5.076,2.829c1.472,1.283 2.667,2.907 3.583,4.873c0.915,1.965 1.373,4.311 1.373,7.037c0,2.407 -0.418,4.653 -1.254,6.737c-0.836,2.087 -1.952,3.892 -3.344,5.415c-1.394,1.524 -2.968,2.708 -4.717,3.55c-1.753,0.841 -3.545,1.263 -5.376,1.263c-1.672,0 -3.005,-0.121 -4.001,-0.361c-0.998,-0.24 -1.893,-0.441 -2.688,-0.602c-0.638,-0.722 -1.394,-1.604 -2.27,-2.646c-0.875,-1.042 -1.773,-2.086 -2.686,-3.128c-0.916,-1.042 -1.793,-2.025 -2.629,-2.948c-0.835,-0.922 -1.493,-1.665 -1.969,-2.226l-3.465,0l-4.419,12.512c1.194,1.043 2.647,2.007 4.359,2.888c1.711,0.883 3.623,1.644 5.734,2.286c2.109,0.64 4.359,1.143 6.749,1.504c2.389,0.361 4.777,0.54 7.165,0.54c4.22,0 8.242,-0.582 12.064,-1.744c3.822,-1.161 7.167,-2.865 10.034,-5.112c2.867,-2.246 5.155,-4.973 6.868,-8.182c1.71,-3.207 2.567,-6.817 2.567,-10.828c0,-3.37 -0.537,-6.455 -1.613,-9.265c-1.074,-2.807 -2.626,-5.272 -4.657,-7.4c-2.031,-2.124 -4.539,-3.808 -7.524,-5.052c-2.987,-1.243 -6.351,-1.943 -10.095,-2.106l-4.06,0.842l0,-0.24l5.136,-5.294l20.664,-25.386l0,-5.896l-52.076,0Z" style="fill:url(#_Linear1);fill-rule:nonzero;"/><defs><linearGradient id="_Linear1" x1="0" y1="0" x2="1" y2="0" gradientUnits="userSpaceOnUse" gradientTransform="matrix(30.2707,-63.4243,63.4243,30.2707,6.90644,77.7376)"><stop offset="0" style="stop-color:#a74190;stop-opacity:1"/><stop offset="0" style="stop-color:#a74190;stop-opacity:1"/><stop offset="0.32" style="stop-color:#26317a;stop-opacity:1"/><stop offset="1" style="stop-color:#6fbb84;stop-opacity:1"/></linearGradient></defs></svg>