<?xml version="1.0" encoding="UTF-8" standalone="no"?><!DOCTYPE svg PUBLIC "-//W3C//DTD SVG 1.1//EN" "http://www.w3.org/Graphics/SVG/1.1/DTD/svg11.dtd"><svg width="100%" height="100%" viewBox="0 0 44 86" version="1.1" xmlns="http://www.w3.org/2000/svg" xmlns:xlink="http://www.w3.org/1999/xlink" xml:space="preserve" xmlns:serif="http://www.serif.com/" style="fill-rule:evenodd;clip-rule:evenodd;stroke-linejoin:round;stroke-miterlimit:2;"><path d="M27.591,0c-4.221,2.567 -8.82,4.812 -13.795,6.737c-4.979,1.926 -9.577,3.45 -13.796,4.573l0.597,4.451c2.547,0.081 5.017,0 7.405,-0.24c2.39,-0.241 4.698,-0.722 6.928,-1.444l-0.478,7.098l0,55.225c-2.072,0.481 -4.121,1.063 -6.151,1.745c-2.031,0.682 -4.042,1.464 -6.032,2.346l0,5.173l41.328,0l0,-5.173c-1.992,-0.882 -3.983,-1.664 -5.972,-2.346c-1.992,-0.682 -3.983,-1.264 -5.972,-1.745l0,-76.4l-4.062,0Z" style="fill:url(#_Linear1);fill-rule:nonzero;"/><defs><linearGradient id="_Linear1" x1="0" y1="0" x2="1" y2="0" gradientUnits="userSpaceOnUse" gradientTransform="matrix(33.1661,-56.2382,56.2382,33.1661,3.27353,79.8979)"><stop offset="0" style="stop-color:#a74190;stop-opacity:1"/><stop offset="0" style="stop-color:#a74190;stop-opacity:1"/><stop offset="0.32" style="stop-color:#26317a;stop-opacity:1"/><stop offset="1" style="stop-color:#6fbb84;stop-opacity:1"/></linearGradient></defs></svg>