<?xml version="1.0" encoding="UTF-8" standalone="no"?>
<!DOCTYPE svg PUBLIC "-//W3C//DTD SVG 1.1//EN" "http://www.w3.org/Graphics/SVG/1.1/DTD/svg11.dtd">
<svg width="100%" height="100%" viewBox="0 0 381 303" version="1.1" xmlns="http://www.w3.org/2000/svg" xmlns:xlink="http://www.w3.org/1999/xlink" xml:space="preserve" xmlns:serif="http://www.serif.com/" style="fill-rule:evenodd;clip-rule:evenodd;stroke-linejoin:round;stroke-miterlimit:2;">
    <g transform="matrix(1,0,0,1,-1768.45,-12814.5)">
        <g transform="matrix(8.33333,0,0,8.33333,0,0)">
            <g transform="matrix(37.44,-26.64,-26.64,-37.44,216.74,1579.83)">
                <path d="M0.829,0.237C0.813,0.222 0.802,0.203 0.787,0.186C0.756,0.149 0.724,0.112 0.687,0.07C0.7,0.053 0.72,0.03 0.739,0.007C0.721,-0.028 0.714,-0.03 0.678,-0.016C0.664,-0.011 0.649,-0.007 0.633,-0.002C0.633,-0.012 0.632,-0.015 0.633,-0.016C0.635,-0.02 0.637,-0.024 0.64,-0.026C0.681,-0.055 0.698,-0.099 0.7,-0.145C0.701,-0.181 0.718,-0.198 0.744,-0.215C0.752,-0.219 0.76,-0.225 0.767,-0.231L0.878,-0.31C0.908,-0.26 0.905,-0.212 0.872,-0.17C0.862,-0.158 0.851,-0.147 0.841,-0.134C0.817,-0.104 0.819,-0.091 0.849,-0.068C0.877,-0.079 0.904,-0.09 0.935,-0.103C0.939,-0.045 0.967,-0.007 0.997,0.031C1.011,0.049 1.024,0.068 1.034,0.088C1.069,0.156 1.057,0.211 0.999,0.252C0.999,0.252 0.998,0.252 0.998,0.253C0.938,0.296 0.881,0.291 0.829,0.237Z" style="fill:url(#_Linear1);fill-rule:nonzero;"/>
            </g>
        </g>
        <g transform="matrix(8.33333,0,0,8.33333,0,0)">
            <g transform="matrix(37.44,-26.64,-26.64,-37.44,211.652,1572.68)">
                <path d="M0.744,0.403C0.659,0.45 0.549,0.445 0.487,0.308C0.48,0.294 0.463,0.285 0.455,0.271C0.438,0.239 0.414,0.208 0.422,0.168C0.423,0.162 0.423,0.155 0.42,0.151C0.401,0.122 0.394,0.092 0.394,0.057C0.394,0.016 0.343,-0.016 0.305,-0.002C0.275,0.008 0.247,0.022 0.219,0.034C0.134,0.07 0.042,0.044 -0.007,-0.031L0.61,-0.47C0.665,-0.4 0.659,-0.304 0.598,-0.235C0.577,-0.212 0.555,-0.19 0.535,-0.166C0.51,-0.135 0.523,-0.075 0.561,-0.062C0.595,-0.051 0.621,-0.034 0.642,-0.007C0.645,-0.003 0.652,-0.001 0.657,0C0.698,0.006 0.719,0.039 0.744,0.066C0.754,0.077 0.757,0.097 0.769,0.108C0.877,0.211 0.846,0.317 0.774,0.382C0.769,0.386 0.764,0.389 0.759,0.393C0.754,0.396 0.749,0.4 0.744,0.403Z" style="fill:url(#_Linear2);fill-rule:nonzero;"/>
            </g>
        </g>
    </g>
    <defs>
        <linearGradient id="_Linear1" x1="0" y1="0" x2="1" y2="0" gradientUnits="userSpaceOnUse" gradientTransform="matrix(1,5.55112e-17,5.55112e-17,-1,0,-0.0140005)"><stop offset="0" style="stop-color:rgb(160,74,155);stop-opacity:1"/><stop offset="0" style="stop-color:rgb(160,74,155);stop-opacity:1"/><stop offset="0.32" style="stop-color:rgb(34,57,130);stop-opacity:1"/><stop offset="1" style="stop-color:rgb(103,192,139);stop-opacity:1"/></linearGradient>
        <linearGradient id="_Linear2" x1="0" y1="0" x2="1" y2="0" gradientUnits="userSpaceOnUse" gradientTransform="matrix(1,5.55112e-17,5.55112e-17,-1,0,-0.0201667)"><stop offset="0" style="stop-color:rgb(160,74,155);stop-opacity:1"/><stop offset="0" style="stop-color:rgb(160,74,155);stop-opacity:1"/><stop offset="0.32" style="stop-color:rgb(34,57,130);stop-opacity:1"/><stop offset="1" style="stop-color:rgb(103,192,139);stop-opacity:1"/></linearGradient>
    </defs>
</svg>
