<?xml version="1.0" encoding="UTF-8" standalone="no"?><!DOCTYPE svg PUBLIC "-//W3C//DTD SVG 1.1//EN" "http://www.w3.org/Graphics/SVG/1.1/DTD/svg11.dtd"><svg width="100%" height="100%" viewBox="0 0 602 413" version="1.1" xmlns="http://www.w3.org/2000/svg" xmlns:xlink="http://www.w3.org/1999/xlink" xml:space="preserve" xmlns:serif="http://www.serif.com/" style="fill-rule:evenodd;clip-rule:evenodd;stroke-linejoin:round;stroke-miterlimit:2;"><g transform="matrix(1,0,0,1,-406.004,-925.421)"><text x="514.688px" y="960.766px" style="font-family:'PTSerif-Regular', 'PT Serif', sans-serif;font-size:18px;fill:#58595b;">Привлекает</text><text x="529.034px" y="978.766px" style="font-family:'PTSerif-Regular', 'PT Serif', sans-serif;font-size:18px;fill:#58595b;">внимание</text></g><g transform="matrix(1,0,0,1,-406.004,-925.421)"><text x="639.464px" y="1298.64px" style="font-family:'PTSerif-Regular', 'PT Serif', sans-serif;font-size:18px;fill:#58595b;">Выгодно выделяет</text><text x="581.036px" y="1316.64px" style="font-family:'PTSerif-Regular', 'PT Serif', sans-serif;font-size:18px;fill:#58595b;">компанию на фоне конкурентов,</text><text x="575.312px" y="1334.64px" style="font-family:'PTSerif-Regular', 'PT Serif', sans-serif;font-size:18px;fill:#58595b;">поддерживает позиционирование</text></g><g transform="matrix(1,0,0,1,-406.004,-925.421)"><text x="405.482px" y="1152.74px" style="font-family:'PTSerif-Regular', 'PT Serif', sans-serif;font-size:18px;fill:#58595b;">Влияет на мнение</text><text x="424.274px" y="1170.74px" style="font-family:'PTSerif-Regular', 'PT Serif', sans-serif;font-size:18px;fill:#58595b;">потенциальных</text><text x="462.848px" y="1188.74px" style="font-family:'PTSerif-Regular', 'PT Serif', sans-serif;font-size:18px;fill:#58595b;">заказчиков</text></g><g transform="matrix(1,0,0,1,-406.004,-925.421)"><text x="819.194px" y="946.024px" style="font-family:'PTSerif-Regular', 'PT Serif', sans-serif;font-size:18px;fill:#58595b;">Повышает</text><text x="819.194px" y="964.024px" style="font-family:'PTSerif-Regular', 'PT Serif', sans-serif;font-size:18px;fill:#58595b;">узнаваемость</text><text x="819.194px" y="982.024px" style="font-family:'PTSerif-Regular', 'PT Serif', sans-serif;font-size:18px;fill:#58595b;">бренда</text></g><g transform="matrix(1,0,0,1,-406.004,-925.421)"><text x="884.516px" y="1152.74px" style="font-family:'PTSerif-Regular', 'PT Serif', sans-serif;font-size:18px;fill:#58595b;">Поддерживает</text><text x="884.516px" y="1170.74px" style="font-family:'PTSerif-Regular', 'PT Serif', sans-serif;font-size:18px;fill:#58595b;">лояльность</text><text x="884.516px" y="1188.74px" style="font-family:'PTSerif-Regular', 'PT Serif', sans-serif;font-size:18px;fill:#58595b;">клиентов</text></g><g transform="matrix(1,0,0,1,-406.004,-925.421)"><g transform="matrix(0.93248,0,0,1,44.4166,0)"><text x="657.828px" y="1102.52px" style="font-family:'PTSerif-Bold', 'PT Serif', sans-serif;font-weight:700;font-size:25px;fill:#223983;">ПР<tspan x="692.564px 710.77px 728.945px 746.848px " y="1102.52px 1102.52px 1102.52px 1102.52px ">ОДАЖ</tspan>И</text></g><g transform="matrix(0.93248,0,0,1,45.5908,0)"><text x="675.219px" y="1132.52px" style="font-family:'PTSerif-Bold', 'PT Serif', sans-serif;font-weight:700;font-size:25px;fill:#223983;">Р<tspan x="688.918px 705.781px 721.362px " y="1132.52px 1132.52px 1132.52px ">АСТ</tspan>УТ</text></g></g><path d="M310.229,2.004l-47.301,114.33l-119.579,-0.97c-1.357,0 -2.572,0.843 -3.043,2.116c-0.474,1.282 -0.096,2.724 0.949,3.607l92.738,78.305l-32.697,119.231c-0.361,1.319 0.142,2.72 1.257,3.508c1.117,0.79 2.607,0.793 3.728,0.011l106.947,-74.569l106.947,74.569c0.558,0.39 1.207,0.583 1.856,0.583c0.655,0 1.311,-0.197 1.872,-0.594c1.115,-0.788 1.618,-2.189 1.257,-3.508l-32.697,-119.231l92.738,-78.304c1.043,-0.882 1.424,-2.324 0.95,-3.606c-0.475,-1.284 -1.703,-2.15 -3.069,-2.118l-119.553,0.97l-47.302,-114.33c-0.502,-1.213 -1.686,-2.004 -2.999,-2.004c-1.313,0 -2.496,0.791 -2.999,2.004Zm-41.499,119.803l44.498,-107.557l44.499,107.557c0.503,1.212 1.687,2.003 2.998,2.003l110.765,-0.9l-85.888,72.524c-0.966,0.816 -1.37,2.117 -1.035,3.336l30.331,110.608l-99.808,-69.593c-0.559,-0.391 -1.21,-0.587 -1.862,-0.587c-0.649,0 -1.297,0.194 -1.856,0.583l-99.813,69.597l30.331,-110.61c0.334,-1.218 -0.07,-2.52 -1.035,-3.334l-85.89,-72.525l110.796,0.902c1.359,0 2.47,-0.799 2.969,-2.004Z" style="fill:url(#_Linear1);fill-rule:nonzero;"/><path d="M490.509,142.716l-74.951,63.287c-0.965,0.816 -1.369,2.118 -1.036,3.338l27.684,100.955c0.396,1.441 1.703,2.388 3.127,2.388c0.283,0 0.571,-0.038 0.857,-0.115l0.929,-0.254c0.83,-0.226 1.538,-0.774 1.964,-1.523c0.426,-0.749 0.539,-1.635 0.311,-2.465l-26.974,-98.364l72.895,-61.554c1.368,-1.157 1.542,-3.201 0.387,-4.57l-0.62,-0.736c-0.555,-0.657 -1.348,-1.068 -2.206,-1.141c-0.089,-0.007 -0.178,-0.011 -0.267,-0.011c-0.76,0 -1.511,0.269 -2.1,0.765Z" style="fill:url(#_Linear2);fill-rule:nonzero;"/><path d="M311.409,271.401l-84.484,58.965c-0.706,0.491 -1.188,1.244 -1.338,2.092c-0.15,0.847 0.041,1.72 0.534,2.426l0.552,0.79c1.026,1.469 3.049,1.829 4.517,0.802l82.078,-57.285l82.157,57.286c0.566,0.394 1.213,0.584 1.853,0.584c1.025,0 2.032,-0.485 2.663,-1.387l0.551,-0.79c0.494,-0.706 0.685,-1.579 0.534,-2.427c-0.15,-0.847 -0.633,-1.6 -1.338,-2.093l-84.573,-58.969c-0.557,-0.385 -1.203,-0.578 -1.848,-0.578c-0.65,0 -1.3,0.195 -1.858,0.584Z" style="fill:url(#_Linear3);fill-rule:nonzero;"/><path d="M133.664,144.963l-0.622,0.735c-0.556,0.657 -0.829,1.508 -0.757,2.367c0.072,0.859 0.482,1.653 1.139,2.209l70.69,59.689l-25.029,91.27c-0.228,0.83 -0.115,1.718 0.312,2.465c0.426,0.749 1.133,1.297 1.963,1.523l0.93,0.254c0.286,0.077 0.572,0.115 0.856,0.115c1.425,0 2.731,-0.946 3.127,-2.387l25.739,-93.862c0.335,-1.22 -0.069,-2.522 -1.034,-3.338l-72.744,-61.423c-0.61,-0.514 -1.354,-0.766 -2.093,-0.766c-0.921,0 -1.836,0.39 -2.477,1.149Z" style="fill:url(#_Linear4);fill-rule:nonzero;"/><path d="M283.718,1.322c-0.795,0.329 -1.427,0.962 -1.757,1.757l-37.132,89.751l-89.592,-0.73c-0.851,-0.014 -1.689,0.33 -2.303,0.932c-0.614,0.605 -0.962,1.428 -0.969,2.289l-0.007,0.962c-0.014,1.791 1.428,3.255 3.218,3.27l92.457,0.752c1.311,0 2.495,-0.791 2.998,-2.004l38.218,-92.371c0.684,-1.656 -0.102,-3.553 -1.757,-4.239l-0.89,-0.369c-0.398,-0.164 -0.82,-0.247 -1.242,-0.247c-0.422,0 -0.844,0.083 -1.242,0.247Z" style="fill:url(#_Linear5);fill-rule:nonzero;"/><path d="M340.333,1.322l-0.889,0.369c-1.656,0.686 -2.442,2.583 -1.757,4.239l38.215,92.366c0.501,1.214 1.685,2.007 2.999,2.007l96.739,0c1.792,0 3.245,-1.454 3.245,-3.245l0,-0.964c0,-1.791 -1.453,-3.245 -3.245,-3.245l-93.926,0l-37.14,-89.77c-0.33,-0.795 -0.962,-1.428 -1.757,-1.757c-0.398,-0.164 -0.82,-0.247 -1.242,-0.247c-0.422,0 -0.844,0.083 -1.242,0.247Z" style="fill:url(#_Linear6);fill-rule:nonzero;"/><defs><linearGradient id="_Linear1" x1="0" y1="0" x2="1" y2="0" gradientUnits="userSpaceOnUse" gradientTransform="matrix(183.6,-254.88,254.88,183.6,205.483,326.225)"><stop offset="0" style="stop-color:#a74190;stop-opacity:1"/><stop offset="0" style="stop-color:#a74190;stop-opacity:1"/><stop offset="0.32" style="stop-color:#26317a;stop-opacity:1"/><stop offset="1" style="stop-color:#6fbb84;stop-opacity:1"/></linearGradient><linearGradient id="_Linear2" x1="0" y1="0" x2="1" y2="0" gradientUnits="userSpaceOnUse" gradientTransform="matrix(183.6,-254.88,254.88,183.6,322.628,410.609)"><stop offset="0" style="stop-color:#a74190;stop-opacity:1"/><stop offset="0" style="stop-color:#a74190;stop-opacity:1"/><stop offset="0.32" style="stop-color:#26317a;stop-opacity:1"/><stop offset="1" style="stop-color:#6fbb84;stop-opacity:1"/></linearGradient><linearGradient id="_Linear3" x1="0" y1="0" x2="1" y2="0" gradientUnits="userSpaceOnUse" gradientTransform="matrix(183.6,-254.88,254.88,183.6,279.703,379.688)"><stop offset="0" style="stop-color:#a74190;stop-opacity:1"/><stop offset="0" style="stop-color:#a74190;stop-opacity:1"/><stop offset="0.32" style="stop-color:#26317a;stop-opacity:1"/><stop offset="1" style="stop-color:#6fbb84;stop-opacity:1"/></linearGradient><linearGradient id="_Linear4" x1="0" y1="0" x2="1" y2="0" gradientUnits="userSpaceOnUse" gradientTransform="matrix(183.6,-254.88,254.88,183.6,127.125,269.781)"><stop offset="0" style="stop-color:#a74190;stop-opacity:1"/><stop offset="0" style="stop-color:#a74190;stop-opacity:1"/><stop offset="0.32" style="stop-color:#26317a;stop-opacity:1"/><stop offset="1" style="stop-color:#6fbb84;stop-opacity:1"/></linearGradient><linearGradient id="_Linear5" x1="0" y1="0" x2="1" y2="0" gradientUnits="userSpaceOnUse" gradientTransform="matrix(183.6,-254.88,254.88,183.6,93.7199,245.718)"><stop offset="0" style="stop-color:#a74190;stop-opacity:1"/><stop offset="0" style="stop-color:#a74190;stop-opacity:1"/><stop offset="0.32" style="stop-color:#26317a;stop-opacity:1"/><stop offset="1" style="stop-color:#6fbb84;stop-opacity:1"/></linearGradient><linearGradient id="_Linear6" x1="0" y1="0" x2="1" y2="0" gradientUnits="userSpaceOnUse" gradientTransform="matrix(183.6,-254.88,254.88,183.6,208.336,328.28)"><stop offset="0" style="stop-color:#a74190;stop-opacity:1"/><stop offset="0" style="stop-color:#a74190;stop-opacity:1"/><stop offset="0.32" style="stop-color:#26317a;stop-opacity:1"/><stop offset="1" style="stop-color:#6fbb84;stop-opacity:1"/></linearGradient></defs></svg>