<svg xmlns="http://www.w3.org/2000/svg" viewBox="0 0 288 208.26"><title>Ресурс 1</title><g id="Слой_2" data-name="Слой 2"><g id="Layer_1" data-name="Layer 1"><text transform="translate(1 120.83)" style="font-size:13px;fill:#58595b;font-family:ProximaNova-Regular, Proxima Nova">Привлекает<tspan x="13.21" y="12.62">внимание</tspan></text><text transform="translate(82.56 179.47)" style="font-size:13px;fill:#58595b;font-family:ProximaNova-Regular, Proxima Nova">Выгодно выделяет <tspan x="-39.65" y="12.62">компанию на фоне конкурентов,</tspan><tspan x="-44.3" y="25.25">поддерживает позиционирование</tspan></text><text transform="translate(0 10.84)" style="font-size:13px;fill:#58595b;font-family:ProximaNova-Regular, Proxima Nova">Влияет на мнение<tspan x="15.08" y="12.62">потенциальных</tspan><tspan x="38.17" y="25.25">заказчиков</tspan></text><text transform="translate(205.31 112.85)" style="font-size:13px;fill:#58595b;font-family:ProximaNova-Regular, Proxima Nova">Повышает<tspan x="0" y="12.62">узнаваемость</tspan><tspan x="0" y="25.25">бренда</tspan></text><text transform="translate(176.96 10.84)" style="font-size:13px;fill:#58595b;font-family:ProximaNova-Regular, Proxima Nova">Поддерживает<tspan x="0" y="12.62">лояльность</tspan><tspan x="0" y="25.25">клиентов</tspan></text><text transform="translate(103.37 84.09) scale(0.93 1)" style="font-size:14px;fill:#223983;font-family:PalatinoLinotype-Bold, Palatino Linotype;font-weight:700">ПРОДАЖИ<tspan x="11.67" y="16.8">РАСТУТ</tspan></text><path d="M176.64,98.13l42.22-35.65a1.48,1.48,0,0,0-1-2.61l-54.44.45L141.92,8.26a1.46,1.46,0,0,0-1.36-.91,1.48,1.48,0,0,0-1.37.91L117.66,60.32l-54.44-.45h0a1.48,1.48,0,0,0-1,2.61l42.22,35.65L89.6,152.42a1.47,1.47,0,0,0,2.26,1.6l48.7-34,48.69,34a1.48,1.48,0,0,0,.85.27,1.47,1.47,0,0,0,1.42-1.87Zm-35.11,18.48-.12-.09a1.52,1.52,0,0,0-1.7,0L94.27,148.21,108,98l0-.13a1.48,1.48,0,0,0-.47-1.52l-39.11-33,50.27.41h.15a1.44,1.44,0,0,0,1.38-.91l20.26-49,20.26,49a1.48,1.48,0,0,0,1.37.91h0l50.42-.41-39.11,33a1.48,1.48,0,0,0-.47,1.52l13.81,50.36Z" style="fill:#223983"/><path d="M223.64,72.84l-.28-.34a1.53,1.53,0,0,0-1-.52,1.52,1.52,0,0,0-1.08.35l-34.13,28.81a1.49,1.49,0,0,0-.47,1.52l12.6,46a1.48,1.48,0,0,0,1.43,1.09,1.32,1.32,0,0,0,.39-.06l.42-.11a1.49,1.49,0,0,0,.9-.69,1.54,1.54,0,0,0,.14-1.13L190.28,103l33.19-28A1.47,1.47,0,0,0,223.64,72.84Z" style="fill:#223983"/><path d="M179.93,157.77,141.54,131l-.12-.08a1.49,1.49,0,0,0-1.69,0l-38.47,26.85a1.41,1.41,0,0,0-.6.95,1.43,1.43,0,0,0,.24,1.1l.25.36a1.48,1.48,0,0,0,2.06.37l37.37-26.08L178,160.55a1.5,1.5,0,0,0,.85.27,1.47,1.47,0,0,0,1.21-.64l.25-.36a1.43,1.43,0,0,0,.24-1.1A1.41,1.41,0,0,0,179.93,157.77Z" style="fill:#223983"/><path d="M94,101.14l-33.12-28a1.47,1.47,0,0,0-2.08.17l-.28.34a1.45,1.45,0,0,0-.35,1.07,1.51,1.51,0,0,0,.52,1L90.88,103,79.48,144.5a1.53,1.53,0,0,0,.14,1.13,1.49,1.49,0,0,0,.9.69l.42.11a1.32,1.32,0,0,0,.39.06,1.47,1.47,0,0,0,1.42-1.09l11.72-42.74A1.47,1.47,0,0,0,94,101.14Z" style="fill:#223983"/><path d="M68.6,52.68l42.08.34h0a1.48,1.48,0,0,0,1.37-.91l17.4-42.06a1.48,1.48,0,0,0-.8-1.93L128.25,8a1.47,1.47,0,0,0-1.13,0,1.49,1.49,0,0,0-.8.8l-16.9,40.86-40.8-.33a1.46,1.46,0,0,0-1,.43,1.5,1.5,0,0,0-.45,1v.44A1.48,1.48,0,0,0,68.6,52.68Z" style="fill:#223983"/><path d="M169,52l.06.13a1.45,1.45,0,0,0,1.36.92h44A1.47,1.47,0,0,0,216,51.54V51.1a1.47,1.47,0,0,0-1.47-1.48H171.74L154.83,8.75A1.49,1.49,0,0,0,154,8a1.48,1.48,0,0,0-1.13,0l-.4.17a1.46,1.46,0,0,0-.8,1.93Z" style="fill:#223983"/></g></g></svg>