<?xml version="1.0" encoding="UTF-8" standalone="no"?><!DOCTYPE svg PUBLIC "-//W3C//DTD SVG 1.1//EN" "http://www.w3.org/Graphics/SVG/1.1/DTD/svg11.dtd"><svg width="100%" height="100%" viewBox="0 0 728 478" version="1.1" xmlns="http://www.w3.org/2000/svg" xmlns:xlink="http://www.w3.org/1999/xlink" xml:space="preserve" xmlns:serif="http://www.serif.com/" style="fill-rule:evenodd;clip-rule:evenodd;stroke-linejoin:round;stroke-miterlimit:2;"><g transform="matrix(1,0,0,1,-580.997,-1011.67)"><text x="712.902px" y="1052.42px" style="font-family:'PTSerif-Regular', 'PT Serif', sans-serif;font-size:23px;fill:#58595b;">Привлекает</text><text x="731.233px" y="1074.43px" style="font-family:'PTSerif-Regular', 'PT Serif', sans-serif;font-size:23px;fill:#58595b;">внимание</text></g><g transform="matrix(1,0,0,1,-580.997,-1011.67)"><text x="859.09px" y="1440.06px" style="font-family:'PTSerif-Regular', 'PT Serif', sans-serif;font-size:23px;fill:#58595b;">Выгодно выделяет</text><text x="784.432px" y="1462.07px" style="font-family:'PTSerif-Regular', 'PT Serif', sans-serif;font-size:23px;fill:#58595b;">компанию на фоне конкурентов,</text><text x="777.118px" y="1484.08px" style="font-family:'PTSerif-Regular', 'PT Serif', sans-serif;font-size:23px;fill:#58595b;">поддерживает позиционирование</text></g><g transform="matrix(1,0,0,1,-580.997,-1011.67)"><text x="580.33px" y="1273.84px" style="font-family:'PTSerif-Regular', 'PT Serif', sans-serif;font-size:23px;fill:#58595b;">Влияет на мнение</text><text x="604.342px" y="1295.85px" style="font-family:'PTSerif-Regular', 'PT Serif', sans-serif;font-size:23px;fill:#58595b;">потенциальных</text><text x="653.631px" y="1317.86px" style="font-family:'PTSerif-Regular', 'PT Serif', sans-serif;font-size:23px;fill:#58595b;">заказчиков</text></g><g transform="matrix(1,0,0,1,-580.997,-1011.67)"><text x="1076.42px" y="1035.49px" style="font-family:'PTSerif-Regular', 'PT Serif', sans-serif;font-size:23px;fill:#58595b;">Повышает</text><text x="1076.42px" y="1057.5px" style="font-family:'PTSerif-Regular', 'PT Serif', sans-serif;font-size:23px;fill:#58595b;">узнаваемость</text><text x="1076.42px" y="1079.51px" style="font-family:'PTSerif-Regular', 'PT Serif', sans-serif;font-size:23px;fill:#58595b;">бренда</text></g><g transform="matrix(1,0,0,1,-580.997,-1011.67)"><text x="1151.77px" y="1273.89px" style="font-family:'PTSerif-Regular', 'PT Serif', sans-serif;font-size:23px;fill:#58595b;">Поддерживает</text><text x="1151.77px" y="1295.9px" style="font-family:'PTSerif-Regular', 'PT Serif', sans-serif;font-size:23px;fill:#58595b;">лояльность</text><text x="1151.77px" y="1317.91px" style="font-family:'PTSerif-Regular', 'PT Serif', sans-serif;font-size:23px;fill:#58595b;">клиентов</text></g><g transform="matrix(1,0,0,1,-580.997,-1011.67)"><g transform="matrix(0.932479,0,0,1,60.2578,0)"><text x="892.426px" y="1215.89px" style="font-family:'PTSerif-Bold', 'PT Serif', sans-serif;font-weight:700;font-size:28px;fill:#223983;">ПР<tspan x="931.329px 951.721px 972.077px 992.128px " y="1215.89px 1215.89px 1215.89px 1215.89px ">ОДАЖ</tspan>И</text></g><g transform="matrix(0.932479,0,0,1,61.573,0)"><text x="911.903px" y="1249.49px" style="font-family:'PTSerif-Bold', 'PT Serif', sans-serif;font-weight:700;font-size:28px;fill:#223983;">Р<tspan x="927.246px 946.132px 963.583px " y="1249.49px 1249.49px 1249.49px ">АСТ</tspan>УТ</text></g></g><path d="M376.705,2.312l-54.547,131.841l-137.896,-1.119c-1.564,0 -2.965,0.972 -3.509,2.442c-0.547,1.478 -0.109,3.142 1.094,4.157l106.944,90.303l-37.705,137.494c-0.416,1.519 0.164,3.137 1.45,4.044c1.288,0.912 3.005,0.916 4.299,0.014l123.328,-85.992l123.329,85.992c0.644,0.448 1.392,0.672 2.14,0.672c0.756,0 1.512,-0.228 2.159,-0.686c1.286,-0.907 1.866,-2.525 1.449,-4.044l-37.704,-137.494l106.942,-90.301c1.204,-1.016 1.643,-2.68 1.096,-4.158c-0.548,-1.48 -1.964,-2.478 -3.54,-2.443l-137.864,1.119l-54.548,-131.841c-0.58,-1.4 -1.944,-2.312 -3.459,-2.312c-1.514,0 -2.879,0.912 -3.458,2.312Zm-47.857,138.153l51.315,-124.032l51.316,124.032c0.579,1.398 1.944,2.311 3.457,2.311l127.731,-1.039l-99.044,83.632c-1.113,0.942 -1.579,2.442 -1.194,3.848l34.977,127.551l-115.096,-80.253c-0.644,-0.453 -1.395,-0.677 -2.147,-0.677c-0.747,0 -1.496,0.223 -2.14,0.672l-115.103,80.258l34.978,-127.554c0.384,-1.404 -0.082,-2.904 -1.194,-3.845l-99.046,-83.633l127.766,1.04c1.569,0 2.85,-0.921 3.424,-2.311Z" style="fill:url(#_Linear1);fill-rule:nonzero;"/><path d="M584.599,164.578l-86.431,72.981c-1.114,0.941 -1.58,2.442 -1.194,3.848l31.925,116.42c0.456,1.662 1.962,2.754 3.606,2.754c0.325,0 0.657,-0.044 0.987,-0.134l1.071,-0.292c0.957,-0.262 1.773,-0.892 2.266,-1.756c0.491,-0.863 0.621,-1.885 0.358,-2.844l-31.106,-113.43l84.062,-70.984c1.577,-1.332 1.777,-3.69 0.445,-5.269l-0.714,-0.848c-0.64,-0.759 -1.556,-1.232 -2.545,-1.317c-0.1,-0.009 -0.201,-0.013 -0.302,-0.013c-0.877,0 -1.746,0.31 -2.428,0.884Z" style="fill:url(#_Linear2);fill-rule:nonzero;"/><path d="M378.066,312.974l-97.426,67.996c-0.814,0.568 -1.37,1.436 -1.542,2.413c-0.174,0.978 0.046,1.985 0.616,2.798l0.635,0.911c1.184,1.695 3.517,2.11 5.209,0.925l94.651,-66.06l94.743,66.061c0.651,0.454 1.397,0.672 2.136,0.672c1.181,0 2.343,-0.559 3.071,-1.598l0.635,-0.911c0.57,-0.813 0.791,-1.82 0.616,-2.8c-0.174,-0.975 -0.729,-1.843 -1.544,-2.413l-97.528,-68.001c-0.642,-0.444 -1.387,-0.666 -2.131,-0.666c-0.749,0 -1.498,0.224 -2.141,0.673Z" style="fill:url(#_Linear3);fill-rule:nonzero;"/><path d="M173.094,167.168l-0.717,0.847c-0.642,0.76 -0.957,1.74 -0.873,2.731c0.084,0.99 0.556,1.905 1.314,2.546l81.517,68.833l-28.863,105.251c-0.263,0.957 -0.132,1.981 0.359,2.843c0.493,0.863 1.308,1.495 2.265,1.757l1.071,0.291c0.33,0.089 0.661,0.134 0.989,0.134c1.643,0 3.149,-1.092 3.606,-2.754l29.682,-108.24c0.385,-1.406 -0.081,-2.907 -1.194,-3.848l-83.885,-70.833c-0.704,-0.593 -1.561,-0.883 -2.414,-0.883c-1.063,0 -2.117,0.45 -2.857,1.325Z" style="fill:url(#_Linear4);fill-rule:nonzero;"/><path d="M346.133,1.525c-0.916,0.379 -1.645,1.109 -2.026,2.025l-42.82,103.498l-103.316,-0.839c-0.981,-0.018 -1.948,0.378 -2.656,1.074c-0.707,0.698 -1.109,1.645 -1.116,2.638l-0.009,1.111c-0.016,2.065 1.645,3.753 3.712,3.771l106.618,0.866c1.513,0 2.878,-0.911 3.458,-2.311l44.072,-106.52c0.789,-1.909 -0.118,-4.097 -2.026,-4.888l-1.027,-0.425c-0.458,-0.191 -0.945,-0.286 -1.431,-0.286c-0.487,0 -0.974,0.095 -1.433,0.286Z" style="fill:url(#_Linear5);fill-rule:nonzero;"/><path d="M411.42,1.525l-1.026,0.425c-1.909,0.791 -2.815,2.979 -2.026,4.888l44.07,106.514c0.578,1.401 1.942,2.314 3.459,2.314l111.557,0c2.066,0 3.741,-1.674 3.741,-3.742l0,-1.11c0,-2.067 -1.675,-3.742 -3.741,-3.742l-108.315,0l-42.829,-103.522c-0.38,-0.916 -1.109,-1.646 -2.026,-2.025c-0.458,-0.191 -0.945,-0.286 -1.432,-0.286c-0.486,0 -0.973,0.095 -1.432,0.286Z" style="fill:url(#_Linear6);fill-rule:nonzero;"/><defs><linearGradient id="_Linear1" x1="0" y1="0" x2="1" y2="0" gradientUnits="userSpaceOnUse" gradientTransform="matrix(211.723,-293.922,293.922,211.723,255.914,376.196)"><stop offset="0" style="stop-color:#a74190;stop-opacity:1"/><stop offset="0" style="stop-color:#a74190;stop-opacity:1"/><stop offset="0.32" style="stop-color:#26317a;stop-opacity:1"/><stop offset="1" style="stop-color:#6fbb84;stop-opacity:1"/></linearGradient><linearGradient id="_Linear2" x1="0" y1="0" x2="1" y2="0" gradientUnits="userSpaceOnUse" gradientTransform="matrix(211.723,-293.922,293.922,211.723,391.003,473.506)"><stop offset="0" style="stop-color:#a74190;stop-opacity:1"/><stop offset="0" style="stop-color:#a74190;stop-opacity:1"/><stop offset="0.32" style="stop-color:#26317a;stop-opacity:1"/><stop offset="1" style="stop-color:#6fbb84;stop-opacity:1"/></linearGradient><linearGradient id="_Linear3" x1="0" y1="0" x2="1" y2="0" gradientUnits="userSpaceOnUse" gradientTransform="matrix(211.723,-293.922,293.922,211.723,341.503,437.849)"><stop offset="0" style="stop-color:#a74190;stop-opacity:1"/><stop offset="0" style="stop-color:#a74190;stop-opacity:1"/><stop offset="0.32" style="stop-color:#26317a;stop-opacity:1"/><stop offset="1" style="stop-color:#6fbb84;stop-opacity:1"/></linearGradient><linearGradient id="_Linear4" x1="0" y1="0" x2="1" y2="0" gradientUnits="userSpaceOnUse" gradientTransform="matrix(211.723,-293.922,293.922,211.723,165.553,311.105)"><stop offset="0" style="stop-color:#a74190;stop-opacity:1"/><stop offset="0" style="stop-color:#a74190;stop-opacity:1"/><stop offset="0.32" style="stop-color:#26317a;stop-opacity:1"/><stop offset="1" style="stop-color:#6fbb84;stop-opacity:1"/></linearGradient><linearGradient id="_Linear5" x1="0" y1="0" x2="1" y2="0" gradientUnits="userSpaceOnUse" gradientTransform="matrix(211.723,-293.922,293.922,211.723,127.031,283.356)"><stop offset="0" style="stop-color:#a74190;stop-opacity:1"/><stop offset="0" style="stop-color:#a74190;stop-opacity:1"/><stop offset="0.32" style="stop-color:#26317a;stop-opacity:1"/><stop offset="1" style="stop-color:#6fbb84;stop-opacity:1"/></linearGradient><linearGradient id="_Linear6" x1="0" y1="0" x2="1" y2="0" gradientUnits="userSpaceOnUse" gradientTransform="matrix(211.723,-293.922,293.922,211.723,259.204,378.565)"><stop offset="0" style="stop-color:#a74190;stop-opacity:1"/><stop offset="0" style="stop-color:#a74190;stop-opacity:1"/><stop offset="0.32" style="stop-color:#26317a;stop-opacity:1"/><stop offset="1" style="stop-color:#6fbb84;stop-opacity:1"/></linearGradient></defs></svg>