<?xml version="1.0" encoding="UTF-8" standalone="no"?>
<!DOCTYPE svg PUBLIC "-//W3C//DTD SVG 1.1//EN" "http://www.w3.org/Graphics/SVG/1.1/DTD/svg11.dtd">
<svg width="100%" height="100%" viewBox="0 0 5093 3440" version="1.1" xmlns="http://www.w3.org/2000/svg" xmlns:xlink="http://www.w3.org/1999/xlink" xml:space="preserve" xmlns:serif="http://www.serif.com/" style="fill-rule:evenodd;clip-rule:evenodd;stroke-linejoin:round;stroke-miterlimit:2;">
    <g transform="matrix(1,0,0,1,-2631.69,-7711.84)">
        <g transform="matrix(8.33333,0,0,8.33333,0,0)">
            <text x="434.688px" y="960.766px" style="font-family:'ArialMT', 'Arial', sans-serif;font-size:18px;fill:rgb(88,89,91);">Прив<tspan x="476.832px 487.333px 497.342px 505.61px 515.619px 525.03px " y="960.766px 960.766px 960.766px 960.766px 960.766px 960.766px ">лекает</tspan></text>
            <text x="449.034px" y="978.766px" style="font-family:'ArialMT', 'Arial', sans-serif;font-size:18px;fill:rgb(88,89,91);">в<tspan x="459.158px 469.66px 480.277px 493.213px 503.786px 514.288px 524.904px " y="978.766px 978.766px 978.766px 978.766px 978.766px 978.766px 978.766px ">нимание</tspan></text>
        </g>
        <g transform="matrix(8.33333,0,0,8.33333,0,0)">
            <text x="559.464px" y="1298.64px" style="font-family:'ArialMT', 'Arial', sans-serif;font-size:18px;fill:rgb(88,89,91);">Вы<tspan x="584.536px 590.77px 600.45px 611.017px " y="1298.64px 1298.64px 1298.64px 1298.64px ">годн</tspan>о</text>
            <text x="637.332px" y="1298.64px" style="font-family:'ArialMT', 'Arial', sans-serif;font-size:18px;fill:rgb(88,89,91);">вы<tspan x="659.961px 670.528px 680.005px 690.572px 700.384px 709.861px " y="1298.64px 1298.64px 1298.64px 1298.64px 1298.64px 1298.64px ">деляет</tspan></text>
            <text x="501.036px" y="1316.64px" style="font-family:'ArialMT', 'Arial', sans-serif;font-size:18px;fill:rgb(88,89,91);">к<tspan x="509.496px 519.89px 532.648px 542.778px 553.172px 563.496px 573.933px " y="1316.64px 1316.64px 1316.64px 1316.64px 1316.64px 1316.64px 1316.64px ">омпанию</tspan></text>
            <text x="594.582px" y="1316.64px" style="font-family:'ArialMT', 'Arial', sans-serif;font-size:18px;fill:rgb(88,89,91);">н<tspan x="604.906px " y="1316.64px ">а</tspan></text>
            <text x="619.062px" y="1316.64px" style="font-family:'ArialMT', 'Arial', sans-serif;font-size:18px;fill:rgb(88,89,91);">ф<tspan x="634.255px 644.648px 654.972px " y="1316.64px 1316.64px 1316.64px ">оне</tspan></text>
            <text x="666.474px" y="1316.64px" style="font-family:'ArialMT', 'Arial', sans-serif;font-size:18px;fill:rgb(88,89,91);">к<tspan x="674.934px 685.328px 695.652px 704.112px 713.293px 723.687px 734.08px 744.404px 752.829px 763.223px 773.168px " y="1316.64px 1316.64px 1316.64px 1316.64px 1316.64px 1316.64px 1316.64px 1316.64px 1316.64px 1316.64px 1316.64px ">онкурентов,</tspan></text>
            <text x="495.312px" y="1334.64px" style="font-family:'ArialMT', 'Arial', sans-serif;font-size:18px;fill:rgb(88,89,91);">п<tspan x="505.415px 515.385px 526.244px 537.102px 547.468px 557.834px 570.231px 580.641px 590.357px 600.723px 610.492px " y="1334.64px 1334.64px 1334.64px 1334.64px 1334.64px 1334.64px 1334.64px 1334.64px 1334.64px 1334.64px 1334.64px ">оддерживает</tspan></text>
            <text x="621.096px" y="1334.64px" style="font-family:'ArialMT', 'Arial', sans-serif;font-size:18px;fill:rgb(88,89,91);">п<tspan x="631.199px 641.363px 649.971px 660.381px 671.046px 681.456px 691.822px 702.118px 712.528px 722.895px 733.261px 742.977px 753.343px 763.639px 774.049px " y="1334.64px 1334.64px 1334.64px 1334.64px 1334.64px 1334.64px 1334.64px 1334.64px 1334.64px 1334.64px 1334.64px 1334.64px 1334.64px 1334.64px 1334.64px ">озиционирование</tspan></text>
        </g>
        <g transform="matrix(8.33333,0,0,8.33333,0,0)">
            <text x="314.484px" y="1152.74px" style="font-family:'ArialMT', 'Arial', sans-serif;font-size:18px;fill:rgb(88,89,91);">В<tspan x="326.687px 337.387px 347.639px 357.583px 367.193px " y="1152.74px 1152.74px 1152.74px 1152.74px 1152.74px ">лияет</tspan></text>
            <text x="378.24px" y="1152.74px" style="font-family:'ArialMT', 'Arial', sans-serif;font-size:18px;fill:rgb(88,89,91);">н<tspan x="388.377px " y="1152.74px ">а</tspan></text>
            <text x="402.72px" y="1152.74px" style="font-family:'ArialMT', 'Arial', sans-serif;font-size:18px;fill:rgb(88,89,91);">м<tspan x="415.292px 425.43px 435.637px 445.775px 456.027px " y="1152.74px 1152.74px 1152.74px 1152.74px 1152.74px ">нение</tspan></text>
            <text x="333.276px" y="1170.74px" style="font-family:'ArialMT', 'Arial', sans-serif;font-size:18px;fill:rgb(88,89,91);">п<tspan x="343.355px 353.302px 361.675px 372.018px 382.29px 392.931px 403.318px 413.66px 424.495px 434.205px 444.477px 457.746px " y="1170.74px 1170.74px 1170.74px 1170.74px 1170.74px 1170.74px 1170.74px 1170.74px 1170.74px 1170.74px 1170.74px 1170.74px ">отенциальных</tspan></text>
            <text x="371.85px" y="1188.74px" style="font-family:'ArialMT', 'Arial', sans-serif;font-size:18px;fill:rgb(88,89,91);">з<tspan x="380.571px 391.05px 399.789px 410.066px 418.19px 428.036px 438.559px 447.105px 457.584px " y="1188.74px 1188.74px 1188.74px 1188.74px 1188.74px 1188.74px 1188.74px 1188.74px 1188.74px ">аказчиков</tspan></text>
        </g>
        <g transform="matrix(8.33333,0,0,8.33333,0,0)">
            <text x="739.194px" y="946.024px" style="font-family:'ArialMT', 'Arial', sans-serif;font-size:18px;fill:rgb(88,89,91);">По<tspan x="762.033px 771.541px 784.424px 798.809px 808.766px 818.124px " y="946.024px 946.024px 946.024px 946.024px 946.024px 946.024px ">вышает</tspan></text>
            <text x="739.194px" y="964.024px" style="font-family:'ArialMT', 'Arial', sans-serif;font-size:18px;fill:rgb(88,89,91);">узна<tspan x="776.268px 785.596px 795.574px " y="964.024px 964.024px 964.024px ">вае</tspan>мос<tspan x="836.84px " y="964.024px ">т</tspan>ь</text>
            <text x="739.194px" y="982.024px" style="font-family:'ArialMT', 'Arial', sans-serif;font-size:18px;fill:rgb(88,89,91);">бр<tspan x="759.329px 769.246px 779.094px " y="982.024px 982.024px 982.024px ">енд</tspan>а</text>
        </g>
        <g transform="matrix(8.33333,0,0,8.33333,0,0)">
            <text x="804.516px" y="1152.74px" style="font-family:'ArialMT', 'Arial', sans-serif;font-size:18px;fill:rgb(88,89,91);">По<tspan x="827.059px 837.557px " y="1152.74px 1152.74px ">дд</tspan>ержив<tspan x="899.51px 909.516px 918.924px " y="1152.74px 1152.74px 1152.74px ">ает</tspan></text>
            <text x="804.516px" y="1170.74px" style="font-family:'ArialMT', 'Arial', sans-serif;font-size:18px;fill:rgb(88,89,91);">ло<tspan x="824.995px 834.623px 845.008px 854.267px 864.089px 873.981px 882.862px 890.988px " y="1170.74px 1170.74px 1170.74px 1170.74px 1170.74px 1170.74px 1170.74px 1170.74px ">яльность</tspan></text>
            <text x="804.516px" y="1188.74px" style="font-family:'ArialMT', 'Arial', sans-serif;font-size:18px;fill:rgb(88,89,91);">к<tspan x="812.999px 823.908px 834.368px 844.785px 855.131px 863.579px 873.996px " y="1188.74px 1188.74px 1188.74px 1188.74px 1188.74px 1188.74px 1188.74px ">лиентов</tspan></text>
        </g>
        <g transform="matrix(8.33333,0,0,8.33333,0,0)">
            <g transform="matrix(0.93248,0,0,1,39.015,0)">
                <text x="577.828px" y="1102.52px" style="font-family:'Arial-BoldMT', 'Arial', sans-serif;font-weight:700;font-size:25px;fill:rgb(34,57,131);">П<tspan x="596.23px 613.008px 632.557px 650.8px 669.287px 692.315px " y="1102.52px 1102.52px 1102.52px 1102.52px 1102.52px 1102.52px ">РОДАЖИ</tspan></text>
            </g>
            <g transform="matrix(0.93248,0,0,1,40.1892,0)">
                <text x="595.219px" y="1132.52px" style="font-family:'Arial-BoldMT', 'Arial', sans-serif;font-weight:700;font-size:25px;fill:rgb(34,57,131);">Р<tspan x="609.703px 627.142px 644.58px 659.858px " y="1132.52px 1132.52px 1132.52px 1132.52px ">АСТУ</tspan>Т</text>
            </g>
        </g>
        <g transform="matrix(8.33333,0,0,8.33333,0,0)">
            <g transform="matrix(183.6,-254.88,-254.88,-183.6,531.506,1251.66)">
                <path d="M1.032,0.333L0.649,0.242L0.429,0.553C0.427,0.556 0.422,0.558 0.418,0.557C0.414,0.556 0.411,0.552 0.41,0.548L0.381,0.162L0.012,0.025C0.008,0.024 0.005,0.02 0.005,0.015C0.005,0.011 0.008,0.007 0.012,0.006L0.404,-0.132L0.41,-0.547C0.41,-0.549 0.411,-0.551 0.412,-0.553C0.413,-0.554 0.415,-0.556 0.417,-0.557C0.421,-0.558 0.426,-0.557 0.428,-0.553L0.676,-0.247L1.05,-0.341C1.055,-0.342 1.059,-0.34 1.061,-0.337C1.064,-0.333 1.064,-0.328 1.061,-0.325L0.836,-0.018L1.044,0.317C1.046,0.321 1.046,0.325 1.043,0.329C1.041,0.332 1.036,0.334 1.032,0.333ZM0.646,0.217L1.006,0.302L0.811,-0.013C0.809,-0.016 0.809,-0.021 0.812,-0.024L1.02,-0.309L0.673,-0.222C0.669,-0.221 0.665,-0.222 0.662,-0.225L0.433,-0.51L0.427,-0.122C0.427,-0.12 0.426,-0.118 0.425,-0.116C0.424,-0.115 0.422,-0.113 0.42,-0.113L0.055,0.016L0.397,0.143C0.401,0.145 0.403,0.148 0.404,0.152L0.431,0.509L0.635,0.221C0.638,0.217 0.642,0.216 0.646,0.217Z" style="fill:url(#_Linear1);fill-rule:nonzero;"/>
            </g>
        </g>
        <g transform="matrix(8.33333,0,0,8.33333,0,0)">
            <g transform="matrix(183.6,-254.88,-254.88,-183.6,648.521,1335.95)">
                <path d="M1.004,0.064L0.701,0.14C0.698,0.141 0.693,0.14 0.691,0.137L0.482,-0.123C0.479,-0.126 0.479,-0.132 0.481,-0.135C0.482,-0.136 0.482,-0.137 0.483,-0.137L0.486,-0.139C0.488,-0.141 0.49,-0.142 0.493,-0.141C0.496,-0.141 0.498,-0.14 0.5,-0.138L0.704,0.115L0.999,0.041C1.004,0.04 1.01,0.043 1.011,0.049L1.012,0.052C1.013,0.055 1.012,0.057 1.011,0.06C1.011,0.06 1.01,0.06 1.01,0.06C1.009,0.062 1.007,0.064 1.004,0.064Z" style="fill:url(#_Linear2);fill-rule:nonzero;"/>
            </g>
        </g>
        <g transform="matrix(8.33333,0,0,8.33333,0,0)">
            <g transform="matrix(183.6,-254.88,-254.88,-183.6,605.637,1305.06)">
                <path d="M0.339,0.119L0.029,0.228C0.027,0.229 0.024,0.229 0.021,0.227C0.019,0.226 0.017,0.224 0.016,0.221L0.015,0.219C0.013,0.213 0.016,0.207 0.021,0.205L0.322,0.1L0.327,-0.219C0.327,-0.221 0.328,-0.223 0.329,-0.225C0.331,-0.227 0.334,-0.229 0.337,-0.229L0.34,-0.229C0.343,-0.229 0.346,-0.228 0.348,-0.226C0.35,-0.224 0.351,-0.221 0.351,-0.218L0.346,0.11C0.346,0.112 0.345,0.114 0.344,0.116C0.342,0.117 0.341,0.119 0.339,0.119Z" style="fill:url(#_Linear3);fill-rule:nonzero;"/>
            </g>
        </g>
        <g transform="matrix(8.33333,0,0,8.33333,0,0)">
            <g transform="matrix(183.6,-254.88,-254.88,-183.6,453.339,1195.35)">
                <path d="M0.335,0.216L0.332,0.216C0.329,0.217 0.326,0.216 0.324,0.214C0.322,0.212 0.321,0.21 0.32,0.207L0.298,-0.087L0.015,-0.192C0.013,-0.193 0.011,-0.195 0.01,-0.197C0.009,-0.2 0.008,-0.203 0.009,-0.205L0.01,-0.208C0.011,-0.209 0.011,-0.21 0.012,-0.211C0.014,-0.214 0.019,-0.216 0.024,-0.214L0.314,-0.106C0.318,-0.105 0.32,-0.101 0.321,-0.097L0.344,0.205C0.344,0.208 0.344,0.21 0.342,0.212C0.34,0.214 0.338,0.216 0.335,0.216Z" style="fill:url(#_Linear4);fill-rule:nonzero;"/>
            </g>
        </g>
        <g transform="matrix(8.33333,0,0,8.33333,0,0)">
            <g transform="matrix(183.6,-254.88,-254.88,-183.6,419.818,1171.21)">
                <path d="M0.985,-0.036C0.982,-0.034 0.98,-0.034 0.977,-0.034L0.676,-0.105L0.511,0.127C0.51,0.13 0.507,0.131 0.505,0.132C0.502,0.132 0.499,0.131 0.497,0.13L0.494,0.128C0.49,0.125 0.489,0.118 0.492,0.114L0.662,-0.127C0.664,-0.13 0.669,-0.132 0.673,-0.131L0.982,-0.057C0.988,-0.056 0.991,-0.051 0.99,-0.045L0.989,-0.042C0.989,-0.041 0.989,-0.04 0.988,-0.038C0.987,-0.037 0.986,-0.036 0.985,-0.036Z" style="fill:url(#_Linear5);fill-rule:nonzero;"/>
            </g>
        </g>
        <g transform="matrix(8.33333,0,0,8.33333,0,0)">
            <g transform="matrix(183.6,-254.88,-254.88,-183.6,534.322,1253.69)">
                <path d="M1.09,0.267L1.088,0.269C1.083,0.272 1.076,0.27 1.073,0.266L0.906,-0.005C0.904,-0.009 0.904,-0.013 0.906,-0.016L1.086,-0.266C1.09,-0.271 1.096,-0.272 1.101,-0.269L1.103,-0.267C1.108,-0.264 1.109,-0.257 1.106,-0.252L0.931,-0.01L1.094,0.253C1.095,0.255 1.095,0.258 1.095,0.261C1.094,0.262 1.094,0.264 1.093,0.265C1.092,0.266 1.091,0.267 1.09,0.267Z" style="fill:url(#_Linear6);fill-rule:nonzero;"/>
            </g>
        </g>
    </g>
    <defs>
        <linearGradient id="_Linear1" x1="0" y1="0" x2="1" y2="0" gradientUnits="userSpaceOnUse" gradientTransform="matrix(1,0,0,-1,0,7.36015e-05)"><stop offset="0" style="stop-color:rgb(167,65,144);stop-opacity:1"/><stop offset="0" style="stop-color:rgb(167,65,144);stop-opacity:1"/><stop offset="0.32" style="stop-color:rgb(38,49,122);stop-opacity:1"/><stop offset="1" style="stop-color:rgb(111,187,132);stop-opacity:1"/></linearGradient>
        <linearGradient id="_Linear2" x1="0" y1="0" x2="1" y2="0" gradientUnits="userSpaceOnUse" gradientTransform="matrix(1,0,0,-1,0,-0.000435205)"><stop offset="0" style="stop-color:rgb(167,65,144);stop-opacity:1"/><stop offset="0" style="stop-color:rgb(167,65,144);stop-opacity:1"/><stop offset="0.32" style="stop-color:rgb(38,49,122);stop-opacity:1"/><stop offset="1" style="stop-color:rgb(111,187,132);stop-opacity:1"/></linearGradient>
        <linearGradient id="_Linear3" x1="0" y1="0" x2="1" y2="0" gradientUnits="userSpaceOnUse" gradientTransform="matrix(1,0,0,-1,0,-0.000275108)"><stop offset="0" style="stop-color:rgb(167,65,144);stop-opacity:1"/><stop offset="0" style="stop-color:rgb(167,65,144);stop-opacity:1"/><stop offset="0.32" style="stop-color:rgb(38,49,122);stop-opacity:1"/><stop offset="1" style="stop-color:rgb(111,187,132);stop-opacity:1"/></linearGradient>
        <linearGradient id="_Linear4" x1="0" y1="0" x2="1" y2="0" gradientUnits="userSpaceOnUse" gradientTransform="matrix(1,0,0,-1,0,0.00082415)"><stop offset="0" style="stop-color:rgb(167,65,144);stop-opacity:1"/><stop offset="0" style="stop-color:rgb(167,65,144);stop-opacity:1"/><stop offset="0.32" style="stop-color:rgb(38,49,122);stop-opacity:1"/><stop offset="1" style="stop-color:rgb(111,187,132);stop-opacity:1"/></linearGradient>
        <linearGradient id="_Linear5" x1="0" y1="0" x2="1" y2="0" gradientUnits="userSpaceOnUse" gradientTransform="matrix(1,0,0,-1,0,0.000369754)"><stop offset="0" style="stop-color:rgb(167,65,144);stop-opacity:1"/><stop offset="0" style="stop-color:rgb(167,65,144);stop-opacity:1"/><stop offset="0.32" style="stop-color:rgb(38,49,122);stop-opacity:1"/><stop offset="1" style="stop-color:rgb(111,187,132);stop-opacity:1"/></linearGradient>
        <linearGradient id="_Linear6" x1="0" y1="0" x2="1" y2="0" gradientUnits="userSpaceOnUse" gradientTransform="matrix(1,0,0,-1,0,-6.9049e-05)"><stop offset="0" style="stop-color:rgb(167,65,144);stop-opacity:1"/><stop offset="0" style="stop-color:rgb(167,65,144);stop-opacity:1"/><stop offset="0.32" style="stop-color:rgb(38,49,122);stop-opacity:1"/><stop offset="1" style="stop-color:rgb(111,187,132);stop-opacity:1"/></linearGradient>
    </defs>
</svg>
