<?xml version="1.0" encoding="UTF-8" standalone="no"?><!DOCTYPE svg PUBLIC "-//W3C//DTD SVG 1.1//EN" "http://www.w3.org/Graphics/SVG/1.1/DTD/svg11.dtd"><svg width="100%" height="100%" viewBox="0 0 291 206" version="1.1" xmlns="http://www.w3.org/2000/svg" xmlns:xlink="http://www.w3.org/1999/xlink" xml:space="preserve" xmlns:serif="http://www.serif.com/" style="fill-rule:evenodd;clip-rule:evenodd;stroke-linejoin:round;stroke-miterlimit:2;"><g transform="matrix(1,0,0,1,-17.0407,-765.503)"><text x="20.369px" y="884.674px" style="font-family:'PTSerif-Regular', 'PT Serif', sans-serif;font-size:13px;fill:#58595b;">Привлекает</text><text x="30.73px" y="897.297px" style="font-family:'PTSerif-Regular', 'PT Serif', sans-serif;font-size:13px;fill:#58595b;">внимание</text></g><g transform="matrix(1,0,0,1,-17.0407,-765.503)"><text x="102.061px" y="943.317px" style="font-family:'PTSerif-Regular', 'PT Serif', sans-serif;font-size:13px;fill:#58595b;">Выгодно выделяет</text><text x="59.863px" y="955.94px" style="font-family:'PTSerif-Regular', 'PT Serif', sans-serif;font-size:13px;fill:#58595b;">компанию на фоне конкурентов,</text><text x="55.729px" y="968.563px" style="font-family:'PTSerif-Regular', 'PT Serif', sans-serif;font-size:13px;fill:#58595b;">поддерживает позиционирование</text></g><g transform="matrix(1,0,0,1,-17.0407,-765.503)"><text x="16.664px" y="774.681px" style="font-family:'PTSerif-Regular', 'PT Serif', sans-serif;font-size:13px;fill:#58595b;">Влияет на мнение</text><text x="30.236px" y="787.304px" style="font-family:'PTSerif-Regular', 'PT Serif', sans-serif;font-size:13px;fill:#58595b;">потенциальных</text><text x="58.095px" y="799.927px" style="font-family:'PTSerif-Regular', 'PT Serif', sans-serif;font-size:13px;fill:#58595b;">заказчиков</text></g><g transform="matrix(1,0,0,1,-17.0407,-765.503)"><text x="224.742px" y="876.692px" style="font-family:'PTSerif-Regular', 'PT Serif', sans-serif;font-size:13px;fill:#58595b;">Повышает</text><text x="224.742px" y="889.315px" style="font-family:'PTSerif-Regular', 'PT Serif', sans-serif;font-size:13px;fill:#58595b;">узнаваемость</text><text x="224.742px" y="901.938px" style="font-family:'PTSerif-Regular', 'PT Serif', sans-serif;font-size:13px;fill:#58595b;">бренда</text></g><g transform="matrix(1,0,0,1,-17.0407,-765.503)"><text x="196.389px" y="774.681px" style="font-family:'PTSerif-Regular', 'PT Serif', sans-serif;font-size:13px;fill:#58595b;">Поддерживает</text><text x="196.389px" y="787.304px" style="font-family:'PTSerif-Regular', 'PT Serif', sans-serif;font-size:13px;fill:#58595b;">лояльность</text><text x="196.389px" y="799.927px" style="font-family:'PTSerif-Regular', 'PT Serif', sans-serif;font-size:13px;fill:#58595b;">клиентов</text><g transform="matrix(0.932479,0,0,1,8.47222,0)"><text x="125.475px" y="847.927px" style="font-family:'PTSerif-Bold', 'PT Serif', sans-serif;font-weight:700;font-size:14px;fill:#223983;">ПР<tspan x="144.926px 155.122px 165.3px 175.326px " y="847.927px 847.927px 847.927px 847.927px ">ОДАЖ</tspan>И</text></g><g transform="matrix(0.932479,0,0,1,9.1298,0)"><text x="135.213px" y="864.727px" style="font-family:'PTSerif-Bold', 'PT Serif', sans-serif;font-weight:700;font-size:14px;fill:#223983;">Р<tspan x="142.885px 152.328px 161.054px " y="864.727px 864.727px 864.727px ">АСТ</tspan>УТ</text></g></g><path d="M141.574,6.598l-21.537,52.055l-54.446,-0.441c-0.618,0 -1.171,0.384 -1.385,0.963c-0.216,0.584 -0.044,1.241 0.431,1.642l42.226,35.654l-14.887,54.288c-0.165,0.6 0.065,1.238 0.573,1.597c0.508,0.36 1.186,0.362 1.696,0.006l48.694,-33.953l48.694,33.953c0.254,0.176 0.55,0.265 0.846,0.265c0.299,0 0.597,-0.09 0.852,-0.271c0.508,-0.359 0.737,-0.997 0.572,-1.597l-14.886,-54.288l42.223,-35.653c0.476,-0.402 0.649,-1.058 0.434,-1.642c-0.217,-0.584 -0.777,-0.979 -1.399,-0.964l-54.433,0.441l-21.537,-52.055c-0.228,-0.553 -0.768,-0.912 -1.366,-0.912c-0.598,0 -1.137,0.359 -1.365,0.912Zm-18.895,54.547l20.26,-48.972l20.261,48.972c0.229,0.552 0.768,0.913 1.365,0.913l50.433,-0.41l-39.107,33.02c-0.439,0.372 -0.623,0.965 -0.47,1.52l13.81,50.361l-45.318,-31.599l-0.126,-0.087c-0.254,-0.179 -0.551,-0.267 -0.848,-0.267c-0.295,0 -0.59,0.087 -0.844,0.265l-45.447,31.688l13.811,-50.362c0.151,-0.555 -0.033,-1.147 -0.472,-1.519l-39.107,-33.021l50.268,0.408l0.178,0.003c0.619,0 1.126,-0.364 1.353,-0.913Z" style="fill:url(#_Linear1);fill-rule:nonzero;"/><path d="M223.658,70.666l-34.126,28.815c-0.44,0.372 -0.624,0.965 -0.472,1.52l12.605,45.966c0.18,0.656 0.775,1.088 1.424,1.088c0.128,0 0.26,-0.018 0.39,-0.053l0.423,-0.115c0.377,-0.104 0.699,-0.352 0.894,-0.694c0.194,-0.341 0.246,-0.745 0.142,-1.122l-12.282,-44.786l33.19,-28.027c0.623,-0.527 0.702,-1.457 0.176,-2.082l-0.282,-0.334c-0.253,-0.299 -0.615,-0.486 -1.004,-0.52c-0.04,-0.003 -0.081,-0.005 -0.121,-0.005c-0.346,0 -0.689,0.122 -0.957,0.349Z" style="fill:url(#_Linear2);fill-rule:nonzero;"/><path d="M142.111,129.258l-38.467,26.847c-0.321,0.224 -0.541,0.567 -0.609,0.954c-0.069,0.384 0.019,0.782 0.243,1.104l0.251,0.359c0.468,0.67 1.389,0.833 2.058,0.365l37.371,-26.082l37.407,26.082c0.257,0.18 0.552,0.267 0.844,0.267c0.466,0 0.924,-0.222 1.212,-0.632l0.251,-0.359c0.225,-0.322 0.311,-0.72 0.243,-1.105c-0.069,-0.386 -0.288,-0.729 -0.61,-0.953l-38.381,-26.763l-0.126,-0.086c-0.254,-0.176 -0.548,-0.264 -0.842,-0.264c-0.295,0 -0.591,0.089 -0.845,0.266Z" style="fill:url(#_Linear3);fill-rule:nonzero;"/><path d="M61.181,71.689l-0.282,0.335c-0.255,0.299 -0.378,0.686 -0.345,1.078c0.032,0.391 0.22,0.752 0.519,1.005l32.185,27.178l-11.395,41.556c-0.104,0.378 -0.053,0.782 0.141,1.123c0.194,0.34 0.516,0.59 0.895,0.693l0.423,0.115c0.13,0.036 0.26,0.052 0.389,0.052c0.65,0 1.244,-0.43 1.424,-1.087l11.72,-42.736c0.152,-0.555 -0.032,-1.148 -0.472,-1.52l-33.12,-27.966c-0.278,-0.235 -0.617,-0.35 -0.954,-0.35c-0.419,0 -0.836,0.178 -1.128,0.524Z" style="fill:url(#_Linear4);fill-rule:nonzero;"/><path d="M129.504,6.287c-0.363,0.15 -0.651,0.438 -0.801,0.799l-16.906,40.866l-40.793,-0.332c-0.388,-0.007 -0.769,0.15 -1.049,0.424c-0.279,0.276 -0.437,0.65 -0.44,1.042l-0.004,0.438c-0.006,0.816 0.65,1.482 1.465,1.49l42.097,0.341c0.598,0 1.137,-0.36 1.365,-0.912l17.401,-42.058c0.311,-0.753 -0.046,-1.617 -0.799,-1.93l-0.406,-0.168c-0.181,-0.075 -0.373,-0.112 -0.565,-0.112c-0.192,0 -0.384,0.037 -0.565,0.112Z" style="fill:url(#_Linear5);fill-rule:nonzero;"/><path d="M155.281,6.287l-0.405,0.168c-0.754,0.313 -1.112,1.177 -0.801,1.93l17.401,42.056c0.228,0.553 0.767,0.913 1.366,0.913l44.046,0c0.816,0 1.477,-0.661 1.477,-1.477l0,-0.438c0,-0.816 -0.661,-1.478 -1.477,-1.478l-42.766,0l-16.911,-40.875c-0.15,-0.361 -0.438,-0.649 -0.799,-0.799c-0.181,-0.075 -0.373,-0.112 -0.566,-0.112c-0.192,0 -0.384,0.037 -0.565,0.112Z" style="fill:url(#_Linear6);fill-rule:nonzero;"/><defs><linearGradient id="_Linear1" x1="0" y1="0" x2="1" y2="0" gradientUnits="userSpaceOnUse" gradientTransform="matrix(82.08,-105.12,105.12,82.08,91.8795,153.005)"><stop offset="0" style="stop-color:#a74190;stop-opacity:1"/><stop offset="0" style="stop-color:#a74190;stop-opacity:1"/><stop offset="0.32" style="stop-color:#26317a;stop-opacity:1"/><stop offset="1" style="stop-color:#6fbb84;stop-opacity:1"/></linearGradient><linearGradient id="_Linear2" x1="0" y1="0" x2="1" y2="0" gradientUnits="userSpaceOnUse" gradientTransform="matrix(82.08,-105.12,105.12,82.08,142.89,192.834)"><stop offset="0" style="stop-color:#a74190;stop-opacity:1"/><stop offset="0" style="stop-color:#a74190;stop-opacity:1"/><stop offset="0.32" style="stop-color:#26317a;stop-opacity:1"/><stop offset="1" style="stop-color:#6fbb84;stop-opacity:1"/></linearGradient><linearGradient id="_Linear3" x1="0" y1="0" x2="1" y2="0" gradientUnits="userSpaceOnUse" gradientTransform="matrix(82.08,-105.12,105.12,82.08,125.723,179.431)"><stop offset="0" style="stop-color:#a74190;stop-opacity:1"/><stop offset="0" style="stop-color:#a74190;stop-opacity:1"/><stop offset="0.32" style="stop-color:#26317a;stop-opacity:1"/><stop offset="1" style="stop-color:#6fbb84;stop-opacity:1"/></linearGradient><linearGradient id="_Linear4" x1="0" y1="0" x2="1" y2="0" gradientUnits="userSpaceOnUse" gradientTransform="matrix(82.08,-105.12,105.12,82.08,58.3175,126.798)"><stop offset="0" style="stop-color:#a74190;stop-opacity:1"/><stop offset="0" style="stop-color:#a74190;stop-opacity:1"/><stop offset="0.32" style="stop-color:#26317a;stop-opacity:1"/><stop offset="1" style="stop-color:#6fbb84;stop-opacity:1"/></linearGradient><linearGradient id="_Linear5" x1="0" y1="0" x2="1" y2="0" gradientUnits="userSpaceOnUse" gradientTransform="matrix(82.08,-105.12,105.12,82.08,41.7611,113.871)"><stop offset="0" style="stop-color:#a74190;stop-opacity:1"/><stop offset="0" style="stop-color:#a74190;stop-opacity:1"/><stop offset="0.32" style="stop-color:#26317a;stop-opacity:1"/><stop offset="1" style="stop-color:#6fbb84;stop-opacity:1"/></linearGradient><linearGradient id="_Linear6" x1="0" y1="0" x2="1" y2="0" gradientUnits="userSpaceOnUse" gradientTransform="matrix(82.08,-105.12,105.12,82.08,90.228,151.715)"><stop offset="0" style="stop-color:#a74190;stop-opacity:1"/><stop offset="0" style="stop-color:#a74190;stop-opacity:1"/><stop offset="0.32" style="stop-color:#26317a;stop-opacity:1"/><stop offset="1" style="stop-color:#6fbb84;stop-opacity:1"/></linearGradient></defs></svg>