<svg xmlns="http://www.w3.org/2000/svg" viewBox="0 0 609.5 414.12"><title>Ресурс 1</title><g id="Слой_2" data-name="Слой 2"><g id="Layer_1" data-name="Layer 1"><text transform="translate(116.45 35.34)" style="font-size:18px;fill:#58595b;font-family:ProximaNova-Regular, Proxima Nova">Привлекает<tspan x="18.29" y="18">внимание</tspan></text><text transform="translate(241.04 373.22)" style="font-size:18px;fill:#58595b;font-family:ProximaNova-Regular, Proxima Nova">Выгодно выделяет <tspan x="-54.9" y="18">компанию на фоне конкурентов,</tspan><tspan x="-61.33" y="36">поддерживает позиционирование</tspan></text><text transform="translate(0 227.32)" style="font-size:18px;fill:#58595b;font-family:ProximaNova-Regular, Proxima Nova">Влияет на мнение<tspan x="20.88" y="18">потенциальных</tspan><tspan x="52.85" y="36">заказчиков</tspan></text><text transform="translate(420.87 20.61)" style="font-size:18px;fill:#58595b;font-family:ProximaNova-Regular, Proxima Nova">Повышает<tspan x="0" y="18">узнаваемость</tspan><tspan x="0" y="36">бренда</tspan></text><text transform="translate(486.2 227.32)" style="font-size:18px;fill:#58595b;font-family:ProximaNova-Regular, Proxima Nova">Поддерживает<tspan x="0" y="18">лояльность</tspan><tspan x="0" y="36">клиентов</tspan></text><text transform="translate(254.74 177.1) scale(0.93 1)" style="font-size:25px;fill:#223983;font-family:PalatinoLinotype-Bold, Palatino Linotype;font-weight:700">ПРОДАЖИ<tspan x="20.84" y="30">РАСТУТ</tspan></text><path d="M400.17,199.39l92.74-78.3a3.27,3.27,0,0,0,.95-3.61,3.23,3.23,0,0,0-3.07-2.12l-119.55,1L323.93,2a3.24,3.24,0,0,0-6,0l-47.3,114.33-119.56-1h0a3.25,3.25,0,0,0-2.1,5.73l92.74,78.3L209,318.62a3.25,3.25,0,0,0,5,3.52l107-74.57,106.94,74.57a3.25,3.25,0,0,0,5-3.52ZM323.07,240l-.27-.2a3.27,3.27,0,0,0-3.72,0l-99.81,69.6,30.25-110.32.08-.29a3.25,3.25,0,0,0-1-3.34l-85.89-72.52,110.41.9h.32a3.18,3.18,0,0,0,3-2l44.5-107.56,44.49,107.56a3.26,3.26,0,0,0,3,2h0l110.74-.9-85.89,72.52a3.25,3.25,0,0,0-1,3.34l30.34,110.61Z" style="fill:#223983"/><path d="M503.41,143.84l-.62-.74a3.23,3.23,0,0,0-4.57-.38l-75,63.28a3.25,3.25,0,0,0-1,3.34l27.68,101a3.27,3.27,0,0,0,4,2.27l.93-.25a3.26,3.26,0,0,0,2-1.53,3.21,3.21,0,0,0,.31-2.46l-27-98.37L503,148.41A3.25,3.25,0,0,0,503.41,143.84Z" style="fill:#223983"/><path d="M407.4,330.36l-84.3-58.77-.28-.2a3.25,3.25,0,0,0-3.7,0l-84.49,59a3.24,3.24,0,0,0-1.33,2.09,3.2,3.2,0,0,0,.53,2.42l.55.79a3.25,3.25,0,0,0,4.52.81L321,279.19l82.15,57.29a3.29,3.29,0,0,0,1.86.58,3.23,3.23,0,0,0,2.66-1.39l.55-.79a3.25,3.25,0,0,0,.53-2.42A3.28,3.28,0,0,0,407.4,330.36Z" style="fill:#223983"/><path d="M218.68,206l-72.74-61.42a3.25,3.25,0,0,0-4.57.38l-.62.74a3.23,3.23,0,0,0,.38,4.57L211.82,210l-25,91.27a3.32,3.32,0,0,0,.31,2.47,3.27,3.27,0,0,0,2,1.52l.93.26a3.54,3.54,0,0,0,.85.11A3.24,3.24,0,0,0,194,303.2l25.74-93.86A3.23,3.23,0,0,0,218.68,206Z" style="fill:#223983"/><path d="M162.88,99.55l92.44.75h0a3.25,3.25,0,0,0,3-2L296.56,5.93a3.25,3.25,0,0,0-1.76-4.24l-.89-.37a3.25,3.25,0,0,0-4.24,1.76L252.54,92.83l-89.6-.73a3.24,3.24,0,0,0-3.27,3.22v1A3.23,3.23,0,0,0,162.88,99.55Z" style="fill:#223983"/><path d="M383.49,98l.12.3a3.24,3.24,0,0,0,3,2h96.74a3.24,3.24,0,0,0,3.24-3.24v-1a3.24,3.24,0,0,0-3.24-3.24H389.42L352.28,3.08A3.25,3.25,0,0,0,348,1.32l-.89.37a3.26,3.26,0,0,0-1.76,4.24Z" style="fill:#223983"/></g></g></svg>