<?xml version="1.0" encoding="UTF-8" standalone="no"?><!DOCTYPE svg PUBLIC "-//W3C//DTD SVG 1.1//EN" "http://www.w3.org/Graphics/SVG/1.1/DTD/svg11.dtd"><svg width="100%" height="100%" viewBox="0 0 445 301" version="1.1" xmlns="http://www.w3.org/2000/svg" xmlns:xlink="http://www.w3.org/1999/xlink" xml:space="preserve" xmlns:serif="http://www.serif.com/" style="fill-rule:evenodd;clip-rule:evenodd;stroke-linejoin:round;stroke-miterlimit:2;"><g transform="matrix(1,0,0,1,-149.939,-561.284)"><text x="242.395px" y="580.259px" style="font-family:'PTSerif-Regular', 'PT Serif', sans-serif;font-size:14px;fill:#58595b;">Привлекает</text><text x="253.553px" y="594.359px" style="font-family:'PTSerif-Regular', 'PT Serif', sans-serif;font-size:14px;fill:#58595b;">внимание</text></g><g transform="matrix(1,0,0,1,-149.939,-561.284)"><text x="321.355px" y="831.279px" style="font-family:'PTSerif-Regular', 'PT Serif', sans-serif;font-size:14px;fill:#58595b;">Выгодно выделяет</text><text x="275.911px" y="845.379px" style="font-family:'PTSerif-Regular', 'PT Serif', sans-serif;font-size:14px;fill:#58595b;">компанию на фоне конкурентов,</text><text x="271.459px" y="859.479px" style="font-family:'PTSerif-Regular', 'PT Serif', sans-serif;font-size:14px;fill:#58595b;">поддерживает позиционирование</text></g><g transform="matrix(1,0,0,1,-149.939,-561.284)"><text x="149.533px" y="729.905px" style="font-family:'PTSerif-Regular', 'PT Serif', sans-serif;font-size:14px;fill:#58595b;">Влияет на мнение</text><text x="164.149px" y="744.005px" style="font-family:'PTSerif-Regular', 'PT Serif', sans-serif;font-size:14px;fill:#58595b;">потенциальных</text><text x="194.151px" y="758.105px" style="font-family:'PTSerif-Regular', 'PT Serif', sans-serif;font-size:14px;fill:#58595b;">заказчиков</text></g><g transform="matrix(1,0,0,1,-149.939,-561.284)"><text x="447.425px" y="573.175px" style="font-family:'PTSerif-Regular', 'PT Serif', sans-serif;font-size:14px;fill:#58595b;">Повышает</text><text x="447.425px" y="587.275px" style="font-family:'PTSerif-Regular', 'PT Serif', sans-serif;font-size:14px;fill:#58595b;">узнаваемость</text><text x="447.425px" y="601.375px" style="font-family:'PTSerif-Regular', 'PT Serif', sans-serif;font-size:14px;fill:#58595b;">бренда</text></g><g transform="matrix(1,0,0,1,-149.939,-561.284)"><text x="498.693px" y="729.877px" style="font-family:'PTSerif-Regular', 'PT Serif', sans-serif;font-size:14px;fill:#58595b;">Поддерживает</text><text x="498.693px" y="743.977px" style="font-family:'PTSerif-Regular', 'PT Serif', sans-serif;font-size:14px;fill:#58595b;">лояльность</text><text x="498.693px" y="758.077px" style="font-family:'PTSerif-Regular', 'PT Serif', sans-serif;font-size:14px;fill:#58595b;">клиентов</text></g><g transform="matrix(1,0,0,1,-149.939,-561.284)"><g transform="matrix(0.932478,0,0,1,22.9075,0)"><text x="339.259px" y="687.712px" style="font-family:'PTSerif-Bold', 'PT Serif', sans-serif;font-weight:700;font-size:18px;fill:#223983;">ПР<tspan x="364.269px 377.378px 390.464px 403.354px " y="687.712px 687.712px 687.712px 687.712px ">ОДАЖ</tspan>И</text></g><g transform="matrix(0.932478,0,0,1,23.753,0)"><text x="351.781px" y="709.312px" style="font-family:'PTSerif-Bold', 'PT Serif', sans-serif;font-weight:700;font-size:18px;fill:#223983;">Р<tspan x="361.644px 373.785px 385.004px " y="709.312px 709.312px 709.312px ">АСТ</tspan>УТ</text></g></g><path d="M231.339,1.459l-34.443,83.249l-87.071,-0.706c-0.988,0 -1.873,0.615 -2.216,1.542c-0.345,0.933 -0.07,1.982 0.691,2.625l67.528,57.018l-23.808,86.819c-0.264,0.96 0.103,1.981 0.915,2.554c0.813,0.575 1.897,0.578 2.714,0.008l77.873,-54.298l77.875,54.298c0.405,0.284 0.878,0.425 1.35,0.425c0.477,0 0.954,-0.144 1.363,-0.433c0.813,-0.573 1.179,-1.594 0.915,-2.554l-23.807,-86.819l67.527,-57.017c0.759,-0.643 1.036,-1.692 0.691,-2.625c-0.346,-0.936 -1.24,-1.566 -2.235,-1.543l-87.051,0.706l-34.443,-83.249c-0.367,-0.883 -1.228,-1.459 -2.185,-1.459c-0.956,0 -1.817,0.576 -2.183,1.459Zm-30.218,87.235l32.401,-78.318l32.402,78.318c0.366,0.882 1.228,1.458 2.183,1.458l80.654,-0.655l-62.539,52.808c-0.704,0.595 -0.998,1.541 -0.755,2.43l22.086,80.54l-72.474,-50.535l-0.2,-0.141c-0.407,-0.284 -0.882,-0.427 -1.357,-0.427c-0.472,0 -0.944,0.141 -1.351,0.425l-72.679,50.678l22.086,-80.542c0.243,-0.887 -0.052,-1.834 -0.754,-2.428l-62.54,-52.809l80.676,0.657c0.99,0 1.798,-0.581 2.161,-1.459Z" style="fill:url(#_Linear1);fill-rule:nonzero;"/><path d="M362.609,103.919l-54.575,46.083c-0.704,0.594 -0.998,1.542 -0.754,2.429l20.158,73.512c0.288,1.048 1.239,1.737 2.277,1.737c0.205,0 0.415,-0.026 0.624,-0.083l0.677,-0.185c0.604,-0.164 1.118,-0.563 1.43,-1.108c0.309,-0.545 0.391,-1.191 0.226,-1.796l-19.642,-71.623l53.079,-44.821c0.996,-0.841 1.123,-2.332 0.282,-3.328l-0.452,-0.535c-0.404,-0.479 -0.982,-0.778 -1.606,-0.832c-0.064,-0.005 -0.127,-0.008 -0.191,-0.008c-0.554,0 -1.102,0.196 -1.533,0.558Z" style="fill:url(#_Linear2);fill-rule:nonzero;"/><path d="M232.198,197.621l-61.517,42.935c-0.514,0.358 -0.865,0.906 -0.974,1.524c-0.11,0.616 0.03,1.252 0.389,1.765l0.401,0.576c0.748,1.071 2.22,1.332 3.289,0.584l59.765,-41.712l59.824,41.713c0.411,0.288 0.882,0.425 1.349,0.425c0.745,0 1.48,-0.353 1.939,-1.01l0.401,-0.576c0.359,-0.513 0.499,-1.149 0.389,-1.767c-0.11,-0.616 -0.461,-1.164 -0.975,-1.523l-61.582,-42.939c-0.405,-0.28 -0.875,-0.42 -1.345,-0.42c-0.474,0 -0.947,0.142 -1.353,0.425Z" style="fill:url(#_Linear3);fill-rule:nonzero;"/><path d="M102.773,105.555l-0.453,0.535c-0.406,0.479 -0.604,1.099 -0.551,1.724c0.053,0.625 0.351,1.203 0.83,1.608l51.472,43.463l-18.225,66.458c-0.165,0.605 -0.084,1.251 0.226,1.795c0.311,0.546 0.826,0.944 1.431,1.109l0.677,0.185c0.209,0.056 0.416,0.083 0.623,0.083c1.037,0 1.99,-0.689 2.278,-1.737l18.741,-68.347c0.244,-0.887 -0.05,-1.835 -0.753,-2.429l-52.968,-44.725c-0.444,-0.375 -0.986,-0.559 -1.525,-0.559c-0.67,0 -1.336,0.285 -1.803,0.837Z" style="fill:url(#_Linear4);fill-rule:nonzero;"/><path d="M212.035,0.963c-0.579,0.241 -1.039,0.701 -1.279,1.279l-27.038,65.352l-65.236,-0.53c-0.62,-0.011 -1.231,0.239 -1.677,0.678c-0.448,0.44 -0.701,1.039 -0.706,1.665l-0.005,0.701c-0.01,1.306 1.039,2.37 2.342,2.383l67.323,0.546c0.955,0 1.817,-0.576 2.184,-1.459l27.828,-67.26c0.497,-1.205 -0.074,-2.587 -1.279,-3.086l-0.648,-0.269c-0.29,-0.12 -0.597,-0.18 -0.905,-0.18c-0.307,0 -0.615,0.06 -0.904,0.18Z" style="fill:url(#_Linear5);fill-rule:nonzero;"/><path d="M253.259,0.963l-0.648,0.269c-1.205,0.499 -1.777,1.881 -1.279,3.086l27.827,67.257c0.365,0.883 1.226,1.46 2.184,1.46l70.44,0c1.305,0 2.363,-1.057 2.363,-2.362l0,-0.701c0,-1.306 -1.058,-2.364 -2.363,-2.364l-68.393,0l-27.043,-65.366c-0.24,-0.578 -0.701,-1.038 -1.28,-1.279c-0.29,-0.12 -0.597,-0.18 -0.904,-0.18c-0.307,0 -0.614,0.06 -0.904,0.18Z" style="fill:url(#_Linear6);fill-rule:nonzero;"/><defs><linearGradient id="_Linear1" x1="0" y1="0" x2="1" y2="0" gradientUnits="userSpaceOnUse" gradientTransform="matrix(133.688,-185.591,185.591,133.688,155.068,237.541)"><stop offset="0" style="stop-color:#a74190;stop-opacity:1"/><stop offset="0" style="stop-color:#a74190;stop-opacity:1"/><stop offset="0.32" style="stop-color:#26317a;stop-opacity:1"/><stop offset="1" style="stop-color:#6fbb84;stop-opacity:1"/></linearGradient><linearGradient id="_Linear2" x1="0" y1="0" x2="1" y2="0" gradientUnits="userSpaceOnUse" gradientTransform="matrix(133.688,-185.591,185.591,133.688,240.367,298.985)"><stop offset="0" style="stop-color:#a74190;stop-opacity:1"/><stop offset="0" style="stop-color:#a74190;stop-opacity:1"/><stop offset="0.32" style="stop-color:#26317a;stop-opacity:1"/><stop offset="1" style="stop-color:#6fbb84;stop-opacity:1"/></linearGradient><linearGradient id="_Linear3" x1="0" y1="0" x2="1" y2="0" gradientUnits="userSpaceOnUse" gradientTransform="matrix(133.688,-185.591,185.591,133.688,209.111,276.47)"><stop offset="0" style="stop-color:#a74190;stop-opacity:1"/><stop offset="0" style="stop-color:#a74190;stop-opacity:1"/><stop offset="0.32" style="stop-color:#26317a;stop-opacity:1"/><stop offset="1" style="stop-color:#6fbb84;stop-opacity:1"/></linearGradient><linearGradient id="_Linear4" x1="0" y1="0" x2="1" y2="0" gradientUnits="userSpaceOnUse" gradientTransform="matrix(133.688,-185.591,185.591,133.688,98.0115,196.441)"><stop offset="0" style="stop-color:#a74190;stop-opacity:1"/><stop offset="0" style="stop-color:#a74190;stop-opacity:1"/><stop offset="0.32" style="stop-color:#26317a;stop-opacity:1"/><stop offset="1" style="stop-color:#6fbb84;stop-opacity:1"/></linearGradient><linearGradient id="_Linear5" x1="0" y1="0" x2="1" y2="0" gradientUnits="userSpaceOnUse" gradientTransform="matrix(133.688,-185.591,185.591,133.688,73.6879,178.92)"><stop offset="0" style="stop-color:#a74190;stop-opacity:1"/><stop offset="0" style="stop-color:#a74190;stop-opacity:1"/><stop offset="0.32" style="stop-color:#26317a;stop-opacity:1"/><stop offset="1" style="stop-color:#6fbb84;stop-opacity:1"/></linearGradient><linearGradient id="_Linear6" x1="0" y1="0" x2="1" y2="0" gradientUnits="userSpaceOnUse" gradientTransform="matrix(133.688,-185.591,185.591,133.688,157.145,239.037)"><stop offset="0" style="stop-color:#a74190;stop-opacity:1"/><stop offset="0" style="stop-color:#a74190;stop-opacity:1"/><stop offset="0.32" style="stop-color:#26317a;stop-opacity:1"/><stop offset="1" style="stop-color:#6fbb84;stop-opacity:1"/></linearGradient></defs></svg>