<?xml version="1.0" encoding="UTF-8" standalone="no"?>
<!DOCTYPE svg PUBLIC "-//W3C//DTD SVG 1.1//EN" "http://www.w3.org/Graphics/SVG/1.1/DTD/svg11.dtd">
<svg width="100%" height="100%" viewBox="0 0 157 167" version="1.1" xmlns="http://www.w3.org/2000/svg" xmlns:xlink="http://www.w3.org/1999/xlink" xml:space="preserve" xmlns:serif="http://www.serif.com/" style="fill-rule:evenodd;clip-rule:evenodd;stroke-linejoin:round;stroke-miterlimit:2;">
    <g transform="matrix(1,0,0,1,-583.33,-4379.01)">
        <g transform="matrix(4.16667,0,0,4.16667,0,0)">
            <g transform="matrix(37.5663,0,0,-37.5663,140,1070.96)">
                <path d="M0.233,0.531C0.209,0.527 0.188,0.516 0.166,0.497L0.154,0.487C0.149,0.482 0.143,0.477 0.137,0.472C0.115,0.455 0.097,0.437 0.08,0.418C0.059,0.392 0.042,0.364 0.029,0.333C0.013,0.296 0.004,0.256 0.001,0.213C-0.001,0.188 0,0.162 0.004,0.134C0.007,0.108 0.013,0.08 0.022,0.053C0.035,0.009 0.054,-0.034 0.08,-0.08C0.098,-0.111 0.118,-0.142 0.142,-0.175C0.164,-0.205 0.188,-0.234 0.215,-0.265C0.244,-0.298 0.272,-0.327 0.301,-0.354C0.329,-0.38 0.356,-0.403 0.384,-0.423C0.435,-0.461 0.484,-0.488 0.535,-0.506C0.583,-0.524 0.629,-0.532 0.678,-0.532L0.678,-0.532C0.704,-0.532 0.728,-0.53 0.751,-0.525C0.786,-0.518 0.819,-0.505 0.85,-0.488C0.873,-0.475 0.894,-0.459 0.914,-0.442L0.948,-0.41C0.956,-0.403 0.965,-0.395 0.973,-0.386C1,-0.353 1.007,-0.312 0.993,-0.272C0.985,-0.25 0.972,-0.23 0.953,-0.211C0.942,-0.199 0.93,-0.187 0.918,-0.177C0.897,-0.159 0.878,-0.143 0.86,-0.128C0.839,-0.111 0.816,-0.097 0.793,-0.088C0.768,-0.078 0.745,-0.075 0.722,-0.077C0.695,-0.079 0.671,-0.089 0.649,-0.105C0.638,-0.113 0.628,-0.122 0.616,-0.133C0.608,-0.14 0.6,-0.147 0.591,-0.155L0.583,-0.164C0.58,-0.167 0.577,-0.17 0.574,-0.172C0.571,-0.175 0.57,-0.175 0.567,-0.175C0.563,-0.176 0.555,-0.174 0.541,-0.167C0.518,-0.154 0.496,-0.135 0.48,-0.12C0.459,-0.1 0.437,-0.076 0.414,-0.048C0.39,-0.019 0.374,0.004 0.361,0.027C0.351,0.045 0.345,0.059 0.343,0.072C0.342,0.077 0.342,0.081 0.343,0.085C0.343,0.086 0.344,0.089 0.35,0.094C0.354,0.097 0.357,0.099 0.361,0.102C0.371,0.109 0.381,0.116 0.391,0.125C0.394,0.129 0.398,0.132 0.403,0.136C0.411,0.144 0.419,0.151 0.427,0.159C0.455,0.189 0.468,0.228 0.464,0.271C0.462,0.292 0.456,0.312 0.446,0.336C0.438,0.354 0.428,0.371 0.415,0.391L0.404,0.409C0.392,0.428 0.38,0.447 0.366,0.465C0.353,0.482 0.334,0.502 0.308,0.517C0.29,0.527 0.27,0.532 0.251,0.532C0.245,0.532 0.239,0.532 0.233,0.531ZM0.573,-0.402C0.532,-0.387 0.492,-0.365 0.449,-0.334C0.425,-0.316 0.401,-0.296 0.376,-0.273C0.351,-0.249 0.325,-0.222 0.298,-0.192C0.273,-0.163 0.251,-0.137 0.231,-0.109C0.21,-0.08 0.192,-0.053 0.176,-0.025C0.155,0.013 0.139,0.05 0.127,0.086C0.121,0.107 0.116,0.128 0.114,0.148C0.111,0.169 0.11,0.188 0.111,0.206C0.113,0.236 0.12,0.264 0.131,0.29C0.14,0.311 0.151,0.33 0.166,0.347C0.176,0.36 0.189,0.373 0.205,0.384C0.213,0.391 0.221,0.398 0.231,0.407L0.238,0.413C0.244,0.418 0.248,0.421 0.251,0.422L0.254,0.42C0.263,0.415 0.272,0.405 0.279,0.396C0.29,0.383 0.3,0.366 0.31,0.35L0.322,0.331C0.332,0.316 0.339,0.303 0.344,0.291C0.35,0.279 0.353,0.269 0.354,0.26C0.355,0.246 0.351,0.24 0.346,0.235C0.341,0.229 0.335,0.224 0.329,0.219C0.324,0.215 0.319,0.21 0.314,0.205C0.309,0.201 0.303,0.197 0.296,0.192C0.292,0.188 0.287,0.185 0.282,0.181C0.258,0.163 0.243,0.14 0.236,0.113C0.23,0.094 0.23,0.074 0.234,0.052C0.238,0.026 0.248,0.002 0.264,-0.027C0.28,-0.056 0.3,-0.084 0.329,-0.119C0.355,-0.15 0.379,-0.177 0.404,-0.201C0.425,-0.22 0.454,-0.246 0.489,-0.265C0.516,-0.279 0.541,-0.286 0.567,-0.286C0.597,-0.285 0.624,-0.275 0.646,-0.257C0.651,-0.252 0.657,-0.247 0.662,-0.241L0.669,-0.235C0.675,-0.228 0.682,-0.222 0.691,-0.214C0.699,-0.207 0.707,-0.2 0.716,-0.193C0.721,-0.19 0.725,-0.188 0.731,-0.187C0.737,-0.187 0.744,-0.188 0.752,-0.191C0.765,-0.196 0.778,-0.204 0.791,-0.214C0.808,-0.228 0.825,-0.243 0.845,-0.26C0.854,-0.268 0.864,-0.278 0.873,-0.287C0.881,-0.295 0.886,-0.303 0.888,-0.315C0.884,-0.319 0.879,-0.324 0.873,-0.329L0.838,-0.361C0.826,-0.372 0.811,-0.382 0.796,-0.391C0.775,-0.403 0.752,-0.411 0.728,-0.416C0.712,-0.42 0.695,-0.421 0.678,-0.422C0.643,-0.421 0.608,-0.415 0.573,-0.402Z" style="fill:url(#_Linear1);fill-rule:nonzero;"/>
            </g>
        </g>
    </g>
    <defs>
        <linearGradient id="_Linear1" x1="0" y1="0" x2="1" y2="0" gradientUnits="userSpaceOnUse" gradientTransform="matrix(1,0,0,-1,0,-7.38428e-06)"><stop offset="0" style="stop-color:rgb(166,65,143);stop-opacity:1"/><stop offset="0" style="stop-color:rgb(166,65,143);stop-opacity:1"/><stop offset="0.32" style="stop-color:rgb(38,49,122);stop-opacity:1"/><stop offset="1" style="stop-color:rgb(111,186,131);stop-opacity:1"/></linearGradient>
    </defs>
</svg>
